<svg data-v-fde0c5aa="" xmlns="http://www.w3.org/2000/svg" viewBox="0 0 300 300" class="iconAboveSlogan"><!----><defs data-v-fde0c5aa=""><!----></defs><rect data-v-fde0c5aa="" fill="#F2F6EF" x="0" y="0" width="300px" height="300px" class="logo-background-square"></rect><defs data-v-fde0c5aa=""><!----></defs><g data-v-fde0c5aa="" id="2c12d8e4-d4c3-4b55-bc1e-f352e14cf536" fill="#2D3826" transform="matrix(7.914107799530029,0,0,7.914107799530029,46.048195385219344,133.71627710512473)"><path d="M1.06 13.78L2.11 13.78L2.11 8.55C2.11 7.80 2.02 6.47 1.96 5.73L2.00 5.73L2.67 7.70L4.16 11.27L4.80 11.27L6.27 7.70L6.92 5.73L6.97 5.73C6.92 6.47 6.83 7.80 6.83 8.55L6.83 13.78L7.90 13.78L7.90 4.54L6.52 4.54L5.03 8.47L4.52 9.97L4.47 9.97L3.93 8.47L2.44 4.54L1.06 4.54ZM10.02 13.78L11.07 13.78L11.07 8.55C11.07 7.80 10.98 6.47 10.92 5.73L10.96 5.73L11.63 7.70L13.12 11.27L13.76 11.27L15.23 7.70L15.88 5.73L15.93 5.73C15.88 6.47 15.79 7.80 15.79 8.55L15.79 13.78L16.86 13.78L16.86 4.54L15.48 4.54L13.99 8.47L13.48 9.97L13.43 9.97L12.89 8.47L11.40 4.54L10.02 4.54ZM19.03 13.78L20.20 13.78L20.20 9.42L24.04 9.42L24.04 13.78L25.21 13.78L25.21 4.54L24.04 4.54L24.04 8.41L20.20 8.41L20.20 4.54L19.03 4.54Z"></path></g><defs data-v-fde0c5aa=""><linearGradient data-v-fde0c5aa="" gradientTransform="rotate(25)" id="42f40c5f-5001-4bb5-b15a-4ddbb19b8e79" x1="0%" y1="0%" x2="100%" y2="0%"><stop data-v-fde0c5aa="" offset="0%" stop-color="#4F7E48" stop-opacity="1"></stop><stop data-v-fde0c5aa="" offset="100%" stop-color="#CAE6A5" stop-opacity="1"></stop></linearGradient></defs><g data-v-fde0c5aa="" id="90073c23-66e6-4b59-9f84-14d6f82b2e12" stroke="none" fill="url(#42f40c5f-5001-4bb5-b15a-4ddbb19b8e79)" transform="matrix(1.327968716621399,0,0,1.327968716621399,83.6008975872528,29.811821743097035)"><path d="M81.742 81.747c-.179-.199-4.381-4.83-10.362-6.954 1.887-5.962.795-11.994.732-12.323l-.249-1.32-1.34.104c-.437.033-10.767.903-16.15 7.931a29.963 29.963 0 0 0-2.873 4.532V53.354c.091.239.182.479.279.716 2.287 5.521 7.95 8.3 8.189 8.416l1.513.729.555-1.585c.088-.251 2.126-6.219-.161-11.741-1.25-3.017-3.197-6.049-5.336-7.61.197-.19.384-.39.562-.596 1.545 2.021 4.401 3.919 7.497 5.202 1.729.717 3.679 1.08 5.792 1.08 3.281 0 5.842-.882 5.949-.92l1.585-.555-.729-1.512c-.116-.24-2.895-5.903-8.416-8.189-1.867-.773-3.741-1.298-5.463-1.55 1.665-.263 3.464-.776 5.255-1.519 5.521-2.288 8.301-7.951 8.417-8.191l.729-1.513-1.585-.554c-.107-.038-2.668-.92-5.95-.92-2.114 0-4.062.363-5.793 1.08-2.617 1.084-4.926 2.528-6.503 4.066-.457.446-.82.872-1.115 1.277-.134-.14-.259-.29-.401-.421 2.103-1.581 4.012-4.572 5.244-7.546 2.288-5.522.248-11.491.16-11.742l-.554-1.584-1.513.729c-.239.115-5.902 2.895-8.188 8.416-.882 2.13-1.475 4.386-1.653 6.41-.19-1.996-.777-4.209-1.644-6.302-2.288-5.522-7.95-8.301-8.189-8.417l-1.514-.728-.554 1.585c-.088.251-2.126 6.221.161 11.742 1.249 3.017 3.196 6.048 5.335 7.61-.119.116-.235.234-.348.355-1.467-2.153-4.488-4.199-7.764-5.557-1.73-.717-3.68-1.08-5.793-1.08-3.282 0-5.842.882-5.949.919l-1.585.554.729 1.513c.116.24 2.894 5.902 8.416 8.189 2.684 1.112 5.392 1.724 7.625 1.724a9.08 9.08 0 0 0 1.796-.175 8.962 8.962 0 0 0-.006.519 9.487 9.487 0 0 0-1.53-.126c-2.232 0-4.94.612-7.624 1.724-5.522 2.288-8.301 7.95-8.417 8.19l-.729 1.513 1.585.554c.107.038 2.669.92 5.952.92 2.113 0 4.062-.363 5.792-1.08 2.08-.862 4.05-2.004 5.592-3.272-1.326 1.596-2.493 3.639-3.338 5.679-2.287 5.521-.248 11.49-.16 11.742l.554 1.585 1.513-.729c.24-.116 5.902-2.895 8.19-8.417.196-.474.372-.953.539-1.436v21.188a30.034 30.034 0 0 0-2.873-4.531c-5.383-7.027-15.713-7.897-16.15-7.931l-1.339-.104-.25 1.32c-.062.329-1.155 6.361.732 12.323-5.981 2.124-10.184 6.755-10.363 6.954l-.896 1.001.896 1.001c.292.326 7.265 7.999 16.118 7.999 3.704 0 7.322-.66 10.189-1.858.453-.189.758-.576.871-1.018 1.175-.091 2.215-.453 3.08-1.115.629-.482 1.114-1.102 1.486-1.812.373.711.857 1.33 1.486 1.812.864.662 1.904 1.024 3.079 1.115.112.441.418.828.871 1.018 2.866 1.198 6.484 1.858 10.188 1.858 8.853 0 15.825-7.673 16.117-7.999l.896-1.001-.897-.998zM32.315 30.839c-2.806-1.163-4.794-3.516-5.885-5.106.85-.159 1.936-.298 3.126-.298 1.717 0 3.28.287 4.645.852 5.098 2.113 7.07 4.911 6.828 5.495-.072.173-.735.554-2.237.554-1.821-.001-4.182-.546-6.477-1.497zm15.225-1.281a6.39 6.39 0 0 1 2.457-.491 6.413 6.413 0 0 1 5.943 3.971 6.436 6.436 0 0 1-5.936 8.89 6.412 6.412 0 0 1-5.942-3.969v-.001-.001a6.435 6.435 0 0 1 3.478-8.399zm2.28-3.482a8.61 8.61 0 0 0 .057-.414c.016.138.034.275.056.408-.037 0-.075.005-.113.006zm-6.521 16.028a9.424 9.424 0 0 0-.321.237c.085-.106.164-.213.242-.32l.079.083zm15.805 8.932c1.162 2.805.904 5.873.552 7.77-1.591-1.091-3.942-3.079-5.104-5.884-2.111-5.099-1.527-8.471-.862-8.726 1.054 0 3.589 2.436 5.414 6.84zm14.414-6.37c-.851.159-1.937.299-3.127.299-1.718 0-3.279-.287-4.644-.852-5.099-2.112-7.071-4.911-6.829-5.495.071-.173.734-.553 2.237-.553 1.821 0 4.183.545 6.477 1.495 2.806 1.162 4.795 3.516 5.886 5.106zm-13.536-14.83c1.291-1.259 3.315-2.514 5.556-3.442 1.364-.565 2.927-.852 4.645-.852 1.19 0 2.277.14 3.127.299-1.091 1.591-3.08 3.945-5.886 5.107-2.293.95-4.653 1.495-6.475 1.495-1.503 0-2.166-.38-2.238-.554-.075-.181.141-.95 1.271-2.053zM54.29 17.965c1.163-2.807 3.519-4.796 5.108-5.886.354 1.889.613 4.95-.556 7.772-1.825 4.404-4.36 6.84-5.416 6.84l-.079-.012c-.584-.242-1.168-3.615.943-8.714zm-7.978 8.834c-1.056 0-3.591-2.436-5.414-6.84-1.162-2.805-.904-5.874-.552-7.77 1.59 1.092 3.942 3.08 5.104 5.884 2.111 5.099 1.526 8.471.941 8.713-.007.004-.028.013-.079.013zm-11.85 17.803c-1.364.564-2.926.851-4.644.851a17.19 17.19 0 0 1-3.128-.299c1.091-1.591 3.08-3.944 5.885-5.107 2.294-.95 4.655-1.495 6.476-1.495 1.502 0 2.166.38 2.237.554.243.585-1.727 3.384-6.826 5.496zm10.727 8.212c-1.162 2.805-3.514 4.792-5.104 5.884-.353-1.896-.61-4.966.551-7.77 1.82-4.394 4.349-6.828 5.487-6.828h.008c.584.242 1.168 3.616-.942 8.714zM21.5 82.747c1.495-1.393 4.529-3.882 8.246-5.171.443.88.966 1.738 1.59 2.553 2.83 3.694 6.247 6.48 9.455 7.848-1.968.499-4.165.771-6.417.771-5.74 0-10.793-4.065-12.874-6.001zm25.19 2.628c-.465.356-1.076.537-1.815.537-2.652 0-7.13-2.352-11.156-7.607-3.492-4.559-3.336-11.044-3.064-13.871 2.798.47 9.087 2 12.59 6.574 4.837 6.316 5.698 12.641 3.445 14.367zm10.065-14.367c3.492-4.559 9.793-6.098 12.594-6.572.275 2.823.438 9.295-3.066 13.869-3.432 4.479-8.02 7.608-11.156 7.607-.739 0-1.351-.181-1.815-.536-2.254-1.727-1.394-8.052 3.443-14.368zm8.87 17.74c-2.252 0-4.449-.272-6.417-.771 3.208-1.366 6.625-4.153 9.455-7.848a16.18 16.18 0 0 0 1.591-2.553c3.719 1.289 6.753 3.78 8.248 5.173-2.074 1.936-7.114 5.999-12.877 5.999z"></path><path d="M50 33.748c.827 0 1.5.673 1.5 1.5a1 1 0 1 0 2 0c0-1.93-1.57-3.5-3.5-3.5a1 1 0 0 0 0 2zM33.5 67.748a1 1 0 1 0-2 0c0 8.822 6.056 16 13.5 16a1 1 0 1 0 0-2c-6.341 0-11.5-6.28-11.5-14zM68.5 67.748a1 1 0 1 0-2 0c0 7.72-5.159 14-11.5 14a1 1 0 1 0 0 2c7.444 0 13.5-7.178 13.5-16zM32.5 84.248c-4.12 0-6.298-1.08-6.5-1.525a1 1 0 0 0-2 .025c0 2.404 4.406 3.5 8.5 3.5a1 1 0 1 0 0-2zM67.5 84.248a1 1 0 1 0 0 2c4.094 0 8.5-1.096 8.5-3.5 0-.553-.445-1.019-.997-1.019a.982.982 0 0 0-.998.981c-.167.438-2.348 1.538-6.505 1.538z"></path></g><defs data-v-fde0c5aa=""><!----></defs><g data-v-fde0c5aa="" id="bdbd4aa7-ae6e-4440-b0ab-46ebde45b0dd" fill="#2D3826" transform="matrix(0.7374814748764038,0,0,0.7374814748764038,77.85587378672659,248.436289808966)"><path d="M0.64 15.68L0.64 5.88L2.88 5.88L4.20 15.18L4.37 15.18L5.68 5.88L7.92 5.88L7.92 15.68L6.83 15.68L6.83 6.38L6.66 6.38L5.35 15.68L3.22 15.68L1.90 6.38L1.74 6.38L1.74 15.68L0.64 15.68ZM22.67 15.68L21.95 13.24L17.75 13.24L17.04 15.68L15.78 15.68L18.75 5.88L20.96 5.88L23.93 15.68L22.67 15.68ZM19.94 6.38L19.77 6.38L18.07 12.15L21.63 12.15L19.94 6.38ZM33.56 11.31L33.56 15.68L32.38 15.68L32.38 5.88L33.56 5.88L33.56 10.22L33.88 10.22L37.65 5.88L39.10 5.88L39.10 5.96L35.04 10.70L35.04 10.86L39.27 15.60L39.27 15.68L37.79 15.68L33.88 11.31L33.56 11.31ZM48.02 15.68L48.02 5.88L53.96 5.88L53.96 6.97L49.20 6.97L49.20 10.22L53.87 10.22L53.87 11.31L49.20 11.31L49.20 14.59L54.04 14.59L54.04 15.68L48.02 15.68ZM78.48 15.68L78.48 5.88L80.72 5.88L82.04 15.18L82.21 15.18L83.52 5.88L85.76 5.88L85.76 15.68L84.67 15.68L84.67 6.38L84.50 6.38L83.19 15.68L81.06 15.68L79.74 6.38L79.58 6.38L79.58 15.68L78.48 15.68ZM94.72 15.68L94.72 5.88L100.66 5.88L100.66 6.97L95.90 6.97L95.90 10.22L100.58 10.22L100.58 11.31L95.90 11.31L95.90 14.59L100.74 14.59L100.74 15.68L94.72 15.68ZM125.57 15.68L125.57 5.88L126.74 5.88L126.74 10.22L130.91 10.22L130.91 5.88L132.09 5.88L132.09 15.68L130.91 15.68L130.91 11.31L126.74 11.31L126.74 15.68L125.57 15.68ZM147.21 15.68L146.50 13.24L142.30 13.24L141.58 15.68L140.32 15.68L143.29 5.88L145.50 5.88L148.47 15.68L147.21 15.68ZM144.48 6.38L144.31 6.38L142.62 12.15L146.17 12.15L144.48 6.38ZM160.37 11.65L158.05 11.65L158.05 15.68L156.87 15.68L156.87 5.88L160.37 5.88L160.37 5.88Q161.13 5.88 161.69 6.10L161.69 6.10L161.69 6.10Q162.25 6.31 162.62 6.68L162.62 6.68L162.62 6.68Q162.99 7.04 163.18 7.53L163.18 7.53L163.18 7.53Q163.37 8.01 163.37 8.54L163.37 8.54L163.37 8.96L163.37 8.96Q163.37 9.49 163.18 9.98L163.18 9.98L163.18 9.98Q162.99 10.47 162.61 10.84L162.61 10.84L162.61 10.84Q162.23 11.21 161.67 11.43L161.67 11.43L161.67 11.43Q161.11 11.65 160.37 11.65L160.37 11.65ZM158.05 6.97L158.05 10.56L160.23 10.56L160.23 10.56Q162.19 10.56 162.19 8.88L162.19 8.88L162.19 8.62L162.19 8.62Q162.19 7.88 161.71 7.43L161.71 7.43L161.71 7.43Q161.22 6.97 160.23 6.97L160.23 6.97L158.05 6.97ZM175.94 11.65L173.61 11.65L173.61 15.68L172.44 15.68L172.44 5.88L175.94 5.88L175.94 5.88Q176.69 5.88 177.25 6.10L177.25 6.10L177.25 6.10Q177.81 6.31 178.19 6.68L178.19 6.68L178.19 6.68Q178.56 7.04 178.75 7.53L178.75 7.53L178.75 7.53Q178.93 8.01 178.93 8.54L178.93 8.54L178.93 8.96L178.93 8.96Q178.93 9.49 178.75 9.98L178.75 9.98L178.75 9.98Q178.56 10.47 178.18 10.84L178.18 10.84L178.18 10.84Q177.80 11.21 177.24 11.43L177.24 11.43L177.24 11.43Q176.68 11.65 175.94 11.65L175.94 11.65ZM173.61 6.97L173.61 10.56L175.80 10.56L175.80 10.56Q177.76 10.56 177.76 8.88L177.76 8.88L177.76 8.62L177.76 8.62Q177.76 7.88 177.28 7.43L177.28 7.43L177.28 7.43Q176.79 6.97 175.80 6.97L175.80 6.97L173.61 6.97ZM190.51 15.68L190.51 12.24L190.26 12.24L187.19 5.88L188.51 5.88L191.02 11.23L191.18 11.23L193.69 5.88L195.01 5.88L191.94 12.24L191.69 12.24L191.69 15.68L190.51 15.68Z"></path></g></svg>