<?xml version="1.0" encoding="UTF-8"?>
<svg id="Layer_2" data-name="Layer 2" xmlns="http://www.w3.org/2000/svg" viewBox="0 0 166.98 182.3">
  <defs>
    <style>
      .cls-1 {
        fill: #fefefe;
      }

      .cls-2 {
        fill: #8e3f59;
      }

      .cls-3 {
        fill: #ad4d6c;
      }

      .cls-4 {
        fill: #3e164a;
      }

      .cls-5 {
        fill: #64446c;
      }

      .cls-6 {
        fill: #350b40;
      }

      .cls-7 {
        fill: #7a364d;
      }
    </style>
  </defs>
  <g id="OBJECTS">
    <g>
      <path class="cls-6" d="M3,69.8c-.07,0-.15,0-.23,.01-.32,.03-.6,.15-.93,.31-.51,.26-.94,.65-1.3,1.21-.27,.42-.44,.96-.51,1.62-.06,.6-.04,1.26,.08,2,.28,1.74,.92,3.38,1.45,4.61,.8,1.89,1.82,3.85,3.11,6.01,.23,.39,.46,.77,.71,1.15-.45-.17-.88-.25-1.3-.25-.57,0-1.11,.15-1.61,.44-.33,.2-.63,.52-.9,.96-.2,.33-.35,.74-.43,1.21-.16,.87-.08,1.85,.27,3.11,.28,1.02,.77,2.1,1.5,3.29,.54,.9,1.25,1.81,2.17,2.79,1.45,1.55,3.25,2.96,5.65,4.44,1.01,.62,2.15,1.26,3.58,2-.11,0-.21,.04-.32,.08-.46,.18-.87,.45-1.24,.84-.13,.14-.24,.31-.34,.48l-.06,.09c-.09,.15-.15,.31-.2,.45-.08,.23-.14,.45-.18,.69-.03,.23-.04,.49-.03,.83,.02,.49,.14,.97,.27,1.38,.18,.59,.48,1.14,.72,1.57,.5,.87,1.2,1.75,2.16,2.67,.72,.7,1.59,1.37,2.74,2.13,1.8,1.19,3.88,2.23,6.54,3.26,2.38,.93,4.78,1.66,7.03,2.31,0,0,.02,0,.03,0,.24,0,.4-.15,.44-.32,.04-.21-.09-.4-.31-.47-.48-.14-.96-.29-1.45-.44,1.51-.64,2.96-1.6,4.31-2.86,1.47-1.37,2.65-2.91,3.49-4.59,.85-1.71,1.19-3.51,.97-5.21-.08-.64-.26-1.28-.53-1.9,.03,.03,.06,.03,.1,.04,.29,.07,.57,.16,.85,.25,.11,.03,.19,.05,.27,.05,.22,0,.48-.08,.68-.21,.27-.18,.46-.47,.52-.79,.06-.31,0-.64-.18-.9l-.2-.22c-.19-.17-.38-.26-.6-.3l-.09-.03-.15-.04c-.24-.09-.47-.2-.7-.31l-.21-.1-.24-.11-.76-.35c-.67-.32-1.34-.64-1.99-.98-1.31-.68-2.64-1.46-3.96-2.33-4.44-2.97-8.81-6.92-13.36-12.07l-.15-.18c-.52-.59-1-1.12-1.42-1.69-.33-.44-.64-.89-.94-1.34-.38-.56-.76-1.12-1.14-1.68-.51-.75-1.01-1.5-1.52-2.24-1.18-1.69-2.18-3.1-3.25-4.49-.87-1.13-2.05-2.59-3.38-3.87-.52-.51-1.01-.91-1.49-1.23-.43-.29-.96-.6-1.57-.73-.16-.03-.32-.05-.47-.05"/>
      <path class="cls-2" d="M86.09,131.72c-.23,0-.46,0-.69,.01-2.44,.07-5.05,.66-7.54,1.72-1.13,.48-2.26,1.1-3.33,1.82-1.07,.72-2.03,1.58-2.83,2.55-.66,.79-1.21,1.73-1.65,2.78-.34,.83-.6,1.79-.79,2.95-.21,1.25-.27,2.53-.34,3.77l-.04,.79c-.08,1.43-.21,2.97-.57,4.5l-.02,.12h0c-.28,1.04-.67,2.01-1.15,2.89-.35,.6-.75,1.18-1.22,1.77-.42,.51-.87,.98-1.41,1.55-.2,.21-.46,.47-.72,.73-1.29,1.28-2.62,2.61-3.55,4.21-.59,1.02-.97,2.08-1.1,3.15-.07,.57-.04,1.15-.01,1.59,.03,.4,.09,.81,.19,1.26,.33,1.56,1.04,3.06,2.11,4.45,.95,1.23,2.22,2.38,3.79,3.4,2.8,1.85,6.32,3.19,10.45,3.98,1.78,.34,3.6,.54,5.41,.59,.29,0,.58,.01,.87,.01,1.48,0,2.8-.1,4.05-.31,1.76-.3,3.44-.9,5-1.79,1.04-.59,1.97-1.28,2.76-2.03,.41-.4,.79-.81,1.12-1.22,.33-.41,.63-.88,.95-1.48,.51-.97,.8-2.06,.81-3.17,.02-1.18-.24-2.31-.75-3.27-.83-1.56-2.33-2.77-4.72-3.83-1.39-.62-2.83-1.05-4.56-1.52,.72-.2,1.43-.45,2.12-.73,1.25-.51,2.53-1.18,3.93-2.06,1.06-.66,1.95-1.33,2.72-2.06,.72-.68,1.39-1.45,1.97-2.27,1.11-1.56,1.92-3.37,2.42-5.37,.45-1.85,.59-3.8,.41-5.8-.12-1.27-.4-2.59-.84-3.91-.4-1.22-.97-2.4-1.74-3.63-.68-1.1-1.54-2.12-2.61-3.14-.98-.93-2.11-1.73-3.47-2.45-.07-.04-.16-.06-.26-.06-.12,0-.23,.02-.33,.07-.06,.03-.12,.06-.17,.11-.46-.14-.95-.27-1.47-.37-.95-.19-1.99-.29-3.17-.29"/>
      <path class="cls-3" d="M92.05,76.4h-.13c-3.65,0-7.32,.56-10.86,1.11-2.57,.4-5.24,.81-7.88,1-.43,.03-.75,.37-.74,.78,0,.17,.07,.33,.18,.47-8.86,1.38-16.81,4.1-23.62,8.07-3.8,2.21-7.23,4.87-10.19,7.88-3.04,3.1-5.56,6.64-7.49,10.53-1.62,3.26-2.83,6.86-3.59,10.69-.46,2.32-.72,4.65-.78,6.92-.05,1.96,.08,4.04,.38,6.19-.65-.09-1.31-.12-1.95-.12-.93,0-1.85,.08-2.73,.23-1.74,.3-3.42,.92-4.99,1.85-2.9,1.7-5.39,4.44-7.21,7.91-1.74,3.32-2.83,7.03-3.23,11.04-.18,1.88-.19,3.81-.01,5.75,.17,1.87,.54,3.7,1.09,5.42,.56,1.7,1.5,3.31,2.72,4.66,1.12,1.24,2.53,2.27,4.17,3.07,1.44,.69,3.11,1.14,4.82,1.3,.41,.04,.82,.05,1.23,.05,1.26,0,2.5-.17,3.69-.5,1.55-.43,2.97-1.13,4.23-2.08,1.26-.95,2.35-2.22,3.15-3.66,.99-1.79,1.59-3.94,1.77-6.4,.1-1.28,.07-2.64-.1-4.29-.1-.96-.26-1.99-.5-3.14,.39,.26,.8,.51,1.23,.73,.88,.46,1.84,.85,2.94,1.2,1.74,.55,3.63,.83,5.61,.83,.17,0,.35,0,.52,0,3.65-.09,7.32-1.25,10.34-3.25,1.28,.55,2.62,1.02,3.98,1.39,1.41,.39,2.88,.64,4.37,.75,.87,.06,1.75,.1,2.62,.1,1.51,0,3.01-.1,4.48-.3,4.4-.6,8.75-2.14,12.56-4.47,3.65-2.22,6.98-5.31,9.65-8.92,2.67-3.62,4.68-7.76,6-12.31,.66-2.3,1.13-4.88,1.48-8.15,.24-2.35,.4-4.74,.54-7.06l.12-1.94-.03,.19c.37-5.11,.8-10.09,2.34-14.74l.05-.19h0c.34-.92,.75-1.92,1.21-2.85l.14-.02c.56-.1,1.12-.21,1.68-.3,1.31-.23,2.62-.44,3.94-.64,1.23-.19,2.47-.37,3.7-.56,1.5-.22,3-.45,4.5-.68,3.27-.51,5.79-.97,8.17-1.49,2.92-.64,5.45-1.35,7.73-2.17,.22-.08,.37-.2,.46-.36,.09-.17,.12-.38,.07-.57-.09-.32-.41-.57-.73-.57-.07,0-.14,.01-.21,.03-1.52,.55-3.12,1.04-4.89,1.5-.06-.12-.16-.23-.29-.3-2.56-1.37-5.35-2.71-8.54-4.1-1.27-.56-2.79-1.21-4.33-1.79-1.34-.51-2.79-.98-4.41-1.41-2.72-.74-5.69-1.28-9.09-1.67-1.42-.16-2.93-.3-4.63-.41-1.41-.09-3.06-.19-4.68-.2"/>
      <path class="cls-3" d="M130.41,85.39c-2.69,.5-5.36,1.17-8.09,1.45-.41,.04-.67,.5-.59,.88,.04,.19,.14,.36,.3,.47,.18,.12,.36,.14,.57,.12,2.73-.28,5.39-.96,8.09-1.45,.4-.07,.68-.48,.6-.88-.06-.36-.39-.61-.74-.61-.04,0-.09,0-.13,.01"/>
      <path class="cls-3" d="M131.74,85.36c-3.2,.71-6.41,1.45-9.69,1.62h.2c-.25,0-.51,0-.77,.02-.21,0-.38,.03-.55,.18-.15,.13-.25,.31-.26,.51-.02,.2,.05,.39,.18,.55,.12,.14,.32,.27,.51,.26,1.8-.04,3.6-.25,5.37-.56,1.78-.3,3.53-.71,5.29-1.1,.4-.09,.68-.46,.6-.88-.07-.34-.38-.61-.73-.61-.05,0-.1,0-.15,.02"/>
      <path class="cls-3" d="M131.99,85.64c-2.76,.59-5.52,1.28-8.35,1.45,.07,0,.13,0,.2,0-.51,.02-1.02,.03-1.53,.02-.41,0-.78,.26-.81,.69-.04,.39,.27,.8,.68,.81,3.43,.07,6.75-.77,10.08-1.48,.4-.09,.68-.47,.6-.88-.07-.35-.39-.61-.74-.61-.05,0-.09,0-.14,.01"/>
      <path class="cls-3" d="M133.13,85.13c-3.71,1.1-7.53,1.84-11.39,2.06-.18,0-.38,.16-.47,.3-.12,.16-.16,.38-.12,.57,.04,.19,.15,.36,.31,.48,.18,.12,.36,.13,.57,.12,3.86-.21,7.68-.96,11.39-2.05,.2-.06,.35-.13,.47-.31,.12-.16,.16-.38,.12-.57-.04-.19-.15-.36-.31-.48-.11-.08-.28-.14-.43-.14-.05,0-.09,0-.14,.02"/>
      <path class="cls-2" d="M91.91,76.38c-3.62,0-7.25,.56-10.77,1.1-2.62,.41-5.3,.82-7.97,1.01-.45,.04-.77,.39-.76,.8,0,.17,.07,.34,.19,.48-8.83,1.34-16.78,4.06-23.61,8.04-3.8,2.21-7.23,4.86-10.19,7.88-3.04,3.1-5.56,6.65-7.49,10.54-1.62,3.26-2.84,6.85-3.6,10.7-.46,2.36-.72,4.68-.78,6.92-.05,1.94,.08,4.02,.38,6.19-.59-.1-1.24-.15-1.93-.15-.92,0-1.84,.08-2.73,.23-1.76,.31-3.44,.93-5,1.86-2.91,1.71-5.41,4.45-7.22,7.92-1.32,2.5-2.26,5.23-2.82,8.15,.85-2.32,2.02-4.53,3.54-6.48,.6-.77,1.24-1.5,1.94-2.19,.7-.69,1.45-1.32,2.24-1.91,1.56-1.15,3.29-2.07,5.12-2.73,1.92-.7,3.94-1.12,5.98-1.26,.57-.04,1.15-.06,1.73-.06,.52,0,1.04,.02,1.56,.05,1.09,.07,2.16,.21,3.23,.41-.03-.65-.05-1.3-.04-1.95,0-.6,.02-1.2,.05-1.8,.06-1.21,.16-2.41,.31-3.62,.31-2.4,.78-4.78,1.41-7.11,.65-2.39,1.46-4.73,2.43-7,.92-2.18,1.98-4.3,3.19-6.33,1.36-2.3,2.88-4.51,4.61-6.55,1.57-1.87,3.28-3.62,5.13-5.23,3.73-3.24,7.94-5.94,12.48-7.9,4.48-1.94,9.26-3.21,14.13-3.57,.13,0,.27-.02,.4-.03,.05-.03,.1-.04,.16-.05,1.86-.17,3.72-.32,5.59-.5,0,0,0,0,.01,0,0,0,0,0-.01,0,0,0,0,0,0,0,2.42-.24,4.84-.52,7.23-.97,2.31-.43,4.6-1,6.8-1.83,0,0,.01,0,.02,0h0s0,0,0,0c.91-.35,1.8-.74,2.66-1.19,.71-.38,1.38-.78,2.04-1.23-.06,0-.11-.01-.17-.02-1.42-.16-2.94-.29-4.63-.41h-.21c-1.22-.09-2.89-.19-4.47-.2h-.13Zm-9.07,5.85s-.03,0-.05,0c.02,0,.03,0,.05,0"/>
      <path class="cls-2" d="M16.4,162.51c-.19,.04-.3,.22-.26,.41,.04,.24,.07,.49,.09,.74v-.02s0,.02,0,.04c.03,.73-.02,1.45-.15,2.17-.08,.39-.18,.78-.3,1.16-.14,.42-.31,.83-.5,1.23-.24,.45-.52,.86-.84,1.26,.3,.16,.61,.33,.92,.48,.1,.05,.19,.1,.29,.14,.47-.93,.8-1.93,1.02-2.95,.32-1.43,.39-2.93,.14-4.38-.03-.16-.18-.27-.34-.27-.02,0-.05,0-.07,0m-1.07,5.62s-.04,.07-.05,.1c.02-.03,.03-.07,.05-.1"/>
      <path class="cls-2" d="M16.22,163.67s0,0,0-.01c0,0,0,0,0,.01"/>
      <path class="cls-2" d="M26.27,162.63c-.19,.04-.33,.24-.29,.43,.13,.56,.22,1.11,.26,1.68,.06,1.05,.01,2.09-.18,3.12-.17,.74-.4,1.46-.74,2.15-.13,.25-.27,.49-.43,.72,.04-.01,.08-.02,.12-.03,.28-.07,.55-.15,.82-.24,.44-.19,.87-.39,1.3-.62,.13-.76,.2-1.53,.2-2.31,0-1.57-.25-3.1-.62-4.62-.04-.17-.19-.29-.36-.29-.03,0-.05,0-.08,0"/>
      <path class="cls-2" d="M58.53,128.41c-.26,.1-.48,.31-.59,.57-.12,.27-.11,.54-.02,.82,.1,.32,.18,.64,.26,.97,.44,1.84,.63,3.73,.62,5.62-.04,1.94-.3,3.85-.82,5.72-.47,1.58-1.12,3.1-1.98,4.51,.04-.07,.09-.15,.13-.22-.75,1.22-1.62,2.37-2.65,3.37-.69,.63-1.44,1.18-2.26,1.64-1.16,.62-2.39,1.07-3.67,1.39,.05-.01,.1-.02,.15-.03-.85,.21-1.7,.37-2.56,.47-.88,.1-1.77,.12-2.65,.11,.03,0,.06,0,.09,0-.93-.02-1.85-.09-2.77-.21-.95-.13-1.87-.34-2.79-.6,0,0,0,0,.01,0-1.62-.47-3.18-1.16-4.62-2.04,.02,.01,.04,.02,.06,.03-1.14-.71-2.2-1.55-3.13-2.53-.68-.74-1.28-1.55-1.78-2.43-.07-.12-.25-.13-.35-.05-.12,.09-.12,.23-.06,.35,1.01,1.78,2.39,3.3,4.01,4.53,1.66,1.27,3.57,2.18,5.55,2.84,3.98,1.33,8.4,1.54,12.45,.39,2-.57,3.85-1.54,5.49-2.81,.85-.66,1.63-1.44,2.31-2.27,.32-.39,.61-.82,.88-1.24,.32-.51,.62-1.03,.9-1.56,.5-.96,.9-1.97,1.23-2.99,.35-1.09,.62-2.2,.81-3.33,.19-1.13,.28-2.27,.29-3.42,.02-1.07-.05-2.15-.2-3.21-.1-.68-.24-1.35-.4-2.01-.07-.28-.14-.56-.22-.84-.09-.31-.21-.61-.32-.92-.14-.43-.58-.69-1.01-.69-.13,0-.25,.02-.37,.07m-.33,2.47s.02,.07,.03,.1c0-.03-.02-.07-.03-.1m.59,5.6v.17c0-.06,0-.11,0-.17m-5.37,13.33s-.02,.02-.04,.04c.01-.01,.02-.02,.04-.04m-2.22,1.6s-.09,.05-.14,.07c.04-.02,.09-.05,.14-.07m-14.29,1.1s.04,.01,.06,.01c-.02,0-.04,0-.06-.01m-4.44-1.97s-.01,0-.02-.01c0,0,.01,0,.02,.01"/>
      <path class="cls-3" d="M71.18,86.28c-.28,0-.56,.01-.83,.03-2.01,.15-3.99,.9-5.73,2.17-1.64,1.2-3.05,2.8-4.19,4.76-1.07,1.85-1.82,3.98-2.18,6.16-.14,.83-.21,1.65-.23,2.44-.25,.15-.39,.45-.36,.75,.24,2.25,.8,4.56,1.64,6.87,.78,2.13,1.85,4.26,3.26,6.52,2.56,4.09,5.97,7.81,10.12,11.05,1.89,1.48,4.01,2.86,6.3,4.09,2.14,1.16,4.39,2.1,6.68,2.82,1.08,.34,2.21,.62,3.45,.88,1.24,.25,2.28,.39,3.25,.44,.31,.02,.63,.03,.95,.03,1.68,0,3.44-.25,5.21-.74,1.06-.3,2.09-.66,3.05-1.07,.91-.39,1.84-.88,2.86-1.5,1.79-1.1,3.34-2.44,4.62-4,.59-.72,1.12-1.55,1.58-2.45,.41-.8,.71-1.67,.93-2.67,.4-1.83,.22-3.82-.52-5.76-.27-.72-.65-1.44-1.18-2.28-.46-.73-1.03-1.47-1.74-2.24-.79-.87-1.57-1.53-2.36-2.01-.72-.43-1.52-.73-2.37-.89-.33-.06-.69-.09-1.07-.09s-.77,.03-1.22,.09c-.78,.1-1.57,.31-2.27,.5l-.25,.07c-1.53,.41-3.11,.84-4.73,.9h0c-.7,0-1.31-.06-1.92-.2-.59-.16-1.13-.36-1.64-.62-.59-.33-1.16-.74-1.68-1.22-.74-.72-1.4-1.56-2.03-2.59-.65-1.1-1.24-2.36-1.81-3.86-.37-.97-.71-1.97-1.03-2.93-.22-.64-.43-1.29-.66-1.93-.71-2-1.41-3.6-2.21-5.04-.92-1.68-2.06-3.26-3.39-4.69-.14-.16-.33-.26-.53-.28-1.11-.57-2.23-.99-3.33-1.23-.8-.18-1.63-.27-2.45-.27"/>
      <path class="cls-2" d="M82.79,99.29c.3,1.48,.61,2.98,1.05,4.43,0-.02-.01-.04-.02-.06,.17,.53,.36,1.07,.59,1.59,.27,.59,.6,1.16,.94,1.72h0c.38,.6,.78,1.17,1.23,1.72,.44,.54,.91,1.06,1.42,1.54h0s.02,.02,.03,.03h0s0,0,0,0h0s0,0,0,0c.39,.36,.81,.71,1.24,1.02,.4,.28,.8,.53,1.23,.75h0c.36,.18,.72,.35,1.09,.48,.33,.11,.66,.21,1,.29,0,0,0,0,0,0,.35,.07,.69,.12,1.05,.15,.32,.02,.64,.02,.96,0,0,0,0,0-.01,0,.01,0,.03,0,.04,0h.02c.7-.05,1.4-.16,2.08-.33,.7-.17,1.39-.38,2.09-.59,1.32-.4,2.64-.81,4.02-.91,.65-.05,1.31-.06,1.95,.02,.6,.06,1.2,.16,1.77,.32,.21,.06,.41,.12,.62,.2l-.1-.12c-.43-.38-.86-.7-1.3-.97-.71-.43-1.52-.73-2.38-.9-.34-.06-.7-.09-1.07-.09-.35,0-.75,.03-1.22,.09-.77,.1-1.54,.3-2.27,.5l-.25,.07c-1.53,.41-3.11,.83-4.73,.89-.7,0-1.3-.06-1.92-.19-.57-.15-1.1-.35-1.64-.61-.59-.34-1.16-.75-1.68-1.22-.72-.7-1.39-1.54-2.02-2.58-.65-1.11-1.24-2.38-1.81-3.86-.33-.85-.62-1.73-.91-2.59l-.05-.15-.07-.19c-.22-.65-.43-1.29-.66-1.93-.45-1.26-.89-2.36-1.35-3.34,.41,1.61,.71,3.24,1.04,4.86m2.56,7.67s0,0,0,0c0,0,0,0,0,0h0m0,0s.01,.02,.02,.04c0-.01-.02-.03-.02-.04m9.27,5.97h0Z"/>
      <polygon class="cls-2" points="88.04 110.25 88.04 110.25 88.04 110.25 88.04 110.25 88.03 110.25 88.04 110.25"/>
      <polygon class="cls-2" points="88.04 110.26 88.04 110.26 88.04 110.25 88.04 110.26"/>
      <polyline class="cls-2" points="103.78 127.48 103.78 127.48 103.78 127.48"/>
      <path class="cls-2" d="M59.28,109.47c.78,2.14,1.85,4.27,3.26,6.52,2.57,4.1,5.97,7.82,10.13,11.06,1.91,1.5,4.03,2.88,6.3,4.09,2.13,1.15,4.38,2.1,6.68,2.82,1.12,.35,2.25,.64,3.45,.88,1.25,.25,2.28,.39,3.26,.44,.32,.02,.63,.02,.95,.02,1.68,0,3.44-.25,5.22-.74,1.05-.29,2.07-.65,3.05-1.08,.91-.39,1.85-.88,2.86-1.5,1.79-1.1,3.35-2.44,4.62-4,.59-.72,1.12-1.55,1.59-2.47,.41-.8,.71-1.67,.94-2.67,.25-1.15,.27-2.36,.07-3.59-.04-.23-.09-.46-.14-.7-.09-.37-.19-.74-.32-1.11-.03,.17-.06,.35-.09,.52-.15,.77-.35,1.52-.62,2.25-.25,.67-.55,1.33-.9,1.96-.71,1.28-1.62,2.46-2.69,3.48-1.07,1.03-2.28,1.92-3.58,2.65-1.72,.97-3.57,1.68-5.49,2.13-1.95,.46-3.96,.68-5.96,.62-1.01-.03-2.02-.12-3.01-.28-1.28-.21-2.54-.5-3.79-.86-2.6-.75-5.11-1.79-7.5-3.06-2.43-1.29-4.74-2.8-6.91-4.48-1.09-.85-2.14-1.73-3.16-2.66-1.02-.92-2.02-1.87-2.92-2.91-.91-1.04-1.73-2.15-2.47-3.31-.71-1.11-1.35-2.25-1.96-3.42-.66-1.28-1.27-2.59-1.87-3.9,.27,1.09,.6,2.18,1,3.27"/>
      <path class="cls-2" d="M99.19,107.75c-1,.22-1.93,.64-2.77,1.23-.75,.54-1.41,1.25-1.77,2.11-.16,.38-.01,.82,.37,1,.36,.16,.84,0,1-.37,.05-.14,.12-.26,.19-.39,.18-.27,.39-.51,.62-.74,0,0-.01,.01-.02,.02,.36-.32,.76-.6,1.18-.83,.46-.23,.93-.41,1.43-.54,.38-.08,.77-.12,1.16-.12,.25,.02,.5,.06,.75,.12,.17,.06,.34,.14,.51,.23,.15,.1,.29,.22,.42,.36,.11,.14,.22,.29,.31,.45,.03,.07,.06,.13,.09,.2,.16,.38,.57,.59,.96,.45,.37-.14,.6-.59,.44-.97-.09-.23-.21-.44-.33-.66-.14-.23-.32-.43-.5-.62-.32-.35-.75-.61-1.19-.77-.51-.2-1.05-.29-1.6-.29-.42,0-.84,.05-1.25,.14m.34,1.45s-.05,.01-.07,.02c.02,0,.04-.01,.07-.02m-.12,.03s-.04,0-.06,.01h.06Zm-1.31,.47s-.06,.03-.09,.05c.03-.02,.06-.03,.09-.05"/>
      <path class="cls-2" d="M100.26,108.74c-.56,.06-1.11,.2-1.66,.35-1,.29-1.97,.76-2.83,1.36-.34,.23-.41,.71-.18,1.04,.24,.34,.71,.42,1.05,.18,.29-.21,.6-.39,.92-.56,.64-.32,1.3-.56,2-.74,.62-.14,1.25-.21,1.89-.21,.02,0,.05,0,.07,0,.2,0,.37,0,.55-.13,.16-.11,.28-.29,.31-.49,.03-.19-.01-.39-.12-.55-.1-.15-.3-.31-.49-.31-.16,0-.32,0-.48,0-.34,0-.67,.02-1.01,.05"/>
      <path class="cls-2" d="M100.9,108.7c-.81,.05-1.6,.22-2.37,.49-.39,.13-.58,.59-.44,.96,.14,.39,.58,.57,.97,.44,.26-.09,.53-.17,.81-.24,.39-.08,.79-.13,1.19-.16,.41-.03,.71-.43,.67-.82-.04-.4-.38-.67-.77-.67-.02,0-.04,0-.05,0m-1.07,1.66s-.05,.01-.07,.02c.02,0,.05-.01,.07-.02"/>
      <path class="cls-2" d="M107.89,113.06c-.69,.62-1.45,1.15-2.27,1.6-.02,0-.03,.01-.05,.03-.36,.18-.73,.35-1.12,.49-.42,.16-.86,.29-1.3,.39h-.05c-.39,.09-.77,.15-1.16,.18-.13,0-.24,.14-.22,.27,.02,.14,.14,.23,.27,.22,.3-.02,.61-.05,.91-.08,.36-.04,.72-.11,1.08-.19,.71-.16,1.39-.41,2.06-.67,.3-.12,.59-.26,.88-.4,.32-.16,.64-.33,.94-.52,.38-.24,.75-.52,1.1-.82-.25-.27-.5-.53-.76-.8-.1,.1-.21,.2-.31,.3m0,0s-.06,.05-.09,.08c.03-.03,.06-.05,.09-.08"/>
      <path class="cls-2" d="M105.55,114.7s.02,0,.03-.01c0,0-.02,0-.03,.01"/>
      <polyline class="cls-2" points="105.57 114.68 105.58 114.68 105.57 114.68"/>
      <path class="cls-2" d="M103.14,115.57s.01,0,.02,0c0,0-.01,0-.02,0"/>
      <path class="cls-2" d="M110.9,119.52s0,0,0,0l-.02,.02s0,0,0,0c0,0,0,0-.01,0h0s0,0,0,0c-.02,.02-.03,.03-.05,.04,.01-.01,.03-.03,.04-.04-.78,.69-1.66,1.24-2.57,1.73,0,0,0,0,0,0,0,0,0,0,0,0-.93,.47-1.9,.83-2.91,1.08-.01,0-.03,0-.04,.01h0s-.01,0-.02,0h0c-.09,.02-.18,.04-.27,.06-.13,.03-.24,.12-.22,.27,.01,.12,.14,.25,.27,.22,1.45-.31,2.85-.81,4.18-1.46,.64-.32,1.25-.68,1.85-1.05,.21-.13,.43-.26,.63-.4-.02-.14-.03-.29-.05-.43-.05-.25-.1-.51-.15-.76-.21,.23-.43,.46-.67,.68"/>
      <path class="cls-2" d="M108.28,121.29s0,0,.01,0c0,0,0,0,0,0,0,0,0,0-.01,0"/>
      <path class="cls-2" d="M110.89,119.54s0,0,.01,0c0,0,0,0,0,0,0,0-.01,0-.02,.01"/>
      <path class="cls-2" d="M110.87,119.55s0,0,0,0c0,0,0,0,0,0"/>
      <polyline class="cls-2" points="108.29 121.29 108.3 121.28 108.29 121.29"/>
      <path class="cls-2" d="M105.32,122.39h.01s-.01,0-.01,0"/>
      <path class="cls-3" d="M123.39,0s-.09,0-.13,0c-1-.03-1.87,.19-2.6,.64-.71,.45-1.34,1.11-1.88,1.96-.65,1.03-1.13,2.26-1.51,3.86-.15,.63-.25,1.2-.33,1.76-3.6-2.2-7.53-3.75-11.66-4.62-1.85-.39-3.77-.64-5.71-.75-2.47-.14-4.99-.04-7.48,.28-4.35,.57-8.61,1.81-12.68,3.7-2.03,.94-4,2.02-5.85,3.24-1.79,1.16-3.58,2.53-5.32,4.07-3.34,2.95-6.19,6.4-8.48,10.25-1.18,1.99-2.24,4.17-3.22,6.66-.93,2.36-1.65,4.76-2.15,7.14-.95,4.53-1.06,9.05-.33,13.45,.35,2.13,.89,4.25,1.62,6.31,.71,1.98,1.62,3.99,2.72,5.97,2.04,3.7,4.81,7.32,8.24,10.77,1.61,1.62,3.35,3.18,5.33,4.77,1.75,1.4,3.69,2.8,6.11,4.39l.46,.3c.7,.47,1.43,.95,2.18,1.37,.95,.53,1.92,.93,2.9,1.18,.04,.01,.09,.02,.13,.02,.1,0,.19,0,.28-.04,4.34,.71,9.04,1.2,14.35,1.49,5.11,.28,10.29,.36,15.13,.41l.11-.02h0s.07,.02,.11,.02c.12,0,.24-.01,.35-.06,.38-.16,.84-.35,1.3-.49,.7-.19,1.41-.27,2.02-.33,.85-.08,1.72-.1,2.45-.11,1.03-.02,2.06-.01,3.1,0,1.99,0,4.05,.02,6.06-.12,1.68-.12,3.01-.31,4.2-.62,1.46-.38,2.56-.89,3.46-1.58,.49-.38,.92-.85,1.25-1.36,.35-.55,.6-1.18,.75-1.92,.13-.64,.15-1.37,.05-2.25-.07-.62-.21-1.28-.43-2.04,1.37,.33,2.81,.53,4.27,.61,.25,.01,.49,.02,.74,.03,1.95,.05,3.85-.12,5.65-.5,1.87-.4,3.62-1.04,5.19-1.89,.82-.45,1.61-.96,2.33-1.51,.69-.54,1.39-1.18,2.05-1.9,1.2-1.29,2.21-2.88,3.08-4.86,.77-1.76,1.37-3.69,1.81-5.89,.41-2.02,.62-4.17,.65-6.41,.03-2.23-.14-4.46-.5-6.64-.58-3.5-1.64-6.73-3.15-9.61-1.62-3.1-3.71-5.6-6.2-7.46-.12-.09-.27-.14-.41-.15-.07,0-.14,0-.2,.02-.12-.19-.34-.31-.58-.32-.08,0-.16,0-.24,.02-1,.26-2.03,.46-3.05,.62l-.16,.04h0c-1.88,.24-3.72,.32-5.47,.22-.45-.03-.91-.06-1.36-.11-1.42-.18-2.63-.46-3.71-.86-.85-.33-1.66-.77-2.41-1.3-.7-.52-1.33-1.11-1.86-1.74-.46-.59-.84-1.21-1.13-1.83-.21-.53-.35-1.02-.44-1.52-.05-.44-.06-.86-.02-1.29,.06-.41,.16-.8,.29-1.17,.19-.44,.41-.85,.68-1.23,.33-.43,.68-.81,1.03-1.11,.57-.44,1.21-.77,1.84-1.09,.66-.34,1.34-.69,1.93-1.16,.14-.11,.28-.23,.41-.36,.14-.14,.26-.3,.37-.46,.22-.31,.28-.68,.31-.97,.04-.38-.11-.75-.26-1.07-.07-.15-.18-.29-.28-.42-.15-.2-.33-.41-.56-.62-.5-.48-1.15-.8-1.94-.94,.79-.38,1.48-.78,2.13-1.22,1.58-1.06,2.58-2.23,2.97-3.49,.44-1.42-.02-3.11-1.19-4.42-.51-.57-1.17-1.01-1.95-1.32-.55-.22-1.2-.36-1.93-.4-.12,0-.23-.01-.35-.01-1.54-.02-3.16,.33-5.25,1.13-1.62,.62-3.26,1.47-5.01,2.59-.43,.28-.86,.56-1.29,.86,.38-.74,.63-1.37,.82-1.96,.25-.8,.34-1.52,.29-2.18-.02-.3-.1-.59-.22-.89-.12-.3-.34-.58-.66-.86-.46-.4-1.12-.63-1.98-.68"/>
      <path class="cls-2" d="M92.1,3.11c-4.36,.57-8.63,1.82-12.69,3.7-2.04,.94-4.01,2.03-5.86,3.23-1.78,1.16-3.57,2.53-5.32,4.07-3.35,2.96-6.2,6.41-8.49,10.26-1.19,2-2.24,4.18-3.22,6.66-.92,2.35-1.65,4.75-2.16,7.15-.94,4.53-1.05,9.06-.34,13.45,.35,2.14,.9,4.26,1.62,6.31,.71,1.99,1.62,4,2.72,5.98,2.03,3.69,4.8,7.31,8.24,10.78,1.61,1.63,3.35,3.19,5.33,4.77,1.77,1.42,3.71,2.82,6.11,4.39l.46,.3c.77,.51,1.46,.97,2.19,1.37,.93,.53,1.91,.93,2.9,1.19,.05,0,.09,.02,.14,.02,.09,0,.19-.01,.29-.05,.16,.03,.32,.05,.48,.08-1.72-2.03-3.41-4.1-5.01-6.23-2.58-3.43-4.95-7.02-6.88-10.86-1.18-2.35-2.19-4.78-3.01-7.28-.83-2.56-1.46-5.18-1.91-7.83-.44-2.59-.72-5.21-.83-7.84-.11-2.69-.06-5.4,.2-8.09,.25-2.65,.69-5.28,1.35-7.86,.66-2.57,1.52-5.1,2.64-7.52,1.09-2.35,2.39-4.61,3.95-6.68,1.52-2.02,3.25-3.88,5.18-5.52,1.92-1.62,4.01-3.04,6.25-4.18,2.25-1.15,4.63-2.05,7.09-2.64,1.5-.35,3.02-.56,4.56-.6,1.52-.05,3.05,.03,4.56,.15,1.51,.12,3.02,.29,4.54,.4,.25,.02,.51,.03,.76,.05-.88-.26-1.77-.48-2.68-.67-1.86-.39-3.78-.64-5.71-.75-2.46-.14-4.97-.04-7.48,.28"/>
      <path class="cls-2" d="M141.48,5.5c-.14,.3-.3,.59-.49,.86-.19,.26-.39,.52-.61,.75-.52,.57-1.11,1.07-1.73,1.53-1.35,1.01-2.81,1.85-4.29,2.65-.7,.38-1.39,.76-2.09,1.14-.46,.25-.91,.51-1.36,.78,.04,0,.09-.01,.13-.01,.48-.04,.97-.06,1.45,0,.44,.06,.88,.16,1.27,.38,.19,.1,.36,.21,.52,.36,.08,.07,.16,.15,.23,.24,.05,.06,.09,.12,.13,.19,.13,.2,.23,.42,.29,.64,.03,.12,.07,.25,.08,.38,0,.1,.01,.2,0,.31-.02,.22-.05,.44-.13,.65-.06,.17-.14,.35-.23,.51-.26,.46-.59,.88-.91,1.29-.29,.38-.58,.76-.79,1.18l.03-.06c-.15,.32-.3,.65-.42,.99-.11,.33-.2,.65-.28,.99,0,0,0,0,0-.01-.06,.31-.11,.62-.13,.93-.02,.32-.03,.63-.01,.94,.02,.26,.05,.51,.1,.76,.05,.26,.12,.52,.2,.78,.09,.28,.2,.56,.33,.83,.12,.25,.26,.49,.41,.73-.01-.02-.02-.04-.04-.05,.18,.28,.38,.55,.6,.81,.22,.25,.45,.48,.69,.71h0s0,0,0,0c0,0,0,0,0,0,.03,.03,.06,.05,.09,.08-.35-.48-.64-.97-.86-1.47-.21-.52-.35-1.01-.44-1.52-.05-.43-.06-.85-.02-1.28,.06-.41,.16-.8,.29-1.16,.19-.45,.41-.85,.68-1.23,.34-.44,.69-.81,1.03-1.11,.56-.43,1.19-.75,1.81-1.07,.73-.37,1.39-.71,1.96-1.18,.15-.11,.29-.23,.41-.36,.14-.14,.26-.31,.37-.47,.21-.3,.28-.65,.32-.98,.04-.37-.1-.73-.26-1.08-.07-.13-.16-.28-.28-.43-.15-.21-.34-.41-.56-.62-.51-.48-1.17-.8-1.95-.94,.74-.31,1.44-.71,2.14-1.18,1.58-1.05,2.58-2.23,2.98-3.5,.33-1.05,.16-2.26-.42-3.35-.05,.23-.13,.46-.24,.68"/>
      <path class="cls-6" d="M123.21,15.51c-.61,0-1.22,.02-1.82,.09-.64,.07-1.27,.22-1.89,.4-.53,.15-1.06,.34-1.58,.54-.57,.23-1.12,.51-1.65,.82-2.08,1.2-3.91,2.77-5.45,4.61-.13,.15-.08,.4,.08,.52,.17,.13,.39,.08,.52-.08,.18-.22,.37-.43,.57-.64,0,0,0,0,0,0h.01s.03-.04,.04-.06c0,0-.02,.02-.02,.03,.85-.87,1.8-1.61,2.84-2.24-.02,.01-.04,.02-.07,.04,.91-.52,1.86-.93,2.86-1.23,0,0,0,0,0,0,.68-.2,1.37-.37,2.07-.47,.62-.09,1.26-.14,1.89-.16,.46,0,.92,0,1.38,.03,.29,.02,.57-.05,.8-.23,.23-.18,.39-.46,.42-.75,.03-.28-.05-.57-.23-.8-.16-.2-.44-.4-.71-.41-.01,0-.02,0-.03,0m-1.36,2.15c-.07,0-.15,0-.22,0,.07,0,.15,0,.22,0m-4.03,.59s-.04,.01-.05,.02c.02,0,.04-.01,.05-.02m-5.83,3.5s0,0,0,0c0,0,.01-.01,.02-.02,0,0-.01,.01-.02,.02"/>
      <path class="cls-7" d="M120.89,57.62c-.25-.01-.51,0-.77,.02-.26,.02-.52,.09-.77,.15-.34,.09-.6,.19-.86,.3-1.05,.44-1.88,1.03-2.47,1.76-.05,.06-.07,.14-.07,.21,0,.08,.04,.15,.1,.19,.05,.04,.11,.06,.17,.07,.09,0,.18-.03,.24-.1,.1-.12,.2-.24,.32-.35,.2-.18,.42-.33,.71-.49,.31-.15,.64-.27,.98-.36,.32-.06,.63-.09,.96-.09-.04,.06-.03,.14-.03,.21,.2,1.33,.75,2.54,1.35,3.76,.55,1.13,1.1,2.14,1.7,3.09,1.21,1.94,2.73,3.82,4.63,5.73,1.8,1.81,3.73,3.28,5.74,4.37,1.42,.77,2.92,1.34,4.47,1.7,.84,.15,1.66,.25,2.43,.31,0,0,.06-.11,.06-.11-.96-.16-1.96-.44-2.97-.82-.9-.34-1.74-.74-2.51-1.18-.47-.24-.93-.5-1.38-.78-1.91-1.23-3.68-2.72-5.25-4.42-1.77-1.96-3.37-4.28-4.73-6.88-.31-.61-.59-1.23-.88-1.85-.28-.63-.59-1.36-.8-2.14-.05-.26-.09-.51-.12-.76,.15,.08,.24,.1,.33,.1,.1,0,.19,0,.29-.04,.19-.07,.36-.22,.44-.41,.09-.19,.1-.4,.03-.59-.09-.26-.31-.44-.61-.51-.25-.05-.49-.09-.74-.1"/>
      <path class="cls-6" d="M156.88,27.75h-.02c-1.65-.09-3.38,.31-5,1.16-1.51,.79-2.83,1.97-3.82,3.41-.83,1.22-1.36,2.62-1.52,4.07-.17,1.48,.14,3.09,.89,4.53,.36,.7,.86,1.41,1.49,2.1,.72,.79,1.59,1.45,2.6,1.95,1.19,.59,2.51,.94,3.81,1.01,.81,.05,1.62-.01,2.39-.18,.68,1.77,1.94,3.1,3.46,3.66,.32,.11,.68,.19,1.04,.21,.07,0,.15,0,.22,0,.46,0,.93-.1,1.44-.32,.37-.16,.76-.43,1.15-.82,.39-.39,.75-.88,1.05-1.46,.39-.77,.65-1.64,.81-2.75,.13-.92,.15-1.91,.06-3.12-.18-2.23-.71-4.47-1.58-6.63-.4-.98-.87-1.88-1.4-2.67-.3-.44-.56-.78-.82-1.07-.37-.42-.79-.79-1.16-1.09-1.42-1.18-3.22-1.88-5.09-1.99"/>
      <path class="cls-5" d="M155.97,30.28h-.03c-.99-.06-2.09,.28-3.27,.99-.52,.31-1.01,.72-1.39,1.19-.08,.1-.16,.2-.23,.3-.13,.14-.25,.29-.36,.45-.26,.38-.4,.76-.41,1.16-.03,.46,.09,.88,.32,1.19,.24,.32,.59,.5,1.04,.52,.32,.02,.68-.04,1.09-.18,.43-.14,.84-.36,1.18-.56,.35-.19,.74-.44,1.16-.73,.78-.55,1.38-1.08,1.83-1.61,.31-.37,.79-1.1,.51-1.8-.25-.63-.91-.89-1.44-.92"/>
      <path class="cls-1" d="M119.21,24.9c-.75-.04-1.54,.03-2.33,.22-1.8,.41-3.48,1.48-4.87,3.09-1.93,2.23-3.08,5.32-3.16,8.49-.04,1.69,.28,3.52,.95,5.45,.55,1.79,1.35,3.4,2.38,4.78l.08,.11c.31,.38,.63,.75,.96,1.12,.56,.58,1.19,1.11,1.86,1.57,1.48,1.01,3.23,1.6,5.05,1.71,1.45,.08,2.91-.16,4.21-.7,1.34-.55,2.56-1.54,3.51-2.87,.83-1.15,1.44-2.59,1.82-4.29,.34-1.6,.45-3.3,.33-5.04-.13-1.78-.47-3.48-1.01-5.06-.55-1.64-1.31-3.13-2.24-4.41-.45-.61-.94-1.15-1.46-1.61-.28-.25-.56-.48-.87-.7-.36-.25-.78-.5-1.27-.74-.52-.27-1.06-.49-1.59-.66-.49-.16-1.04-.29-1.7-.39-.22-.03-.44-.06-.65-.07"/>
      <path class="cls-6" d="M122.41,25.65h0c-.24,.11-.49,.25-.73,.42-.32,.24-.61,.54-.9,.9-.41,.52-.77,1.13-1.09,1.87-.52,1.18-.88,2.5-1.12,4.02-.27,1.85-.3,3.75-.09,5.65,.21,1.67,.59,3.21,1.14,4.56,.39,.98,.92,1.93,1.53,2.76,.52,.68,1.08,1.26,1.66,1.73,.63,.49,1.27,.88,1.94,1.17,.57,.24,1.19,.44,1.85,.58,.48-.44,.91-.92,1.28-1.43,.83-1.14,1.44-2.58,1.82-4.3,.34-1.61,.45-3.3,.33-5.05-.14-1.79-.48-3.49-1.01-5.07-.56-1.65-1.31-3.13-2.24-4.41-.44-.6-.93-1.14-1.46-1.62-.28-.25-.57-.48-.87-.69-.37-.26-.8-.51-1.27-.74-.25-.13-.49-.24-.74-.35,0,0,0,0-.01,0"/>
      <path class="cls-1" d="M119.96,36.55c-.21-.01-.43,0-.64,0-.36,.01-.68,.05-1,.12-.41,.08-.82,.24-1.18,.38-.32,.13-.63,.29-.93,.45-.21,.11-.36,.31-.4,.54-.22,.2-.93,.92-.55,1.74,.34,.75,1.29,.89,1.97,.92h.23c.95,.04,1.89-.19,2.73-.66,.56-.31,1.29-.85,1.54-1.62,.11-.34,.08-.71-.08-1.03-.05-.1-.12-.19-.21-.29-.09-.12-.22-.22-.36-.27-.11-.06-.24-.11-.35-.16-.22-.08-.47-.12-.76-.14"/>
      <path class="cls-6" d="M81.92,14.45c-.41-.13-.87-.23-1.37-.29-.71-.09-1.5-.04-2.48,.15-.76,.15-1.53,.38-2.37,.72-1.1,.33-2.26,.8-3.64,1.47-1.96,.96-3.81,2.12-5.6,3.25-2.42,1.52-4.98,2.97-7.6,4.32-4.01,2.06-8.07,3.81-11.15,5.1l.09-.02c-.66,.26-1.31,.52-1.96,.79-1.88,.77-3.82,1.57-5.69,2.44-2.51,1.17-4.72,2.39-6.74,3.72-2.21,1.46-4.19,3.09-5.89,4.85-1.82,1.89-3.39,4.03-4.66,6.36-1.22,2.26-2.09,4.67-2.58,7.17-.47,2.42-.55,4.9-.26,7.37,.61,5.02,2.84,9.96,6.3,13.91,1.62,1.85,3.55,3.4,5.73,4.63,1.23,.69,2.57,1.27,3.98,1.72,.84,.27,1.72,.49,2.61,.67,4.39,.86,9.3,.52,14.19-1,2.28-.71,4.58-1.69,6.81-2.92,2.13-1.17,4.23-2.62,6.4-4.43,4.03-3.35,7.7-7.59,10.91-12.61,1.46-2.29,2.79-4.75,3.96-7.3,1.04-2.26,1.91-4.64,2.72-6.88,1.37-3.79,3.04-8.83,3.84-14.13,.85-5.59,.54-10.17-.96-14-.88-2.25-2.06-3.77-3.61-4.63-.31-.17-.63-.31-1-.43"/>
      <path class="cls-6" d="M80.79,14.2c-.65-.17-1.34-.22-2.01-.21-1.41,.04-2.8,.44-4.09,.97-2.59,1.06-4.89,2.69-7.1,4.37-.15,.11-.22,.35-.22,.53,0,.2,.07,.39,.21,.53,.14,.14,.33,.23,.53,.23,.22,0,.37-.08,.53-.21,.1-.07,.2-.15,.3-.23h-.01c2.02-1.5,4.14-2.94,6.48-3.9,.91-.35,1.85-.63,2.82-.75,.58-.05,1.16-.05,1.74,.03,.47,.08,.92,.22,1.36,.4,.16,.08,.31,.16,.47,.25,.35,.2,.82,.1,1.03-.26,.21-.34,.1-.83-.25-1.03-.44-.25-.9-.45-1.38-.61-.13-.04-.26-.08-.39-.11m-5.41,2.09s-.09,.04-.13,.05c.04-.02,.09-.03,.13-.05"/>
      <path class="cls-6" d="M81.3,14.52c-.43-.11-.87-.15-1.31-.15-.41,0-.76,.3-.78,.72-.02,.4,.31,.78,.72,.78,.27,0,.53,.02,.8,.06,.25,.06,.49,.13,.72,.23,.03,.01,.05,.03,.08,.04,.19,.1,.36,.15,.57,.1,.19-.04,.36-.16,.46-.32,.11-.17,.15-.38,.1-.57-.04-.17-.16-.38-.32-.46-.28-.14-.55-.26-.84-.36-.07-.02-.14-.04-.2-.06"/>
      <path class="cls-6" d="M79.72,14.19c-.41-.01-.76,.31-.78,.72-.02,.4,.31,.77,.72,.78,.31,.01,.62,.04,.93,.08,.33,.07,.65,.16,.98,.27,.39,.14,.82-.11,.94-.49,.13-.4-.1-.8-.49-.94-.08-.03-.16-.06-.24-.08-.66-.21-1.36-.33-2.05-.35"/>
      <path class="cls-6" d="M79.79,14.12c-.41,0-.76,.29-.78,.72-.02,.39,.31,.78,.72,.78,.21,0,.42,.01,.63,.04,.29,.07,.56,.16,.83,.28,.17,.08,.42,.03,.57-.05,.18-.09,.31-.25,.37-.44,.06-.19,.05-.4-.05-.57-.1-.19-.25-.28-.44-.37-.15-.07-.31-.13-.47-.18-.45-.14-.91-.21-1.38-.21"/>
      <path class="cls-6" d="M79.86,14.05c-.41-.01-.76,.31-.78,.72-.02,.4,.31,.77,.72,.78,.2,0,.4,.02,.6,.05,.36,.08,.71,.19,1.06,.33,.38,.16,.83-.12,.94-.49,.06-.19,.04-.4-.05-.57-.1-.19-.25-.29-.44-.37-.16-.07-.33-.13-.49-.18-.5-.16-1.03-.25-1.56-.27"/>
      <path class="cls-6" d="M79.9,14.07c-.41,0-.76,.3-.78,.72-.02,.4,.31,.78,.72,.78,.21,0,.42,.02,.63,.05,.27,.06,.53,.14,.79,.25,.38,.15,.82-.12,.94-.49,.06-.19,.04-.4-.05-.57-.09-.19-.25-.3-.43-.37-.12-.05-.24-.09-.36-.13-.47-.15-.96-.23-1.47-.24"/>
      <path class="cls-6" d="M80.32,14.07c-.41-.02-.76,.32-.78,.72-.02,.41,.31,.75,.72,.78,.12,0,.24,.02,.36,.03,.26,.06,.5,.14,.75,.25,.17,.08,.41,.04,.57-.05,.18-.09,.31-.25,.37-.44,.06-.19,.04-.4-.05-.57-.1-.19-.25-.29-.44-.37-.13-.06-.27-.11-.4-.15-.35-.11-.72-.18-1.09-.2"/>
      <path class="cls-4" d="M80.32,14.05s-.07,0-.1,0h-.16c-.4-.07-.83-.09-1.27-.07-1.26,.03-2.6,.35-4.1,.97-1.54,.64-3.08,1.5-4.83,2.71-1.18,.67-2.34,1.41-3.37,2.05-2.45,1.54-5.02,3-7.63,4.34-4.06,2.09-8.09,3.82-11.15,5.1h.08c-.66,.25-1.3,.51-1.95,.77l-.26,.11c-1.79,.73-3.64,1.5-5.43,2.33-2.5,1.17-4.71,2.38-6.74,3.71-2.2,1.46-4.19,3.1-5.89,4.86-1.83,1.89-3.4,4.03-4.67,6.36-1.22,2.26-2.09,4.68-2.58,7.17-.47,2.44-.55,4.92-.25,7.38,.6,5.03,2.84,9.97,6.3,13.92,1.59,1.81,3.48,3.35,5.62,4.57-1.06-.9-2.06-1.86-3-2.88-.7-.77-1.37-1.57-1.98-2.41-.66-.91-1.24-1.88-1.78-2.87-.6-1.1-1.13-2.23-1.55-3.41-.4-1.11-.72-2.26-.9-3.43-.18-1.16-.25-2.34-.18-3.51,.08-1.21,.3-2.41,.66-3.57,.4-1.26,.94-2.49,1.59-3.64,.63-1.14,1.34-2.23,2.13-3.26,3.26-4.24,7.64-7.49,12.28-10.1,1.17-.66,2.36-1.28,3.56-1.86,.62-.3,1.24-.59,1.86-.88,.6-.27,1.2-.53,1.8-.8,2.63-1.18,5.24-2.44,7.75-3.87h0s0,0,0,0c0,0,0,0,0,0,0,0,0,0,0,0,0,0,0,0,.02,0,0,0,0,0-.01,0,2.35-1.34,4.62-2.82,6.75-4.48,.61-.48,1.22-.96,1.8-1.47,.55-.48,1.09-.97,1.61-1.46,1.1-1.04,2.17-2.1,3.26-3.16,1.08-1.05,2.18-2.09,3.34-3.06,.99-.82,2.01-1.6,3.09-2.32,.99-.66,2.03-1.28,3.12-1.76,.56-.26,1.13-.48,1.72-.66,.5-.15,1.02-.28,1.54-.36,.98-.15,1.99-.16,2.97,.04-.15-.1-.31-.2-.47-.3-.31-.18-.64-.31-1-.43l-.12-.03c-.13-.06-.25-.1-.38-.15-.34-.11-.7-.18-1.1-.2"/>
    </g>
  </g>
</svg>