<?xml version="1.0" encoding="UTF-8"?>
<svg id="Layer_2" data-name="Layer 2" xmlns="http://www.w3.org/2000/svg" viewBox="0 0 154.76 188.86">
  <defs>
    <style>
      .cls-1 {
        fill: #fefefe;
      }

      .cls-2 {
        fill: #8e3f59;
      }

      .cls-3 {
        fill: #ad4d6c;
      }

      .cls-4 {
        fill: #3e164a;
      }

      .cls-5 {
        fill: #64446c;
      }

      .cls-6 {
        fill: #350b40;
      }

      .cls-7 {
        fill: #7a364d;
      }
    </style>
  </defs>
  <g id="OBJECTS">
    <g>
      <path class="cls-6" d="M7.07,69.33c-.21,0-.41,.03-.65,.09-.2,.05-.42,.16-.65,.31-.21,.14-.42,.34-.61,.57-.32,.39-.59,.88-.83,1.5-.23,.61-.42,1.27-.57,2.02-.22,1.01-.36,2.15-.45,3.58-.08,1.25-.1,2.56-.07,3.9,.03,1.11,.11,2.18,.24,3.18-.23-.08-.47-.12-.7-.12-.22,0-.42,.03-.6,.09-.39,.13-.68,.3-.93,.54-.23,.21-.43,.48-.57,.78-.29,.58-.46,1.24-.58,2.14-.08,.65-.11,1.35-.07,2.27,.03,.82,.11,1.64,.24,2.42,.12,.7,.29,1.4,.54,2.13,.42,1.23,.91,2.47,1.45,3.66,1.58,3.48,3.79,6.78,6.55,9.81,1.71,1.88,3.66,3.65,5.82,5.26-.64,.1-1.14,.37-1.5,.78-.26,.3-.43,.6-.56,.96-.1,.29-.16,.65-.17,1.07-.02,.68,.11,1.43,.39,2.28,.27,.82,.64,1.63,1.11,2.42,.47,.78,1.07,1.55,1.95,2.51,1.63,1.77,3.65,3.39,5.98,4.81,2.12,1.29,4.45,2.35,6.93,3.15,2.37,.76,4.83,1.23,7.29,1.39h0c.23,0,.41-.17,.42-.39,.01-.2-.13-.38-.34-.42,1-.3,1.88-.77,2.62-1.39,1.17-.97,2.06-2.31,2.58-3.9,.5-1.5,.69-3.17,.57-4.98-.05-.78-.17-1.63-.39-2.59-.19-.84-.44-1.67-.75-2.45-.33-.84-.74-1.64-1.21-2.38-.48-.75-1.01-1.38-1.57-1.87,1.06,.34,2.16,.61,3.24,.81h.01c.2,0,.34-.11,.36-.26,.02-.08,0-.17-.05-.24-.05-.07-.12-.12-.21-.14-1.15-.22-2.32-.52-3.47-.89-2.73-.9-5.44-2.23-8.06-3.93-3.18-2.09-6.08-4.58-8.6-7.42-2.25-2.57-4.13-5.38-5.6-8.33v.03c-1.8-3.72-3.19-7.95-4.22-12.91-.11-.59-.17-1.19-.23-1.78l-.05-.52c-.09-.83-.23-1.92-.44-2.99-.08-.4-.19-.93-.36-1.45-.14-.45-.32-.89-.57-1.36-.18-.34-.43-.66-.74-.95-.13-.13-.3-.23-.45-.33-.17-.11-.3-.17-.43-.23-.25-.12-.52-.19-.76-.22-.1-.01-.2-.02-.29-.02"/>
      <path class="cls-2" d="M98.7,134.61c-.35,0-.7,.02-1.05,.04-1.57,.12-3.29,.63-5.09,1.5-1.63,.79-3.25,1.89-4.83,3.26-1.49,1.3-2.84,2.8-4.02,4.46-1.44,2.03-2.46,4.13-3.03,6.24-.52,1.93-.62,3.76-.29,5.43-.28-.12-.57-.21-.87-.31-.08-.03-.16-.04-.24-.04-.33,0-.62,.2-.73,.51-.07,.19-.05,.4,.04,.59,.09,.18,.24,.32,.43,.38,1.44,.47,2.6,.93,3.65,1.44,1.11,.57,2.05,1.18,2.86,1.87,.62,.56,1.18,1.18,1.66,1.85l.08,.11c.41,.66,.77,1.38,1.04,2.13,.57,1.73,.76,3.54,.86,4.92,.02,.39,.04,.78,.07,1.18,.09,1.73,.19,3.51,.72,5.19,.16,.52,.36,1.04,.61,1.55,.3,.64,.69,1.23,.99,1.68,.71,1.05,1.59,1.95,2.28,2.63,1.47,1.43,3.14,2.73,4.99,3.86,1.88,1.16,3.86,2.08,5.87,2.74,2.1,.69,4.18,1.04,6.16,1.04,2.14,0,4.12-.42,5.92-1.24,1.84-.84,3.56-2.25,4.95-4.08,1.47-1.92,2.32-3.97,2.46-5.94,.12-1.67-.35-3.42-1.33-4.92-.93-1.43-2.29-2.72-4.04-3.85-1.57-1.01-3.42-1.84-5.49-2.47-1.53-.47-3.07-.78-4.58-.94,.41-.8,.78-1.72,1.2-2.88,.29-.82,.53-1.67,.74-2.62,.43-1.89,.66-3.85,.68-5.85,.06-4.29-.79-8.31-2.48-11.64-.9-1.77-2.04-3.31-3.41-4.56-.74-.68-1.54-1.27-2.4-1.77,0-.1-.04-.19-.07-.26-.09-.18-.23-.28-.43-.38-.71-.34-1.49-.58-2.4-.73-.46-.08-.95-.12-1.48-.12"/>
      <path class="cls-3" d="M74.41,84.47h-.05c-.39,0-.7,.29-.76,.71-.02,.19-.05,.38-.09,.57-.11,.5-.27,1.01-.46,1.5l-.1,.02-.11,.03c-.19,.05-.35,.24-.42,.4-.08,.19-.08,.4-.01,.58,.02,.04,.04,.09,.06,.13-.32,.5-.7,1.01-1.14,1.51-.83,.91-1.87,1.76-3.14,2.59-1.38,.88-2.92,1.66-4.99,2.55-1.91,.81-3.85,1.51-5.67,2.15l-1.63,.57c-1.32,.46-2.63,.91-3.94,1.4-1.46,.54-3.17,1.21-4.78,2.06-1.62,.85-3.23,2.04-5.05,3.73-1.95,1.83-3.68,3.91-5.13,6.2-2.91,4.61-4.5,9.88-4.6,15.25-.02,.83,.01,1.72,.09,2.64,.09,.96,.25,1.93,.41,2.84l.21,1.16c.26,1.42,.53,2.89,.64,4.37,.05,1.16,0,2.2-.19,3.19-.2,.92-.53,1.84-1.01,2.81-.43,.84-.92,1.58-1.5,2.26-.56,.61-1.2,1.16-1.9,1.63-.87,.54-1.84,.99-2.99,1.37-1.4,.45-2.87,.77-4.29,1.07-.66,.14-1.32,.29-1.97,.44-1.32,.32-2.31,.61-3.22,.94-.87,.32-1.76,.74-2.65,1.25-3.34,1.92-6.17,4.92-8.2,8.66-2,3.69-3.02,7.71-2.96,11.64,.01,.99,.1,1.99,.27,2.97,.15,.92,.39,1.86,.73,2.86,.61,1.84,1.57,3.55,2.86,5.11,.6,.73,1.33,1.44,2.23,2.19,.77,.63,1.54,1.13,2.35,1.53,1.47,.72,3.18,1.18,5.11,1.35,.5,.04,1.01,.07,1.53,.07,1.34,0,2.73-.15,4.1-.44,1.9-.4,3.66-1.07,5.22-1.99,1.36-.8,2.53-1.79,3.48-2.94,.95-1.16,1.62-2.54,1.92-3.99,.16-.78,.23-1.57,.2-2.35-.01-.44-.06-.88-.13-1.31-.1-.55-.27-1.09-.42-1.5-.33-.97-.84-1.85-1.3-2.59-.35-.59-.74-1.16-1.12-1.73l-.54-.82-.07-.09h0c-.57-.91-1.21-1.99-1.62-3.16-.12-.4-.22-.8-.28-1.2,6.25,2.66,11.46,3.89,16.36,3.89h.31c2.97-.04,5.75-.53,8.24-1.46,2.12-.79,4.16-1.99,6.04-3.55,1.23-1.02,2.35-2.19,3.34-3.49,1.64,.2,3.14,.33,4.57,.39,.45,.02,.9,.03,1.35,.03,.94,0,1.93-.04,2.93-.11,2.32-.17,4.68-.58,7.01-1.21,4.29-1.16,8.36-3.14,12.09-5.88,6.98-5.15,12.44-12.8,15.81-22.14,1.9-5.28,2.91-11.27,3-17.8,.04-2.86-.12-5.88-.47-9-.34-3.03-1.14-6.02-1.91-8.91l-.06-.23c-.5-1.87-.98-3.71-1.34-5.61h0c-.18-.97-.31-1.94-.4-2.87-.04-.41-.36-.72-.76-.72-.25,.01-.44,.11-.58,.27-.13,.15-.19,.34-.18,.53,.02,.25,.05,.5,.08,.75-4.3-1.63-9.1-2.45-14.26-2.45-4.33,0-8.96,.58-13.76,1.72,.15-.46,.25-.98,.33-1.52,.02-.18-.03-.36-.15-.51-.14-.17-.35-.28-.55-.3"/>
      <path class="cls-2" d="M13.74,178.09c-.1,.1-.09,.25,0,.35,.13,.16,.27,.32,.39,.49,.53,.69,.96,1.46,1.31,2.26,.48,1.15,.78,2.37,.95,3.6-.01-.07-.02-.14-.03-.21,.08,.62,.13,1.23,.15,1.85,.02,.71-.05,1.41-.1,2.12,0,.02,0,.05,0,.07,.33,.03,.66,.06,.98,.07,.24,.01,.49,.02,.73,.03,.15-.97,.17-1.94,.06-2.92-.05-.48-.14-.96-.26-1.43-.13-.5-.31-.99-.52-1.47-.18-.41-.38-.82-.61-1.21-.26-.45-.55-.87-.85-1.29-.26-.36-.54-.72-.82-1.07-.34-.42-.68-.84-1.02-1.25-.05-.05-.11-.07-.17-.07-.07,0-.14,.03-.18,.07"/>
      <path class="cls-2" d="M23.67,174.81c-.12,.12-.12,.33,0,.45,.39,.36,.74,.74,1.07,1.16-.02-.02-.03-.04-.05-.07,.48,.64,.87,1.34,1.19,2.07,0,0,0,0,0-.01,0,0,0,.02,0,.02,0,0,0,0,0,0h0s.02,.04,.02,.06v-.04c.22,.58,.42,1.17,.58,1.77,.15,.57,.25,1.16,.34,1.74h0s0,0,0,0c0,0,0,0,0,.01h0s0,0,0,0c0,0,0,.01,0,.02,0,.01,0,.02,0,.04h0s0,0,0,0h0s0,.02,0,.04c.18,1.4,.19,2.82,.02,4.23,0,.07,0,.14,.01,.21,.1-.06,.2-.11,.3-.17,.58-.34,1.13-.71,1.66-1.11-.14-1.77-.55-3.52-1.22-5.16-.79-1.97-1.93-3.83-3.5-5.28-.06-.06-.15-.09-.23-.09s-.16,.03-.22,.09m3.16,7.25s0,.02,0,.03c0-.01,0-.02,0-.03"/>
      <path class="cls-2" d="M26.84,182.05h0s0-.02,0-.04c0,0,0,0,0-.01,0,.01,0,.03,0,.05"/>
      <path class="cls-2" d="M25.89,178.48s0-.01,0-.02c0,0,0,.02,0,.02"/>
      <path class="cls-2" d="M74.41,84.44h0s-.1,0-.14,.01c.14,.42,.28,.83,.4,1.25,.08,.25,.15,.51,.22,.77,.1-.33,.18-.72,.25-1.2,.02-.18-.03-.37-.16-.53-.15-.18-.36-.29-.57-.3,0,0,0,0,0,0h0s0,0,0,0"/>
      <path class="cls-2" d="M73.58,85.17c-.02,.19-.05,.38-.09,.57-.11,.5-.27,1-.46,1.49h-.09s-.12,.04-.12,.04c-.19,.05-.35,.25-.42,.42-.09,.19-.09,.41-.01,.6,.01,.04,.04,.09,.06,.12-.33,.51-.71,1.01-1.14,1.49-.82,.9-1.85,1.75-3.13,2.59-1.39,.88-2.93,1.67-4.99,2.56-1.82,.78-3.65,1.43-5.67,2.15l-1.63,.57c-1.32,.46-2.63,.91-3.94,1.4-1.45,.53-3.16,1.2-4.78,2.05-1.61,.84-3.22,2.03-5.06,3.73-1.96,1.84-3.69,3.93-5.12,6.21-2.91,4.61-4.51,9.89-4.61,15.26-.02,.85,.01,1.73,.09,2.64,.09,.97,.25,1.89,.41,2.84l.21,1.16c.26,1.42,.53,2.89,.63,4.37,.05,1.16,0,2.2-.19,3.19-.16,.74-.41,1.47-.74,2.22,.05-.09,.09-.18,.14-.28,.22-.46,.4-.92,.57-1.4,0,0,0,.02,0,.02,.66-2,.92-4.1,1.12-6.19,.1-1.05,.17-2.11,.29-3.16,.14-1.16,.33-2.31,.6-3.45,.52-2.17,1.28-4.28,2.29-6.26,.96-1.88,2.13-3.64,3.48-5.27,2.87-3.48,6.46-6.32,10.31-8.64,2-1.21,4.08-2.3,6.2-3.28,.97-.45,1.95-.88,2.93-1.31,.97-.43,1.94-.88,2.89-1.34-.02,0-.04,.02-.06,.03,2.37-1.15,4.69-2.46,6.71-4.17-.02,.01-.03,.03-.05,.04,.51-.44,1-.9,1.45-1.4,.43-.48,.84-.98,1.21-1.51h0c.3-.44,.58-.9,.82-1.39,.22-.46,.42-.92,.59-1.4,0,.02-.01,.04-.02,.06,.29-.86,.49-1.75,.57-2.65v-.02s0,0,0-.01h0s0,0,0,0c.02-.38,.02-.75-.01-1.13-.03-.39-.09-.77-.16-1.16,0,.02,.01,.04,.02,.06-.2-1.01-.52-1.99-.85-2.97-.12,.13-.2,.29-.23,.49"/>
      <polygon class="cls-2" points="74.82 89.88 74.82 89.88 74.82 89.88 74.82 89.88"/>
      <polyline class="cls-2" points="74.82 89.89 74.82 89.88 74.82 89.89"/>
      <path class="cls-2" d="M74.82,89.89v.02s0-.02,0-.02c0,0,0,0,0,0"/>
      <path class="cls-2" d="M72.89,95.25s0,0,.01-.02c0,0,0,.01-.01,.02"/>
      <path class="cls-2" d="M67.39,138.88c-.26,0-.51,.1-.7,.28-.18,.17-.35,.47-.33,.72,.12,1.32,.17,2.63,.12,3.95-.04,1.27-.17,2.54-.37,3.79-.22,1.26-.51,2.5-.89,3.73-.39,1.26-.85,2.5-1.39,3.7-.44,.93-.92,1.84-1.46,2.71-.59,.94-1.23,1.84-1.93,2.7-.68,.82-1.42,1.6-2.2,2.33-.83,.96-1.74,1.85-2.75,2.61,.07,.05,.17,.06,.24,.01,2.07-1.39,4-2.97,5.68-4.82,1.65-1.82,3.07-3.84,4.21-6.02,.57-1.11,1.06-2.27,1.45-3.45,.4-1.17,.71-2.37,.95-3.58,.48-2.5,.62-5.07,.41-7.61,0-.09-.02-.18-.02-.27-.04-.18-.13-.34-.25-.48-.19-.2-.45-.32-.73-.33h-.04Z"/>
      <path class="cls-3" d="M85.73,90.64c-.29,0-.59,0-.88,.03-2.16,.14-4.25,.81-6.05,1.93-1.86,1.16-3.38,2.78-4.39,4.71-1.05,1.99-1.53,4.27-1.4,6.6,.12,2.12,.72,4.3,1.83,6.66,.33,.71,.72,1.42,1.13,2.12,.24,.49,.52,.98,.84,1.47,.72,1.26,1.54,2.45,2.44,3.53l.08,.1c1.35,1.8,2.9,3.51,4.76,5.26,1.66,1.57,3.54,3.12,5.58,4.6,3.71,2.7,7.54,4.85,11.38,6.4,2.83,1.14,5.98,1.85,9.62,2.18,1.22,.11,2.45,.16,3.66,.16,2.49,0,4.94-.23,7.28-.69,3.84-.75,7.08-2.13,9.64-4.09,1.34-1.03,2.47-2.26,3.37-3.67,.92-1.44,1.56-3.08,1.9-4.89,.22-1.19,.29-2.25,.2-3.24-.09-1.09-.36-2.15-.81-3.18-.38-.88-.95-1.76-1.69-2.59-.65-.73-1.45-1.4-2.38-1.98-1.79-1.12-3.99-1.74-6.18-1.74-.56,0-1.11,.04-1.73,.14-.47,.07-.93,.18-1.37,.3l-.35,.09c-1.2,.3-2.4,.52-3.58,.64-.66,.06-1.32,.09-1.96,.09-.88,0-1.75-.06-2.58-.18-1.32-.23-2.59-.61-3.78-1.15-1.26-.59-2.52-1.39-3.72-2.36-1.59-1.32-3.11-2.9-4.76-4.99-.72-.9-1.41-1.85-2.08-2.76-.82-1.12-1.67-2.29-2.58-3.38-1.98-2.4-3.85-3.95-5.89-4.9-1.73-.8-3.65-1.22-5.55-1.22"/>
      <path class="cls-2" d="M74.83,110.56c.32,.68,.7,1.4,1.13,2.12,.26,.52,.54,1.02,.84,1.47,.71,1.25,1.53,2.44,2.44,3.54l.08,.1c1.35,1.79,2.91,3.51,4.77,5.26,1.67,1.57,3.55,3.12,5.58,4.6,3.73,2.71,7.56,4.86,11.39,6.39,2.82,1.13,5.97,1.85,9.62,2.19,1.3,.1,2.53,.16,3.66,.16,2.46,0,4.91-.24,7.28-.69,3.84-.75,7.09-2.13,9.66-4.1,1.34-1.03,2.47-2.27,3.37-3.68,.93-1.45,1.56-3.1,1.9-4.89,.14-.74,.21-1.43,.23-2.08-.01-.48-.02-.95-.05-1.43-.01-.15-.03-.28-.06-.43-.13-.54-.27-1.08-.42-1.62-.12-.35-.25-.69-.38-1.04-.18-.4-.4-.8-.66-1.2-.03,.92-.13,1.84-.34,2.74-.4,1.77-1.12,3.47-2.16,4.97-.5,.73-1.07,1.42-1.69,2.07-.63,.65-1.3,1.25-2.01,1.8-1.5,1.16-3.15,2.09-4.88,2.86-1.75,.77-3.59,1.37-5.46,1.79-1.84,.41-3.72,.68-5.61,.77-1.79,.08-3.59,.01-5.37-.24-2.11-.31-4.2-.8-6.24-1.44-2.16-.68-4.27-1.52-6.31-2.48-2.14-1.02-4.22-2.17-6.2-3.46-1.97-1.28-3.87-2.7-5.64-4.25-1.76-1.53-3.41-3.2-4.89-5.01-1.41-1.73-2.68-3.57-3.71-5.55-.35-.69-.69-1.39-.99-2.1,.28,.93,.66,1.88,1.12,2.85"/>
      <path class="cls-2" d="M90.89,91.72c-.07,.1-.07,.28,.05,.35,1.53,.89,2.89,2.01,4.14,3.25,1.75,1.76,3.26,3.74,4.74,5.72,1.49,2,3.02,3.99,4.74,5.79,.87,.91,1.81,1.77,2.81,2.53,1.04,.8,2.19,1.48,3.4,2.01,1.21,.53,2.5,.87,3.79,1.07,.32,.05,.66,.09,.98,.12h.23c.22-.02,.44-.03,.67-.04,.68-.09,1.35-.22,2.03-.36,.62-.31,1.16-.78,1.66-1.25,.36-.33,.71-.68,1.09-.99,.29-.23,.6-.43,.92-.62,.62-.33,1.28-.6,1.95-.79,.44-.11,.89-.18,1.35-.19,.27,0,.53,.03,.79,.09,.18,.06,.36,.12,.53,.21,.14,.09,.26,.18,.39,.29,.11,.12,.21,.25,.29,.38,.1,.19,.18,.39,.24,.59,.05,.23,.08,.47,.09,.7,0,.03,0,.07,.02,.11,.34,.02,.68,.05,1.01,.11,.13,.02,.25,.05,.38,.08,.02,0,.04,.01,.07,.02,0,0,.01-.02,.02-.03,0-.24,0-.48,0-.73-.01-.06-.02-.13-.04-.19-.05-.25-.1-.49-.17-.73-.09-.23-.2-.46-.33-.68-.25-.44-.61-.82-1.04-1.11-.9-.6-2.01-.72-3.06-.62-.55,.05-1.11,.2-1.63,.37-.53,.17-1.03,.42-1.52,.7-.42,.24-.81,.51-1.17,.84-.24,.22-.46,.46-.68,.7-.24,.26-.48,.52-.73,.77,.01-.02,.03-.03,.04-.05-.34,.34-.7,.66-1.11,.92-.19,.1-.39,.18-.59,.24-.37,.09-.75,.11-1.13,.12,.05,0,.1,0,.15,0-1.02-.01-2.03-.16-3.02-.4-1.17-.31-2.28-.77-3.35-1.35-1.62-.94-3.06-2.15-4.39-3.47-2.42-2.43-4.48-5.18-6.71-7.78-1.09-1.27-2.21-2.49-3.43-3.64-1.26-1.18-2.62-2.24-4.12-3.11-.05-.03-.1-.05-.16-.05-.07,0-.14,.03-.19,.09m31.17,17.63l-.05,.02,.05-.02Zm-12.26,.28s.05,.03,.07,.04c-.02-.02-.05-.03-.07-.04"/>
      <path class="cls-2" d="M125.93,109.72c-.83,.01-1.66,.16-2.47,.36-.75,.18-1.49,.42-2.22,.67-.78,.27-1.55,.52-2.35,.72,.03,0,.06-.02,.09-.02-.38,.09-.76,.17-1.15,.23-.45,.07-.89,.09-1.34,.08-.14,0-.24,.16-.22,.28,.01,.15,.14,.22,.28,.22,.57,0,1.14-.01,1.7-.05,.12-.03,.25-.05,.37-.08,.44-.1,.87-.19,1.31-.28,.63-.17,1.26-.34,1.9-.47,.15-.03,.3-.06,.45-.09,1.02-.27,2.06-.45,3.11-.53,.35-.03,.71-.05,1.07-.05,.21-.01,.42-.02,.62-.02h.1c.51,0,1.01,.02,1.52,.11,0-.02,.01-.05,.02-.07,.02-.12,0-.23-.04-.34-.06-.14-.19-.31-.34-.36-.39-.12-.78-.21-1.19-.27-.3-.05-.61-.06-.92-.06-.1,0-.2,0-.3,0"/>
      <path class="cls-2" d="M124.45,107.5c-.43,.07-.85,.19-1.26,.32-.22,.07-.4,.22-.52,.42-.48,.09-.96,.23-1.4,.43-.33,.15-.65,.33-.95,.54-.11,.08-.22,.17-.32,.26-.17,.15-.34,.31-.46,.5-.11,.13-.18,.29-.21,.47-.02,.15-.01,.3,.03,.44-.17,.07-.34,.15-.52,.23-.2,.09-.31,.31-.23,.52,.08,.2,.32,.32,.52,.23,.27-.13,.55-.25,.83-.36,.22,.08,.46,.08,.67-.01,.54-.24,1.1-.47,1.66-.67,1.38-.27,2.8-.37,4.21-.35h-.14c.23,0,.47,.02,.7,.04,.19,.02,.37-.03,.5-.15,.07-.03,.13-.07,.2-.12,.17-.12,.3-.28,.39-.48,.09-.2,.12-.41,.1-.63-.04-.33-.21-.56-.44-.79-.58-.57-1.4-.85-2.19-.88-.1,0-.2,0-.3,0-.3,0-.59,.02-.88,.07"/>
      <path class="cls-2" d="M127,110.04c-.52,0-1.04,.06-1.56,.13-1.15,.16-2.28,.47-3.41,.75,.03,0,.06-.02,.09-.02-.88,.22-1.77,.43-2.67,.57-.97,.15-1.97,.19-2.95,.17h.09c-1.66-.05-3.3-.36-4.91-.82-.34-.1-.68-.22-1.02-.33-.13-.04-.27,0-.33,.12-.05,.12,0,.28,.13,.33,2.17,.75,4.43,1.32,6.73,1.46,.48-.08,.95-.18,1.42-.28,.42-.09,.83-.18,1.25-.27,.65-.18,1.3-.35,1.97-.49,.16-.03,.32-.06,.48-.09,1.01-.26,2.04-.44,3.08-.51,.35-.03,.71-.05,1.07-.05,.21-.01,.42-.02,.62-.02h.1c.54,0,1.08,.03,1.61,.13,.1,.02,.19,.04,.29,.06,.05,0,.09,.02,.13,.03,0,0,0-.01,0-.02,.02-.16-.01-.32-.11-.45-.1-.14-.23-.2-.39-.24-.53-.13-1.09-.14-1.63-.15h-.1Z"/>
      <path class="cls-2" d="M122.13,110.9h.05s-.05,0-.05,0Z"/>
      <path class="cls-2" d="M130.38,112.52c-.74,.18-1.44,.45-2.14,.77-.7,.32-1.37,.72-2.03,1.12-.12,.07-.13,.26-.05,.36,.09,.12,.24,.12,.36,.05,.09-.06,.18-.11,.27-.16l-.06,.03c.38-.2,.77-.34,1.18-.46,1.08-.27,2.2-.31,3.3-.31h-.21c1.08,0,2.15,.08,3.23,.15-.46-.44-.93-.87-1.38-1.32-.07-.06-.15-.12-.22-.18,.02,.01,.03,.03,.05,.04-.18-.14-.35-.28-.53-.41-.6,.06-1.19,.16-1.77,.31"/>
      <path class="cls-2" d="M133.11,118.67c-.65,.2-1.27,.48-1.88,.78-.59,.29-1.18,.61-1.75,.93,.01,0,.03-.01,.04-.02-.26,.14-.52,.29-.77,.44-.18,.11-.19,.37-.07,.52,.13,.18,.34,.18,.52,.07,.03-.02,.06-.03,.09-.05,.53-.3,1.08-.52,1.66-.69,.01,0,.02,0,.03,0,.96-.23,1.94-.3,2.92-.36,.96-.05,1.92-.05,2.88-.12-.01-.28-.03-.57-.05-.85-.01-.05-.02-.11-.03-.16-.08-.33-.16-.65-.25-.98-.09,0-.18,0-.28,0-1.03,0-2.06,.2-3.05,.5m-3.77,2.64s-.03,.02-.05,.03c.02,0,.03-.02,.05-.03"/>
      <path class="cls-2" d="M130.94,120.66s.01,0,.02,0c0,0-.01,0-.02,0"/>
      <path class="cls-3" d="M108.85,0s-.09,0-.13,0c-1,.02-1.86,.29-2.56,.79-.69,.49-1.28,1.18-1.77,2.06-.59,1.06-1,2.32-1.29,3.94-.11,.63-.19,1.21-.23,1.77-3.72-2-7.72-3.33-11.89-3.97-1.86-.29-3.8-.43-5.74-.43-2.47,0-4.98,.23-7.45,.7-4.31,.81-8.5,2.29-12.46,4.4-1.97,1.05-3.88,2.24-5.67,3.55-1.72,1.26-3.43,2.73-5.09,4.36-3.17,3.13-5.83,6.73-7.9,10.7-1.07,2.05-2,4.28-2.84,6.83-.79,2.4-1.38,4.84-1.75,7.25-.69,4.57-.55,9.1,.41,13.44,.47,2.11,1.13,4.2,1.97,6.21,.81,1.94,1.84,3.9,3.04,5.81,2.24,3.58,5.21,7.04,8.83,10.3,1.69,1.53,3.52,2.99,5.59,4.47,1.82,1.3,3.84,2.59,6.34,4.05l.47,.28c.73,.43,1.48,.87,2.26,1.25,.97,.48,1.97,.82,2.96,1.02,.04,0,.09,.01,.13,.01,.1,0,.19-.02,.28-.06,4.38,.47,9.09,.69,14.41,.69s10.29-.21,15.13-.44l.1-.02h0s.07,.02,.11,.02c.12,0,.24-.03,.34-.08,.37-.19,.82-.4,1.27-.56,.68-.22,1.39-.35,1.99-.44,.84-.13,1.71-.2,2.44-.25,1.02-.07,2.06-.13,3.09-.18,1.99-.1,4.04-.21,6.05-.46,1.67-.21,2.99-.48,4.15-.86,1.44-.46,2.51-1.03,3.36-1.77,.47-.41,.88-.9,1.17-1.43,.32-.57,.53-1.21,.65-1.96,.09-.64,.07-1.38-.07-2.25-.1-.61-.28-1.27-.54-2.01,1.39,.25,2.84,.38,4.3,.38,.25,0,.49,0,.74-.01,1.95-.06,3.84-.33,5.61-.82,1.85-.51,3.55-1.24,5.07-2.18,.8-.5,1.55-1.05,2.25-1.64,.66-.58,1.32-1.25,1.95-2.01,1.13-1.36,2.04-3,2.81-5.02,.68-1.8,1.16-3.76,1.48-5.99,.29-2.04,.39-4.2,.29-6.43-.1-2.23-.39-4.45-.87-6.6-.77-3.46-2.01-6.63-3.68-9.42-1.79-3-4.01-5.39-6.6-7.1-.13-.08-.28-.13-.42-.13-.07,0-.14,0-.2,.03-.13-.18-.36-.29-.6-.29-.08,0-.16,.01-.24,.04-.99,.31-2,.58-3.01,.79l-.16,.05h0c-1.87,.34-3.7,.52-5.45,.52-.45,0-.91-.01-1.36-.04-1.42-.1-2.65-.31-3.76-.65-.86-.29-1.7-.68-2.48-1.17-.73-.48-1.39-1.03-1.95-1.64-.5-.57-.91-1.16-1.23-1.76-.24-.51-.41-1-.52-1.5-.07-.44-.1-.85-.09-1.28,.03-.41,.11-.81,.23-1.18,.16-.45,.36-.87,.61-1.27,.31-.45,.63-.84,.97-1.17,.54-.47,1.17-.83,1.78-1.19,.64-.38,1.3-.76,1.87-1.27,.14-.12,.27-.24,.39-.38,.13-.15,.24-.31,.34-.48,.2-.33,.24-.7,.26-.99,.02-.38-.15-.74-.32-1.05-.08-.15-.19-.28-.3-.41-.16-.2-.36-.39-.59-.59-.53-.45-1.2-.73-1.99-.83,.76-.42,1.44-.86,2.06-1.33,1.52-1.14,2.45-2.37,2.77-3.65,.36-1.44-.19-3.1-1.43-4.35-.54-.54-1.22-.95-2.02-1.21-.57-.19-1.22-.29-1.95-.29-.12,0-.23,0-.35,0-1.54,.06-3.13,.5-5.18,1.42-1.58,.71-3.17,1.65-4.86,2.86-.42,.3-.83,.61-1.24,.93,.34-.76,.56-1.4,.71-2.01,.2-.82,.26-1.53,.17-2.19-.04-.3-.13-.58-.27-.88-.14-.29-.37-.56-.7-.82-.48-.38-1.16-.57-2.02-.57"/>
      <path class="cls-2" d="M77.77,4.84c-4.32,.82-8.52,2.3-12.46,4.4-1.98,1.05-3.89,2.25-5.67,3.56-1.71,1.26-3.43,2.73-5.09,4.36-3.18,3.14-5.83,6.74-7.9,10.71-1.08,2.06-2.01,4.3-2.84,6.83-.79,2.4-1.38,4.84-1.75,7.26-.69,4.57-.55,9.1,.41,13.45,.47,2.12,1.13,4.21,1.97,6.21,.82,1.95,1.84,3.91,3.05,5.82,2.23,3.57,5.2,7.03,8.83,10.3,1.69,1.54,3.52,3,5.59,4.47,1.85,1.32,3.86,2.61,6.34,4.05l.47,.28c.8,.46,1.52,.89,2.26,1.25,.96,.48,1.96,.82,2.97,1.03,.05,0,.09,.01,.14,.01,.09,0,.19-.02,.29-.07,.16,.02,.32,.03,.49,.05-1.83-1.94-3.63-3.91-5.35-5.95-2.77-3.28-5.34-6.73-7.47-10.46-1.31-2.28-2.46-4.65-3.41-7.11-.97-2.51-1.75-5.09-2.34-7.71-.59-2.56-1.01-5.16-1.27-7.78-.26-2.68-.36-5.39-.25-8.09,.1-2.66,.39-5.31,.91-7.92,.51-2.6,1.23-5.18,2.22-7.65,.96-2.41,2.13-4.74,3.57-6.89,1.41-2.1,3.03-4.06,4.87-5.8,1.82-1.72,3.84-3.26,6-4.52,2.18-1.27,4.51-2.31,6.93-3.03,1.47-.44,2.99-.72,4.52-.86,1.52-.13,3.04-.14,4.57-.1,1.52,.04,3.03,.12,4.55,.14,.26,0,.51,0,.77,0-.89-.21-1.8-.38-2.71-.52-1.88-.29-3.81-.43-5.74-.43-2.47,0-4.97,.24-7.45,.7"/>
      <path class="cls-2" d="M127.21,4.48c-.12,.31-.27,.61-.44,.89-.17,.27-.36,.54-.57,.79-.49,.59-1.05,1.13-1.64,1.62-1.29,1.08-2.71,2-4.14,2.89-.68,.42-1.35,.83-2.03,1.25-.44,.28-.88,.55-1.31,.85,.04,0,.09-.01,.13-.02,.48-.07,.96-.11,1.44-.07,.44,.04,.89,.11,1.29,.3,.19,.09,.37,.19,.54,.33,.09,.07,.17,.15,.25,.23,.05,.06,.1,.12,.14,.18,.14,.19,.25,.4,.33,.62,.04,.12,.08,.25,.1,.38,.01,.1,.03,.2,.03,.31,0,.22-.03,.44-.09,.66-.05,.18-.12,.35-.2,.52-.23,.48-.53,.91-.83,1.34-.27,.39-.53,.79-.73,1.22l.02-.06c-.14,.33-.26,.67-.36,1.01-.09,.33-.17,.66-.22,1h0c-.04,.3-.08,.61-.08,.92,0,.32,0,.63,.04,.94,.03,.25,.07,.51,.14,.76,.07,.26,.15,.51,.24,.77,.11,.28,.23,.55,.38,.81,.14,.24,.29,.48,.45,.7-.01-.02-.02-.03-.04-.05,.2,.27,.41,.53,.64,.77,.23,.23,.47,.46,.73,.67h0s0,0,0,0c0,0,0,0,0,0,.03,.02,.06,.05,.09,.07-.37-.46-.69-.94-.94-1.42-.24-.5-.41-.99-.52-1.5-.08-.43-.11-.85-.09-1.28,.03-.42,.11-.81,.22-1.17,.16-.46,.36-.87,.61-1.27,.32-.46,.64-.85,.97-1.16,.53-.46,1.15-.82,1.75-1.17,.7-.41,1.34-.78,1.89-1.28,.14-.12,.27-.24,.39-.38,.13-.14,.24-.32,.34-.49,.2-.31,.24-.66,.26-1,.01-.37-.14-.73-.32-1.06-.07-.13-.17-.27-.3-.41-.16-.2-.36-.39-.59-.59-.53-.45-1.21-.73-2-.83,.72-.35,1.39-.79,2.07-1.3,1.52-1.14,2.45-2.37,2.78-3.66,.27-1.07,.04-2.26-.61-3.32-.04,.24-.11,.47-.2,.69"/>
      <path class="cls-6" d="M109.52,15.49c-.61,.03-1.21,.09-1.82,.19-.64,.11-1.26,.29-1.87,.51-.52,.18-1.04,.39-1.54,.63-.56,.26-1.09,.57-1.6,.91-2.01,1.31-3.75,2.98-5.19,4.9-.12,.16-.05,.41,.1,.51,.18,.12,.39,.05,.52-.11,.17-.23,.35-.45,.53-.68,0,0,0,0,0,0,0,0,0,0,.01-.01,.01-.01,.02-.03,.04-.05,0,.01-.01,.02-.02,.03,.8-.91,1.71-1.71,2.71-2.39-.02,.01-.04,.03-.06,.04,.88-.57,1.81-1.03,2.79-1.39,0,0,0,0,0,0,.67-.23,1.34-.44,2.04-.59,.62-.13,1.25-.21,1.88-.27,.46-.03,.92-.05,1.38-.05,.29,0,.56-.08,.78-.28,.22-.2,.36-.48,.37-.77,.01-.29-.09-.57-.28-.79-.17-.2-.46-.37-.73-.37-.01,0-.02,0-.03,0m-1.23,2.23c-.07,0-.15,.01-.22,.02,.07,0,.15-.01,.22-.02m-3.99,.81s-.03,.01-.05,.02c.02,0,.03-.01,.05-.02m-5.63,3.82s0,0,0,0c0,0,.01-.01,.02-.02,0,0,0,.01-.01,.02"/>
      <path class="cls-7" d="M109.55,57.66c-.25,0-.51,.02-.77,.06-.26,.04-.52,.12-.76,.2-.33,.11-.59,.22-.84,.34-1.03,.5-1.82,1.14-2.37,1.9-.05,.06-.07,.14-.06,.21,.01,.08,.05,.14,.11,.19,.05,.04,.11,.06,.17,.06,.09,0,.18-.04,.24-.11,.09-.13,.19-.25,.3-.37,.19-.19,.4-.36,.68-.53,.3-.17,.63-.31,.96-.41,.32-.08,.62-.12,.95-.14-.03,.06-.02,.15-.01,.21,.27,1.31,.89,2.49,1.56,3.68,.61,1.1,1.22,2.08,1.87,2.99,1.32,1.87,2.93,3.66,4.94,5.47,1.9,1.71,3.91,3.07,5.97,4.04,1.46,.69,2.99,1.18,4.56,1.45,.85,.1,1.67,.16,2.45,.18,0,0,.06-.11,.06-.11-.97-.11-1.98-.33-3.01-.65-.91-.29-1.78-.64-2.57-1.04-.49-.22-.96-.45-1.43-.7-1.98-1.12-3.82-2.51-5.49-4.12-1.88-1.86-3.6-4.08-5.1-6.6-.34-.59-.66-1.19-.98-1.8-.31-.61-.67-1.33-.91-2.09-.07-.25-.12-.5-.16-.76,.15,.07,.24,.09,.33,.09,.1,0,.19-.02,.28-.06,.19-.08,.34-.24,.42-.43,.07-.19,.07-.41,0-.59-.1-.25-.33-.43-.63-.48-.25-.04-.5-.06-.75-.06"/>
      <path class="cls-6" d="M143.82,25.84h-.02c-1.65,0-3.35,.5-4.92,1.44-1.46,.87-2.72,2.12-3.63,3.62-.76,1.26-1.21,2.69-1.29,4.15-.09,1.49,.31,3.08,1.14,4.48,.4,.68,.94,1.36,1.6,2.01,.76,.75,1.67,1.36,2.7,1.8,1.22,.52,2.55,.79,3.86,.79,.81,0,1.62-.11,2.38-.31,.77,1.73,2.11,2.99,3.66,3.46,.32,.1,.68,.15,1.05,.15,.07,0,.15,0,.22,0,.46-.02,.93-.15,1.42-.4,.36-.18,.74-.47,1.11-.88,.37-.41,.7-.92,.96-1.52,.35-.78,.56-1.67,.66-2.79,.08-.92,.04-1.92-.12-3.12-.3-2.22-.95-4.42-1.95-6.53-.45-.96-.97-1.83-1.54-2.59-.32-.42-.6-.75-.88-1.03-.39-.4-.83-.74-1.22-1.02-1.48-1.1-3.32-1.7-5.19-1.7"/>
      <path class="cls-5" d="M143.05,28.41h-.03c-.99,0-2.07,.4-3.21,1.17-.51,.34-.96,.78-1.33,1.27-.07,.11-.14,.21-.21,.32-.12,.14-.24,.3-.33,.47-.24,.39-.35,.78-.35,1.18,0,.46,.14,.88,.39,1.18,.26,.31,.62,.47,1.07,.47,.32,0,.68-.08,1.08-.24,.42-.17,.81-.41,1.15-.62,.34-.21,.71-.48,1.11-.79,.74-.59,1.31-1.15,1.74-1.71,.29-.39,.73-1.14,.41-1.83-.28-.62-.96-.84-1.49-.84"/>
      <path class="cls-1" d="M106.05,25.09c-.76,0-1.53,.12-2.31,.34-1.77,.51-3.39,1.67-4.69,3.35-1.8,2.33-2.78,5.48-2.68,8.65,.05,1.69,.48,3.5,1.25,5.39,.65,1.76,1.54,3.32,2.64,4.64l.09,.11c.33,.36,.67,.71,1.02,1.06,.6,.55,1.25,1.04,1.95,1.47,1.53,.93,3.31,1.42,5.13,1.42,1.46,0,2.9-.32,4.16-.93,1.31-.62,2.46-1.68,3.35-3.06,.76-1.19,1.29-2.67,1.58-4.39,.25-1.62,.27-3.32,.05-5.05-.23-1.76-.66-3.45-1.29-5-.65-1.61-1.48-3.05-2.48-4.28-.48-.58-1-1.1-1.54-1.53-.29-.23-.59-.45-.91-.64-.37-.23-.81-.46-1.31-.66-.53-.24-1.08-.43-1.63-.58-.49-.13-1.06-.23-1.72-.29-.22-.02-.44-.03-.66-.03"/>
      <path class="cls-6" d="M109.29,25.66h0c-.24,.12-.48,.28-.7,.46-.3,.26-.58,.57-.85,.95-.38,.54-.7,1.17-.99,1.93-.45,1.21-.74,2.54-.89,4.07-.17,1.86-.1,3.76,.22,5.64,.3,1.66,.77,3.17,1.39,4.5,.45,.95,1.03,1.87,1.68,2.67,.55,.64,1.14,1.2,1.75,1.64,.65,.45,1.32,.81,2,1.06,.58,.21,1.21,.37,1.88,.48,.46-.47,.86-.97,1.2-1.5,.76-1.18,1.29-2.66,1.58-4.39,.25-1.62,.27-3.32,.05-5.06-.23-1.78-.67-3.46-1.29-5.01-.65-1.61-1.48-3.05-2.48-4.28-.47-.58-.99-1.09-1.54-1.53-.29-.23-.59-.45-.91-.65-.38-.24-.83-.47-1.31-.66-.25-.11-.5-.21-.76-.31,0,0,0,0-.01,0"/>
      <path class="cls-1" d="M107.45,36.68c-.22,0-.43,.02-.64,.04-.36,.03-.68,.09-1,.17-.41,.1-.81,.29-1.16,.45-.31,.15-.61,.32-.9,.51-.2,.12-.34,.33-.37,.56-.21,.21-.87,.97-.45,1.77,.39,.73,1.34,.81,2.02,.81h.23c.95-.03,1.88-.31,2.69-.83,.54-.34,1.24-.92,1.45-1.7,.09-.34,.04-.72-.13-1.02-.06-.09-.13-.19-.23-.28-.1-.12-.23-.21-.37-.25-.12-.06-.24-.1-.36-.14-.23-.06-.48-.09-.77-.09"/>
      <path class="cls-6" d="M63.1,16.26c-.43,0-.9,.05-1.4,.15-.71,.14-1.44,.42-2.32,.89-.68,.37-1.34,.83-2.04,1.4-.95,.65-1.91,1.45-3.02,2.51-1.58,1.51-2.98,3.18-4.34,4.8-1.85,2.18-3.84,4.34-5.93,6.42-3.19,3.18-6.53,6.08-9.08,8.25l.09-.05c-.55,.44-1.09,.9-1.63,1.35-1.55,1.31-3.16,2.66-4.68,4.06-2.04,1.88-3.77,3.71-5.29,5.59-1.66,2.06-3.05,4.22-4.14,6.41-1.16,2.35-2,4.87-2.5,7.47-.48,2.52-.57,5.09-.28,7.62,.29,2.45,.96,4.84,1.99,7.1,2.1,4.6,5.73,8.62,10.23,11.34,2.1,1.27,4.41,2.16,6.86,2.67,1.38,.29,2.83,.43,4.32,.43,.88,0,1.79-.05,2.69-.15,4.45-.51,9.02-2.33,13.22-5.26,1.96-1.37,3.85-3,5.6-4.85,1.67-1.76,3.23-3.78,4.75-6.17,2.82-4.41,5.03-9.57,6.56-15.32,.69-2.63,1.22-5.37,1.56-8.15,.3-2.47,.41-5,.5-7.38,.15-4.03,.21-9.33-.63-14.63-.89-5.59-2.58-9.86-5.17-13.05-1.53-1.88-3.11-2.96-4.84-3.32-.34-.07-.7-.11-1.08-.11"/>
      <path class="cls-6" d="M61.96,16.36c-.67,.04-1.34,.2-1.98,.41-1.34,.47-2.53,1.27-3.61,2.17-2.14,1.8-3.84,4.05-5.44,6.32-.1,.15-.1,.4-.05,.57,.06,.19,.19,.35,.36,.45s.38,.11,.57,.05c.21-.06,.32-.19,.45-.36,.07-.1,.14-.2,.21-.31,0,0,0,.01-.01,.02,1.46-2.06,3.05-4.07,4.98-5.7,.76-.61,1.57-1.16,2.46-1.57,.54-.23,1.09-.4,1.66-.51,.47-.06,.95-.07,1.42-.03,.17,.03,.35,.06,.52,.09,.4,.09,.81-.15,.9-.56,.09-.39-.15-.82-.55-.91-.49-.1-.99-.16-1.5-.16-.14,0-.27,0-.41,.01m-4.52,3.64s-.07,.06-.11,.09l.11-.09Z"/>
      <path class="cls-6" d="M62.53,16.51c-.44,.02-.87,.12-1.29,.25-.39,.12-.64,.52-.52,.92,.1,.39,.53,.65,.92,.53,.26-.08,.52-.14,.78-.19,.25-.02,.5-.02,.76,0,.03,0,.06,0,.08,.01,.21,.04,.39,.04,.58-.07,.17-.1,.29-.26,.34-.45,.05-.19,.03-.41-.07-.58-.09-.15-.26-.31-.45-.34-.31-.05-.6-.08-.91-.08-.07,0-.14,0-.21,0"/>
      <path class="cls-6" d="M60.93,16.68c-.39,.11-.63,.52-.52,.92,.1,.39,.53,.64,.92,.52,.3-.09,.6-.15,.91-.2,.34-.03,.67-.04,1.01-.03,.41,.02,.75-.35,.75-.75,0-.42-.34-.73-.75-.75-.09,0-.17,0-.26,0-.7,0-1.39,.1-2.06,.29"/>
      <path class="cls-6" d="M60.98,16.59c-.39,.13-.64,.51-.52,.92,.1,.38,.53,.65,.92,.52,.2-.07,.4-.12,.61-.15,.29-.02,.58-.02,.88,.01,.19,.02,.41-.09,.53-.22,.14-.14,.22-.33,.22-.53s-.08-.39-.22-.53c-.15-.15-.32-.19-.53-.22-.17-.02-.34-.03-.51-.03-.47,0-.93,.08-1.38,.22"/>
      <path class="cls-6" d="M61.02,16.5c-.39,.11-.63,.53-.52,.93,.1,.39,.53,.64,.92,.52,.2-.06,.39-.1,.59-.14,.37-.04,.74-.04,1.11,0,.41,.03,.75-.37,.75-.75,0-.2-.08-.39-.22-.53-.15-.15-.32-.2-.53-.22-.18-.02-.35-.02-.53-.02-.53,0-1.05,.07-1.57,.22"/>
      <path class="cls-6" d="M61.07,16.5c-.39,.12-.64,.52-.52,.92,.1,.39,.53,.64,.92,.52,.2-.06,.41-.11,.62-.15,.28-.03,.55-.03,.83,0,.41,.03,.75-.36,.75-.75,0-.19-.08-.39-.22-.53-.15-.15-.32-.21-.53-.22-.13,0-.25-.01-.38-.01-.5,0-.99,.07-1.47,.22"/>
      <path class="cls-6" d="M61.47,16.38c-.4,.1-.63,.54-.52,.93,.11,.4,.53,.62,.92,.52,.12-.03,.23-.05,.35-.07,.27-.02,.52-.02,.79,0,.19,.02,.4-.09,.53-.22,.14-.14,.22-.33,.22-.53s-.08-.39-.22-.53c-.15-.15-.32-.2-.53-.22-.14-.02-.29-.02-.43-.02-.37,0-.74,.05-1.1,.14"/>
      <path class="cls-4" d="M61.46,16.36s-.07,.02-.1,.03l-.16,.03c-.4,.07-.81,.18-1.23,.33-1.19,.41-2.37,1.12-3.61,2.17-1.27,1.07-2.48,2.36-3.78,4.05-.92,1-1.8,2.06-2.59,2.98-1.87,2.21-3.87,4.38-5.95,6.46-3.24,3.22-6.55,6.1-9.08,8.25l.08-.02c-.56,.43-1.09,.87-1.62,1.32l-.21,.18c-1.48,1.24-3.01,2.53-4.47,3.88-2.03,1.87-3.76,3.7-5.29,5.59-1.66,2.06-3.05,4.22-4.14,6.42-1.16,2.36-2.01,4.88-2.51,7.48-.48,2.53-.57,5.09-.28,7.62,.3,2.46,.97,4.85,2,7.1,2.1,4.61,5.73,8.63,10.23,11.34,2.06,1.24,4.33,2.13,6.74,2.65-1.28-.54-2.53-1.14-3.74-1.83-.9-.52-1.78-1.07-2.62-1.69-.9-.67-1.75-1.41-2.56-2.19-.9-.86-1.75-1.78-2.52-2.77-.71-.94-1.37-1.94-1.9-3-.52-1.05-.95-2.15-1.23-3.29-.29-1.18-.45-2.39-.45-3.6,0-1.32,.14-2.66,.41-3.95,.25-1.28,.59-2.53,1.03-3.75,1.82-5.03,5.01-9.46,8.64-13.35,.91-.98,1.86-1.94,2.83-2.86,.5-.47,1-.94,1.5-1.4,.49-.44,.98-.87,1.47-1.31,2.15-1.92,4.25-3.92,6.21-6.04h0s0,0,0,0c0,0,0,0,0,0,0,0,0,0,0,0,0,0,0,0,.01-.01,0,0,0,0,0,.01,1.83-1.99,3.55-4.09,5.07-6.32,.44-.64,.87-1.28,1.27-1.95,.38-.62,.74-1.25,1.09-1.88,.73-1.32,1.43-2.66,2.14-4,.71-1.33,1.44-2.66,2.25-3.93,.69-1.08,1.43-2.14,2.24-3.15,.75-.93,1.54-1.83,2.43-2.63,.46-.41,.93-.8,1.44-1.15,.43-.3,.89-.58,1.36-.81,.89-.44,1.85-.76,2.84-.87-.18-.05-.36-.1-.54-.14-.35-.07-.71-.11-1.08-.11h-.12c-.14-.01-.27-.02-.41-.02-.36,0-.72,.05-1.11,.14"/>
    </g>
  </g>
</svg>