<?xml version="1.0" encoding="UTF-8"?>
<svg id="Layer_2" data-name="Layer 2" xmlns="http://www.w3.org/2000/svg" viewBox="0 0 210.39 212.67">
  <defs>
    <style>
      .cls-1 {
        fill: #fe5e78;
      }

      .cls-2 {
        fill: #8e3f59;
      }

      .cls-3 {
        fill: #ad4d6c;
      }

      .cls-4 {
        fill: #3e164a;
      }

      .cls-5 {
        fill: #64446c;
      }

      .cls-6 {
        fill: #350b40;
      }

      .cls-7 {
        fill: #7a364d;
      }
    </style>
  </defs>
  <g id="OBJECTS">
    <g>
      <path class="cls-6" d="M55.76,119.79c-.22-.04-.43-.07-.65-.08-.35-.02-.7-.02-1.03,.03-.37,.05-.72,.17-1.07,.36-.52,.28-.92,.77-1.13,1.4-.17,.51-.18,1.1-.03,1.69,.13,.53,.4,1.09,.82,1.71,.38,.56,.87,1.14,1.5,1.77,.88,.89,1.94,1.77,3.41,2.85,1.22,.89,2.54,1.77,4.04,2.68,.59,.36,1.18,.7,1.78,1.05-.01,0-.02,0-.04,0-.18-.03-.36-.04-.54-.05-.57-.02-1.02,.02-1.43,.1-.23,.05-.47,.1-.69,.18-.17,.06-.33,.15-.49,.23l-.13,.07c-.36,.2-.63,.49-.79,.71-.2,.28-.34,.57-.4,.86-.05,.2-.09,.39-.1,.59-.01,.22,.01,.44,.04,.66,.03,.3,.11,.6,.26,.97,.18,.46,.39,.89,.64,1.31,.51,.83,1.2,1.69,2.11,2.61,1.51,1.52,3.47,2.96,5.83,4.27,2.56,1.42,5.54,2.66,9.11,3.8,1.48,.47,3,.9,4.52,1.28-.53,.11-.97,.3-1.31,.54-.51,.36-.81,.92-.8,1.5,.01,.53,.21,1.09,.61,1.67,.36,.54,.84,1.07,1.45,1.62,.58,.52,1.27,1.05,2.04,1.55,.67,.45,1.42,.88,2.23,1.27,.39,.18,.78,.36,1.18,.52,.49,.2,1.01,.36,1.53,.51,1.52,.47,3.13,.85,4.76,1.14,1.71,.3,3.47,.5,5.23,.59,3.43,.17,6.75-.11,9.89-.85,.2-.05,.33-.15,.36-.3,.03,0,.07,.02,.1,.02,.07,.01,.14,.02,.2,.01,.25,0,.59-.1,.75-.29,.47-.57,.84-1.1,1.13-1.63,.37-.65,.62-1.33,.81-1.86,.4-1.17,.61-2.48,.63-3.98,.02-1.29-.19-2.65-.61-4.04-.38-1.26-.99-2.45-1.79-3.53-.02-.09-.06-.17-.1-.24-.14-.25-.39-.44-.74-.59-.33-.13-.67-.22-1.01-.32l-.23-.07-.64-.19-.64-.19c-.84-.25-1.68-.51-2.52-.78-1.67-.53-3.38-1.11-5.09-1.73-3.01-1.1-6.14-2.37-9.29-3.8-5.89-2.68-11.39-5.65-16-8.19-1.34-.74-2.67-1.5-4-2.25l-.87-.49c-.76-.42-1.52-.85-2.27-1.3-.59-.36-1.18-.73-1.76-1.1-.7-.45-1.4-.89-2.12-1.32-1.52-.9-3.18-1.83-4.99-2.48-.58-.21-1.13-.36-1.65-.45"/>
      <path class="cls-2" d="M126.11,157.82h-.2s-.2,0-.2,0c-1.79,.04-3.56,.32-5.25,.85-1.5,.47-3.02,1.16-4.51,2.03-1.44,.83-2.81,1.82-4.08,2.76-.47,.35-.93,.7-1.39,1.05-.85,.64-1.69,1.28-2.56,1.9-2.47,1.75-4.58,2.93-6.66,3.72l-.46,.17c-.38,.13-.75,.27-1.13,.41-.56,.21-1.12,.46-1.68,.73-.94,.46-1.89,1.04-2.9,1.77-1.59,1.16-3.02,2.67-4.24,4.5-1.05,1.57-1.94,3.4-2.79,5.75-.64,1.78-1.2,3.73-1.71,5.95-.4,1.73-.7,3.5-.91,5.24-.23,1.94-.31,3.8-.23,5.54,.21,4.37,1.45,7.66,3.66,9.77,1.29,1.24,2.99,2.09,4.91,2.47,.74,.15,1.52,.22,2.31,.22,1.56,0,3.16-.28,4.76-.84,2.42-.85,4.5-2.19,6-3.88,.85-.96,1.53-2.09,2.02-3.35,.43-1.11,.59-2.37,.49-3.73-.12-1.63-.6-3.22-1.06-4.76l-.12-.41c.25,.08,.52,.14,.8,.2,1.03,.22,2.08,.35,3.13,.4,.3,.01,.59,.02,.89,.02,1.71,0,3.54-.22,5.43-.64,2.1-.47,4.21-1.2,6.26-2.17,1-.48,2-1.01,2.96-1.58,.85-.5,1.73-1.08,2.84-1.88,2.96-2.12,5.49-4.6,7.52-7.35,2.08-2.82,3.46-5.76,4.09-8.74,.17-.11,.37-.32,.42-.56,.13-.65,.21-1.23,.25-1.79,.04-.55,.02-1.13-.05-1.85-.1-1.02-.36-2.05-.81-3.14-.35-.88-.87-1.73-1.62-2.71-.58-.74-1.3-1.45-2.27-2.23-1.53-1.23-3.46-2.22-5.73-2.92-.97-.3-2.06-.54-3.32-.72-.91-.13-1.88-.2-2.87-.2"/>
      <path class="cls-2" d="M196.72,52.56c-.85,0-1.74,.18-2.55,.51-.99,.4-1.9,1.09-2.66,1.99-.53,.03-1.07,.09-1.61,.15-2.09,.26-4.26,.74-6.63,1.49-4.08,1.28-8.25,3.13-12.73,5.66-3.86,2.19-7.52,4.68-10.86,7.4-3.57,2.9-7.14,6.47-10.93,10.91-2.92,3.42-5.7,7.05-8.39,10.56l-1.24,1.62c-.05,.07-.07,.15-.06,.25,.02,.1,.08,.2,.16,.26,1.14,1.22,2.25,2.28,3.39,3.24,1.26,1.07,2.67,2.07,4.18,2.97,1.52,.91,3.08,1.68,4.63,2.28,1.21,.47,2.81,1.03,4.5,1.24-.03,.26,.06,.53,.24,.73,.19,.21,.48,.34,.78,.34,.26,0,.49-.09,.66-.26l.76-.77c.55-.56,1.11-1.12,1.69-1.66,.71-.67,1.47-1.33,2.3-2.03,1.41-1.19,2.97-2.36,4.63-3.5,6.91-4.7,14.68-8.09,22.19-11.38,2.41-1.05,5.14-2.25,7.76-3.46,2.39-1.11,4.31-2.15,6.04-3.27,1.06-.69,1.99-1.36,2.83-2.07,.82-.69,1.6-1.47,2.32-2.33,.97-1.16,2.14-3.04,2.26-5.4,.02-.44,0-.94-.09-1.51-.08-.58-.26-1.14-.44-1.66-.45-1.3-1.27-2.44-1.84-3.18-.75-.97-1.69-1.92-2.88-2.89-.78-.64-1.67-1.22-2.62-1.72-.16-.61-.35-1.09-.59-1.52-.17-.31-.35-.57-.53-.81-.23-.28-.48-.53-.65-.68-.37-.36-.87-.68-1.47-.96-.48-.23-1.04-.39-1.67-.48-.29-.04-.59-.07-.88-.07"/>
      <path class="cls-3" d="M134.1,86.09c-.16,0-.32,0-.48,0-1.64,.05-3.27,.39-4.85,1-2.93,1.13-5.68,3.12-8.38,6.09-2.31,2.53-4.44,5.58-6.71,9.58-1.7,3.01-3.34,6.33-5.3,10.76-.76,1.71-1.49,3.42-2.22,5.14-.64,1.51-1.29,3.02-1.95,4.52-.28,.62-.56,1.25-.84,1.86l-.22,.47c-.61,1.35-1.21,2.76-1.76,4.18-1.14,2.97-1.92,5.69-2.36,8.33-.23,1.42-.37,2.83-.41,4.22-.04,1.36,.04,2.75,.24,4.25,.38,2.84,1.32,5.75,2.81,8.63,2,3.89,5.23,7.43,9.32,10.24,3.52,2.42,7.67,4.22,11.99,5.2,2.33,.53,4.69,.79,7.01,.79,1.73,0,3.44-.15,5.08-.44,.41,2.02,1.08,3.85,1.98,5.45,.9,1.59,2.14,3.01,3.58,4.11,1.3,.99,2.83,1.75,4.57,2.26,1.52,.44,3.22,.67,5.06,.67h.2c1.74-.01,3.63-.25,5.6-.71,1.78-.41,3.6-1.02,5.58-1.87,1.79-.76,3.56-1.71,5.4-2.89,2.14-1.37,4.17-2.92,6.04-4.62,2.06-1.88,3.74-3.86,5-5.87,.64-1.03,1.18-2.13,1.6-3.27,.36-.98,.6-2.07,.71-3.24,.35-3.54-1.06-8.19-4.97-10.01-.36-.17-.75-.32-1.15-.44-.47-.14-.96-.21-1.38-.27-.32-.04-.64-.06-.97-.06-.23,0-.46,0-.7,.03,.61-2.3,.78-4.48,.51-6.46-.18-1.3-.58-2.53-1.18-3.66-.11-.21-.24-.42-.37-.62,.35-1.43,.62-2.86,.81-4.24,.33-2.43,.43-4.98,.31-7.81-.2-4.68-1.06-9.26-2.56-13.59-1.5-4.33-3.61-8.33-6.29-11.89-1.36-1.81-2.87-3.51-4.48-5.05-1.6-1.53-3.39-2.97-5.32-4.27-3.23-2.18-6.87-3.92-10.83-5.16-.06-.02-.13-.03-.21-.03-.15,0-.31,.05-.44,.15-1.51-.5-2.98-.97-4.52-1.24-.83-.14-1.69-.22-2.55-.22"/>
      <path class="cls-7" d="M100.92,130.91s-.02,.01-.02,.02c-.91,2.52-1.53,4.85-1.91,7.11-.24,1.45-.37,2.87-.41,4.22-.03,1.35,.05,2.74,.25,4.25,.39,2.87,1.34,5.78,2.82,8.64,2,3.89,5.23,7.44,9.34,10.26,3.52,2.43,7.66,4.23,12,5.2,2.34,.53,4.71,.8,7.02,.8,.84,0,1.72-.04,2.63-.12,.04-.04,.08-.07,.12-.08,2.04-.5,4.1-1.23,6.11-2.17,2.72-1.27,5.26-2.88,7.54-4.78,.99-.84,1.83-1.64,2.58-2.45,.82-.89,1.56-1.8,2.2-2.7,.49-.69,.86-1.28,1.18-1.86,.19-.35,.37-.72,.53-1.08-1.19,1.3-2.48,2.53-3.85,3.64-1.73,1.39-3.61,2.62-5.59,3.66-2.32,1.22-4.69,2.15-7.04,2.78-2.51,.67-4.94,1.01-7.22,1.01-1.28,0-2.42-.08-3.5-.25-1.06-.16-2.09-.39-3.09-.67-1.97-.57-3.84-1.34-5.56-2.3-1.78-.99-3.43-2.15-4.9-3.43-1.52-1.32-2.92-2.78-4.16-4.35-2.54-3.23-4.47-6.83-5.72-10.72-1.29-4-1.83-8.01-1.59-11.91,.05-.89,.14-1.79,.28-2.7,0,0-.02-.02-.02-.02"/>
      <path class="cls-2" d="M154.56,134.13c-2.52,.29-4.97,1.01-7.31,2-2.56,1.08-4.91,2.6-7.08,4.32-2.26,1.79-4.27,3.85-6.11,6.07-.09,.11-.11,.24-.01,.35,.09,.09,.27,.12,.36,.01,2-2.41,4.29-4.58,6.84-6.4-.02,.02-.05,.03-.07,.05,2.22-1.57,4.64-2.85,7.18-3.8,2.04-.73,4.16-1.21,6.32-1.42h-.15c1.85-.16,3.71-.14,5.55,.13,0,0-.02,0-.03,0,.02,0,.04,0,.06,.01,.04,0,.08,.01,.12,.02h-.06c.73,.11,1.46,.27,2.17,.48,.81,.23,1.59,.53,2.35,.87l-.19-.08c1.24,.56,2.42,1.25,3.48,2.11,.7,.59,1.33,1.25,1.87,1.99,.38,.57,.7,1.17,.95,1.81,.23,.66,.39,1.34,.47,2.03,.07,.85,.03,1.7-.09,2.55-.19,1.06-.52,2.08-.94,3.07-.74,1.62-1.73,3.11-2.86,4.49,.05-.06,.1-.12,.14-.18-1.82,2.22-3.98,4.14-6.31,5.81-.91,.64-1.84,1.23-2.8,1.8-.39,.23-.57,.7-.35,1.12,.21,.4,.72,.57,1.12,.35,1.02-.55,2-1.18,2.95-1.85,1.05-.73,2.05-1.52,3.01-2.35,1.95-1.69,3.7-3.62,5.13-5.77,1.37-2.07,2.38-4.4,2.77-6.85,.09-.54,.14-1.07,.14-1.62,0-.58-.06-1.16-.17-1.73-.09-.52-.25-1.01-.44-1.5-.18-.48-.41-.93-.66-1.37-1.05-1.79-2.66-3.21-4.44-4.24-1.82-1.05-3.86-1.72-5.93-2.12-1-.19-2.02-.32-3.04-.35-.25,0-.5-.01-.74-.01-1.06,0-2.12,.07-3.18,.19m-6.15,2.59s-.02,0-.04,.01c.01,0,.02,0,.04-.01m22.8,10.29c-.01,.07-.02,.15-.04,.22,.01-.08,.02-.15,.04-.22m-9.88,13.33s-.04,.03-.06,.04c.02-.01,.04-.03,.06-.04m-1.18-24.88s-.03,0-.05,0c0,0-.02,0-.03,0,.03,0,.06,.01,.08,.01"/>
      <path class="cls-2" d="M176.43,159.84c-.81,.24-1.59,.55-2.34,.95-.77,.41-1.45,.94-2.06,1.55-.09,.09-.13,.23-.04,.35,.08,.1,.25,.13,.35,.04,.18-.18,.36-.34,.55-.5,.18-.14,.37-.27,.57-.39,.33-.2,.67-.38,1.02-.53,.34-.16,.71-.28,1.07-.39,.61-.17,1.23-.27,1.86-.35,.61-.08,1.21-.11,1.83-.13h.01s.07,0,.11,0c-.02,0-.04,0-.05,0,.37,0,.73,0,1.1,.02,0-.37,0-.74,0-1.11v-.03c-1.35,.01-2.7,.15-3.98,.53"/>
      <path class="cls-2" d="M176.94,152.37c-.79,.15-1.57,.37-2.32,.66-1.5,.57-2.89,1.43-4.1,2.5-.12,.11-.15,.28-.05,.42,.1,.12,.3,.16,.42,.05,.44-.39,.91-.73,1.4-1.04,.72-.42,1.49-.75,2.29-1,.57-.16,1.14-.28,1.71-.37,.55-.08,1.11-.11,1.66-.12,.16,0,.32,0,.48,0-.07-.1-.14-.21-.21-.31-.02-.03-.05-.07-.08-.1-.22-.27-.44-.53-.68-.77-.17,.03-.35,.06-.53,.09m1.16,1.09s-.09,0-.14,0c.05,0,.09,0,.14,0"/>
      <path class="cls-3" d="M120.29,.03c-.59,.06-1.23,.23-1.9,.53-.11,.05-.21,.1-.32,.15-1.38,.68-2.66,1.73-4.15,3.4-1.16,1.3-2.23,2.8-3.28,4.59-.26,.44-.51,.89-.75,1.35,0-.83-.06-1.51-.17-2.12-.14-.83-.39-1.51-.74-2.07-.16-.25-.35-.48-.6-.69-.24-.22-.56-.37-.98-.47-.59-.15-1.28-.05-2.07,.3-.04,.01-.08,.03-.12,.06-.9,.43-1.58,1.02-2.02,1.76-.43,.72-.69,1.59-.78,2.6-.1,1.21,.03,2.52,.42,4.12,.16,.62,.32,1.19,.51,1.72-4.21-.31-8.41,.1-12.48,1.21-1.82,.5-3.64,1.15-5.42,1.94-2.26,1-4.46,2.24-6.52,3.67-3.61,2.49-6.84,5.54-9.6,9.08-1.37,1.76-2.63,3.62-3.73,5.55-1.06,1.85-2.02,3.89-2.87,6.05-1.62,4.15-2.59,8.52-2.86,12.99-.15,2.31-.09,4.73,.17,7.39,.25,2.52,.7,4.99,1.35,7.34,1.23,4.46,3.19,8.54,5.84,12.12,1.28,1.74,2.73,3.38,4.32,4.87,1.53,1.45,3.26,2.82,5.14,4.08,3.5,2.35,7.62,4.31,12.25,5.82,2.17,.71,4.43,1.3,6.92,1.81,2.19,.45,4.56,.8,7.44,1.12l.55,.06c.84,.09,1.71,.19,2.57,.22,1.09,.04,2.14-.05,3.12-.27,.04-.01,.08-.02,.12-.04,.09-.04,.17-.09,.23-.17,4.19-1.35,8.59-3.07,13.45-5.23,4.68-2.08,9.32-4.38,13.64-6.55l.09-.06h0s.07-.02,.1-.03c.11-.05,.21-.12,.28-.22,.27-.32,.58-.69,.93-1.03,.53-.48,1.13-.88,1.64-1.21,.72-.46,1.48-.88,2.13-1.22,.91-.48,1.83-.95,2.75-1.42,1.77-.9,3.61-1.83,5.34-2.88,.1-.06,.19-.12,.29-.18,.69-1.19,1.3-2.41,1.84-3.68,0,.02-.02,.04-.02,.06,.43-1.01,.8-2.05,1.11-3.11,.3-1.04,.53-2.09,.68-3.17,0,0,0,0,0,0,.06-.48,.11-.97,.14-1.45,0-.32,0-.65,0-.97,0-.03,0-.06,.02-.09,0-.02,0-.04,.01-.06-.09-.1-.18-.2-.27-.29,1.37-.34,2.75-.81,4.08-1.41,.22-.1,.45-.2,.67-.31,1.76-.84,3.37-1.86,4.8-3.03,1.48-1.22,2.74-2.58,3.75-4.05,.53-.78,1-1.59,1.39-2.41,.37-.8,.7-1.68,.96-2.63,.48-1.7,.65-3.57,.53-5.72-.12-1.92-.47-3.91-1.08-6.07-.56-1.98-1.35-4-2.35-6-.99-1.99-2.16-3.9-3.48-5.68-2.11-2.85-4.53-5.24-7.19-7.11-2.86-2.01-5.86-3.29-8.92-3.81-.15-.02-.3,0-.44,.06-.07,.03-.12,.06-.17,.1-.19-.11-.45-.12-.66-.02-.07,.03-.14,.07-.2,.13-.78,.69-1.59,1.34-2.43,1.94l-.12,.11h0c-1.57,1.07-3.18,1.98-4.77,2.69-.42,.18-.84,.35-1.26,.52-1.34,.49-2.55,.79-3.69,.93-.91,.09-1.83,.07-2.74-.06-.86-.14-1.69-.38-2.45-.7-.68-.31-1.3-.69-1.84-1.11-.42-.38-.78-.75-1.09-1.16-.25-.37-.44-.74-.6-1.14-.13-.39-.23-.78-.28-1.18-.04-.48-.02-.94,.04-1.41,.1-.53,.24-1.02,.41-1.46,.31-.65,.73-1.24,1.14-1.81,.43-.6,.88-1.23,1.19-1.92,.07-.17,.15-.33,.2-.5,.06-.19,.09-.39,.12-.58,.05-.38-.07-.73-.17-1.01-.14-.36-.44-.61-.71-.83-.14-.1-.29-.18-.44-.25-.23-.11-.48-.21-.78-.29-.67-.2-1.39-.18-2.15,.05,.53-.7,.96-1.38,1.34-2.05,.92-1.66,1.28-3.16,1.05-4.46-.26-1.46-1.44-2.76-3.08-3.39-.55-.21-1.14-.31-1.76-.31-.19,0-.38,0-.57,.03"/>
      <path class="cls-2" d="M78.9,22.05c-3.62,2.5-6.85,5.56-9.6,9.09-1.39,1.77-2.64,3.63-3.74,5.55-1.06,1.85-2.02,3.88-2.87,6.05-1.62,4.16-2.59,8.53-2.87,13-.15,2.32-.09,4.74,.18,7.4,.25,2.51,.7,4.98,1.35,7.35,1.23,4.46,3.2,8.54,5.85,12.12,1.29,1.74,2.74,3.38,4.33,4.87,1.54,1.45,3.27,2.82,5.15,4.08,3.49,2.35,7.61,4.31,12.25,5.83,2.17,.71,4.44,1.31,6.92,1.81,2.22,.45,4.59,.81,7.44,1.12l.54,.06c.92,.1,1.74,.19,2.57,.22,1.07,.05,2.12-.05,3.13-.27,.05-.01,.09-.03,.13-.04,.09-.04,.16-.1,.24-.18,.15-.05,.31-.1,.46-.15-2.46-1.02-4.9-2.09-7.3-3.26-3.86-1.87-7.61-3.98-11.07-6.52-2.12-1.56-4.14-3.25-6-5.11-1.91-1.9-3.66-3.94-5.27-6.09-1.58-2.1-3.02-4.31-4.32-6.59-1.33-2.35-2.52-4.77-3.51-7.29-.98-2.47-1.8-5.01-2.39-7.61-.59-2.59-.98-5.23-1.09-7.89-.1-2.59,.02-5.19,.46-7.75,.43-2.49,1.12-4.94,2.09-7.27,.97-2.32,2.18-4.54,3.65-6.57,1.47-2.05,3.18-3.94,5.1-5.59,1.17-1,2.44-1.88,3.78-2.62,1.33-.74,2.72-1.36,4.13-1.95,1.4-.58,2.82-1.12,4.22-1.72,.24-.1,.47-.2,.7-.3-.9,.17-1.79,.38-2.69,.63-1.83,.5-3.66,1.15-5.42,1.94-2.25,1-4.44,2.24-6.53,3.67"/>
      <path class="cls-2" d="M123.93,1.63c.01,.33,0,.66-.05,.99-.05,.32-.11,.64-.2,.95-.21,.74-.5,1.46-.84,2.15-.74,1.51-1.66,2.93-2.61,4.32-.45,.66-.9,1.31-1.34,1.97-.29,.43-.58,.87-.85,1.31,.04-.02,.07-.05,.11-.07,.41-.25,.84-.5,1.29-.65,.42-.15,.86-.26,1.31-.25,.21,0,.42,.02,.62,.08,.11,.03,.22,.06,.32,.11,.07,.03,.14,.07,.2,.11,.2,.12,.4,.26,.55,.44,.08,.1,.17,.19,.24,.3,.05,.08,.11,.18,.15,.27,.09,.2,.16,.42,.18,.64,.02,.18,.04,.37,.03,.56-.02,.53-.12,1.05-.21,1.56-.09,.47-.17,.93-.17,1.41,0-.02,0-.04,0-.06,0,.36,.03,.72,.08,1.07,.05,.34,.12,.68,.2,1.01,0,0,0,0,0-.01,.09,.3,.18,.6,.3,.89,.12,.29,.26,.57,.42,.84,.13,.22,.27,.43,.43,.64,.17,.21,.34,.41,.53,.6,.21,.21,.44,.4,.67,.59,.22,.17,.46,.32,.7,.46-.02-.01-.03-.02-.06-.03,.29,.16,.59,.32,.9,.44,.3,.12,.62,.23,.94,.32h0s0,0,0,0c0,0,0,0,0,0,.04,0,.08,.02,.12,.03-.53-.27-1.01-.57-1.44-.91-.42-.36-.77-.74-1.08-1.15-.25-.36-.44-.73-.6-1.13-.14-.4-.23-.79-.27-1.17-.03-.48-.02-.94,.04-1.41,.1-.55,.24-1.03,.41-1.45,.3-.63,.72-1.22,1.12-1.78,.48-.66,.91-1.26,1.21-1.94,.08-.17,.15-.33,.21-.51,.06-.19,.09-.39,.11-.59,.05-.36-.05-.7-.17-1.02-.13-.34-.43-.61-.72-.84-.12-.09-.27-.17-.45-.25-.23-.12-.49-.21-.78-.3-.67-.2-1.4-.18-2.16,.05,.51-.62,.95-1.29,1.36-2.02,.92-1.66,1.28-3.16,1.05-4.47-.19-1.08-.88-2.08-1.9-2.79,.06,.23,.09,.47,.1,.71"/>
      <path class="cls-6" d="M112.24,18.88c-.55,.27-1.07,.57-1.58,.91-.54,.36-1.03,.78-1.5,1.22-.4,.38-.79,.78-1.15,1.2-.41,.46-.76,.97-1.09,1.48-1.3,2.01-2.22,4.25-2.75,6.59-.05,.19,.11,.39,.3,.42,.21,.03,.38-.11,.43-.31,.06-.28,.13-.56,.21-.83,0,0,0,0,0,.01,0,0,0-.01,0-.02,0-.02,0-.04,.02-.06,0,.01,0,.02,0,.04,.36-1.16,.87-2.26,1.51-3.29-.01,.02-.03,.04-.04,.06,.57-.88,1.23-1.68,1.98-2.4,0,0,0,0,0,0,.52-.49,1.05-.95,1.62-1.36,.51-.37,1.05-.7,1.6-1.01,.41-.22,.82-.42,1.24-.6,.27-.12,.48-.3,.6-.57,.12-.27,.13-.58,.03-.86-.1-.27-.31-.49-.57-.6-.24-.11-.57-.15-.82-.04-.01,0-.02,0-.03,.01m-.22,2.54c-.06,.04-.13,.07-.19,.11,.06-.04,.13-.07,.19-.11m-3.32,2.37s-.03,.03-.04,.04c.01-.01,.03-.03,.04-.04m-3.59,5.78s0,0,0,0c0,0,0-.02,0-.02,0,0,0,.01,0,.02"/>
      <path class="cls-6" d="M147.79,14.39h-.02c-1.51,.68-2.86,1.83-3.91,3.32-.98,1.39-1.62,3.04-1.84,4.78-.19,1.46-.01,2.96,.5,4.32,.52,1.39,1.54,2.68,2.86,3.63,.64,.46,1.41,.86,2.28,1.19,1,.38,2.08,.56,3.2,.55,1.33-.02,2.66-.31,3.85-.84,.74-.33,1.43-.75,2.05-1.25,1.41,1.27,3.15,1.88,4.75,1.68,.33-.04,.69-.14,1.02-.29,.07-.03,.13-.06,.2-.1,.41-.21,.78-.52,1.14-.94,.26-.31,.48-.73,.65-1.25,.17-.52,.26-1.12,.27-1.78,0-.86-.17-1.76-.53-2.82-.3-.88-.74-1.77-1.38-2.81-1.18-1.91-2.67-3.65-4.44-5.18-.81-.69-1.63-1.28-2.46-1.74-.46-.25-.85-.44-1.22-.58-.52-.2-1.06-.34-1.53-.44-1.8-.4-3.73-.2-5.43,.55"/>
      <path class="cls-5" d="M148.13,17.06h-.02c-.91,.41-1.73,1.22-2.45,2.39-.32,.52-.56,1.1-.7,1.69-.02,.13-.05,.25-.06,.38-.05,.18-.09,.37-.11,.56-.06,.45,0,.85,.16,1.22,.19,.42,.48,.75,.83,.92,.36,.18,.76,.17,1.17,0,.29-.13,.59-.35,.89-.66,.31-.32,.58-.7,.79-1.03,.22-.33,.46-.73,.7-1.18,.44-.84,.73-1.59,.89-2.27,.11-.47,.2-1.34-.37-1.84-.51-.45-1.21-.38-1.7-.16"/>
      <path class="cls-6" d="M78.54,50.5c0-.43-.05-.9-.15-1.4-.14-.7-.43-1.44-.91-2.31-.37-.67-.84-1.34-1.41-2.03-.66-.95-1.46-1.9-2.53-3.01-1.52-1.57-3.2-2.97-4.82-4.32-2.19-1.83-4.37-3.81-6.46-5.89-3.2-3.18-6.11-6.49-8.3-9.03l.05,.08c-.45-.55-.9-1.08-1.36-1.62-1.31-1.55-2.67-3.15-4.08-4.66-1.89-2.03-3.73-3.75-5.62-5.26-2.07-1.65-4.24-3.03-6.43-4.1-2.36-1.15-4.88-1.98-7.49-2.46-2.52-.47-5.09-.55-7.62-.24-2.45,.3-4.83,.99-7.08,2.03-4.59,2.13-8.59,5.79-11.28,10.29-1.25,2.11-2.14,4.43-2.63,6.88C.13,24.86,0,26.31,0,27.8c0,.88,.06,1.79,.17,2.69,.54,4.45,2.39,9.01,5.34,13.19,1.38,1.95,3.02,3.83,4.88,5.57,1.77,1.67,3.8,3.21,6.2,4.72,4.43,2.8,9.6,4.97,15.36,6.47,2.63,.68,5.38,1.19,8.16,1.51,2.47,.29,5,.38,7.38,.46,4.03,.12,9.33,.16,14.63-.72,5.58-.92,9.84-2.63,13.02-5.24,1.87-1.54,2.94-3.13,3.29-4.86,.07-.34,.1-.7,.1-1.08"/>
      <path class="cls-6" d="M78.43,49.36c-.04-.67-.2-1.34-.43-1.98-.47-1.33-1.28-2.52-2.19-3.59-1.81-2.13-4.07-3.82-6.35-5.4-.15-.1-.4-.1-.57-.05-.19,.06-.35,.19-.44,.37-.09,.18-.11,.38-.05,.57,.06,.21,.19,.32,.37,.44,.1,.07,.2,.14,.31,.21,0,0-.01,0-.02-.01,2.06,1.45,4.08,3.02,5.72,4.95,.62,.76,1.17,1.57,1.59,2.45,.23,.54,.41,1.09,.51,1.66,.07,.47,.08,.94,.04,1.42-.02,.17-.05,.35-.09,.52-.08,.4,.16,.81,.56,.9,.39,.09,.82-.16,.9-.56,.1-.49,.15-1,.15-1.5,0-.14,0-.27-.01-.41m-3.66-4.5s-.06-.07-.09-.11c.03,.04,.06,.07,.09,.11"/>
      <path class="cls-6" d="M78.28,49.93c-.03-.44-.13-.87-.26-1.29-.13-.39-.52-.63-.92-.52-.39,.11-.65,.54-.52,.93,.08,.26,.15,.51,.19,.78,.02,.25,.03,.5,0,.76,0,.03,0,.06-.01,.08-.03,.21-.03,.39,.08,.58,.1,.17,.26,.29,.45,.34,.2,.05,.41,.03,.58-.08,.15-.09,.31-.27,.34-.45,.05-.31,.08-.61,.08-.91,0-.07,0-.14,0-.21"/>
      <path class="cls-6" d="M78.1,48.33c-.12-.39-.53-.63-.92-.52-.39,.11-.63,.53-.52,.93,.09,.3,.15,.6,.21,.91,.04,.34,.05,.67,.04,1.01-.01,.41,.36,.75,.75,.75,.42,0,.73-.34,.74-.75,0-.09,0-.17,0-.26,0-.7-.11-1.39-.3-2.06"/>
      <path class="cls-6" d="M78.19,48.38c-.13-.39-.52-.63-.92-.52-.38,.1-.65,.54-.52,.93,.07,.2,.12,.4,.16,.61,.03,.29,.02,.58,0,.88-.02,.19,.09,.41,.22,.53,.14,.14,.33,.22,.53,.22,.2,0,.39-.08,.53-.22,.15-.15,.19-.32,.22-.53,.02-.17,.03-.34,.03-.51,0-.47-.08-.93-.23-1.38"/>
      <path class="cls-6" d="M78.28,48.42c-.11-.39-.53-.63-.93-.52-.39,.11-.63,.53-.52,.93,.06,.2,.11,.39,.14,.58,.04,.37,.04,.74,.01,1.11-.03,.41,.37,.75,.75,.74,.2,0,.39-.08,.53-.22,.15-.15,.2-.32,.22-.53,.01-.18,.02-.35,.02-.53,0-.53-.08-1.05-.23-1.57"/>
      <path class="cls-6" d="M78.28,48.47c-.12-.39-.52-.63-.92-.52-.39,.11-.64,.54-.52,.92,.06,.2,.11,.41,.15,.62,.03,.28,.03,.55,.01,.83-.03,.41,.37,.75,.75,.75,.19,0,.39-.09,.53-.23,.15-.15,.21-.33,.22-.53,0-.13,.01-.25,.01-.38,0-.5-.08-.99-.23-1.47"/>
      <path class="cls-6" d="M78.41,48.86c-.1-.39-.54-.63-.93-.52-.4,.11-.62,.53-.52,.93,.03,.12,.06,.23,.08,.35,.02,.26,.02,.52,0,.79-.02,.19,.09,.4,.22,.53,.14,.14,.33,.22,.53,.22,.19,0,.39-.08,.53-.22,.15-.15,.2-.33,.22-.53,.01-.14,.02-.29,.02-.43,0-.37-.05-.74-.15-1.1"/>
      <path class="cls-4" d="M78.42,48.86s-.02-.07-.03-.1l-.04-.15c-.07-.4-.18-.81-.33-1.23-.42-1.18-1.13-2.36-2.19-3.6-1.08-1.27-2.38-2.46-4.08-3.75-1-.91-2.06-1.79-2.99-2.57-2.22-1.86-4.4-3.85-6.49-5.92-3.24-3.22-6.14-6.51-8.3-9.03l.02,.08c-.43-.56-.88-1.08-1.33-1.62l-.18-.21c-1.25-1.47-2.55-3-3.9-4.44-1.88-2.02-3.72-3.74-5.62-5.26-2.07-1.64-4.24-3.03-6.45-4.1-2.37-1.15-4.89-1.98-7.49-2.47-2.53-.46-5.1-.54-7.62-.24-2.46,.31-4.85,1-7.09,2.04-4.59,2.13-8.6,5.78-11.28,10.3-1.23,2.07-2.11,4.34-2.61,6.76,.53-1.28,1.13-2.54,1.81-3.75,.51-.91,1.06-1.79,1.68-2.63,.67-.91,1.4-1.76,2.18-2.57,.86-.91,1.77-1.77,2.76-2.53,.94-.72,1.93-1.38,2.98-1.92,1.05-.53,2.15-.97,3.29-1.25,1.17-.3,2.38-.46,3.6-.47,1.32-.01,2.66,.13,3.95,.38,1.28,.24,2.53,.58,3.76,1.01,5.04,1.79,9.49,4.95,13.4,8.56,.99,.91,1.95,1.85,2.87,2.81,.48,.49,.94,.99,1.41,1.49,.44,.49,.88,.98,1.32,1.47,1.93,2.14,3.94,4.22,6.07,6.17h0s0,0,0,0c0,0,0,0,0,0,0,0,0,0,0,0,0,0,0,0,.01,.01,0,0,0,0-.01,0,2,1.82,4.11,3.52,6.35,5.04,.64,.44,1.29,.86,1.96,1.26,.62,.38,1.25,.74,1.89,1.08,1.32,.73,2.67,1.41,4.01,2.12,1.34,.7,2.66,1.43,3.94,2.23,1.09,.69,2.15,1.42,3.16,2.22,.93,.74,1.84,1.53,2.64,2.42,.42,.45,.81,.93,1.16,1.43,.3,.43,.59,.88,.82,1.35,.44,.89,.77,1.85,.88,2.84,.05-.18,.1-.36,.13-.54,.07-.35,.1-.71,.1-1.09v-.12c0-.14,.02-.27,.02-.41,0-.36-.05-.72-.15-1.11"/>
      <path class="cls-3" d="M153.09,68.31c-.16,.15-.22,.32-.25,.53-.07,.42-.14,.83-.21,1.24-.64,3.48-1.57,6.93-3.08,10.15,0-.01,0-.02,.01-.03-.86,1.78-1.9,3.47-3.18,4.98-.88,1-1.86,1.9-2.95,2.66-.63,.41-1.29,.73-1.99,.99-.75,.24-1.52,.39-2.31,.47-1.05,.07-2.1,0-3.14-.18-1.44-.28-2.83-.75-4.16-1.36,.01,0,.02,.01,.04,.02-.01,0-.03-.01-.04-.02-.05-.02-.09-.04-.14-.06,.04,.02,.07,.03,.1,.05-.25-.12-.5-.25-.75-.38-.18-.1-.35-.15-.56-.11-.2,.04-.37,.16-.47,.32-.21,.32-.15,.85,.21,1.04,2.32,1.23,4.86,2.07,7.5,2.2,1.28,.06,2.59-.08,3.82-.45,.6-.18,1.19-.41,1.75-.7,.61-.31,1.16-.7,1.71-1.11,1.92-1.47,3.48-3.39,4.72-5.46,1.28-2.12,2.22-4.44,2.96-6.8,.75-2.41,1.27-4.88,1.67-7.38,.03-.18-.07-.4-.18-.53-.13-.15-.32-.25-.53-.25-.01,0-.03,0-.04,0-.18,0-.35,.07-.49,.18m-3.57,11.96s-.03,.08-.05,.11c.02-.04,.03-.08,.05-.11m-3.13,4.88s0,0,0,0c0,0,0,0,0,0m-2.98,2.69c-.05,.03-.1,.07-.15,.1,.05-.04,.1-.07,.15-.1m-11.61-.09s0,0,0,0c-.01,0-.03-.01-.04-.02,.01,0,.02,.01,.03,.02"/>
      <path class="cls-3" d="M148.01,79.85c-.14-.02-.29,0-.43,.07-1.93,.94-3.76,2.07-5.53,3.27-1.79,1.2-3.51,2.5-5.21,3.81-.27,.2-.32,.61-.18,.9,.05,.1,.12,.19,.21,.26-.13,.22-.15,.48-.03,.72,.17,.36,.65,.54,1,.34,.54-.3,1.05-.64,1.54-1-.07,.19-.06,.4,.03,.58,.18,.37,.64,.51,1,.34,.23-.11,.45-.22,.68-.34,0,.17,.07,.34,.18,.47,.13,.15,.32,.24,.53,.25,.21,.01,.37-.06,.53-.18,1.97-1.47,3.92-3.15,5.15-5.29,.71-.98,1.36-1.99,1.98-3.03,.21-.35,.14-.81-.21-1.04-.2-.13-.43-.15-.64-.09-.11-.06-.23-.09-.35-.09-.09,0-.18,.02-.27,.05"/>
      <path class="cls-3" d="M61.95,77.06c-.35,0-.71,.02-1.05,.07-.81,.11-1.59,.34-2.32,.69-.63,.3-1.18,.68-1.65,1.13-.43,.42-.74,.92-.92,1.49-.15,.5-.13,1.08,.08,1.6-.5,.38-1,.71-1.47,1.08-.5,.39-.94,.79-1.34,1.2-.47,.49-.87,1.03-1.13,1.39-.63,.89-1.13,1.91-1.52,3.14-.35,1.11-.55,2.36-.6,3.83-.07,2.02,.25,3.98,.93,5.66,.7,1.74,1.78,3.28,3.21,4.57,1.28,1.15,2.86,2.14,4.7,2.93,1.66,.72,3.48,1.28,5.55,1.73,3.64,.79,7.42,.95,11.07,1.11l.56,.02,2.63,.11c1.75,.07,3.49,.14,5.24,.23,3.07,.17,5.74,.35,8.18,.57,7.49,.71,13.42,1.96,18.66,3.93,2.06,.79,4.03,1.7,5.85,2.73-.02,.15,.02,.33,.1,.49,.13,.24,.33,.41,.58,.49,.09,.03,.19,.05,.29,.05,.15,0,.31-.03,.49-.11,.79-.31,1.59-.73,2.45-1.29,.86-.55,1.69-1.17,2.47-1.86,1.64-1.45,3.04-3.09,4.15-4.88,1.14-1.83,1.86-3.72,2.16-5.6,.14-.91,.16-1.88,.03-2.88-.09-.75-.29-1.52-.61-2.31,.19-.18,.29-.46,.28-.73-.01-.27-.14-.55-.32-.7-2.09-1.69-4.57-3.32-7.6-4.97-1.48-.81-2.99-1.56-4-2.06-.45-.22-.89-.44-1.34-.64-1.75-.79-3.59-1.47-5.31-2.09-5.12-1.84-10.66-3.48-16.45-4.87-7.32-1.75-13.77-2.77-19.72-3.12-1.36-.08-2.55-.11-3.66-.11-1.25,0-2.42,.04-3.57,.13-.34-.36-.72-.66-1.21-.99-.73-.49-1.56-.83-2.44-1.02-.44-.09-.91-.14-1.41-.14"/>
      <path class="cls-2" d="M50.94,98.35c.7,1.75,1.78,3.28,3.21,4.58,1.28,1.16,2.86,2.14,4.7,2.93,1.64,.72,3.46,1.28,5.55,1.73,3.62,.78,7.39,.95,11.03,1.11l.61,.03,2.63,.11c1.75,.07,3.49,.14,5.24,.23,3.09,.16,5.77,.35,8.17,.57,7.5,.71,13.42,1.96,18.65,3.92,.46,.18,.92,.36,1.38,.55-1-.54-2.02-1.04-3.05-1.5-3.49-1.52-7.14-2.63-10.84-3.52-1.83-.44-3.67-.83-5.51-1.19-.88-.17-1.76-.34-2.65-.5-.6-.11-1.21-.22-1.81-.31,.02,0,.05,0,.07,.01-1.41-.21-2.82-.35-4.24-.47-3.68-.31-7.37-.47-11.06-.79-1.87-.16-3.75-.36-5.6-.65-1.81-.28-3.62-.62-5.39-1.11-3.2-.89-6.37-2.22-8.88-4.44-1.11-.99-2.09-2.14-2.85-3.42,.15,.74,.37,1.45,.64,2.11"/>
      <path class="cls-2" d="M71.16,78.51c-1.41,.03-2.8,.18-4.19,.43-.15,.03-.28,.08-.38,.2-.1,.12-.14,.27-.13,.43,.03,.3,.32,.55,.63,.51,1.99-.28,3.99-.34,6-.29-.01,0-.03,0-.04,0,2.89,.1,5.77,.45,8.64,.83,2.59,.34,5.16,.72,7.73,1.16,2.56,.44,5.11,.94,7.65,1.51,2.6,.59,5.17,1.28,7.71,2.06,0,0-.01,0-.02,0,5.61,1.73,11.07,4.05,16.05,7.18l-.06-.03c1.62,1.02,3.18,2.13,4.67,3.33,.1,.09,.26,.07,.35-.03,.09-.1,.07-.27-.03-.35-2.04-1.66-4.21-3.15-6.46-4.5-2.3-1.37-4.69-2.56-7.14-3.64-2.47-1.09-5.02-2.02-7.58-2.85-2.57-.84-5.18-1.55-7.8-2.19-4.55-1.1-9.16-1.93-13.78-2.64-2.52-.38-5.05-.77-7.6-.98-1.12-.09-2.24-.14-3.36-.14-.29,0-.57,0-.86,0m1.93,1.28h.13s-.09,0-.13,0m31.67,5.56s-.05-.02-.08-.03c.03,0,.05,.02,.08,.03"/>
      <path class="cls-2" d="M53.23,86.27c-.52,.03-1.04,.09-1.56,.18-.15,.34-.29,.68-.45,1.01,.53-.11,1.07-.21,1.61-.29,.71-.1,1.43-.16,2.14-.17h-.1c.72,0,1.44,.03,2.16,.1,.75,.08,1.48,.22,2.21,.4,0,0,0,0,0,0,.29,.07,.57,.16,.86,.25,.16,.05,.34,0,.4-.17,.06-.15-.01-.35-.17-.4-.7-.23-1.42-.43-2.15-.59-.82-.17-1.66-.28-2.49-.33-.34-.02-.68-.03-1.03-.03-.47,0-.94,.02-1.42,.05"/>
      <path class="cls-2" d="M54.96,94.3c-1.62,.03-3.27,.22-4.83,.66,0,0,0,0,0,0,.05,.39,.1,.78,.14,1.17,.02,0,.03,0,.05,0,.43-.12,.87-.24,1.3-.35,.5-.13,.99-.23,1.49-.33,.93-.17,1.87-.27,2.81-.3-.02,0-.03,0-.05,0,1.32-.01,2.63,.13,3.92,.45,.2,.05,.39-.15,.42-.33,.01-.1-.01-.2-.08-.28-.07-.09-.15-.11-.25-.14-1.5-.37-3.03-.55-4.58-.55h-.33Z"/>
      <path class="cls-1" d="M130.7,66.99c-.09,0-.17,.01-.25,.04-.22,.07-.41,.23-.52,.44-.16,.31-.11,.73,.13,1-.11,1.02-.13,2.11-.05,3.33,.04,.71,.12,1.41,.2,2.12,.08,.62,.19,1.24,.3,1.85l.05,.3c.11,.6,.23,1.2,.37,1.8,.11,.46,.28,.92,.54,1.47,.5,1.08,1.12,1.94,1.83,2.55,.37,.32,.8,.57,1.25,.74,.43,.17,.9,.25,1.39,.25,.07,0,.15,0,.22,0,.49-.03,.98-.19,1.36-.33,.48-.17,.97-.42,1.52-.74,.44-.26,.86-.58,1.3-.99,.42-.39,.76-.83,.97-1.29,.22-.45,.31-.96,.25-1.42-.03-.28-.11-.57-.18-.83-.09-.31-.2-.61-.31-.91-.39-.97-.95-1.94-1.69-2.91-.7-.92-1.55-1.82-2.52-2.68-.79-.7-1.69-1.38-2.82-2.12-.93-.61-1.92-1.14-2.93-1.59-.15-.07-.28-.1-.41-.1"/>
      <path class="cls-6" d="M130.78,60.13c-.24,0-.44,.17-.5,.42-.25,1-.4,2.02-.53,2.97-.18,1.35-.3,2.78-.38,4.27-.18,3.82,.02,6.83,.65,9.49,.35,1.49,.85,2.71,1.52,3.71,.34,.51,.73,.95,1.17,1.31,.44,.36,.96,.64,1.54,.83,.45,.15,.96,.22,1.51,.22,.1,0,.19,0,.29,0,.29-.02,.6-.06,.95-.13,.47-.1,.88-.22,1.26-.37,.78-.31,1.52-.81,2.26-1.52,.61-.57,1.16-1.29,1.74-2.27,.44-.75,.84-1.59,1.24-2.65,.34-.9,.63-1.88,.91-3,.42-1.68,.71-3.47,.89-5.47,0-.12,0-.26-.08-.39-.08-.11-.2-.18-.33-.21-.11-.06-.19-.1-.31-.12-.58-.12-1.15-.25-1.73-.39,0,0-.04,0-.05,0,0,0,0,0,0,0,0,0,0,0,0,0,0,0-.03,0-.03,0,0,0,0,0,0,0-2.51-.66-4.68-1.49-6.62-2.55-1.43-.81-2.72-1.74-3.83-2.78-.39-.38-.73-.74-1.06-1.12-.03-.03-.05-.05-.08-.07-.07-.08-.18-.14-.29-.17h-.09Zm-.41,7.93v-.2s.02-.2,.02-.2c.66,.23,1.36,.53,2.12,.94,1.37,.77,2.66,1.73,3.95,2.96h0s0,0,0,0c.01,.01,.04,.03,.04,.03h0s.04,.02,.04,.02c1.22,1.22,2.27,2.53,3.09,3.88,.54,.91,.93,1.8,1.19,2.7,.07,.25,.12,.5,.17,.76,0,.05,.02,.09,.04,.13-.46,.68-.94,1.25-1.47,1.73-.38,.34-.8,.63-1.22,.86-.43,.22-.89,.39-1.38,.51l-.11,.04h0c-.4,.07-.82,.12-1.23,.12h-.17c-.35-.03-.67-.09-1-.19-.28-.11-.55-.23-.8-.39-.28-.19-.54-.41-.79-.68-.34-.39-.65-.85-.92-1.36l.04,.13c-.42-.86-.77-1.85-1.05-3.04h0c-.29-1.3-.47-2.72-.56-4.35-.08-1.36-.08-2.8-.02-4.39h0Z"/>
      <path class="cls-7" d="M129.41,57.4c-.23,.1-.46,.23-.68,.36-.22,.14-.42,.32-.62,.49-.26,.23-.45,.44-.63,.66-.73,.87-1.2,1.78-1.39,2.7-.02,.08,0,.15,.04,.22,.04,.07,.1,.11,.18,.13,.07,.01,.13,0,.18-.02,.08-.04,.14-.11,.17-.2,.03-.15,.07-.3,.12-.45,.09-.25,.22-.49,.4-.76,.21-.28,.45-.54,.71-.77,.26-.2,.52-.36,.81-.52,0,.07,.04,.14,.07,.2,.78,1.09,1.83,1.91,2.92,2.73,1,.76,1.96,1.4,2.93,1.97,1.96,1.17,4.17,2.15,6.74,2.99,2.43,.79,4.82,1.22,7.1,1.26,1.61,.04,3.21-.14,4.76-.53,.81-.25,1.59-.53,2.31-.83,0,0,0-.13,0-.13-.93,.29-1.94,.5-3.01,.63-.95,.1-1.89,.14-2.77,.09-.53,0-1.06-.02-1.59-.06-2.26-.22-4.51-.74-6.69-1.54-2.47-.93-4.95-2.27-7.35-3.96-.55-.4-1.09-.82-1.63-1.25-.53-.43-1.15-.94-1.68-1.54-.16-.2-.31-.41-.46-.62,.17,0,.26-.02,.34-.06,.09-.04,.16-.09,.24-.17,.14-.15,.22-.36,.21-.57-.01-.21-.1-.4-.25-.53-.2-.19-.48-.25-.77-.18-.24,.07-.48,.15-.71,.25"/>
      <path class="cls-6" d="M115.62,31.98c-.71,.63-1.24,1.4-1.61,2.27-.38,.89-.58,1.85-.67,2.8-.17,1.77,.02,3.51,.38,5.24,.27,1.27,.62,2.52,1.08,3.74,.27,.7,.59,1.38,.93,2.05,.33,.63,.68,1.25,1.14,1.8,.11,.16,.26,.29,.44,.37,.27,.13,.58,.15,.86,.05,.56-.19,.92-.86,.69-1.43-.32-.78-.73-1.52-1.12-2.27-.43-.85-.83-1.72-1.18-2.6-.32-.82-.56-1.66-.75-2.51-.29-1.48-.46-3-.38-4.52,.06-.7,.18-1.39,.39-2.07,.13-.36,.29-.71,.5-1.04,.18-.26,.38-.5,.61-.72,.23-.2,.48-.37,.75-.51,.36-.17,.74-.3,1.12-.39,.56-.1,1.13-.15,1.71-.13,.54,.04,1.06,.15,1.57,.31,.7,.25,1.35,.58,1.97,.98,1.15,.78,2.17,1.73,3.1,2.75l-.08-.08c1.06,1.18,2,2.45,2.86,3.78,.12,.18,.38,.22,.55,.1,.18-.13,.22-.36,.1-.55-1.14-1.77-2.38-3.49-3.84-5.03-.75-.8-1.58-1.53-2.48-2.16-.41-.29-.85-.55-1.3-.79-.48-.25-.99-.43-1.51-.58-.49-.14-1-.19-1.51-.22-.57-.03-1.14,0-1.7,.12-.3,.06-.59,.14-.87,.24-.63,.22-1.22,.55-1.74,.99m3.08,.28s.04,0,.06-.01c-.02,0-.04,0-.06,.01m3.26,.12s.03,.01,.04,.02c-.02,0-.03-.01-.04-.02"/>
    </g>
  </g>
</svg>