<?xml version="1.0" encoding="UTF-8"?>
<svg id="Layer_2" data-name="Layer 2" xmlns="http://www.w3.org/2000/svg" viewBox="0 0 184.86 209.91">
  <defs>
    <style>
      .cls-1 {
        fill: #fefefe;
      }

      .cls-2 {
        fill: #fe5e78;
      }

      .cls-3 {
        fill: #8e3f59;
      }

      .cls-4 {
        fill: #ad4d6c;
      }

      .cls-5 {
        fill: #3e164a;
      }

      .cls-6 {
        fill: #64446c;
      }

      .cls-7 {
        fill: #350b40;
      }

      .cls-8 {
        fill: #7a364d;
      }
    </style>
  </defs>
  <g id="OBJECTS">
    <g>
      <path class="cls-7" d="M12.82,151.38c-.2,.09-.39,.2-.58,.31-.3,.18-.58,.4-.82,.62-.27,.26-.49,.56-.66,.91-.26,.53-.3,1.17-.11,1.79,.16,.51,.49,1,.96,1.4,.41,.35,.95,.65,1.66,.92,.63,.23,1.37,.42,2.25,.57,1.24,.21,2.61,.32,4.43,.34,1.51,.02,3.09-.03,4.84-.16,.68-.05,1.37-.11,2.06-.18-.01,0-.02,.01-.03,.02-.16,.08-.32,.17-.47,.27-.47,.32-.82,.61-1.1,.91-.16,.18-.32,.36-.46,.55-.1,.15-.18,.31-.26,.47l-.06,.13c-.18,.37-.23,.77-.23,1.03,0,.35,.05,.66,.17,.93,.08,.19,.15,.37,.26,.54,.11,.18,.27,.35,.41,.51,.2,.23,.44,.42,.77,.64,.42,.27,.84,.5,1.28,.69,.9,.38,1.95,.68,3.23,.9,2.11,.36,4.54,.4,7.22,.09,2.91-.33,6.06-1.05,9.62-2.2,1.48-.48,2.97-1.01,4.42-1.58-.36,.39-.61,.8-.75,1.2-.21,.59-.13,1.22,.22,1.68,.32,.43,.81,.76,1.46,1,.61,.23,1.3,.38,2.13,.48,.78,.09,1.64,.11,2.56,.08,.81-.02,1.67-.11,2.56-.27,.42-.07,.85-.16,1.26-.26,.52-.13,1.03-.3,1.54-.47,1.51-.5,3.04-1.12,4.53-1.84,1.56-.75,3.11-1.61,4.6-2.56,2.89-1.85,5.43-4.01,7.55-6.44,.14-.15,.18-.32,.13-.45,.03-.01,.06-.03,.09-.04,.07-.03,.12-.07,.17-.1,.2-.15,.42-.42,.44-.67,.05-.74,.04-1.39-.03-1.99-.08-.74-.27-1.45-.42-1.98-.36-1.19-.94-2.37-1.8-3.61-.73-1.06-1.69-2.05-2.84-2.93-1.05-.81-2.23-1.42-3.51-1.84-.07-.06-.14-.1-.22-.14-.26-.12-.57-.14-.94-.05-.34,.09-.68,.21-1.01,.33l-.23,.08-.63,.22-.63,.22c-.83,.28-1.67,.56-2.5,.83-1.67,.54-3.4,1.06-5.15,1.55-3.09,.86-6.38,1.63-9.77,2.3-6.35,1.24-12.55,2.02-17.78,2.62-1.52,.17-3.04,.33-4.56,.49l-1,.11c-.87,.1-1.74,.19-2.6,.26-.69,.05-1.38,.09-2.08,.13-.83,.05-1.66,.09-2.5,.16-1.76,.15-3.65,.36-5.5,.88-.59,.17-1.13,.37-1.61,.59"/>
      <path class="cls-3" d="M82.94,145.67c-.12,0-.23,0-.35,0-.78,.02-1.59,.11-2.41,.28-.73,.15-1.49,.4-2.31,.74-1.55,.66-3.02,1.73-4.26,3.11l-.12,.04h0c-.05-.03-.11-.04-.16-.04-.22,0-.42,.14-.48,.34-.32,.92-.71,1.87-1.17,2.8-1.13,2.25-2.67,4.5-4.57,6.66-2.28,2.56-4.93,4.82-7.85,6.74-1.07,.69-2.16,1.32-3.26,1.87-.79,.4-1.61,.75-2.4,1.09-.36,.16-.73,.31-1.09,.47-2.26,1-4.35,2.15-6.21,3.4-3.62,2.44-6.64,5.66-9.35,8.78-1.79,2.06-3.46,4.12-4.96,6.13-2.24,3.01-3.88,5.63-5.17,8.23-.73,1.48-1.25,2.81-1.6,4.08-.37,1.38-.5,2.61-.39,3.77,.11,1.16,.55,2.22,1.27,3.07,.74,.88,1.84,1.56,3.28,2.01,.72,.23,1.51,.39,2.49,.5,.77,.09,1.55,.14,2.31,.14,.26,0,.52,0,.78-.02,2.03-.08,4.1-.63,6.17-1.62,1.86-.9,3.68-2.14,5.56-3.81,1.62-1.44,3.19-3.14,4.8-5.19,2.32-2.96,4.38-6.29,6.11-9.89,1.31,.17,2.68,.26,4.06,.26,3.11,0,6.39-.43,9.77-1.28,4.66-1.17,9.29-3.08,13.74-5.7,3.13-1.84,6.04-3.96,8.65-6.33,2.61-2.36,4.81-4.91,6.56-7.57,.16-.23,.1-.55-.14-.71-.09-.06-.18-.08-.28-.08-.11,0-.22,.03-.3,.1,.62-1.07,1.06-2.2,1.32-3.37,.33-1.51,.33-3.11,.02-4.76-.28-1.47-.86-2.98-1.72-4.48-.79-1.38-1.83-2.71-3.08-3.96-1.2-1.19-2.57-2.25-4.06-3.14-1.47-.88-3.03-1.57-4.66-2.04-1.49-.44-3.01-.66-4.52-.66"/>
      <path class="cls-3" d="M170.37,70.35c-.43,0-.88,.04-1.38,.11-.58,.09-1.19,.28-1.85,.56-.54,.23-1.07,.57-1.62,1.02-.73,.59-1.32,1.39-1.72,2.31-1.27,.52-2.53,1.1-3.75,1.66-1.02,.47-2.03,.93-3.06,1.37-1.84,.77-3.28,1.26-4.66,1.6-.88,.22-1.85,.39-3.12,.56-1.79,.23-3.7,.39-5.24,.52l-.23,.02c-1.9,.17-3.93,.35-5.97,.63-2.22,.3-4.03,.68-5.71,1.18-1.89,.57-3.53,1.32-4.88,2.24-1.46,1-2.67,2.31-3.5,3.79-.45,.8-.82,1.74-1.11,2.81-.27,1.04-.39,2.08-.35,3.09,.07,1.81,.7,3.57,1.84,5.09,1.03,1.38,2.48,2.59,4.3,3.6,1.45,.81,3.14,1.47,5.01,1.97,.83,.22,1.72,.4,2.7,.55,1.06,.16,1.93,.24,2.76,.26,.15,0,.31-.07,.4-.19l.44,.08c3.21,.51,6.65,.78,10.22,.82h.61c3.5,0,6.96-.26,10.28-.77,3.74-.58,7.17-1.49,10.2-2.71,3.29-1.32,6.06-3.01,8.24-5.03,1.13-1.05,2.12-2.23,2.95-3.5,.82-1.26,1.47-2.67,1.95-4.21,.22-.72,.4-1.5,.54-2.36,.18-1.13,.23-2.24,.16-3.3-.14-2.16-.84-4.25-2.01-6.05-1.11-1.72-2.69-3.16-4.57-4.17-.67-.36-1.39-.66-2.16-.9-.4-.5-.87-.95-1.45-1.36-.48-.34-1.06-.64-1.76-.89-.57-.2-1.2-.33-1.93-.4-.19-.01-.38-.02-.57-.02"/>
      <path class="cls-4" d="M120.11,86.97c-.93,0-1.92,.06-2.93,.17-2.23,.24-4.51,.74-6.78,1.49-2.16,.71-4.34,1.61-6.66,2.76-4.27,2.1-8.47,4.89-12.47,8.26-3.87,3.27-7.41,7.03-10.52,11.19-3.12,4.16-5.7,8.6-7.66,13.2-2.02,4.73-3.34,9.55-3.92,14.34-.23,1.89-.22,3.78,.02,5.61,.24,1.78,.7,3.58,1.37,5.34,1.27,3.33,3.31,6.57,6.06,9.61,2.55,2.82,5.68,5.36,9.29,7.56,3.46,2.1,7.2,3.73,11.11,4.84,3.4,.97,6.8,1.45,10.09,1.45,.25,0,.49,0,.74,0,1.73-.04,3.47-.24,5.19-.59,1.35-.28,2.71-.7,4.06-1.24-.71,1.83-1.15,3.5-1.37,5.08-.23,1.69-.16,3.25,.22,4.65,.34,1.25,.96,2.39,1.81,3.31,.82,.88,1.87,1.62,3.12,2.18,1.15,.52,2.46,.87,4.01,1.09,1.03,.15,2.11,.22,3.3,.22,.44,0,.88-.01,1.31-.03,3.03-.12,6.26-.71,9.6-1.73,1.45-.44,2.91-.99,4.46-1.67,2.52-1.11,4.42-2.03,6.15-3,5.11-2.85,8.25-5.86,9.88-9.47,.37-.81,.65-1.7,.85-2.65,.17-.79,.24-1.66,.2-2.59-.03-.77-.17-1.55-.43-2.39-.21-.7-.53-1.39-.99-2.12-.38-.61-.88-1.19-1.51-1.78-.53-.49-1.17-.94-1.97-1.38-1.27-.69-2.74-1.1-4.39-1.23,.37-.76,.66-1.61,.89-2.58,.43-1.84,.48-3.84,.14-5.94-.32-1.99-1.01-3.9-2.02-5.67-1.02-1.78-2.32-3.27-3.86-4.44-.7-.53-1.44-.97-2.21-1.33,.53-2.03,.89-4.25,1.07-6.59,.18-2.32,.18-4.78,0-7.31-.35-4.85-1.39-9.81-3.11-14.73-1.19-3.43-2.73-6.76-4.55-9.9-1.83-3.15-3.95-5.99-6.28-8.44-.09-.09-.18-.17-.33-.19-.02,0-.03,0-.05,0-.16,0-.25,.03-.33,.1-.08,0-.12-.06-.16-.1-.86-.74-1.83-1.37-2.88-1.86-.98-.46-2.05-.81-3.3-1.07-1.07-.23-2.23-.36-3.54-.39-.23,0-.47-.01-.7-.01"/>
      <path class="cls-3" d="M69.14,138.38c-.23,1.9-.22,3.78,.02,5.61,.24,1.79,.7,3.59,1.37,5.35,1.28,3.35,3.32,6.58,6.07,9.61,2.56,2.82,5.68,5.36,9.3,7.56,3.46,2.11,7.2,3.73,11.11,4.84,3.41,.97,6.81,1.47,10.1,1.47,.25,0,.49,0,.74,0,1.57-.04,3.17-.21,4.76-.51,.88-.25,1.74-.53,2.6-.84,0,0-.01,0-.02,0,1.47-.54,2.91-1.16,4.31-1.88,1.31-.68,2.58-1.44,3.8-2.29h0s0,0,0,0h0s0,0,0,0c1.14-.79,2.23-1.65,3.25-2.59,1-.91,1.94-1.89,2.82-2.91-.02,.01-.03,.03-.04,.05,.77-.9,1.48-1.85,2.14-2.83-.28,.21-.56,.42-.85,.62-.46,.32-.92,.64-1.39,.95-.94,.61-1.9,1.19-2.88,1.73-4.82,2.63-10.13,4.41-15.6,4.98-1.34,.14-2.68,.22-4.02,.23-1.39,0-2.77-.07-4.15-.21-2.64-.29-5.27-.84-7.79-1.69-2.16-.73-4.25-1.66-6.23-2.8-1.95-1.12-3.8-2.42-5.52-3.89-1.72-1.47-3.3-3.09-4.72-4.85-1.39-1.73-2.64-3.59-3.69-5.54-2.09-3.89-3.47-8.17-3.91-12.57-.17-1.65-.21-3.32-.11-4.98-.69,2.48-1.19,4.96-1.48,7.43"/>
      <polyline class="cls-3" points="123.29 167.29 123.28 167.29 123.29 167.29 123.29 167.29"/>
      <path class="cls-3" d="M132.45,132.92c-2.14,.11-4.27,.51-6.34,1.04-4.16,1.07-8.11,2.93-11.73,5.25-1.11,.71-2.2,1.48-3.23,2.3-.51,.41-1,.83-1.49,1.27-.5,.45-1,.92-1.45,1.43-.29,.33-.29,.86-.04,1.2,.15,.21,.38,.36,.64,.4,.25,.04,.55,0,.74-.17,.62-.52,1.24-1.05,1.88-1.55,.7-.55,1.42-1.09,2.16-1.6,1.47-1.03,3.01-1.95,4.6-2.79-.05,.02-.09,.05-.14,.07l.2-.1s.06-.03,.09-.05c-.02,.01-.04,.02-.06,.03,3.21-1.65,6.63-2.98,10.16-3.77,2.3-.49,4.64-.74,6.99-.67,.78,.04,1.55,.11,2.33,.22,.78,.12,1.56,.3,2.31,.51,1.36,.42,2.67,1,3.89,1.74,1.11,.71,2.11,1.56,3.02,2.52,1.02,1.13,1.89,2.39,2.6,3.73-.01-.03-.03-.06-.04-.09,.02,.04,.04,.08,.06,.12,.02,.03,.03,.07,.05,.1-.02-.03-.03-.06-.05-.09,.62,1.23,1.1,2.54,1.41,3.89,.25,1.24,.35,2.5,.31,3.76-.08,1.54-.39,3.05-.83,4.53,.02-.06,.03-.11,.05-.17-.3,.99-.69,1.95-1.11,2.89-.45,1.01-.96,1.98-1.53,2.92,0,0,0,0,0,0-.73,1.17-1.54,2.29-2.43,3.36-.93,1.13-1.95,2.19-3.01,3.18-2.28,2.11-4.83,3.95-7.57,5.41,0,0,0,0,0,0-.02,0-.04,.02-.06,.03,0,0,.01,0,.02-.01-.06,.03-.13,.07-.2,.1-.12,.06-.2,.18-.15,.32,.04,.12,.2,.22,.32,.15,2.07-1.07,4.02-2.32,5.87-3.74,1.93-1.48,3.74-3.14,5.38-4.96,.82-.91,1.61-1.85,2.32-2.85,.7-.97,1.35-1.98,1.95-3.02,.59-1.02,1.06-2.1,1.46-3.2,.39-1.09,.69-2.22,.88-3.37,.19-1.14,.27-2.31,.23-3.46-.04-1.18-.23-2.36-.51-3.5-.31-1.22-.79-2.38-1.38-3.49-.58-1.1-1.27-2.14-2.06-3.1-.68-.84-1.44-1.62-2.26-2.33-.78-.69-1.64-1.28-2.53-1.82-1.71-1.04-3.62-1.7-5.57-2.13-1.53-.33-3.09-.47-4.66-.47-.49,0-.98,.01-1.48,.04m2.38,40.83l.04-.02s0,0,0,0c-.01,0-.03,.01-.04,.02m14.76-29.77s0,0,0,0c0-.01-.01-.02-.02-.03,0,.01,.01,.02,.02,.04m-31.34-4.31s-.04,.02-.06,.03c.03-.01,.06-.03,.09-.05,0,0-.02,0-.02,.01"/>
      <path class="cls-3" d="M152.21,169.24c-.12,.06-.16,.22-.1,.34,.07,.12,.22,.16,.34,.1,.24-.12,.48-.23,.73-.32,.25-.09,.49-.17,.74-.24,.32-.09,.64-.14,.97-.18h-.07c.38-.03,.76-.06,1.14-.06,.44,0,.88,.04,1.32,.1h-.09c1.02,.14,2.01,.41,2.97,.81,.02,.01,.05,.02,.07,.03,.04-.2,.09-.41,.14-.61,.02-.08,.04-.16,.06-.24-.41-.16-.82-.29-1.24-.41-.78-.2-1.59-.3-2.39-.33-.09,0-.18,0-.27,0-1.49,0-2.97,.34-4.3,1.02"/>
      <path class="cls-3" d="M155.99,160.22c-1.41,.18-2.76,.69-3.92,1.52-.11,.08-.19,.16-.23,.3-.03,.12-.02,.25,.04,.36,.12,.21,.44,.34,.66,.19,.45-.32,.92-.58,1.43-.79,.56-.21,1.12-.34,1.7-.43,0,0,0,0-.02,0,.72-.08,1.43-.06,2.14,.03,.47,.07,.92,.18,1.37,.32-.25-.35-.52-.69-.81-1.01-.17-.19-.35-.37-.53-.55-.22-.01-.45-.02-.67-.02-.39,0-.77,.02-1.15,.07m-.2,1.14h-.09s.09,0,.09,0Z"/>
      <path class="cls-3" d="M159.99,161.29h0c0-.06-.02-.12-.03-.19h0s0-.01,0-.01c0,0,0,0,0-.01,0-.01-.01-.02-.02-.03,0,0,0,0,0,0,.02,.08,.05,.16,.07,.25"/>
      <path class="cls-3" d="M159.94,161.07s0,0,0,.01c0,0,0-.01,0-.02h0Z"/>
      <path class="cls-4" d="M127.34,87.22c-.1,.1-.09,.25,0,.36,.96,1.08,1.88,2.2,2.76,3.34,.53,.69,1.04,1.38,1.55,2.08,.52,.72,1.02,1.44,1.54,2.16,.04,.06,.08,.1,.15,.12,.06,.02,.14,.01,.19-.02,.11-.07,.17-.23,.09-.35-.92-1.36-1.89-2.68-2.89-3.98-.97-1.27-1.99-2.5-3.05-3.7-.04-.05-.11-.07-.17-.07-.07,0-.14,.03-.18,.07"/>
      <path class="cls-4" d="M127.14,86.63c-.1,.1-.09,.25,0,.35,1.6,1.74,3.24,3.45,4.69,5.33l-.05-.06c.36,.47,.71,.95,1.03,1.44,.33,.49,.64,.99,.93,1.5,.09,.15,.29,.2,.43,.11,.15-.09,.2-.28,.11-.43-.44-.76-.95-1.49-1.48-2.2-.51-.69-1.05-1.34-1.61-1.99-1.19-1.39-2.47-2.71-3.72-4.05-.05-.05-.11-.07-.17-.07s-.13,.02-.18,.07"/>
      <path class="cls-4" d="M127.83,87.09c-.12,.12-.12,.31,0,.43,1.33,1.37,2.57,2.81,3.74,4.32,0,0,0,0,0,0,0,0,0,0,0,0,.02,.02,.03,.04,.05,.06,0,0-.01-.01-.02-.02,.53,.7,1.06,1.41,1.56,2.13,.56,.79,1.08,1.6,1.62,2.41,.12,.19,.36,.27,.57,.15,.19-.11,.27-.38,.15-.57-.53-.81-1.1-1.59-1.68-2.37-.56-.75-1.12-1.5-1.71-2.23-1.21-1.51-2.5-2.95-3.86-4.32-.06-.06-.14-.09-.22-.09s-.16,.03-.22,.09m3.78,4.8s-.02-.03-.03-.04c0,0,0,0,0,0,.01,.02,.02,.03,.04,.05"/>
      <path class="cls-4" d="M127.66,86.43c-.1,.1-.09,.25,0,.35,1.44,1.52,2.82,3.11,4.11,4.77-.01-.02-.03-.03-.04-.06,.66,.86,1.29,1.73,1.9,2.63,.6,.89,1.18,1.81,1.72,2.74,.09,.14,.27,.19,.41,.11,.14-.08,.19-.27,.11-.41-1.08-1.83-2.31-3.56-3.61-5.24-1.32-1.7-2.75-3.32-4.24-4.89-.05-.05-.11-.07-.18-.07s-.13,.02-.18,.07"/>
      <path class="cls-4" d="M128.18,86.59c-.1,.1-.09,.25,0,.35,.55,.65,1.08,1.31,1.6,1.98,1.21,1.57,2.35,3.19,3.43,4.86,1.09,1.68,2.11,3.41,3.1,5.15,.1,.17,.32,.22,.48,.12,.17-.09,.22-.31,.12-.48-1.21-2.11-2.52-4.16-3.91-6.16-1.4-2.02-2.89-3.97-4.48-5.84-.04-.05-.11-.07-.17-.07-.07,0-.14,.03-.19,.07m1.57,2.29s0,.01,.01,.02c0,0-.01-.01-.01-.02"/>
      <path class="cls-4" d="M127.74,86.39c-.11,.11-.11,.3,0,.41,1.09,1.04,2.09,2.16,3.01,3.35-.02-.02-.03-.04-.05-.07,.91,1.19,1.75,2.44,2.53,3.72,.78,1.28,1.5,2.6,2.19,3.93,.1,.19,.35,.24,.53,.14,.19-.11,.23-.34,.14-.53-1.04-2-2.2-3.93-3.5-5.78-1.31-1.86-2.78-3.61-4.45-5.18-.06-.05-.13-.08-.21-.08s-.14,.03-.2,.08"/>
      <path class="cls-4" d="M128.51,86.64c-.1,.1-.09,.25,0,.35,.64,.72,1.26,1.45,1.84,2.21,0,0,0,0-.01-.01,1.19,1.56,2.27,3.19,3.28,4.86,1.06,1.74,2.03,3.53,3.03,5.31,.09,.16,.31,.22,.47,.12,.17-.09,.21-.31,.12-.47-1.22-2.2-2.49-4.38-3.86-6.49-1.36-2.07-2.84-4.07-4.52-5.89-.05-.05-.11-.07-.18-.07s-.13,.02-.18,.07m1.83,2.56s-.01-.02-.02-.03c0,.01,.01,.02,.02,.03m-.02-.03s0-.01-.01-.02c0,0,0,.01,.01,.02"/>
      <path class="cls-4" d="M128.86,87.03c-.1,.1-.1,.27,0,.37,1.05,1.1,2.03,2.25,2.97,3.45-.02-.02-.03-.04-.04-.06,1.18,1.53,2.27,3.14,3.26,4.81,.99,1.66,1.86,3.38,2.66,5.13,.04,.09,.15,.17,.25,.19,.1,.03,.22,.02,.32-.04,.09-.05,.16-.14,.19-.25,.03-.12,0-.21-.04-.32-1.12-2.45-2.49-4.79-4.02-6.99-1.56-2.23-3.28-4.34-5.17-6.3-.05-.05-.11-.08-.18-.08s-.14,.03-.19,.08"/>
      <path class="cls-4" d="M129.11,87.01s-.07,.11-.07,.18,.03,.12,.07,.18c.34,.42,.68,.85,1.02,1.28-.01-.02-.03-.04-.04-.06,1.59,2.07,3.04,4.23,4.38,6.47,1.34,2.23,2.57,4.53,3.75,6.85,.08,.15,.29,.2,.43,.11,.15-.09,.19-.27,.11-.43-1.33-2.59-2.74-5.13-4.29-7.6-1.52-2.43-3.18-4.78-5.01-6.99-.04-.05-.1-.07-.17-.07-.07,0-.14,.03-.18,.07"/>
      <path class="cls-4" d="M114.32,1.87s-.08,.02-.13,.03c-.97,.24-1.75,.68-2.34,1.32-.57,.62-1,1.42-1.29,2.39-.35,1.16-.48,2.48-.42,4.12,.03,.64,.08,1.23,.15,1.78-4.06-1.16-8.26-1.61-12.47-1.34-1.88,.12-3.8,.38-5.7,.8-2.42,.53-4.82,1.29-7.13,2.27-4.04,1.71-7.82,4.04-11.23,6.95-1.71,1.45-3.31,3.02-4.78,4.68-1.41,1.6-2.77,3.4-4.04,5.34-2.43,3.73-4.26,7.82-5.44,12.14-.61,2.23-1.04,4.61-1.32,7.28-.26,2.52-.32,5.03-.16,7.46,.3,4.62,1.4,9.01,3.27,13.05,.9,1.96,1.99,3.86,3.25,5.65,1.21,1.72,2.63,3.42,4.21,5.03,2.95,3.02,6.59,5.77,10.82,8.18,1.98,1.13,4.08,2.17,6.41,3.17,2.06,.88,4.3,1.71,7.06,2.6l.52,.17c.8,.26,1.63,.53,2.47,.74,1.05,.26,2.1,.38,3.11,.36,.04,0,.09,0,.13-.02,.1-.02,.18-.06,.26-.12,4.38-.48,9.03-1.26,14.23-2.4,5-1.09,10.01-2.4,14.69-3.65l.1-.04h0s.07,0,.11,0c.12-.03,.23-.08,.32-.15,.32-.26,.71-.56,1.12-.82,.62-.36,1.29-.63,1.85-.85,.8-.3,1.63-.56,2.34-.77,.99-.29,1.99-.56,2.98-.83,1.92-.52,3.9-1.06,5.81-1.73,1.59-.56,2.82-1.11,3.88-1.72,1.31-.76,2.24-1.54,2.91-2.44,.37-.5,.66-1.07,.84-1.65,.19-.63,.26-1.3,.21-2.05-.04-.65-.22-1.36-.55-2.18-.23-.58-.54-1.18-.96-1.85,1.41-.05,2.86-.24,4.28-.55,.24-.05,.48-.11,.72-.17,1.89-.47,3.68-1.14,5.31-1.99,1.7-.89,3.21-1.97,4.49-3.21,.68-.65,1.3-1.35,1.85-2.08,.53-.7,1.02-1.51,1.47-2.38,.81-1.57,1.36-3.37,1.67-5.5,.28-1.91,.33-3.92,.17-6.17-.15-2.05-.51-4.19-1.08-6.35-.57-2.16-1.33-4.26-2.26-6.26-1.49-3.22-3.38-6.05-5.6-8.42-2.39-2.55-5.07-4.41-7.96-5.53-.14-.05-.3-.07-.44-.03-.07,.01-.13,.04-.19,.07-.17-.15-.41-.21-.64-.16-.08,.02-.15,.05-.22,.09-.9,.51-1.83,.99-2.77,1.41l-.15,.08h0c-1.75,.73-3.51,1.3-5.21,1.67-.44,.1-.89,.18-1.34,.26-1.41,.21-2.66,.26-3.81,.16-.91-.1-1.8-.3-2.67-.61-.81-.32-1.57-.71-2.26-1.18-.61-.45-1.14-.94-1.58-1.46-.34-.45-.61-.89-.83-1.35-.17-.41-.28-.81-.36-1.23-.05-.41-.06-.81-.03-1.21,.06-.48,.17-.92,.33-1.37,.2-.5,.44-.96,.7-1.35,.43-.57,.97-1.06,1.48-1.54,.55-.5,1.11-1.02,1.55-1.64,.11-.15,.21-.29,.3-.46,.1-.17,.17-.36,.23-.54,.13-.36,.09-.73,.04-1.02-.06-.38-.31-.69-.53-.96-.11-.13-.25-.24-.38-.33-.2-.16-.43-.3-.7-.45-.62-.33-1.33-.46-2.12-.39,.66-.58,1.22-1.15,1.72-1.74,1.24-1.44,1.89-2.84,1.93-4.16,.04-1.48-.85-2.99-2.33-3.94-.64-.41-1.39-.66-2.23-.75-.59-.07-1.26-.02-1.97,.13-.11,.02-.23,.05-.34,.08-1.49,.39-2.95,1.16-4.75,2.49-1.39,1.03-2.75,2.29-4.14,3.83-.35,.38-.68,.77-1.01,1.17,.17-.82,.24-1.49,.26-2.11,.03-.84-.07-1.55-.3-2.18-.1-.28-.25-.54-.45-.8-.2-.26-.48-.47-.86-.66-.55-.27-1.25-.31-2.09-.12"/>
      <path class="cls-3" d="M84.99,13.22c-4.05,1.72-7.84,4.06-11.24,6.96-1.72,1.45-3.32,3.02-4.78,4.68-1.41,1.59-2.77,3.39-4.04,5.34-2.43,3.75-4.26,7.83-5.44,12.15-.61,2.25-1.05,4.63-1.32,7.28-.26,2.51-.32,5.02-.17,7.47,.3,4.62,1.4,9.01,3.27,13.06,.91,1.97,2,3.87,3.25,5.64,1.22,1.73,2.63,3.42,4.22,5.03,2.94,3.01,6.58,5.77,10.82,8.19,1.98,1.14,4.08,2.18,6.41,3.17,2.09,.9,4.33,1.72,7.06,2.6l.52,.17c.88,.28,1.67,.54,2.48,.74,1.04,.26,2.09,.38,3.11,.37,.05,0,.09,0,.14-.02,.09-.02,.18-.06,.27-.13,.16-.02,.32-.03,.49-.05-2.2-1.5-4.38-3.04-6.49-4.67-3.4-2.61-6.65-5.44-9.52-8.63-1.76-1.95-3.39-4.02-4.84-6.22-1.49-2.24-2.79-4.6-3.93-7.04-1.12-2.38-2.09-4.83-2.9-7.33-.83-2.57-1.5-5.19-1.96-7.85-.46-2.62-.75-5.27-.8-7.93-.06-2.65,.1-5.32,.53-7.95,.42-2.56,1.07-5.08,2.03-7.49,.93-2.35,2.1-4.61,3.52-6.7,1.42-2.07,3.05-4,4.9-5.7,1.86-1.71,3.91-3.21,6.12-4.44,1.35-.74,2.77-1.34,4.23-1.8,1.46-.45,2.94-.78,4.44-1.07,1.49-.28,2.99-.53,4.48-.83,.25-.05,.5-.1,.75-.16-.92-.01-1.84,.01-2.76,.07-1.89,.12-3.81,.39-5.7,.8-2.41,.53-4.8,1.29-7.13,2.27"/>
      <path class="cls-3" d="M133.21,2.34c-.05,.33-.13,.65-.25,.96-.11,.3-.24,.6-.39,.89-.35,.68-.79,1.33-1.26,1.93-1.03,1.33-2.22,2.53-3.43,3.7-.57,.56-1.14,1.1-1.71,1.65-.37,.37-.74,.73-1.1,1.11,.04-.02,.08-.03,.12-.05,.45-.17,.92-.32,1.4-.38,.44-.06,.89-.08,1.33,.02,.21,.05,.4,.11,.59,.21,.1,.05,.2,.1,.29,.17,.06,.05,.12,.09,.18,.15,.17,.16,.33,.34,.45,.54,.06,.11,.13,.22,.18,.35,.03,.09,.07,.19,.09,.29,.04,.22,.07,.44,.05,.66-.02,.18-.04,.37-.08,.55-.12,.51-.33,1-.53,1.49-.18,.44-.36,.88-.45,1.35,0-.02,0-.04,.01-.06-.06,.35-.12,.71-.14,1.07-.02,.34-.02,.68,0,1.03h0c.02,.3,.06,.61,.12,.92,.06,.31,.14,.61,.24,.91,.08,.24,.18,.48,.3,.71,.12,.24,.25,.47,.4,.7,.17,.25,.35,.49,.54,.71,.19,.21,.38,.4,.59,.59-.01-.01-.03-.03-.05-.04,.25,.22,.51,.43,.79,.61,.27,.18,.56,.35,.85,.5h0s0,0,0,0c0,0,0,0,0,0,.04,.02,.07,.03,.11,.05-.46-.37-.87-.77-1.22-1.18-.34-.44-.61-.88-.83-1.35-.17-.4-.29-.81-.36-1.23-.06-.42-.06-.82-.03-1.2,.06-.48,.17-.93,.33-1.37,.21-.51,.44-.97,.7-1.34,.42-.56,.95-1.05,1.46-1.52,.6-.55,1.15-1.05,1.58-1.66,.11-.15,.22-.3,.3-.45,.1-.17,.16-.36,.23-.55,.12-.35,.1-.7,.04-1.03-.06-.36-.3-.68-.54-.97-.1-.11-.23-.23-.39-.34-.2-.16-.44-.3-.71-.45-.62-.33-1.34-.46-2.13-.39,.63-.5,1.2-1.07,1.74-1.71,1.24-1.44,1.89-2.84,1.93-4.16,.04-1.1-.44-2.22-1.3-3.11,0,.24,0,.48-.05,.72"/>
      <path class="cls-7" d="M118.28,16.86c-.59,.16-1.17,.34-1.73,.57-.6,.24-1.17,.55-1.72,.89-.47,.29-.93,.61-1.37,.94-.49,.37-.94,.79-1.37,1.23-1.68,1.71-3.03,3.72-4.03,5.9-.08,.18,.03,.41,.21,.48,.2,.08,.4-.03,.48-.22,.12-.26,.24-.52,.38-.77,0,0,0,0,0,.01,0,0,0-.01,0-.02,0-.02,.02-.03,.03-.05,0,.01-.01,.02-.02,.03,.59-1.06,1.31-2.04,2.14-2.92-.02,.02-.04,.04-.05,.05,.73-.74,1.55-1.39,2.43-1.95,0,0,0,0,0,0,.61-.37,1.22-.72,1.87-1.01,.58-.26,1.17-.47,1.77-.66,.44-.13,.89-.24,1.34-.34,.29-.06,.53-.2,.71-.44,.18-.24,.25-.54,.2-.83-.05-.28-.2-.54-.44-.71-.21-.15-.53-.26-.8-.21-.01,0-.02,0-.03,0m-.73,2.44c-.07,.02-.14,.04-.21,.06,.07-.02,.14-.04,.21-.06m-3.73,1.64s-.03,.02-.05,.03c.02,0,.03-.02,.05-.03m-4.69,4.93h0s0-.01,.01-.02c0,0,0,.01-.01,.02"/>
      <path class="cls-7" d="M154,19.67h-.02c-1.61,.36-3.17,1.21-4.5,2.46-1.24,1.16-2.2,2.65-2.77,4.31-.48,1.39-.61,2.89-.38,4.33,.23,1.47,.96,2.94,2.07,4.13,.54,.58,1.21,1.13,1.99,1.62,.9,.57,1.92,.97,3.02,1.19,1.3,.25,2.66,.23,3.94-.05,.8-.17,1.56-.45,2.26-.81,1.12,1.52,2.7,2.47,4.31,2.6,.34,.02,.7,0,1.06-.08,.07-.02,.14-.03,.21-.05,.45-.12,.87-.35,1.31-.69,.32-.25,.62-.62,.89-1.09,.28-.48,.49-1.05,.62-1.69,.18-.84,.19-1.75,.05-2.87-.12-.92-.37-1.88-.78-3.03-.76-2.11-1.87-4.12-3.3-5.97-.65-.84-1.34-1.58-2.06-2.2-.4-.34-.74-.6-1.07-.82-.47-.31-.97-.55-1.41-.74-1.68-.75-3.61-.95-5.43-.56"/>
      <path class="cls-6" d="M153.79,22.35h-.03c-.97,.22-1.94,.83-2.89,1.84-.42,.44-.78,.97-1.03,1.52-.05,.12-.1,.24-.14,.36-.09,.17-.16,.34-.23,.52-.15,.43-.18,.83-.09,1.23,.1,.45,.32,.83,.63,1.07,.32,.25,.7,.32,1.14,.23,.31-.07,.65-.22,1-.46,.37-.25,.71-.57,.99-.85,.29-.28,.6-.62,.92-1.01,.6-.74,1.04-1.41,1.34-2.04,.2-.44,.47-1.27,.01-1.87-.41-.54-1.11-.61-1.63-.5"/>
      <path class="cls-1" d="M116.93,26.98c-.74,.16-1.48,.44-2.19,.83-1.62,.88-2.96,2.35-3.87,4.27-1.27,2.66-1.55,5.95-.78,9.03,.41,1.64,1.21,3.32,2.37,5,1.01,1.58,2.21,2.91,3.57,3.97l.11,.09c.4,.29,.81,.56,1.22,.82,.7,.41,1.44,.75,2.22,1.02,1.7,.58,3.54,.69,5.32,.3,1.42-.31,2.76-.93,3.87-1.8,1.15-.89,2.05-2.16,2.62-3.7,.49-1.33,.69-2.88,.6-4.62-.1-1.63-.44-3.3-1.03-4.95-.6-1.68-1.38-3.23-2.32-4.61-.98-1.44-2.1-2.66-3.33-3.65-.59-.47-1.21-.86-1.84-1.17-.33-.16-.67-.31-1.02-.44-.41-.15-.89-.27-1.42-.37-.57-.12-1.15-.19-1.71-.21-.51-.03-1.08,0-1.74,.08-.22,.03-.44,.06-.65,.11"/>
      <path class="cls-7" d="M120.21,26.85s0,0,0,0h0c-.21,.17-.41,.37-.59,.6-.24,.32-.45,.68-.63,1.11-.26,.61-.44,1.29-.56,2.09-.18,1.28-.19,2.64,0,4.17,.23,1.85,.71,3.69,1.42,5.47,.64,1.56,1.43,2.93,2.32,4.1,.64,.84,1.4,1.61,2.21,2.25,.68,.51,1.37,.92,2.06,1.23,.73,.3,1.46,.51,2.18,.61,.61,.08,1.27,.11,1.94,.07,.35-.55,.63-1.13,.85-1.73,.49-1.32,.7-2.88,.61-4.63-.1-1.64-.45-3.31-1.03-4.95-.61-1.69-1.39-3.24-2.33-4.62-.97-1.44-2.1-2.67-3.34-3.65-.59-.46-1.2-.85-1.84-1.17-.33-.16-.68-.31-1.03-.44-.43-.15-.91-.28-1.43-.37-.27-.06-.54-.1-.81-.14h-.01Z"/>
      <path class="cls-1" d="M120.77,38.01c-.21,.05-.42,.11-.61,.17-.34,.11-.65,.23-.94,.38-.38,.19-.73,.45-1.04,.69-.27,.21-.53,.45-.77,.68-.17,.16-.26,.39-.24,.63-.16,.25-.65,1.14-.06,1.82,.53,.63,1.48,.51,2.15,.36l.22-.05c.92-.22,1.77-.7,2.45-1.38,.46-.45,1.01-1.16,1.05-1.97,.02-.36-.11-.71-.35-.97-.08-.08-.17-.16-.28-.23-.12-.09-.27-.15-.42-.16-.13-.03-.26-.05-.38-.06-.23-.01-.49,.01-.77,.07"/>
      <path class="cls-7" d="M80.9,33.09c-.26-.35-.59-.69-.96-1.02-.53-.48-1.21-.89-2.12-1.3-.7-.32-1.47-.57-2.35-.77-1.09-.36-2.31-.64-3.83-.89-2.16-.34-4.34-.45-6.45-.56-2.86-.15-5.78-.43-8.7-.83-4.46-.62-8.79-1.52-12.06-2.24l.09,.04c-.69-.17-1.37-.32-2.06-.48-1.98-.45-4.03-.91-6.06-1.27-2.73-.49-5.23-.76-7.65-.83-2.65-.08-5.21,.12-7.61,.59-2.58,.5-5.09,1.35-7.46,2.53-2.3,1.14-4.4,2.62-6.23,4.39-1.77,1.71-3.27,3.69-4.44,5.88C.62,40.77-.39,46.1,.17,51.32c.27,2.44,.95,4.82,2.03,7.08,.61,1.27,1.37,2.52,2.27,3.7,.54,.7,1.12,1.39,1.75,2.05,3.1,3.23,7.32,5.77,12.19,7.34,2.28,.73,4.72,1.25,7.25,1.52,2.42,.27,4.97,.28,7.79,.05,5.22-.42,10.66-1.79,16.17-4.05,2.51-1.04,5.01-2.28,7.43-3.69,2.15-1.25,4.23-2.7,6.18-4.07,3.3-2.32,7.56-5.48,11.26-9.36,3.91-4.09,6.29-8.02,7.26-12.01,.57-2.35,.48-4.27-.29-5.86-.15-.32-.34-.62-.57-.92"/>
      <path class="cls-7" d="M80.13,32.23c-.44-.51-.97-.95-1.53-1.32-1.18-.78-2.54-1.25-3.91-1.56-2.73-.62-5.55-.61-8.32-.5-.19,0-.38,.16-.49,.3-.12,.16-.17,.36-.14,.56,.03,.2,.14,.37,.3,.49,.18,.13,.35,.14,.56,.14,.12,0,.25,0,.37-.01,0,0-.01,0-.02,0,2.52-.08,5.08-.04,7.55,.52,.95,.24,1.88,.55,2.74,1.01,.51,.29,.98,.62,1.41,1.02,.34,.34,.63,.71,.88,1.11,.09,.15,.17,.31,.24,.47,.17,.37,.61,.55,.99,.38,.37-.16,.56-.62,.39-.99-.21-.46-.47-.89-.78-1.29-.08-.11-.17-.21-.26-.32m-5.63-1.4s-.09-.02-.14-.03l.14,.03Z"/>
      <path class="cls-7" d="M80.35,32.78c-.29-.34-.63-.62-.98-.88-.34-.24-.8-.19-1.05,.14-.24,.32-.19,.81,.14,1.05,.22,.16,.43,.32,.62,.5,.17,.19,.32,.39,.46,.6,.01,.02,.03,.05,.04,.07,.1,.19,.21,.33,.41,.41,.18,.08,.39,.08,.57,0,.19-.07,.34-.22,.41-.41,.07-.16,.09-.4,0-.57-.15-.27-.3-.53-.48-.78-.04-.06-.09-.11-.13-.17"/>
      <path class="cls-7" d="M79.25,31.61c-.33-.25-.8-.19-1.05,.14-.25,.32-.19,.8,.14,1.05,.25,.19,.48,.39,.71,.6,.23,.25,.44,.51,.64,.79,.24,.34,.73,.38,1.05,.14,.34-.26,.38-.72,.14-1.05-.05-.07-.1-.14-.15-.21-.42-.56-.92-1.05-1.48-1.47"/>
      <path class="cls-7" d="M79.35,31.6c-.34-.23-.79-.2-1.05,.14-.24,.31-.2,.82,.14,1.05,.18,.12,.34,.25,.49,.39,.2,.22,.37,.45,.52,.71,.09,.16,.32,.27,.5,.29,.2,.03,.4-.03,.56-.15,.16-.12,.26-.3,.29-.5,.03-.21-.04-.37-.15-.55-.09-.15-.18-.29-.28-.42-.28-.37-.62-.7-1.01-.96"/>
      <path class="cls-7" d="M79.45,31.57c-.33-.24-.8-.19-1.05,.14-.25,.32-.19,.81,.14,1.05,.16,.12,.32,.25,.46,.38,.26,.27,.48,.56,.68,.88,.22,.35,.75,.38,1.05,.14,.16-.12,.26-.3,.29-.49,.03-.21-.04-.38-.15-.56-.09-.15-.19-.29-.3-.43-.32-.42-.69-.8-1.12-1.12"/>
      <path class="cls-7" d="M79.47,31.61c-.33-.24-.8-.19-1.05,.14-.24,.32-.19,.81,.14,1.05,.17,.13,.33,.26,.49,.41,.19,.2,.35,.42,.51,.66,.22,.34,.74,.38,1.05,.14,.16-.12,.26-.3,.28-.5,.03-.21-.03-.38-.14-.55-.07-.11-.14-.21-.22-.31-.3-.4-.66-.74-1.07-1.04"/>
      <path class="cls-7" d="M79.81,31.85c-.32-.25-.81-.17-1.05,.14-.25,.33-.18,.8,.14,1.05,.1,.08,.18,.15,.27,.23,.18,.2,.33,.4,.47,.63,.1,.16,.32,.27,.5,.29,.2,.03,.4-.03,.55-.15,.16-.12,.26-.3,.29-.49,.03-.21-.04-.38-.15-.56-.07-.12-.16-.24-.24-.36-.22-.29-.49-.56-.78-.79"/>
      <path class="cls-5" d="M79.82,31.84s-.06-.04-.08-.06l-.12-.1c-.3-.27-.63-.54-1.01-.78-1.05-.7-2.33-1.21-3.91-1.57-1.63-.36-3.38-.54-5.51-.55-1.35-.13-2.73-.19-3.94-.25-2.89-.15-5.83-.43-8.74-.83-4.52-.63-8.82-1.52-12.06-2.24l.06,.06c-.68-.19-1.35-.34-2.03-.49l-.27-.06c-1.88-.43-3.84-.86-5.79-1.21-2.72-.48-5.22-.76-7.65-.83-2.64-.07-5.21,.13-7.62,.59-2.58,.5-5.1,1.35-7.47,2.53-2.3,1.15-4.4,2.63-6.23,4.39-1.78,1.73-3.28,3.71-4.45,5.89C.6,40.77-.41,46.1,.15,51.32c.26,2.4,.92,4.74,1.97,6.97-.35-1.34-.62-2.71-.8-4.08-.13-1.03-.22-2.07-.23-3.11-.01-1.12,.06-2.25,.19-3.37,.14-1.24,.36-2.47,.68-3.68,.32-1.14,.71-2.26,1.23-3.33,.52-1.05,1.14-2.06,1.87-2.98,.76-.94,1.63-1.8,2.59-2.54,1.05-.8,2.2-1.49,3.39-2.07,1.17-.57,2.38-1.06,3.62-1.45,5.11-1.6,10.56-1.74,15.86-1.2,1.33,.13,2.67,.31,3.99,.52,.68,.11,1.35,.23,2.02,.35,.64,.12,1.29,.25,1.93,.38,2.83,.55,5.69,1.01,8.57,1.29h0s0,0,0,0c0,0,0,0,0,0,0,0,0,0,0,0,0,0,.01,0,.02,0,0,0-.01,0-.01,0,2.69,.25,5.4,.35,8.1,.21,.78-.04,1.55-.09,2.32-.17,.72-.07,1.44-.17,2.16-.27,1.49-.22,2.99-.47,4.48-.71,1.49-.24,2.99-.46,4.49-.58,1.28-.1,2.57-.15,3.86-.12,1.19,.03,2.39,.12,3.57,.35,.61,.11,1.21,.26,1.79,.45,.5,.16,1,.35,1.47,.59,.89,.44,1.73,1.01,2.41,1.74-.06-.17-.14-.35-.22-.51-.15-.33-.34-.63-.57-.93l-.08-.1c-.07-.12-.14-.23-.23-.34-.22-.29-.47-.55-.79-.8"/>
      <path class="cls-2" d="M127.98,66.39c-.06,0-.13,.01-.19,.04-.25,.1-.37,.38-.28,.66,.32,1.04,.8,2.07,1.4,3.07,.59,.98,1.35,1.91,2.26,2.77,.8,.75,1.74,1.41,2.81,1.95,.55,.28,1.1,.49,1.64,.63,.21,.06,.42,.1,.63,.11h.12c.16,0,.31-.02,.43-.06,.31-.11,.53-.37,.57-.67,.06-.41-.11-.79-.29-1.11-.26-.46-.59-.88-.9-1.29l-.12-.15c-.4-.5-.82-.99-1.25-1.47-.98-1.07-1.92-1.94-2.9-2.67-.48-.36-1.01-.69-1.57-.99-.27-.14-.55-.27-.84-.38-.32-.13-.66-.22-1-.31-.04,0-.08,0-.1,0-.04,0-.06,0-.08,0-.09-.08-.22-.14-.35-.14"/>
      <path class="cls-4" d="M87.89,89.8c-.27,0-.54,0-.8,0-3.37,.04-6.86,.35-10.37,.9-3.48,.55-6.95,1.36-10.3,2.4-3.36,1.04-6.56,2.32-9.5,3.81-3.04,1.54-5.76,3.29-8.09,5.19-2.44,1.99-4.45,4.18-5.99,6.51-.79,1.18-1.47,2.44-2.01,3.74-.53,1.26-.95,2.62-1.24,4.05-.27,1.36-.39,2.82-.37,4.35,.03,2.12,.4,4.14,1.09,6,.37,.98,.86,1.94,1.46,2.85,.53,.82,1.2,1.6,1.99,2.33,.7,.65,1.53,1.21,2.46,1.68,.86,.43,1.82,.74,2.87,.91,.54,.09,1.08,.13,1.61,.13,1.17,0,2.41-.2,3.69-.59,.05,.03,.11,.06,.17,.08,.28,.11,.6,.2,.99,.29,.43,.09,.9,.14,1.42,.14,.23,0,.46-.01,.69-.02,.66-.05,1.37-.19,2.16-.44,.68-.21,1.37-.53,2.11-.98,1.25-.75,2.23-1.82,2.75-3,.12-.27,.21-.57,.29-.95,.07-.33,.08-.67,.08-.99,0-.38-.07-.77-.18-1.17,.38-.35,.74-.7,1.11-1.05l.6-.57c.38-.36,.76-.73,1.15-1.09,1.1-1.03,2.06-1.87,3-2.62,1.03-.82,2.15-1.59,3.44-2.35,1.53-.89,3.31-1.74,5.17-2.46,1.64-.64,3.43-1.22,5.48-1.77,2.63-.7,5.27-1.27,7.83-1.81l.19-.04c2.7-.57,5.48-1.17,8.2-1.9,1.39-.38,2.74-.79,4.01-1.24,1.22-.42,2.27-.85,3.2-1.32,2.04-1,3.76-2.19,5.11-3.53,1.27-1.27,2.06-2.51,2.41-3.81,.18-.69,.24-1.38,.16-2.05-.07-.7-.32-1.42-.73-2.13-1.11-1.9-3.02-3.13-4.56-3.99-.92-.51-1.98-.9-3.35-1.22-1.05-.24-2.18-.4-3.56-.49-.27,0-.47,.12-.55,.33-1.86-.6-3.96-1.09-6.25-1.45-2.83-.44-5.79-.65-9.05-.65"/>
      <path class="cls-3" d="M100.38,110.73c-2.11,.26-4.22,.44-6.33,.66-2.05,.21-4.1,.45-6.13,.82h0c-1.3,.25-2.58,.56-3.86,.9-1.23,.33-2.46,.69-3.68,1.09-2.37,.78-4.69,1.71-6.94,2.79,.02,0,.04-.02,.06-.03-3.16,1.54-6.16,3.41-8.93,5.57-1.95,1.53-3.79,3.19-5.7,4.77-.95,.78-1.91,1.55-2.91,2.26-.97,.68-1.97,1.32-3.02,1.85-.98,.49-2,.91-3.06,1.17-.53,.13-1.07,.23-1.61,.27-.52,.05-1.04,.05-1.57,.02-.56-.04-1.12-.12-1.66-.27-.23-.06-.46-.12-.68-.2,.28,.21,.56,.42,.84,.63,.33,.21,.67,.4,1.03,.58,.86,.43,1.83,.75,2.88,.92,.59,.08,1.13,.13,1.61,.13,1.17,0,2.41-.2,3.7-.6,.03,.03,.09,.05,.16,.08,.27,.11,.57,.2,1,.3,.44,.09,.9,.14,1.43,.14,.23,0,.46-.01,.69-.02,.66-.05,1.37-.19,2.17-.45,.68-.21,1.37-.53,2.11-.98,1.25-.75,2.23-1.82,2.76-3.01,.12-.28,.22-.58,.29-.94,.07-.34,.09-.68,.09-1,0-.39-.07-.79-.19-1.18,.36-.32,.73-.66,1.09-1.01l.62-.58c.38-.36,.77-.73,1.15-1.09,1.1-1.03,2.05-1.87,3-2.62,1.02-.82,2.14-1.59,3.43-2.35,1.5-.87,3.29-1.72,5.16-2.46,1.62-.63,3.41-1.21,5.48-1.77,2.77-.73,5.57-1.33,7.82-1.8l.19-.04c2.69-.57,5.47-1.17,8.2-1.91,1.36-.36,2.71-.78,4.01-1.23,.4-.13,.78-.27,1.14-.41-1.92,.47-3.87,.78-5.82,1.02m-12.44,1.47s-.01,0-.02,0c0,0,.02,0,.02,0"/>
      <path class="cls-3" d="M50.67,123.73c-.78,.55-1.53,1.14-2.25,1.77-.75,.67-1.44,1.39-2.08,2.17-.62,.75-1.15,1.58-1.59,2.45-.23,.45-.42,.92-.58,1.4-.07,.2-.13,.4-.19,.59,.28,.22,.57,.43,.86,.65,.03-.15,.05-.3,.09-.45,.07-.33,.16-.66,.27-.97,.37-1.02,.87-1.98,1.47-2.88-.02,.02-.03,.05-.05,.07,.18-.26,.36-.52,.55-.77,.22-.3,.47-.58,.71-.86,.48-.55,1.01-1.07,1.56-1.55-.02,.02-.03,.03-.05,.04,.51-.44,1.03-.85,1.58-1.24,.11-.08,.15-.23,.07-.35-.05-.07-.13-.11-.22-.11-.04,0-.09,.01-.13,.04"/>
      <path class="cls-3" d="M44.31,118.54c-.66,.37-1.28,.8-1.86,1.29-.61,.52-1.16,1.13-1.67,1.75-.49,.61-.93,1.25-1.35,1.9,.1,.48,.2,.97,.29,1.45,.11-.22,.21-.43,.33-.64,.34-.65,.7-1.28,1.11-1.89-.02,.03-.04,.06-.06,.09,.32-.48,.67-.94,1.04-1.38,.39-.47,.83-.91,1.28-1.32-.02,.02-.04,.03-.05,.05,.38-.33,.78-.62,1.22-.88,.12-.07,.14-.24,.07-.35-.05-.07-.12-.1-.21-.1-.05,0-.09,.01-.14,.03"/>
      <path class="cls-3" d="M38.13,125.83l.06,.13-.05-.15v.02Z"/>
      <path class="cls-3" d="M81.44,89.57c-2.86,.26-5.7,.72-8.49,1.38-1.08,.25-2.15,.55-3.21,.88-.52,.16-1.04,.34-1.56,.52-.51,.18-1.02,.38-1.52,.58-.16,.06-.25,.22-.19,.39,.05,.16,.23,.25,.39,.19,.67-.23,1.34-.44,2.02-.65,.74-.22,1.48-.44,2.22-.64,1.51-.41,3.04-.75,4.58-1.05l-.1,.02c6.3-1.2,12.75-1.51,19.15-1.02,0,0-.01,0-.02,0,3.97,.32,7.91,.94,11.77,1.95,.13,.03,.27-.06,.3-.19,.03-.14-.06-.26-.19-.3-5.4-1.41-10.95-2.16-16.52-2.33-.7-.02-1.41-.03-2.11-.03-2.17,0-4.34,.1-6.5,.3"/>
      <path class="cls-7" d="M127.42,60.37c-.26,0-.48,.2-.51,.47-.2,1.99-.35,4.6,.27,7.08,.29,1.17,.77,2.26,1.4,3.24,.62,.96,1.45,1.85,2.47,2.65,.89,.7,1.92,1.29,3.06,1.75,1.13,.46,2.32,.7,3.45,.7,1.18,0,2.32-.31,3.28-.89,.52-.31,.98-.71,1.39-1.17,.21-.24,.4-.49,.57-.75,.17-.26,.31-.53,.45-.8,.06-.12,.03-.29-.02-.4-.06-.12-.16-.22-.29-.26-.08-.03-.12-.05-.16-.07-1.8-.61-3.54-1.41-5.18-2.37l.11,.09c-2.31-1.39-4.49-3.11-6.48-5.13l.08,.11c-1.16-1.22-2.29-2.56-3.36-4-.08-.1-.19-.17-.33-.19-.06-.03-.12-.05-.18-.05h-.03Zm2.04,10.31l-.04-.07h0c-.4-.64-.74-1.33-1.02-2.11-.15-.44-.27-.91-.37-1.42,.1,.03,.21,.06,.32,.09,.69,.2,1.36,.49,2.07,.9l-.02-.02c1.13,.68,2.22,1.56,3.33,2.69,1.28,1.33,2.39,2.79,3.24,4.29l.07,.13c-.07,0-.15,.01-.24,.01-.25,0-.52-.04-.79-.09-.82-.19-1.62-.48-2.45-.89-.95-.5-1.79-1.08-2.55-1.74-.61-.57-1.14-1.19-1.57-1.83,0,.02,0,.04,.02,.06"/>
      <path class="cls-8" d="M127.29,58.06c-.25,.05-.5,.13-.74,.22-.24,.09-.48,.22-.7,.35-.3,.17-.53,.34-.75,.52-.89,.7-1.54,1.5-1.91,2.36-.03,.07-.03,.15,0,.22s.08,.13,.15,.16c.06,.03,.12,.03,.18,.02,.09-.02,.16-.08,.2-.16,.06-.15,.13-.28,.21-.42,.14-.22,.32-.43,.55-.66,.26-.23,.55-.43,.85-.61,.3-.14,.58-.25,.9-.34-.02,.07,0,.15,.03,.21,.55,1.23,1.4,2.24,2.3,3.26,.83,.94,1.64,1.77,2.47,2.53,1.69,1.55,3.65,2.95,5.99,4.29,2.22,1.26,4.47,2.16,6.69,2.68,1.57,.36,3.18,.51,4.77,.44,.85-.08,1.66-.2,2.43-.35,0,0,.03-.12,.03-.12-.97,.1-2.01,.1-3.08,0-.95-.09-1.88-.25-2.74-.47-.52-.11-1.04-.23-1.54-.38-2.17-.67-4.27-1.64-6.24-2.86-2.23-1.41-4.39-3.22-6.39-5.36-.46-.51-.9-1.03-1.34-1.55-.44-.53-.94-1.16-1.34-1.85-.12-.23-.22-.47-.32-.7,.16,.04,.26,.03,.35,.01,.09-.02,.18-.06,.27-.12,.17-.12,.29-.3,.32-.51,.03-.21-.02-.41-.13-.57-.15-.23-.42-.35-.72-.33-.25,.01-.5,.05-.74,.1"/>
    </g>
  </g>
</svg>