<?xml version="1.0" encoding="UTF-8"?>
<svg id="Layer_2" data-name="Layer 2" xmlns="http://www.w3.org/2000/svg" viewBox="0 0 187.03 197.2">
  <defs>
    <style>
      .cls-1 {
        fill: #fefefe;
      }

      .cls-2 {
        fill: #8e3f59;
      }

      .cls-3 {
        fill: #ad4d6c;
      }

      .cls-4 {
        fill: #3e164a;
      }

      .cls-5 {
        fill: #64446c;
      }

      .cls-6 {
        fill: #350b40;
      }

      .cls-7 {
        fill: #7a364d;
      }
    </style>
  </defs>
  <g id="OBJECTS">
    <g>
      <path class="cls-6" d="M2.38,135.06c-.2,.09-.4,.19-.59,.29-.31,.17-.59,.38-.84,.59-.28,.25-.51,.54-.69,.89-.28,.52-.34,1.15-.17,1.79,.14,.52,.46,1.01,.92,1.43,.4,.37,.93,.68,1.63,.97,.63,.25,1.35,.46,2.23,.64,1.23,.25,2.59,.4,4.42,.48,1.51,.07,3.09,.06,4.84,0,.69-.03,1.37-.07,2.06-.12-.01,0-.02,.01-.03,.02-.16,.07-.32,.16-.48,.26-.48,.3-.84,.58-1.13,.87-.17,.17-.33,.35-.48,.54-.11,.15-.19,.31-.28,.46l-.07,.13c-.19,.37-.25,.76-.27,1.03-.01,.35,.03,.66,.14,.94,.07,.19,.14,.37,.24,.54,.11,.19,.25,.36,.4,.53,.19,.23,.43,.43,.75,.66,.41,.28,.82,.52,1.26,.73,.88,.41,1.93,.74,3.2,1,2.1,.43,4.53,.54,7.21,.32,2.92-.24,6.09-.86,9.69-1.89,1.5-.43,3-.91,4.47-1.44-.38,.38-.64,.78-.79,1.17-.22,.59-.16,1.22,.16,1.69,.31,.44,.78,.79,1.43,1.05,.6,.25,1.29,.42,2.11,.55,.78,.11,1.64,.17,2.56,.16,.81,0,1.67-.06,2.56-.19,.43-.06,.85-.14,1.27-.22,.52-.11,1.03-.26,1.56-.42,1.53-.46,3.07-1.02,4.59-1.69,1.59-.7,3.16-1.51,4.68-2.42,2.95-1.76,5.56-3.84,7.75-6.19,.14-.15,.19-.31,.14-.45,.03-.01,.07-.02,.09-.04,.07-.03,.12-.06,.17-.1,.2-.14,.44-.41,.46-.66,.08-.74,.09-1.39,.04-1.99-.06-.75-.22-1.46-.36-1.99-.32-1.2-.87-2.4-1.69-3.66-.7-1.08-1.62-2.1-2.75-3.02-1.02-.84-2.18-1.49-3.45-1.95-.07-.06-.14-.11-.21-.14-.26-.13-.57-.16-.94-.07-.35,.08-.69,.19-1.02,.29l-.23,.07-.64,.2-.63,.2c-.84,.26-1.68,.51-2.53,.75-1.68,.49-3.43,.95-5.19,1.38-3.11,.76-6.42,1.43-9.84,1.99-6.39,1.03-12.61,1.62-17.85,2.05-1.53,.13-3.05,.24-4.58,.34l-1,.08c-.87,.07-1.74,.14-2.61,.17-.69,.03-1.39,.05-2.08,.06-.83,.02-1.66,.04-2.5,.08-1.77,.09-3.66,.24-5.52,.71-.59,.15-1.14,.33-1.62,.54"/>
      <path class="cls-2" d="M70.83,145.79h-.05c-4.8,.39-8.76,1.32-12.11,2.87-1.8,.83-3.32,1.79-4.65,2.94-1.31,1.13-2.39,2.45-3.22,3.92-.81,1.46-1.36,3.18-1.59,4.98-.24,1.87-.15,3.87,.28,6.13,.38,2.02,1.06,4.11,2.19,6.78,1.05,2.49,2.18,4.61,3.46,6.5,1.49,2.19,3.18,3.96,5,5.27,1.02,.73,2.06,1.31,3.08,1.71,.88,.35,1.85,.59,2.87,.72,.58,.07,1.17,.11,1.74,.11,1.6,0,3.08-.29,4.38-.86,.98-.43,1.82-1.01,2.52-1.74,.74-.78,1.29-1.81,1.54-2.91,.2-.86,.18-1.84-.07-2.98-.24-1.05-.71-2.05-1.15-2.89-.48-.92-1.04-1.81-1.59-2.67-.3-.47-.59-.94-.88-1.41,2.4,.76,5.07,1.14,7.91,1.14,.78,0,1.58-.03,2.38-.09,4.27-.31,8.43-1.45,12.04-3.3,4.26-2.18,7.46-5.44,9.02-9.19,.1-.23,.09-.49-.02-.7,.32-.27,.35-.74,.07-1.07-1.24-1.48-2.78-2.86-4.7-4.22-1.69-1.2-3.66-2.32-6.02-3.43-4.1-1.93-8.65-3.39-13.54-4.33-3.04-.58-5.75-.89-8.28-.93-.13-.21-.37-.34-.61-.34"/>
      <path class="cls-2" d="M126.3,110.27c-.5,0-1,.06-1.5,.19-.57,.14-1.12,.4-1.69,.77-.97,.64-1.81,1.64-2.55,3.05-.62,1.18-1.08,2.55-1.44,4.31-.31,1.49-.47,3.12-.49,4.86-.02,1.71,.1,3.36,.36,4.9,.27,1.6,.65,2.95,1.17,4.13,.35,.79,.83,1.57,1.41,2.3,.15,.2,.38,.31,.62,.31,.5,.42,.97,.82,1.44,1.19,.88,.68,1.86,1.29,3,1.89,2.08,1.09,4.43,1.82,6.8,2.1,.66,.08,1.34,.12,2,.12,1.72,0,3.38-.27,4.93-.81,1.05-.36,2.07-.89,3.01-1.55,.83-.59,1.63-1.35,2.39-2.26,1.4-1.68,2.41-3.77,2.92-6.04,.5-2.21,.36-4.51-.4-6.48-.69-1.8-2.03-3.42-4.09-4.95-1.02-.77-2.11-1.4-2.95-1.86-1.15-.63-2.31-1.18-3.2-1.58-1.07-.49-2.14-.94-3.22-1.4-1.05-.44-2.09-.89-3.12-1.35-.45-.21-.9-.42-1.34-.64-.45-.23-.84-.42-1.24-.59-.76-.3-1.5-.5-2.22-.57-.2-.02-.39-.03-.58-.03"/>
      <path class="cls-3" d="M113.11,79.86c-.83,0-1.66,.04-2.48,.12-1.8,.17-3.55,.54-5.2,1.11-1.6,.55-2.98,1.28-4.09,2.18-.31,.25-.39,.66-.2,.99-1.79,.83-3.59,1.7-5.32,2.59-4.54,2.33-8.78,4.81-12.61,7.38-4.34,2.91-8.22,6.01-11.54,9.22-3.61,3.49-6.51,7.19-8.63,10.99-2.25,4.04-3.59,8.42-3.87,12.66-.15,2.28,0,4.62,.42,6.95,.24,1.28,.55,2.49,.94,3.6,.36,1.04,.85,2.1,1.5,3.26,1.99,3.53,5.26,6.65,10,9.51,3.46,2.09,7.2,3.78,10.82,5.41,.74,.33,1.47,.67,2.21,1,2.33,1.07,5.04,2.34,7.56,3.86l.07,.04c.85,.53,1.54,1.06,2.1,1.63,.38,.4,.68,.81,.92,1.23,.18,.34,.32,.68,.43,1.04,.09,.39,.14,.78,.15,1.21-.02,.57-.11,1.14-.27,1.76-.46,1.56-1.27,3.02-2.08,4.37l-.06,.12h0c-.41,.66-.82,1.31-1.23,1.95-.68,1.07-1.39,2.18-2.03,3.3-1.21,2.11-1.91,3.89-2.21,5.59-.31,1.78-.07,3.64,.69,5.26,.66,1.4,1.72,2.69,3.16,3.83,1.31,1.02,2.89,1.89,4.84,2.65,1.76,.69,3.7,1.23,5.95,1.66,1.98,.38,4.13,.63,6.37,.76,.98,.05,1.99,.08,2.98,.08,1.1,0,2.22-.03,3.33-.1,1.97-.12,3.76-.34,5.45-.69,1.86-.39,3.3-.85,4.51-1.47,2.55-1.3,4.4-3.41,5.1-5.78,.37-1.27,.44-2.59,.19-3.93-.26-1.39-.83-2.74-1.65-3.88-.6-.83-1.41-1.58-2.41-2.22-.91-.58-1.95-1.06-3.19-1.47-1.86-.6-3.8-.93-5.47-1.19,.68-.51,1.36-1.12,2.08-1.86,1.27-1.31,2.43-2.87,3.54-4.78,.99-1.71,1.81-3.6,2.44-5.62,.63-2.03,1.04-4.08,1.22-6.1,.24-2.9-.01-5.68-.76-8.25-.36-1.25-.9-2.5-1.6-3.72-.54-.93-1.21-1.82-2-2.66,2.73-2.31,5.13-5.54,7.11-9.6,1.81-3.7,3.15-7.9,3.98-12.5,.8-4.47,1.02-9.02,.66-13.51-.37-4.58-1.37-8.8-2.97-12.55-.96-2.26-2.16-4.33-3.57-6.15,.06-.15,.06-.31,0-.53-.22-.79-.56-1.57-1.02-2.38-.38-.65-.87-1.29-1.56-1.99-1.08-1.11-2.51-2.05-4.25-2.79-1.56-.67-3.33-1.13-5.28-1.39-1.01-.13-2.06-.19-3.12-.19"/>
      <path class="cls-2" d="M62.01,140.92c1.99,3.54,5.26,6.66,10.01,9.52,3.51,2.12,7.22,3.8,10.82,5.41l.52,.24,1.68,.76c2.46,1.13,5.08,2.37,7.56,3.86,.91,.57,1.6,1.1,2.16,1.67,.36,.38,.66,.78,.93,1.21,.17,.33,.3,.67,.42,1.04,.09,.37,.13,.77,.15,1.2-.02,.58-.11,1.15-.26,1.75-.29,.97-.72,1.91-1.19,2.81-.05,.1-.09,.2-.15,.3-.22,.45-.44,.88-.69,1.31-.15,.25-.3,.49-.45,.73-.04,.08-.08,.16-.12,.23-.02,.03-.05,.05-.08,.07-.04,.05-.07,.11-.11,.17-.03,.05-.08,.08-.13,.09l-.24,.38-.22,.35-.11,.17c-.57,.9-1.29,2.03-1.92,3.13-1.21,2.11-1.91,3.89-2.22,5.59-.32,1.78-.07,3.65,.7,5.26,.66,1.4,1.72,2.69,3.16,3.84,1.32,1.02,2.9,1.89,4.85,2.65,1.77,.7,3.72,1.24,5.96,1.67,1.97,.38,4.11,.63,6.37,.76,.99,.06,2,.09,2.98,.09,1.05,0,2.17-.04,3.33-.1,1.79-.11,3.42-.31,4.96-.6-1.86,.05-3.73,0-5.58-.14-1.68-.13-3.36-.34-5.02-.64-1.64-.31-3.28-.7-4.86-1.23-1.48-.5-2.93-1.1-4.28-1.89-1.24-.72-2.42-1.59-3.39-2.65-.93-1.02-1.68-2.18-2.14-3.48-.51-1.41-.68-2.93-.57-4.43,.06-.86,.2-1.73,.41-2.57,.13-.54,.29-1.07,.48-1.59,.19-.52,.4-1.03,.63-1.54,1.02-2.25,2.34-4.35,3.32-6.62h0s0,0,0,0c0-.02,.01-.03,.02-.05,.24-.57,.46-1.15,.63-1.74,.18-.58,.31-1.17,.4-1.77h0s0-.01,0-.02h0s0-.02,0-.04h0s0,0,0,0c.05-.41,.09-.83,.08-1.25,0-.4-.03-.8-.07-1.19,0,.02,0,.05,.01,.07-.06-.4-.12-.8-.24-1.2-.1-.38-.23-.75-.38-1.11,0,.02,.02,.04,.03,.06-.17-.4-.36-.79-.58-1.16-.21-.36-.44-.7-.69-1.03h0s0,0,0,0h0s0,0,0-.01h0s-.01-.02-.02-.03c-.35-.44-.72-.85-1.12-1.24-.38-.37-.78-.71-1.2-1.04-.84-.65-1.74-1.22-2.68-1.72-.76-.4-1.53-.77-2.33-1.11h0c-1.52-.64-3.07-1.19-4.63-1.72-1.69-.57-3.39-1.11-5.09-1.66-3.49-1.13-6.99-2.31-10.32-3.87-1.68-.79-3.33-1.67-4.88-2.71-1.43-.97-2.8-2.07-3.97-3.35-.06,0-.11-.04-.14-.08-.08-.11-.15-.22-.23-.33-.5-.57-.96-1.17-1.39-1.8,.31,.75,.69,1.52,1.14,2.33"/>
      <polyline class="cls-2" points="100.71 166.15 100.71 166.15 100.71 166.14 100.71 166.15"/>
      <path class="cls-2" d="M102.37,131.23c-.66,.03-1.32,.13-1.97,.24-.64,.11-1.27,.27-1.88,.49-.33,.12-.64,.27-.95,.45-.05,.02-.1,.05-.15,.07-.18,.11-.32,.26-.42,.44-.15,.27-.18,.6-.09,.9,.18,.62,.84,.96,1.46,.78,.04,0,.08-.02,.12-.03,.69-.11,1.38-.26,2.07-.38,1.43-.21,2.87-.24,4.31-.12,2,.22,3.99,.71,5.88,1.4,1.32,.52,2.61,1.12,3.84,1.81,1.21,.69,2.39,1.44,3.53,2.25,.33,.24,.65,.48,.97,.72,.76,.51,1.5,1.06,2.21,1.65,.73,.6,1.43,1.23,2.08,1.91,.39,.4,.76,.82,1.12,1.25,0,0,0-.02,.01-.02-.19-.31-.38-.61-.57-.91l.03,.06c-.27-.42-.56-.83-.85-1.24-.24-.32-.48-.63-.73-.94-.79-.98-1.62-1.93-2.5-2.84-1.88-1.93-4.04-3.54-6.34-4.9-.54-.31-1.09-.6-1.65-.87-.6-.29-1.19-.57-1.82-.81-1.24-.48-2.5-.88-3.81-1.11-1-.17-2.03-.26-3.05-.26-.29,0-.58,0-.86,.02"/>
      <path class="cls-2" d="M118.42,186.19c-.03,.13,.06,.27,.19,.3,.25,.05,.5,.12,.74,.2,.58,.22,1.12,.53,1.64,.89l-.07-.05c.82,.57,1.53,1.26,2.17,2.02-.03-.03-.05-.06-.07-.09,.67,.82,1.25,1.71,1.7,2.66-.02-.05-.05-.1-.07-.15,.19,.43,.35,.87,.5,1.32,.13,.42,.22,.84,.32,1.27,.03,.13,.1,.25,.2,.35,.51-.33,1.01-.67,1.52-1.01-.15-.4-.34-.78-.54-1.15-.25-.45-.54-.88-.84-1.3-.61-.86-1.28-1.67-2.02-2.43-1.38-1.41-3.09-2.64-5.06-3.03-.02,0-.03,0-.05,0-.12,0-.23,.08-.25,.2"/>
      <path class="cls-2" d="M122.43,180.65c-.04,.19,.08,.33,.25,.39,.12,.04,.24,.08,.36,.12-.01,0-.02,0-.03,0,1.15,.42,2.22,1.02,3.23,1.72,0,0,0,0,.02,.01h0s0,0,.01,0h0s0,.01,0,.01h0s.01,0,.02,0h0c.99,.7,1.91,1.52,2.7,2.44,.01,.02,.02,.03,.04,.05,.02,.03,.05,.06,.07,.09-.02-.02-.05-.05-.07-.08,.57,.71,1.05,1.49,1.43,2.3,.09,.22,.18,.44,.27,.67,.03,.09,.07,.18,.12,.25,.07-.33,.13-.66,.18-1,0-.29,0-.59-.02-.88-.03-.47-.09-.94-.16-1.4-.07-.07-.13-.14-.2-.21-.7-.75-1.49-1.43-2.32-2.03-.84-.6-1.73-1.12-2.66-1.57-.93-.44-1.89-.8-2.87-1.12-.03,0-.05-.01-.07-.01-.14,0-.29,.12-.31,.27"/>
      <polyline class="cls-2" points="126.29 182.9 126.29 182.9 126.29 182.9"/>
      <polyline class="cls-2" points="126.27 182.89 126.27 182.88 126.27 182.89"/>
      <polyline class="cls-2" points="126.29 182.9 126.29 182.9 126.29 182.9"/>
      <path class="cls-2" d="M129.04,185.4s0,0,0,0c-.01-.01-.02-.02-.03-.04,.01,.02,.03,.03,.04,.05"/>
      <path class="cls-7" d="M60.12,136.42s0,0,0,0c0,0,0,0,0,0"/>
      <path class="cls-7" d="M60.28,137.13s.02,.06,.02,.09c.29,.82,.61,1.62,.96,2.42,.46,.98,1,1.93,1.59,2.84,.6,.92,1.26,1.79,1.98,2.62,.73,.84,1.52,1.62,2.35,2.36,1.67,1.5,3.51,2.81,5.41,3.99,1.96,1.21,3.98,2.3,6.05,3.32,1.58,.78,3.18,1.52,4.78,2.25,1.42,.65,2.84,1.3,4.25,1.97-.01,0-.02-.01-.03-.02,1.04,.51,2.07,1.03,3.07,1.63,.97,.57,1.9,1.2,2.76,1.93,.59,.52,1.12,1.09,1.57,1.73,.25,.39,.47,.81,.62,1.24,.11,.35,.18,.71,.22,1.07,.02,.37,0,.74-.07,1.11-.1,.5-.27,.98-.48,1.45-.2,.53-.43,1.06-.68,1.56-.17,.34-.34,.68-.53,1.01,.07,.03,.14,.04,.21,.02,.1-.02,.16-.08,.23-.15,.75-.87,1.41-1.82,1.83-2.89,.17-.42,.27-.85,.34-1.29,.08-.45,.07-.89,.03-1.34-.07-.83-.39-1.64-.81-2.36-.46-.79-1.07-1.47-1.74-2.09-1.5-1.37-3.27-2.4-5.07-3.32-1.87-.95-3.8-1.78-5.72-2.63-1.98-.88-3.96-1.76-5.92-2.7,.05,.02,.09,.04,.14,.06-.92-.44-1.82-.9-2.72-1.37-.89-.47-1.76-.97-2.62-1.49-1.69-1.02-3.31-2.18-4.81-3.46,.03,.02,.06,.04,.08,.07-1.71-1.49-3.25-3.17-4.52-5.05h0c-.3-.46-.59-.94-.85-1.42-.11-.15-.21-.31-.31-.46-.01-.01-.02-.03-.04-.05-.46-.7-.89-1.43-1.25-2.2-.1-.22-.2-.44-.29-.66-.05-.12-.1-.24-.15-.36-.01-.03-.02-.07-.02-.1,0-.02-.01-.04-.02-.06,0,0,0,0,0,0,.05,.24,.1,.48,.16,.72m33.19,25.41s.04,.03,.05,.05c-.02-.01-.04-.03-.05-.05m2.16,2.86s.02,.06,.03,.08c0-.03-.02-.06-.03-.08"/>
      <polyline class="cls-7" points="63.06 141.73 63.06 141.73 63.06 141.73"/>
      <path class="cls-7" d="M87.72,159.03s-.04-.02-.05-.02c.02,0,.04,.02,.05,.02"/>
      <path class="cls-3" d="M150.83,.04c-.12,.01-.23,.02-.35,.04-1.52,.23-3.07,.83-5,1.96-1.5,.88-2.98,1.98-4.53,3.36-.38,.34-.76,.7-1.13,1.06,.25-.79,.41-1.45,.49-2.07,.12-.84,.1-1.55-.06-2.2-.07-.29-.19-.57-.36-.84-.17-.28-.43-.52-.78-.75-.52-.33-1.21-.45-2.07-.36-.04,0-.09,.01-.13,.02-.99,.13-1.82,.48-2.47,1.05-.63,.55-1.15,1.3-1.54,2.23-.47,1.12-.75,2.41-.87,4.06-.04,.64-.06,1.23-.05,1.79-3.91-1.59-8.03-2.5-12.24-2.7-1.89-.09-3.82-.03-5.75,.17-2.46,.26-4.93,.75-7.34,1.48-4.2,1.25-8.21,3.16-11.93,5.68-1.85,1.25-3.62,2.64-5.26,4.13-1.58,1.43-3.12,3.07-4.6,4.87-2.82,3.44-5.09,7.3-6.73,11.47-.85,2.15-1.54,4.47-2.11,7.09-.54,2.47-.87,4.96-.98,7.4-.21,4.62,.4,9.1,1.82,13.33,.68,2.05,1.56,4.06,2.61,5.97,1.01,1.84,2.23,3.68,3.63,5.46,2.6,3.32,5.92,6.46,9.86,9.32,1.84,1.34,3.82,2.61,6.02,3.86,1.95,1.1,4.09,2.17,6.73,3.36l.5,.23c.77,.35,1.57,.71,2.38,1,1.02,.38,2.05,.61,3.06,.7,.04,0,.09,0,.13,0,.09-.01,.19-.04,.27-.09,4.4,0,9.12-.27,14.41-.82,1.1-.12,2.2-.24,3.3-.38,.08-.03,.16-.06,.24-.09,1.17-.42,2.36-.78,3.57-1.07,1.15-.28,2.31-.5,3.47-.67,.06-.01,.12-.03,.18-.04,3.01-.69,6.06-1.18,9.13-1.52,.42-.09,.82-.16,1.19-.23,1.01-.18,2.04-.34,3.06-.5,1.96-.31,4-.63,5.97-1.09,1.64-.38,2.92-.79,4.04-1.29,1.39-.61,2.39-1.28,3.16-2.11,.42-.46,.78-.99,1.02-1.55,.26-.61,.4-1.26,.44-2.02,.03-.65-.07-1.38-.31-2.23-.16-.6-.41-1.23-.75-1.94,1.41,.11,2.86,.08,4.31-.07,.25-.03,.49-.06,.73-.09,1.93-.26,3.79-.73,5.5-1.4,1.78-.7,3.4-1.61,4.82-2.7,.74-.57,1.44-1.2,2.06-1.86,.6-.64,1.18-1.38,1.73-2.21,.98-1.47,1.72-3.2,2.27-5.28,.48-1.86,.76-3.86,.84-6.11,.08-2.06-.05-4.22-.38-6.43-.33-2.2-.85-4.38-1.56-6.47-1.13-3.36-2.69-6.38-4.64-8.98-2.1-2.8-4.56-4.94-7.31-6.37-.14-.07-.29-.1-.43-.08-.07,0-.14,.02-.2,.05-.15-.16-.39-.25-.62-.23-.08,.01-.16,.03-.23,.06-.95,.41-1.93,.78-2.91,1.1l-.15,.06h0c-1.82,.54-3.63,.91-5.36,1.09-.45,.05-.91,.08-1.36,.1-1.43,.05-2.67-.03-3.8-.26-.89-.19-1.76-.5-2.59-.9-.77-.4-1.49-.88-2.12-1.42-.55-.51-1.03-1.06-1.41-1.62-.29-.48-.52-.95-.68-1.43-.12-.42-.2-.84-.22-1.26,0-.41,.02-.82,.1-1.2,.11-.47,.27-.9,.48-1.33,.26-.48,.54-.9,.84-1.26,.49-.52,1.08-.95,1.64-1.37,.6-.44,1.22-.9,1.72-1.46,.12-.14,.24-.27,.35-.42,.12-.16,.21-.34,.29-.52,.17-.34,.17-.72,.15-1.01-.02-.38-.23-.72-.43-1.01-.1-.14-.22-.26-.34-.38-.18-.18-.4-.35-.65-.52-.58-.39-1.27-.6-2.06-.61,.72-.5,1.34-1.01,1.91-1.54,1.39-1.3,2.19-2.61,2.38-3.92,.2-1.47-.51-3.07-1.89-4.18-.59-.48-1.31-.81-2.13-.99-.37-.08-.77-.12-1.21-.12-.25,0-.5,.02-.77,.04"/>
      <path class="cls-2" d="M106.63,8.31c-4.22,1.27-8.23,3.18-11.93,5.68-1.86,1.25-3.63,2.64-5.27,4.13-1.57,1.43-3.12,3.07-4.6,4.87-2.83,3.46-5.09,7.32-6.74,11.48-.86,2.16-1.55,4.48-2.11,7.09-.54,2.46-.87,4.95-.98,7.41-.21,4.62,.41,9.11,1.82,13.34,.69,2.06,1.57,4.07,2.61,5.97,1.02,1.85,2.24,3.69,3.64,5.47,2.6,3.32,5.91,6.45,9.86,9.32,1.85,1.35,3.82,2.61,6.03,3.85,1.97,1.12,4.11,2.19,6.73,3.36l.5,.23c.84,.38,1.6,.72,2.38,1,1.01,.37,2.03,.61,3.06,.71,.05,0,.09,0,.14,0,.09,0,.19-.04,.28-.1h.49c-2.03-1.74-4.02-3.51-5.94-5.35-3.09-2.97-6.01-6.14-8.52-9.62-1.54-2.13-2.93-4.37-4.13-6.71-1.23-2.39-2.27-4.88-3.14-7.42-.85-2.49-1.55-5.03-2.08-7.6-.54-2.64-.92-5.32-1.09-8.02-.17-2.65-.16-5.32,.07-7.97,.24-2.64,.68-5.28,1.4-7.84,.7-2.49,1.62-4.93,2.83-7.23,1.18-2.24,2.59-4.35,4.23-6.27,1.63-1.91,3.47-3.64,5.5-5.13,2.04-1.49,4.24-2.76,6.58-3.74,1.42-.59,2.9-1.03,4.4-1.32,1.5-.29,3.01-.46,4.53-.58,1.51-.12,3.03-.2,4.54-.33,.26-.02,.51-.05,.76-.07-.91-.11-1.83-.19-2.75-.23-1.89-.09-3.83-.03-5.76,.17-2.45,.26-4.92,.76-7.34,1.48"/>
      <path class="cls-2" d="M155.76,2.77c-.09,.32-.2,.63-.35,.93-.14,.29-.31,.57-.48,.84-.43,.64-.93,1.23-1.47,1.78-1.17,1.21-2.48,2.27-3.81,3.3-.63,.49-1.26,.97-1.88,1.46-.41,.32-.82,.64-1.22,.99,.04-.01,.08-.03,.13-.03,.47-.12,.95-.21,1.43-.22,.44,0,.89,.02,1.32,.17,.2,.07,.39,.15,.57,.27,.09,.06,.19,.12,.27,.2,.06,.05,.11,.11,.16,.16,.16,.18,.3,.37,.39,.59,.05,.12,.11,.24,.14,.36,.02,.1,.05,.2,.06,.3,.02,.22,.02,.45-.02,.66-.04,.18-.08,.36-.14,.54-.18,.5-.44,.96-.69,1.42-.23,.42-.45,.84-.6,1.29,0-.02,.01-.04,.02-.06-.1,.34-.19,.69-.26,1.04-.05,.34-.1,.68-.12,1.02,0,0,0,0,0-.01-.01,.31-.01,.63,.02,.94,.03,.32,.07,.62,.14,.93,.06,.25,.13,.5,.22,.74,.09,.25,.2,.5,.32,.74,.14,.26,.29,.52,.46,.76,.16,.23,.34,.44,.52,.65-.01-.01-.03-.03-.04-.05,.23,.25,.46,.48,.72,.7,.25,.21,.52,.4,.79,.59h0s0,0,0,0c0,0,0,0,0,0,.03,.02,.07,.04,.1,.06-.42-.42-.78-.86-1.09-1.31-.29-.48-.51-.94-.67-1.43-.12-.42-.2-.83-.22-1.26,0-.42,.03-.82,.1-1.19,.11-.47,.27-.9,.47-1.33,.27-.49,.55-.91,.84-1.26,.48-.51,1.06-.94,1.61-1.35,.66-.48,1.25-.92,1.75-1.48,.13-.14,.25-.27,.35-.42,.12-.16,.2-.34,.29-.52,.16-.33,.17-.69,.16-1.02-.02-.37-.22-.71-.43-1.02-.09-.12-.2-.25-.35-.38-.18-.18-.4-.35-.65-.53-.58-.39-1.28-.6-2.07-.62,.68-.43,1.3-.93,1.92-1.51,1.39-1.29,2.19-2.61,2.38-3.93,.16-1.09-.2-2.25-.95-3.24-.02,.24-.06,.48-.12,.71"/>
      <path class="cls-6" d="M139.32,15.58c-.6,.09-1.2,.21-1.79,.38-.62,.18-1.22,.42-1.8,.7-.5,.24-.99,.5-1.47,.79-.53,.31-1.02,.68-1.5,1.07-1.86,1.51-3.42,3.36-4.64,5.42-.1,.17-.01,.41,.16,.5,.19,.1,.4,.01,.5-.16,.15-.25,.3-.49,.46-.73,0,0,0,0,0,.01,0,0,0,0,.01-.01l.03-.05s-.01,.02-.02,.03c.7-.99,1.52-1.88,2.45-2.66-.02,.02-.04,.03-.06,.05,.81-.66,1.69-1.22,2.63-1.68h0c.64-.3,1.29-.58,1.97-.79,.6-.19,1.22-.34,1.84-.47,.45-.08,.91-.15,1.37-.19,.29-.03,.55-.14,.75-.36,.2-.22,.31-.51,.29-.81-.02-.28-.14-.56-.36-.75-.19-.18-.5-.32-.77-.29-.01,0-.02,0-.03,0m-.99,2.34c-.07,.01-.14,.03-.22,.04,.07-.01,.15-.03,.22-.04m-3.89,1.23s-.03,.02-.05,.02c.02,0,.03-.02,.05-.02m-5.2,4.39s0,0,0,0c0,0,.01-.01,.01-.02,0,0,0,.01-.01,.02"/>
      <path class="cls-7" d="M143.77,57.52c-.25,.03-.51,.07-.76,.14-.25,.07-.5,.17-.74,.27-.32,.14-.56,.28-.8,.43-.97,.6-1.69,1.32-2.16,2.13-.04,.07-.05,.15-.03,.22,.02,.07,.07,.14,.13,.18,.06,.03,.12,.05,.18,.04,.09,0,.17-.06,.22-.14,.08-.14,.16-.27,.26-.4,.17-.2,.36-.4,.62-.6,.28-.2,.59-.37,.91-.51,.31-.11,.61-.19,.93-.24-.02,.06,0,.15,0,.21,.41,1.28,1.15,2.38,1.93,3.49,.72,1.03,1.43,1.94,2.18,2.78,1.51,1.72,3.3,3.33,5.49,4.92,2.07,1.5,4.21,2.64,6.36,3.39,1.52,.53,3.1,.86,4.69,.96,.85,0,1.68-.02,2.45-.08,0,0,.05-.12,.04-.12-.98,0-2.01-.12-3.06-.33-.94-.19-1.84-.45-2.67-.77-.5-.16-1-.35-1.49-.55-2.08-.91-4.07-2.09-5.89-3.52-2.07-1.65-4.01-3.69-5.77-6.03-.4-.56-.78-1.12-1.16-1.69-.38-.58-.8-1.25-1.13-1.98-.09-.24-.17-.49-.24-.74,.16,.06,.25,.06,.34,.05,.1,0,.18-.04,.28-.09,.18-.1,.32-.27,.37-.47,.05-.2,.03-.41-.07-.59-.13-.24-.38-.39-.68-.41-.25-.01-.5,0-.75,.02"/>
      <path class="cls-6" d="M174.52,22.28h-.02c-1.64,.18-3.28,.85-4.74,1.95-1.36,1.02-2.48,2.4-3.23,3.98-.63,1.33-.92,2.81-.85,4.26,.07,1.49,.64,3.03,1.6,4.34,.47,.63,1.07,1.25,1.8,1.83,.84,.67,1.8,1.18,2.88,1.51,1.27,.39,2.62,.52,3.92,.39,.81-.09,1.6-.27,2.34-.56,.95,1.64,2.41,2.76,4,3.06,.33,.06,.7,.07,1.06,.04,.07,0,.15-.02,.22-.03,.46-.07,.91-.25,1.37-.54,.34-.22,.68-.55,1.01-.99,.33-.44,.6-.99,.8-1.61,.27-.82,.38-1.72,.36-2.84-.02-.93-.16-1.91-.44-3.09-.53-2.18-1.41-4.3-2.62-6.29-.55-.91-1.16-1.72-1.81-2.42-.36-.39-.67-.68-.98-.93-.43-.35-.91-.65-1.32-.89-1.59-.94-3.48-1.34-5.34-1.15"/>
      <path class="cls-5" d="M174.02,24.92h-.03c-.99,.11-2.02,.61-3.07,1.51-.47,.39-.88,.88-1.19,1.4-.06,.11-.12,.22-.18,.34-.1,.15-.2,.32-.28,.5-.2,.41-.27,.81-.22,1.21,.05,.46,.23,.86,.51,1.13,.29,.28,.67,.4,1.11,.35,.32-.03,.67-.15,1.05-.35,.4-.21,.77-.49,1.07-.74,.32-.25,.66-.55,1.03-.91,.68-.67,1.19-1.28,1.55-1.89,.25-.42,.6-1.21,.22-1.86-.35-.58-1.04-.73-1.57-.68"/>
      <path class="cls-1" d="M136.88,25.49c-.75,.08-1.52,.28-2.27,.59-1.71,.69-3.2,2.02-4.31,3.82-1.55,2.51-2.19,5.74-1.76,8.89,.23,1.67,.84,3.43,1.81,5.22,.83,1.68,1.88,3.14,3.11,4.34l.1,.1c.37,.33,.74,.64,1.12,.95,.65,.48,1.35,.91,2.09,1.25,1.62,.77,3.44,1.07,5.25,.88,1.45-.15,2.85-.62,4.04-1.36,1.24-.75,2.28-1.93,3.01-3.39,.63-1.26,1.01-2.79,1.11-4.53,.08-1.64-.08-3.33-.48-5.03-.41-1.73-1.02-3.36-1.81-4.84-.81-1.53-1.79-2.88-2.91-3.99-.54-.53-1.11-.99-1.69-1.36-.31-.2-.63-.38-.97-.55-.39-.19-.85-.37-1.37-.52-.56-.18-1.12-.31-1.68-.4-.51-.08-1.08-.12-1.74-.11-.22,0-.44,.02-.66,.04"/>
      <path class="cls-6" d="M140.15,25.72h0c-.23,.15-.44,.33-.65,.53-.27,.29-.52,.63-.75,1.03-.32,.58-.58,1.24-.78,2.02-.32,1.25-.47,2.6-.46,4.14,.02,1.87,.3,3.75,.81,5.59,.47,1.62,1.09,3.07,1.85,4.32,.54,.9,1.22,1.76,1.95,2.48,.62,.58,1.26,1.07,1.92,1.45,.69,.38,1.4,.66,2.1,.85,.6,.15,1.25,.24,1.92,.28,.41-.51,.75-1.06,1.03-1.62,.63-1.26,1.01-2.78,1.11-4.54,.08-1.64-.08-3.33-.48-5.03-.42-1.74-1.03-3.37-1.81-4.84-.81-1.53-1.79-2.88-2.92-4-.53-.52-1.1-.98-1.7-1.36-.31-.2-.64-.38-.97-.55-.41-.2-.87-.38-1.38-.52-.26-.09-.52-.16-.79-.22,0,0,0,0-.01,0"/>
      <path class="cls-1" d="M139.48,36.87c-.21,.02-.43,.06-.63,.11-.35,.07-.67,.16-.97,.28-.39,.15-.77,.37-1.11,.57-.3,.18-.57,.39-.84,.6-.19,.14-.3,.36-.31,.6-.19,.23-.77,1.06-.26,1.8,.46,.68,1.42,.67,2.09,.6l.23-.03c.94-.12,1.84-.5,2.59-1.1,.51-.4,1.13-1.04,1.26-1.84,.05-.35-.03-.72-.24-1-.07-.09-.15-.17-.26-.25-.11-.11-.25-.18-.4-.21-.12-.05-.25-.08-.38-.1-.23-.04-.48-.04-.77-.01"/>
      <path class="cls-6" d="M107.42,26.16c-.29-.33-.63-.65-1.03-.95-.57-.44-1.27-.81-2.2-1.15-.72-.26-1.51-.46-2.4-.6-1.12-.28-2.35-.48-3.88-.62-2.18-.19-4.36-.15-6.47-.1-2.86,.05-5.8-.02-8.73-.22-4.5-.3-8.87-.9-12.18-1.39l.09,.03c-.7-.12-1.39-.23-2.09-.33-2.01-.31-4.08-.63-6.14-.84-2.76-.29-5.28-.39-7.69-.29-2.65,.11-5.19,.49-7.55,1.12-2.54,.68-4.98,1.7-7.27,3.05-2.21,1.3-4.2,2.92-5.91,4.81-1.65,1.83-3,3.91-4.02,6.18-2.07,4.61-2.7,10-1.78,15.16,.44,2.42,1.28,4.75,2.52,6.92,.69,1.23,1.54,2.41,2.52,3.53,.58,.67,1.22,1.31,1.89,1.92,3.32,3,7.7,5.24,12.68,6.47,2.32,.57,4.79,.91,7.34,1.01,2.43,.1,4.97-.07,7.77-.49,5.18-.79,10.51-2.53,15.85-5.18,2.43-1.21,4.84-2.63,7.16-4.2,2.06-1.4,4.03-2.99,5.88-4.49,3.13-2.55,7.16-6,10.58-10.12,3.62-4.35,5.71-8.44,6.4-12.49,.4-2.38,.18-4.29-.7-5.83-.17-.31-.38-.59-.63-.88"/>
      <path class="cls-6" d="M106.59,25.36c-.47-.48-1.03-.88-1.62-1.21-1.23-.7-2.62-1.07-4.01-1.28-2.76-.42-5.57-.22-8.34,.08-.18,.02-.37,.19-.46,.34-.11,.17-.14,.37-.1,.57,.05,.19,.17,.36,.34,.46,.19,.12,.36,.12,.57,.1,.12-.01,.25-.03,.37-.04,0,0-.01,0-.02,0,2.51-.26,5.07-.39,7.57,0,.96,.17,1.91,.42,2.81,.81,.53,.25,1.02,.55,1.48,.92,.36,.31,.68,.66,.96,1.05,.1,.15,.19,.3,.27,.45,.2,.36,.65,.51,1.01,.31,.35-.19,.52-.66,.31-1.01-.25-.44-.53-.85-.87-1.23-.09-.1-.18-.2-.28-.3m-5.71-1s-.1-.01-.14-.02c.05,0,.1,.02,.14,.02"/>
      <path class="cls-6" d="M106.86,25.89c-.31-.32-.67-.57-1.04-.8-.35-.21-.81-.14-1.04,.21-.22,.34-.14,.83,.21,1.04,.23,.14,.45,.29,.66,.46,.18,.18,.35,.36,.5,.57,.02,.02,.03,.05,.05,.07,.11,.18,.23,.32,.44,.39,.18,.06,.39,.05,.56-.04,.18-.09,.32-.25,.39-.44,.06-.17,.06-.41-.04-.57-.16-.26-.34-.51-.54-.74-.05-.05-.09-.11-.14-.16"/>
      <path class="cls-6" d="M105.67,24.8c-.34-.22-.81-.13-1.04,.21-.22,.34-.13,.82,.21,1.04,.26,.17,.51,.35,.75,.55,.25,.23,.48,.48,.69,.74,.26,.32,.76,.33,1.06,.07,.32-.28,.33-.74,.07-1.06-.06-.07-.11-.13-.17-.2-.46-.52-.99-.98-1.58-1.36"/>
      <path class="cls-6" d="M105.77,24.78c-.35-.21-.81-.14-1.04,.21-.22,.33-.14,.83,.21,1.04,.18,.11,.35,.22,.52,.36,.21,.2,.4,.42,.57,.67,.11,.16,.34,.24,.51,.26,.2,.01,.39-.06,.54-.19s.24-.32,.26-.52c.01-.22-.07-.37-.19-.54-.1-.14-.2-.27-.31-.4-.31-.35-.67-.65-1.08-.89"/>
      <path class="cls-6" d="M105.87,24.75c-.34-.22-.81-.13-1.04,.22-.22,.34-.13,.82,.21,1.04,.17,.11,.33,.22,.49,.35,.27,.25,.51,.53,.74,.83,.24,.33,.77,.32,1.06,.07,.15-.13,.24-.32,.25-.51,.01-.21-.06-.38-.19-.54-.1-.14-.21-.28-.33-.41-.35-.4-.75-.74-1.2-1.03"/>
      <path class="cls-6" d="M105.9,24.79c-.35-.21-.81-.14-1.04,.21-.22,.33-.13,.82,.21,1.04,.18,.12,.35,.24,.52,.37,.2,.19,.38,.4,.55,.62,.24,.33,.77,.32,1.06,.07,.15-.13,.24-.32,.25-.52,.02-.21-.06-.38-.18-.54-.08-.1-.16-.2-.24-.29-.33-.38-.71-.69-1.14-.96"/>
      <path class="cls-6" d="M106.25,25.01c-.34-.23-.82-.12-1.04,.22-.23,.35-.12,.81,.21,1.04,.1,.07,.2,.14,.29,.21,.19,.18,.36,.38,.51,.6,.11,.15,.33,.24,.51,.26,.2,.01,.39-.05,.54-.19,.15-.13,.24-.32,.25-.51,.01-.22-.06-.38-.18-.55-.08-.12-.17-.23-.27-.34-.25-.28-.52-.52-.83-.74"/>
      <path class="cls-4" d="M106.26,24.99s-.06-.04-.09-.05l-.13-.09c-.32-.25-.67-.49-1.06-.71-1.1-.62-2.4-1.04-4.01-1.29-1.65-.25-3.41-.3-5.54-.17-1.36-.03-2.74,0-3.95,.02-2.89,.06-5.85-.02-8.78-.22-4.56-.31-8.91-.9-12.18-1.39l.06,.05c-.69-.14-1.37-.24-2.06-.35l-.27-.04c-1.91-.29-3.89-.6-5.86-.8-2.74-.29-5.26-.39-7.69-.29-2.64,.11-5.19,.49-7.56,1.12-2.54,.68-4.99,1.7-7.28,3.04-2.21,1.31-4.2,2.93-5.91,4.81-1.66,1.85-3.01,3.93-4.02,6.19-2.08,4.62-2.71,10-1.78,15.18,.42,2.37,1.25,4.66,2.45,6.82-.44-1.32-.81-2.66-1.09-4.02-.2-1.02-.37-2.05-.45-3.08-.09-1.12-.1-2.25-.04-3.37,.05-1.25,.18-2.49,.43-3.72,.24-1.16,.55-2.31,1-3.41,.45-1.09,.99-2.14,1.66-3.1,.69-1,1.5-1.91,2.41-2.72,.99-.88,2.09-1.64,3.24-2.3,1.12-.65,2.3-1.22,3.51-1.7,4.98-1.95,10.41-2.47,15.73-2.31,1.34,.04,2.68,.12,4.02,.24,.68,.06,1.36,.13,2.04,.21,.65,.08,1.3,.16,1.95,.24,2.86,.35,5.74,.61,8.64,.69h0s0,0,0,0c0,0,0,0,0,0,0,0,0,0,0,0,0,0,0,0,.02,0,0,0-.01,0-.01,0,2.7,.06,5.41-.03,8.1-.35,.77-.09,1.54-.2,2.3-.33,.72-.12,1.43-.27,2.14-.42,1.48-.32,2.95-.68,4.42-1.02,1.47-.34,2.95-.67,4.44-.9,1.27-.19,2.56-.33,3.84-.39,1.19-.05,2.4-.05,3.58,.1,.61,.07,1.22,.17,1.82,.32,.51,.13,1.02,.28,1.51,.49,.92,.38,1.79,.89,2.52,1.56-.08-.17-.16-.34-.25-.5-.18-.31-.39-.6-.64-.89l-.09-.09c-.08-.11-.16-.22-.25-.32-.24-.27-.51-.51-.84-.74"/>
      <path class="cls-3" d="M92.01,85.22c-2.4,0-4.88,.2-7.36,.6-3.54,.57-7.03,1.55-10.37,2.9-3.35,1.34-6.46,3.06-9.26,5.09-2.85,2.07-5.29,4.46-7.25,7.08-.98,1.31-1.85,2.74-2.61,4.26-.71,1.42-1.3,3-1.75,4.68-.43,1.58-.69,3.25-.78,4.97-.11,2.03,0,3.95,.35,5.72,.2,1.03,.48,2.01,.82,2.91,.31,.84,.73,1.68,1.24,2.52,.87,1.43,2.04,2.73,3.4,3.74,.63,.47,1.34,.9,2.11,1.27,.66,.32,1.41,.59,2.28,.82,1.03,.28,2.12,.42,3.25,.42,.49,0,.98-.03,1.47-.08,1.53-.17,3.09-.63,4.52-1.33,1.52-.75,2.94-1.8,4.23-3.12,.6-.61,1.17-1.32,1.7-2.1,.65-.94,1.16-1.92,1.58-2.76l.64-1.3c.74-1.52,1.51-3.09,2.37-4.58,1.02-1.72,2.07-3.11,3.21-4.25,.88-.84,1.87-1.58,2.93-2.19,1.26-.68,2.56-1.18,3.93-1.53,1.85-.43,3.72-.64,5.54-.84,2.65-.29,5.38-.6,7.93-1.57,2.26-.87,4.2-2.34,5.46-4.13,.65-.92,1.18-2.02,1.57-3.27,.39-1.23,.61-2.47,.64-3.7,.02-.74-.03-1.45-.15-2.12,.1-.26,.03-.56-.18-.79-.04-.16-.09-.32-.14-.48-.1-.28-.39-.48-.72-.48-.08,0-.16,.01-.23,.04-5.62-4.51-12.43-5.89-17.16-6.25-1.1-.08-2.18-.12-3.22-.12"/>
      <path class="cls-2" d="M95.16,107.29c-.66,.06-1.33,.15-1.99,.25,.02,0,.04,0,.06-.01-1.14,.19-2.27,.43-3.38,.76-1.08,.32-2.13,.71-3.16,1.17h0c-.79,.37-1.57,.78-2.31,1.24-.74,.46-1.44,.97-2.11,1.52,0,0,0,0,0,0h0s-.02,.01-.03,.02c0,0,0,0,0,0h0c-.86,.73-1.66,1.53-2.38,2.4-.55,.66-1.07,1.36-1.56,2.06,.01-.02,.02-.03,.03-.06-1.08,1.55-2.07,3.17-3.1,4.75-1.01,1.56-2.07,3.11-3.28,4.52-.59,.68-1.21,1.33-1.89,1.91-.65,.56-1.34,1.07-2.1,1.49-.75,.42-1.55,.77-2.39,.99-.89,.24-1.81,.37-2.73,.38-.52,0-1.03-.02-1.54-.08-.54-.06-1.07-.14-1.6-.27-.15-.04-.3-.08-.45-.12,.23,.15,.45,.29,.69,.42,0,0,0,0,0,0,.2,.11,.4,.21,.6,.31,.66,.32,1.4,.59,2.28,.83,1.03,.28,2.12,.42,3.25,.42,.47,0,.97-.03,1.48-.08,1.53-.17,3.09-.63,4.52-1.34,1.52-.75,2.95-1.8,4.23-3.12,.61-.63,1.18-1.34,1.71-2.1,.66-.95,1.16-1.93,1.58-2.76l.64-1.31,.06-.11c.72-1.48,1.47-3.01,2.32-4.46,1.02-1.73,2.07-3.11,3.21-4.25,.89-.85,1.87-1.58,2.93-2.19,1.25-.67,2.53-1.17,3.93-1.53,1.83-.43,3.67-.63,5.46-.83,1.77-.2,3.56-.4,5.29-.78-.65,.02-1.31,.01-1.96,0-1.41-.04-2.82-.12-4.24-.13-.68,0-1.37,0-2.05,.07"/>
      <polygon class="cls-2" points="82.27 112.22 82.28 112.21 82.28 112.21 82.27 112.22"/>
      <path class="cls-2" d="M82.23,112.25s0,0,0,0c0,0,.01-.01,.02-.02,0,0-.02,.02-.03,.02"/>
      <path class="cls-2" d="M76.52,125.33c-.36,.11-.66,.55-.5,.93,.11,.27,.2,.54,.26,.83,.03,.25,.04,.49,.02,.73-.03,.24-.09,.48-.17,.72-.12,.3-.27,.57-.45,.84-.25,.33-.53,.63-.83,.9-.47,.38-.97,.69-1.52,.95-.55,.24-1.11,.41-1.7,.52-.47,.07-.95,.09-1.43,.06-.37-.04-.73-.12-1.08-.23-.27-.11-.53-.24-.78-.4-.05-.03-.09-.07-.14-.11-.32-.25-.77-.27-1.06,.05-.26,.28-.27,.8,.05,1.06,.23,.18,.48,.35,.73,.5,.28,.16,.59,.27,.9,.38,.6,.21,1.26,.27,1.9,.27,.66,0,1.34-.11,1.98-.28,.66-.17,1.29-.45,1.88-.77,1.13-.61,2.13-1.54,2.72-2.69,.61-1.16,.64-2.54,.15-3.75-.08-.19-.18-.35-.37-.45-.11-.05-.23-.08-.34-.08-.07,0-.15,.01-.22,.03m-.35,3.11l-.02,.05,.02-.05Z"/>
      <path class="cls-2" d="M75.66,127.25c-.15,.28-.31,.55-.49,.82-.29,.39-.62,.75-.99,1.08-.49,.4-1.02,.72-1.59,1-.97,.43-1.98,.72-3.01,.97-.4,.1-.61,.56-.5,.94,.12,.41,.53,.6,.93,.5,1.38-.33,2.73-.75,3.97-1.45,1.3-.73,2.32-1.84,3.01-3.16,.19-.36,.04-.82-.32-1.01-.11-.06-.22-.08-.34-.08-.27,0-.54,.15-.67,.4m-.43,.73s-.02,.03-.03,.05c.01-.02,.02-.03,.03-.05"/>
      <path class="cls-2" d="M56.02,118.84c-.52,.53-.96,1.1-1.35,1.73-.39,.62-.67,1.32-.9,2.02-.05,.14-.09,.28-.13,.42,.23,.49,.44,.99,.66,1.48,0-.09,.01-.18,.02-.27,.04-.39,.1-.77,.17-1.16,.08-.43,.21-.85,.35-1.26,0,.01-.01,.02-.02,.04,0-.02,.02-.04,.02-.06,0,0,0,.01,0,.02v-.03s0,.01,0,.02c0-.01,0-.02,.01-.03,0,0,0,.01,0,.01,.24-.64,.54-1.24,.93-1.8h0c.2-.26,.41-.52,.64-.76,.1-.11,.09-.28-.02-.38-.05-.05-.11-.07-.18-.07-.07,0-.15,.03-.2,.08m-.25,1.14s-.02,.02-.03,.03c0-.01,.02-.02,.03-.03"/>
      <path class="cls-2" d="M62.07,123.23c-.5,.57-.94,1.17-1.35,1.81-.46,.74-.84,1.53-1.16,2.34-.31,.76-.54,1.54-.71,2.35-.02,.07-.03,.15-.05,.23,.37,.25,.75,.49,1.13,.72-.01,0-.02,0-.03-.01,.06,.04,.13,.07,.19,.11,0-.28,0-.57,.03-.85,.11-1.06,.34-2.1,.7-3.11,0-.02,.02-.04,.02-.07,0-.01,0-.02,.01-.03,0,0,0,.02-.01,.03,.34-.89,.77-1.73,1.31-2.52,0,.01-.02,.02-.02,.03,.01-.02,.02-.03,.03-.03l.02-.04c.12-.16,.25-.32,.38-.48,.12-.14,.12-.36-.02-.48-.06-.06-.15-.09-.23-.09-.09,0-.18,.03-.25,.11"/>
      <path class="cls-2" d="M60.86,126.73s0,.01,0,.02c0,0,0-.01,0-.02"/>
      <polyline class="cls-2" points="62.19 124.17 62.2 124.16 62.19 124.17"/>
      <path class="cls-2" d="M62.17,124.2h0s0,0,0,0c0,0,0,0,0,0"/>
    </g>
  </g>
</svg>