<?xml version="1.0" encoding="UTF-8"?>
<svg id="Layer_2" data-name="Layer 2" xmlns="http://www.w3.org/2000/svg" viewBox="0 0 166.32 247.45">
  <defs>
    <style>
      .cls-1 {
        fill: #fe5e78;
      }

      .cls-2 {
        fill: #8e3f59;
      }

      .cls-3 {
        fill: #ad4d6c;
      }

      .cls-4 {
        fill: #3e164a;
      }

      .cls-5 {
        fill: #64446c;
      }

      .cls-6 {
        fill: #350b40;
      }

      .cls-7 {
        fill: #7a364d;
      }
    </style>
  </defs>
  <g id="OBJECTS">
    <g>
      <path class="cls-6" d="M24.09,127.54c-.19-.1-.39-.2-.59-.28-.32-.14-.66-.24-.98-.3-.37-.07-.74-.07-1.13,0-.58,.1-1.12,.44-1.52,.96-.32,.43-.52,.98-.57,1.6-.05,.54,.03,1.16,.23,1.88,.18,.65,.46,1.35,.86,2.15,.55,1.13,1.27,2.3,2.33,3.79,.87,1.23,1.84,2.48,2.97,3.82,.44,.52,.9,1.04,1.35,1.56-.01,0-.02-.01-.03-.02-.16-.09-.33-.15-.5-.22-.54-.2-.97-.31-1.38-.36-.24-.03-.48-.05-.72-.05-.18,0-.36,.04-.53,.07l-.14,.02c-.41,.07-.76,.27-.97,.42-.28,.2-.5,.43-.65,.68-.11,.17-.21,.34-.28,.53-.08,.2-.13,.42-.17,.64-.06,.3-.08,.6-.06,1,.02,.5,.09,.97,.19,1.44,.22,.95,.6,1.98,1.17,3.15,.94,1.93,2.35,3.91,4.17,5.9,1.98,2.16,4.41,4.28,7.43,6.5,1.26,.92,2.56,1.81,3.88,2.65-.53-.06-1.01-.03-1.41,.09-.6,.18-1.06,.62-1.24,1.16-.16,.51-.14,1.1,.04,1.77,.17,.62,.45,1.28,.86,2,.39,.68,.87,1.4,1.44,2.12,.49,.64,1.07,1.28,1.72,1.91,.31,.3,.63,.59,.96,.87,.41,.34,.84,.66,1.29,.97,1.3,.93,2.69,1.8,4.15,2.59,1.52,.83,3.13,1.57,4.78,2.22,3.19,1.25,6.44,2.04,9.64,2.33,.2,.02,.36-.04,.44-.17,.03,.02,.06,.04,.08,.05,.07,.04,.12,.06,.18,.08,.24,.07,.59,.09,.8-.03,.63-.39,1.15-.78,1.59-1.19,.55-.5,1.01-1.07,1.35-1.5,.75-.98,1.36-2.15,1.86-3.58,.43-1.22,.66-2.57,.7-4.02,.04-1.32-.16-2.64-.57-3.92,0-.09,0-.18-.02-.26-.06-.29-.22-.55-.52-.79-.27-.23-.57-.43-.86-.63l-.2-.14-.54-.38-.54-.38c-.72-.51-1.43-1.02-2.14-1.54-1.42-1.03-2.85-2.12-4.27-3.26-2.51-2-5.07-4.2-7.6-6.56-4.73-4.42-9.01-8.98-12.56-12.85-1.04-1.13-2.06-2.27-3.08-3.41l-.67-.74c-.59-.65-1.18-1.29-1.74-1.96-.45-.53-.89-1.07-1.32-1.61-.52-.65-1.05-1.29-1.59-1.93-1.15-1.34-2.43-2.75-3.94-3.93-.48-.38-.96-.7-1.42-.95"/>
      <path class="cls-2" d="M89.74,180.43c-.96,0-1.95,.06-2.93,.17-1.53,.17-2.87,.43-4.11,.79-1.39,.41-2.86,1.02-4.37,1.82-1.59,.84-3.16,1.89-4.67,3.11-.04-.16-.15-.29-.31-.38-.11-.06-.25-.1-.38-.1-.29,0-.54,.14-.66,.37-.42,.86-.88,1.71-1.42,2.62-.05,.06-.09,.13-.12,.2-.91,1.52-1.95,3.04-3.18,4.63-2.09,2.7-4.42,5.26-6.67,7.74-1.42,1.56-2.89,3.18-4.28,4.81l-.13,.15c-.68,.8-1.38,1.63-2,2.49-.41,.57-.79,1.18-1.16,1.88-.7,1.32-1.29,2.8-1.75,4.4-.42,1.48-.72,3.09-.9,4.92-.16,1.61-.19,3.32-.09,5.08,.21,3.55,.95,6.91,2.19,10.01,1.32,3.3,3.11,6.02,5.31,8.09,2.37,2.23,5.24,3.63,8.31,4.05,.74,.1,1.48,.15,2.21,.15h.36c.85-.02,1.75-.11,2.74-.29,.91-.16,1.85-.43,2.89-.83,1.05-.41,2.06-.9,2.99-1.47,2.05-1.24,3.66-2.81,4.67-4.53,.54-.92,.89-1.93,1.02-2.92,.14-1.06,.06-2.14-.24-3.19-.6-2.06-2-3.76-3.43-5.29-.52-.55-1.05-1.09-1.59-1.63-1-1.01-2.04-2.05-2.93-3.19-.49-.65-.88-1.28-1.2-1.91,5.51-1.45,10.18-3.19,14.25-5.32,2.45-1.28,4.75-2.77,6.83-4.44,1.79-1.44,3.35-3.01,4.63-4.66,2.26-2.91,3.82-6.21,4.52-9.55,.69-3.31,.52-6.51-.5-9.26-.53-1.42-1.29-2.72-2.26-3.87-.93-1.11-2.15-2.08-3.53-2.83-2.26-1.23-4.99-1.85-8.12-1.85"/>
      <path class="cls-2" d="M152.26,104.38c-1.08,0-2.13,.19-3.12,.56-1.08,.41-1.99,1.07-2.64,1.9-.32,.41-.57,.87-.75,1.39-.13,.38-.21,.8-.24,1.26l-.71,.47c-1.14,.78-2.44,1.66-3.76,2.39-.96,.51-2.04,.98-3.4,1.48-1.22,.45-2.52,.83-3.96,1.17-3.21,.72-6.64,1.09-10.17,1.09-.64,0-1.28-.01-1.91-.03l-.1,.02c-3.13-.15-6.2-.56-9.14-1.19,0-.2-.13-.4-.32-.49-.08-.04-.16-.06-.24-.06-.21,0-.41,.13-.52,.33-.58,1.11-1.02,2.37-1.26,3.64-.22,1.14-.22,2.36-.01,3.64,.38,2.3,1.47,4.61,3.15,6.7,.76,.94,1.68,1.85,2.74,2.69,.74,.6,1.61,1.18,2.75,1.84,1.53,.89,3.17,1.66,5.03,2.34,3.69,1.36,7.64,2.2,11.74,2.47,.96,.06,1.94,.09,2.91,.09,1.1,0,2.21-.04,3.32-.12,1.98-.16,3.98-.49,6.1-1,4.09-1,7.67-2.68,10.65-4.97,1.58-1.22,2.99-2.63,4.19-4.18,.6-.79,1.18-1.66,1.73-2.61,.51-.88,.89-1.73,1.18-2.6,.35-1.06,.58-2.05,.7-3.03,.13-1.02,.16-2.1,.09-3.19-.07-1.01-.25-2.04-.56-3.14-.26-.93-.66-1.88-1.22-2.88-1.01-1.81-2.61-3.29-4.5-4.17-.46-.22-.98-.4-1.63-.57-.55-.16-1.15-.26-1.82-.3-.21-.02-.42-.02-.63-.03-.91-.52-1.98-.82-3.18-.88-.16,0-.31-.01-.47-.01"/>
      <path class="cls-3" d="M103.55,105.37c-.45,0-.91,.02-1.41,.07-1.32,.13-2.7,.47-4.35,1.06-2.76,.99-5.53,2.52-8.96,4.96-2.72,1.94-5.51,4.26-8.53,7.1-2.37,2.23-4.76,4.68-7.09,7.29-1.99,2.22-3.54,4.08-4.88,5.86-2.98,3.96-5.59,8.29-7.73,12.86-2.32,4.96-3.88,9.91-4.63,14.74-.82,5.31-.54,10.29,.84,14.8,.74,2.44,1.82,4.76,3.2,6.88,.71,1.08,1.42,2.03,2.18,2.9,.7,.8,1.5,1.59,2.45,2.42,1.61,1.42,3.53,2.73,5.69,3.89,2.03,1.09,4.25,2.02,6.6,2.77,2.18,.7,4.55,1.26,7.06,1.66,2.28,.37,4.65,.58,7.05,.61,.25,0,.5,0,.75,0,1.71,0,3.41-.1,5.08-.28-.59,1.65-.88,3.15-.91,4.58-.02,1.44,.26,2.79,.82,4,.98,2.1,2.99,3.83,5.81,5.02,1.21,.51,2.55,.9,4.24,1.24,1.43,.29,2.93,.47,4.6,.57,.85,.05,1.73,.08,2.61,.08,2.19,0,4.46-.16,6.75-.48,1.38-.19,2.71-.44,3.97-.75,1.12-.27,2.31-.66,3.74-1.22,2.42-.94,4.31-1.85,5.96-2.87,2.2-1.36,3.81-2.82,4.92-4.48,1.03-1.55,1.58-3.41,1.6-5.39,.02-1.93-.52-3.81-1.56-5.42-.98-1.54-2.38-2.79-4.04-3.63-.81-.41-1.69-.72-2.62-.91-.5-.1-.99-.16-1.51-.19,.94-1.31,1.79-2.82,2.53-4.49,.8-1.8,1.36-3.68,1.66-5.56,.32-1.92,.28-3.73-.09-5.39-.29-1.27-.83-2.46-1.61-3.51-.63-.85-1.45-1.59-2.45-2.2,.01-.03,.03-.07,.03-.11,.46-3.29,.67-6.52,.62-9.61-.05-3.09-.42-6.26-1.1-9.43-1.1-5.16-3.01-10.35-5.69-15.43-3.37-6.38-7.64-12.19-12.09-18.06-.01-.06-.03-.13-.07-.19-.47-.78-.94-1.45-1.45-2.05-.46-.55-1.01-1.08-1.63-1.58-1.04-.84-2.29-1.46-3.61-1.8-.87-.22-1.8-.34-2.77-.34"/>
      <path class="cls-7" d="M55.56,166.94h0s-.02,.02-.02,.02c.14,2.48,.56,4.89,1.25,7.17,.74,2.43,1.82,4.75,3.21,6.88,.7,1.08,1.42,2.04,2.18,2.92,.69,.78,1.49,1.57,2.45,2.42,1.61,1.42,3.53,2.73,5.7,3.89,2.04,1.1,4.27,2.03,6.6,2.78,2.17,.7,4.54,1.26,7.07,1.68,2.19,.35,4.57,.56,7.06,.61,.25,0,.5,0,.75,0,1.55,0,3.16-.08,4.79-.25l.14-.04,.14-.04c.67-.17,1.31-.36,1.96-.58,1.49-.51,3.01-1.16,4.51-1.94,1.36-.71,2.7-1.51,4.11-2.45,1.53-1.04,3.05-2.19,4.55-3.46-1.74,.74-3.57,1.43-5.61,2.08-1.39,.44-2.63,.79-3.8,1.06-1.33,.31-2.54,.53-3.68,.7-2.12,.31-4.21,.47-6.23,.47-.43,0-.85,0-1.28-.02-2.55-.08-5.07-.39-7.49-.91-1.41-.31-2.71-.66-3.96-1.07-1.06-.35-2.05-.73-3.05-1.15-2.07-.87-4.09-1.91-6-3.09-2.02-1.24-3.9-2.61-5.59-4.07-1.86-1.59-3.5-3.26-4.86-4.96-1.5-1.86-2.72-3.75-3.62-5.6-.5-1.03-.92-2.05-1.25-3.05,0,0-.02-.01-.02-.01"/>
      <path class="cls-2" d="M115.82,160.69c-1.76,.31-3.52,.75-5.23,1.3-.73,.23-1.46,.51-2.18,.8-1.12,.47-2.19,1.04-3.24,1.65-1.19,.7-2.34,1.46-3.44,2.31-1.1,.85-2.15,1.77-3.16,2.73-.6,.57-1.19,1.15-1.77,1.75-.57,.6-1.12,1.22-1.65,1.86-.19,.23-.14,.59,.09,.77,.24,.19,.57,.13,.77-.09,.53-.6,1.09-1.18,1.66-1.75-.02,.02-.03,.03-.05,.05,.03-.03,.06-.06,.09-.08l.02-.02s0,.01-.01,.02c1.85-1.78,3.92-3.32,6.17-4.57-.07,.04-.14,.08-.21,.11,.92-.5,1.84-1,2.8-1.43,.86-.39,1.74-.75,2.63-1.07,1.14-.4,2.29-.75,3.46-1.04,1.48-.35,2.98-.6,4.49-.78,1.68-.2,3.38-.29,5.07-.25-.11,0-.23,0-.34-.01,1.82,.05,3.64,.27,5.4,.77,.95,.3,1.87,.69,2.73,1.19,.68,.43,1.33,.91,1.9,1.47,.49,.52,.92,1.08,1.28,1.7,.37,.7,.65,1.43,.85,2.19,.28,1.19,.37,2.41,.35,3.63-.06,1.53-.34,3.05-.76,4.52-.56,1.88-1.42,3.66-2.42,5.34-.77,1.27-1.59,2.49-2.51,3.65-.92,1.18-1.93,2.28-3,3.34l.07-.07c-1.78,1.72-3.75,3.23-5.9,4.44,0,0,.01,0,.02,0-.02,0-.03,.02-.05,.03,0,0,0,0-.01,0h0c-.1,.05-.2,.11-.31,.16-.12,.07-.19,.19-.14,.32,.05,.12,.2,.21,.32,.14,2.1-1.12,4.08-2.47,5.93-3.98,.98-.81,1.92-1.67,2.83-2.56,.93-.91,1.81-1.88,2.62-2.9,1.59-2,2.92-4.22,3.88-6.59,.47-1.16,.84-2.35,1.09-3.58,.24-1.2,.32-2.44,.28-3.66-.04-1.08-.23-2.14-.5-3.18-.22-.83-.54-1.64-.95-2.39-.41-.77-.87-1.48-1.45-2.13-.56-.63-1.19-1.22-1.89-1.71-1.46-1.03-3.13-1.68-4.84-2.13-1.77-.47-3.61-.62-5.43-.66-.18,0-.35,0-.53,0-1.62,0-3.25,.16-4.86,.43m11.08,2.93c.08,.02,.15,.04,.23,.07-.07-.02-.15-.05-.23-.07m2.85,1.17s.07,.04,.1,.06c-.03-.02-.07-.04-.1-.06m3.39,3.35s.04,.07,.06,.11c-.02-.04-.04-.07-.06-.11m.84,2.24s.01,.05,.02,.07c0-.02-.01-.05-.02-.07m.33,3.33s0,.06,0,.08c0-.03,0-.06,0-.08m-14.55,21.43s0,0,0,0c.01,0,.02-.01,.03-.02-.01,0-.02,.01-.04,.02m-22.05-23.15l-.04,.04s.03-.03,.04-.04c0,0,0,0,0,0"/>
      <path class="cls-2" d="M131.46,197.78c-.13,.04-.18,.22-.13,.33,.06,.14,.2,.17,.33,.13,.03,0,.06-.02,.1-.03,.57-.16,1.16-.24,1.76-.26h-.07c.76-.02,1.51,.09,2.25,.26,1.03,.27,2.03,.66,2.98,1.16,.39,.22,.77,.45,1.13,.71,.03-.06,.05-.12,.08-.18,.18-.43,.36-.86,.55-1.28-1.35-.59-2.79-.98-4.26-1.15-.56-.06-1.13-.1-1.7-.1-1.02,0-2.04,.12-3.02,.42m.34,.41s-.01,0-.02,0c0,0,.01,0,.02,0"/>
      <path class="cls-2" d="M134.81,189.66c-.8,.06-1.58,.23-2.34,.47-.14,.04-.19,.22-.14,.34,.06,.14,.21,.18,.34,.14,.04-.01,.08-.02,.12-.03,.67-.19,1.35-.3,2.05-.32h-.01c.69,0,1.37,.08,2.05,.24,0,0,.02,0,.03,0,1.19,.31,2.32,.81,3.4,1.38,.05,.03,.09,.05,.14,.08-.22-.64-.48-1.27-.79-1.87-.81-.2-1.64-.35-2.47-.42-.39-.03-.79-.05-1.18-.05s-.79,.01-1.19,.04m-1.96,.9s-.02,0-.02,0c0,0,.01,0,.02,0"/>
      <path class="cls-2" d="M141.78,190.83s0,.01,0,.02c0-.01,0-.02,0-.03h0Z"/>
      <path class="cls-3" d="M35.81,97.02c-.52,0-1.06,.09-1.55,.26-.57,.2-1.07,.54-1.5,1-.39,.41-.68,1-.83,1.67-.23,.05-.46,.06-.68,.06-.12,0-.25,0-.37,0-.1,0-.2,0-.31,0-.61,0-1.21,.04-1.79,.12-.61,.08-1.24,.24-1.92,.47-1.19,.41-2.25,1.13-3.07,2.07-.92,1.05-1.6,2.38-2.02,3.96-.44,1.72-.6,3.64-.51,6.04,.04,1.24,.19,2.46,.44,3.63,.25,1.18,.61,2.35,1.06,3.49,1.61,4.03,4.51,7.73,8.65,11.01,1.74,1.38,3.65,2.64,5.84,3.85,1.82,1.01,3.8,1.94,5.88,2.75,2.28,.89,4.67,1.62,7.31,2.25,2.79,.66,5.67,1.13,8.57,1.38,1.77,.16,3.54,.24,5.27,.24,4.15,0,8.23-.46,12.1-1.36,1.32-.3,2.69-.69,4.07-1.15,.02,.02,.05,.05,.1,.07,.09,.04,.18,.07,.26,.07,.09,0,.19-.02,.33-.07,1.1-.37,2.23-.98,3.56-1.91,1.1-.78,2.21-1.76,3.3-2.92,1.01-1.07,1.9-2.21,2.63-3.39,.8-1.28,1.35-2.49,1.69-3.68,.31-1.11,.41-2.19,.28-3.21-.1-.89-.42-1.77-.94-2.62-.43-.69-1.03-1.34-1.81-1.93-.68-.52-1.48-.98-2.45-1.41-1.11-.48-2.37-.86-3.86-1.15-1.1-.22-2.21-.33-3.28-.44l-.33-.03c-.45-.05-.89-.09-1.34-.15-4.08-.51-8.21-1.39-12.26-2.61-4.62-1.41-9.32-3.3-13.99-5.63l-1.23-.62-.18-.09c-2.1-1.06-4.27-2.15-6.44-3.12-.65-.29-1.28-.57-1.89-.82-.23-1.02-.61-1.94-1.13-2.74-.86-1.34-2.08-2.34-3.51-2.9-.6-.23-1.25-.37-1.92-.39h-.1s-.11,0-.11,0Z"/>
      <path class="cls-2" d="M21.86,106.15c-.15,.61-.27,1.24-.36,1.86-.11,.74-.2,1.48-.28,2.22-.03,.75-.03,1.55,0,2.41,.05,1.22,.2,2.44,.44,3.63,.25,1.18,.61,2.35,1.06,3.49,1.61,4.03,4.52,7.74,8.65,11.02,1.75,1.38,3.66,2.64,5.85,3.85,1.82,1.01,3.8,1.94,5.88,2.75,2.3,.9,4.69,1.63,7.31,2.25,2.76,.66,5.65,1.13,8.57,1.39,1.77,.16,3.54,.24,5.27,.24,4.17,0,8.25-.46,12.11-1.36,.58-.13,1.16-.28,1.75-.44-.84,.08-1.68,.14-2.53,.19-4.24,.25-8.5,.11-12.7-.45-3.08-.41-6.13-1.01-9.12-1.84-1.49-.41-2.98-.87-4.44-1.38-1.29-.46-2.57-.94-3.83-1.47-2.51-1.04-4.98-2.19-7.33-3.55-2.33-1.34-4.56-2.86-6.59-4.62-1.85-1.61-3.54-3.42-4.92-5.45-.65-.96-1.25-1.95-1.78-2.98-.55-1.06-1.05-2.15-1.46-3.27-.43-1.15-.78-2.33-1.02-3.54-.22-1.14-.37-2.3-.35-3.47,.01-.92,.09-1.86,.3-2.75-.18,.41-.34,.83-.48,1.28"/>
      <path class="cls-2" d="M25.88,101.06h0s0,0,0,0c0,0,0,0,0,0-.09,.05-.18,.1-.27,.15,1.23,1.25,2.48,2.48,3.85,3.59,1.55,1.25,3.23,2.33,5.04,3.16,.15,.07,.33,0,.41-.15,.07-.15,0-.34-.15-.41-.63-.29-1.25-.62-1.85-.98h0s0,0,0,0c0,0,0,0,0,0,0,0,0,0,0,0,0,0,0,0,0,0-.01-.01-.03-.02-.05-.03h.02c-1.82-1.15-3.45-2.59-4.93-4.16l.06,.06c-.47-.51-.93-1.04-1.37-1.59-.25,.12-.5,.25-.74,.38m.06-.03s-.03,.02-.05,.03c.02,0,.03-.02,.05-.03m6.96,5.38s0,0,0,0c0,0,0,0,0,0"/>
      <path class="cls-2" d="M32.89,106.4s0,0,0,0c-.01,0-.02-.02-.03-.02,.01,0,.02,.01,.03,.02"/>
      <polyline class="cls-2" points="32.89 106.4 32.89 106.41 32.89 106.4"/>
      <path class="cls-2" d="M21.5,108.01c-.05,.35-.1,.69-.14,1.04,.86,.86,1.76,1.68,2.7,2.45,1.67,1.36,3.46,2.55,5.23,3.79,.13,.09,.3,.09,.41-.04,.1-.12,.09-.32-.04-.41-2.44-1.73-4.73-3.69-6.77-5.88,.03,.03,.07,.07,.1,.11-.49-.53-.95-1.08-1.39-1.64-.03,.19-.07,.39-.1,.58"/>
      <path class="cls-3" d="M104.25,24.97s-.08,.01-.13,.02c-.98,.17-1.8,.56-2.42,1.16-.61,.58-1.09,1.36-1.44,2.3-.43,1.14-.65,2.44-.69,4.09-.01,.64,0,1.23,.03,1.79-3.97-1.42-8.13-2.15-12.35-2.16-1.89,0-3.82,.13-5.74,.42-2.45,.37-4.89,.97-7.26,1.8-4.14,1.44-8.06,3.52-11.67,6.19-1.8,1.33-3.5,2.8-5.08,4.36-1.51,1.5-2.99,3.21-4.38,5.07-2.67,3.57-4.76,7.52-6.22,11.75-.76,2.19-1.35,4.53-1.8,7.18-.43,2.49-.65,4.99-.66,7.43,0,4.63,.8,9.08,2.4,13.23,.77,2.02,1.74,3.98,2.87,5.85,1.09,1.8,2.4,3.58,3.87,5.3,2.75,3.21,6.2,6.19,10.26,8.88,1.9,1.26,3.93,2.44,6.19,3.59,2,1.02,4.18,1.99,6.87,3.06l.51,.2c.78,.31,1.6,.64,2.42,.9,1.03,.33,2.07,.52,3.08,.57,.04,0,.09,0,.13,0,.1-.01,.19-.05,.27-.1,4.4-.19,9.1-.67,14.36-1.45,5.06-.76,10.15-1.73,14.89-2.67l.1-.04h0s.07,0,.11,0c.12-.02,.23-.06,.33-.13,.34-.24,.75-.51,1.17-.74,.65-.32,1.33-.55,1.91-.73,.81-.25,1.66-.45,2.38-.61,1-.22,2.02-.43,3.03-.64,1.95-.4,3.97-.81,5.91-1.35,1.62-.45,2.88-.92,3.98-1.46,1.36-.67,2.33-1.39,3.06-2.25,.4-.47,.73-1.02,.95-1.59,.23-.61,.35-1.28,.35-2.03,0-.65-.13-1.38-.4-2.21-.19-.59-.46-1.22-.83-1.91,1.41,.04,2.86-.05,4.31-.27,.24-.04,.49-.08,.73-.12,1.92-.35,3.75-.9,5.43-1.64,1.75-.78,3.33-1.75,4.69-2.9,.72-.61,1.38-1.26,1.98-1.95,.57-.67,1.12-1.44,1.63-2.28,.91-1.51,1.58-3.27,2.03-5.38,.4-1.88,.59-3.89,.58-6.14-.01-2.06-.24-4.21-.66-6.4-.43-2.19-1.05-4.34-1.84-6.4-1.28-3.31-2.97-6.26-5.03-8.77-2.22-2.7-4.77-4.73-7.58-6.04-.14-.06-.29-.08-.44-.06-.07,.01-.14,.03-.19,.06-.16-.16-.4-.23-.63-.2-.08,.01-.16,.04-.23,.07-.93,.45-1.89,.86-2.86,1.22l-.15,.07h0c-1.8,.61-3.58,1.06-5.31,1.32-.45,.07-.9,.12-1.36,.17-1.42,.11-2.67,.08-3.81-.09-.9-.15-1.78-.42-2.62-.79-.79-.37-1.52-.81-2.18-1.33-.57-.48-1.07-1.01-1.48-1.56-.31-.47-.55-.93-.74-1.4-.14-.42-.23-.83-.28-1.26-.03-.41,0-.82,.05-1.2,.09-.47,.23-.91,.42-1.35,.24-.49,.5-.93,.78-1.3,.47-.54,1.03-1,1.58-1.44,.58-.47,1.17-.95,1.66-1.53,.12-.14,.23-.28,.33-.43,.11-.16,.19-.35,.27-.53,.15-.35,.13-.73,.1-1.02-.04-.38-.26-.71-.47-.99-.1-.13-.23-.25-.36-.36-.19-.17-.41-.33-.67-.49-.59-.37-1.29-.55-2.09-.52,.69-.53,1.29-1.07,1.83-1.62,1.33-1.35,2.07-2.71,2.2-4.02,.14-1.48-.65-3.04-2.06-4.09-.61-.45-1.35-.75-2.18-.9-.59-.1-1.25-.1-1.97,0-.12,.02-.23,.03-.35,.06-1.51,.29-3.02,.96-4.91,2.18-1.46,.94-2.89,2.1-4.38,3.55-.37,.36-.73,.73-1.09,1.1,.22-.8,.34-1.47,.4-2.09,.08-.84,.03-1.56-.16-2.2-.08-.29-.21-.56-.4-.83-.18-.27-.45-.5-.82-.71-.53-.3-1.23-.39-2.08-.26"/>
      <path class="cls-2" d="M74.24,34.37c-4.15,1.45-8.08,3.53-11.67,6.2-1.81,1.33-3.51,2.8-5.08,4.36-1.51,1.5-2.98,3.2-4.38,5.07-2.67,3.58-4.77,7.53-6.23,11.76-.76,2.2-1.35,4.55-1.8,7.17-.43,2.49-.65,4.99-.66,7.44,0,4.63,.8,9.08,2.4,13.24,.78,2.02,1.74,3.99,2.87,5.85,1.1,1.81,2.4,3.59,3.88,5.3,2.74,3.2,6.19,6.19,10.26,8.88,1.9,1.27,3.93,2.44,6.19,3.59,2.02,1.03,4.21,2,6.87,3.06l.51,.2c.86,.34,1.63,.65,2.42,.9,1.02,.33,2.06,.52,3.08,.58,.05,0,.09,0,.14,0,.09-.01,.18-.05,.28-.11,.16,0,.33-.01,.49-.02-2.1-1.64-4.17-3.32-6.17-5.09-3.22-2.83-6.27-5.86-8.94-9.23-1.63-2.06-3.12-4.24-4.42-6.52-1.33-2.34-2.48-4.77-3.46-7.28-.96-2.45-1.77-4.96-2.41-7.51-.66-2.62-1.15-5.28-1.44-7.96-.29-2.64-.4-5.31-.28-7.97,.12-2.65,.45-5.31,1.06-7.9,.59-2.52,1.41-5,2.51-7.35,1.08-2.29,2.39-4.46,3.95-6.45,1.55-1.97,3.31-3.79,5.27-5.36,1.97-1.58,4.12-2.95,6.4-4.03,1.39-.65,2.85-1.16,4.34-1.52,1.48-.36,2.99-.59,4.5-.78,1.5-.19,3.02-.33,4.52-.53,.25-.03,.51-.07,.76-.11-.91-.07-1.83-.11-2.76-.11-1.9,0-3.83,.14-5.74,.42-2.44,.37-4.88,.97-7.27,1.8"/>
      <path class="cls-2" d="M123.08,26.68c-.07,.32-.17,.64-.31,.94-.13,.3-.28,.58-.45,.86-.4,.66-.87,1.27-1.39,1.85-1.12,1.26-2.38,2.38-3.66,3.47-.61,.52-1.21,1.02-1.82,1.54-.39,.34-.79,.68-1.17,1.04,.04-.01,.08-.03,.12-.04,.46-.14,.94-.25,1.42-.29,.44-.03,.89-.02,1.32,.11,.2,.06,.4,.13,.58,.25,.1,.06,.19,.12,.28,.19,.06,.05,.11,.1,.17,.16,.16,.17,.31,.36,.42,.57,.06,.11,.12,.23,.15,.36,.03,.1,.06,.2,.07,.3,.03,.22,.04,.44,0,.66-.03,.18-.06,.36-.12,.54-.16,.51-.39,.98-.62,1.45-.21,.43-.41,.86-.54,1.31l.02-.06c-.09,.35-.16,.7-.21,1.06-.04,.34-.07,.68-.07,1.02,0,0,0,0,0-.01,0,.31,.02,.63,.06,.94,.04,.31,.1,.62,.18,.92,.07,.25,.15,.49,.25,.73,.1,.24,.22,.49,.35,.72,.15,.26,.31,.51,.49,.74,.17,.22,.36,.43,.55,.63-.01-.01-.03-.03-.05-.04,.24,.24,.48,.46,.75,.66,.26,.2,.54,.38,.82,.56,0,0,0,0,0,0,0,0,0,0,0,0,0,0,0,0,0,0,.03,.02,.07,.04,.1,.06-.43-.4-.82-.82-1.14-1.26-.31-.46-.55-.92-.74-1.4-.14-.41-.23-.82-.28-1.25-.03-.42,0-.82,.05-1.2,.09-.48,.23-.92,.41-1.35,.24-.5,.51-.93,.79-1.29,.46-.53,1.01-.98,1.55-1.42,.63-.51,1.21-.98,1.68-1.55,.12-.14,.23-.28,.33-.43,.11-.16,.19-.35,.26-.53,.15-.34,.14-.69,.11-1.03-.04-.37-.25-.7-.47-1-.09-.12-.21-.24-.36-.36-.19-.17-.41-.33-.67-.49-.6-.37-1.3-.55-2.1-.53,.66-.46,1.26-.99,1.85-1.59,1.33-1.35,2.08-2.71,2.21-4.03,.11-1.09-.3-2.24-1.09-3.19,0,.24-.04,.48-.09,.72"/>
      <path class="cls-6" d="M107.22,40.19c-.6,.12-1.19,.27-1.77,.46-.61,.2-1.2,.47-1.77,.78-.49,.26-.97,.54-1.43,.85-.51,.34-.99,.73-1.45,1.13-1.79,1.59-3.27,3.51-4.4,5.62-.1,.18,0,.41,.18,.49,.19,.09,.4,0,.49-.19,.14-.25,.28-.5,.43-.75,0,0,0,0,0,.01v-.02s.03-.03,.04-.05c0,.01-.01,.02-.02,.03,.65-1.02,1.44-1.95,2.33-2.77-.02,.02-.04,.03-.06,.05,.78-.69,1.64-1.29,2.55-1.79h0c.63-.33,1.26-.64,1.93-.88,.59-.22,1.2-.39,1.81-.55,.45-.1,.9-.19,1.36-.25,.29-.04,.54-.16,.73-.39,.19-.23,.28-.52,.26-.82-.03-.28-.17-.55-.39-.74-.2-.17-.51-.3-.78-.26-.01,0-.02,0-.03,0m-.89,2.39c-.07,.02-.14,.03-.21,.05,.07-.02,.14-.03,.21-.05m-3.83,1.4s-.03,.02-.05,.03c.02,0,.03-.02,.05-.03m-5,4.61s0,0,0,0c0,0,0-.01,.01-.02,0,0,0,.01-.01,.02"/>
      <path class="cls-6" d="M142.67,45.34h-.02c-1.63,.25-3.24,.99-4.65,2.16-1.32,1.08-2.37,2.5-3.05,4.12-.57,1.36-.8,2.85-.66,4.3,.13,1.48,.77,3,1.79,4.26,.5,.61,1.13,1.2,1.88,1.75,.86,.63,1.85,1.1,2.94,1.38,1.28,.33,2.64,.41,3.93,.21,.81-.12,1.58-.34,2.31-.66,1.02,1.6,2.53,2.65,4.13,2.88,.33,.05,.7,.04,1.06,0,.07-.01,.15-.02,.22-.04,.45-.09,.89-.29,1.35-.6,.33-.23,.66-.58,.96-1.03,.31-.46,.55-1.01,.73-1.65,.23-.83,.31-1.74,.24-2.85-.06-.93-.24-1.9-.58-3.07-.62-2.15-1.6-4.23-2.9-6.17-.59-.88-1.23-1.67-1.91-2.33-.38-.37-.7-.65-1.02-.89-.44-.33-.93-.61-1.35-.83-1.62-.86-3.54-1.19-5.38-.92"/>
      <path class="cls-5" d="M142.3,48h-.03c-.98,.15-1.99,.7-3,1.64-.45,.41-.84,.91-1.12,1.45-.06,.12-.11,.23-.16,.35-.1,.16-.19,.33-.26,.51-.18,.42-.23,.82-.17,1.22,.07,.46,.27,.85,.55,1.1,.3,.26,.68,.37,1.13,.3,.31-.05,.66-.18,1.03-.4,.39-.23,.74-.52,1.04-.78,.3-.26,.64-.58,.98-.95,.65-.7,1.13-1.33,1.47-1.95,.23-.43,.55-1.24,.14-1.87-.37-.57-1.07-.69-1.6-.61"/>
      <path class="cls-6" d="M67.87,63.13c.14-.41,.25-.87,.32-1.37,.1-.71,.07-1.5-.09-2.49-.13-.76-.34-1.54-.66-2.38-.3-1.11-.75-2.28-1.39-3.68-.91-1.99-2.03-3.86-3.12-5.67-1.46-2.46-2.85-5.05-4.14-7.7-1.96-4.06-3.61-8.16-4.83-11.27v.1c-.22-.66-.48-1.32-.73-1.98-.73-1.89-1.48-3.86-2.31-5.75-1.11-2.54-2.27-4.77-3.55-6.82-1.41-2.24-2.99-4.26-4.71-6-1.85-1.87-3.95-3.48-6.24-4.81-2.23-1.28-4.62-2.2-7.11-2.75C26.9,.04,24.43-.11,21.95,.13c-5.03,.49-10.02,2.61-14.05,5.97-1.88,1.58-3.49,3.47-4.76,5.61-.72,1.21-1.33,2.54-1.82,3.94-.29,.84-.53,1.71-.73,2.59-.97,4.37-.74,9.29,.66,14.21,.65,2.3,1.58,4.61,2.75,6.88,1.12,2.16,2.52,4.29,4.28,6.51,3.25,4.11,7.4,7.88,12.34,11.2,2.26,1.52,4.68,2.91,7.2,4.14,2.23,1.09,4.59,2.02,6.81,2.88,3.76,1.45,8.75,3.24,14.04,4.18,5.57,.99,10.16,.78,14.02-.62,2.27-.83,3.82-1.97,4.72-3.49,.18-.3,.33-.62,.45-.99"/>
      <path class="cls-6" d="M68.15,62.02c.18-.65,.25-1.33,.25-2,0-1.41-.37-2.81-.87-4.12-1-2.61-2.57-4.95-4.2-7.2-.11-.15-.35-.23-.52-.24-.2,0-.39,.06-.54,.2-.15,.13-.23,.32-.24,.52,0,.22,.07,.37,.2,.54,.07,.1,.14,.2,.22,.3,0,0,0-.01-.01-.02,1.46,2.05,2.85,4.21,3.76,6.57,.33,.92,.58,1.87,.68,2.84,.04,.58,.02,1.16-.06,1.74-.09,.47-.24,.92-.44,1.35-.08,.16-.17,.31-.26,.46-.21,.35-.12,.81,.23,1.03,.34,.22,.82,.12,1.04-.23,.26-.43,.48-.89,.64-1.36,.04-.13,.08-.26,.12-.39m-1.96-5.46s-.03-.09-.05-.14c.02,.05,.03,.09,.05,.14"/>
      <path class="cls-6" d="M67.82,62.51c.12-.43,.17-.87,.18-1.31,0-.41-.28-.77-.7-.8-.4-.03-.79,.29-.8,.7,0,.27-.03,.53-.07,.8-.06,.25-.14,.49-.24,.72-.01,.03-.03,.05-.04,.08-.1,.18-.16,.36-.12,.57,.04,.19,.15,.36,.31,.47,.17,.12,.37,.16,.57,.12,.17-.04,.38-.15,.47-.31,.15-.27,.28-.55,.38-.83,.02-.07,.04-.14,.06-.2"/>
      <path class="cls-6" d="M68.18,60.94c.02-.41-.29-.77-.7-.8-.4-.03-.77,.29-.8,.7-.02,.31-.05,.62-.11,.93-.08,.33-.18,.65-.3,.97-.15,.38,.09,.82,.46,.95,.4,.14,.8-.08,.95-.46,.03-.08,.06-.16,.09-.24,.23-.66,.36-1.35,.4-2.05"/>
      <path class="cls-6" d="M68.25,61.02c0-.41-.27-.77-.7-.8-.39-.03-.79,.29-.8,.7,0,.21-.02,.42-.05,.63-.07,.29-.17,.56-.3,.82-.08,.17-.04,.42,.03,.57,.09,.18,.24,.32,.43,.38,.19,.06,.39,.05,.57-.03,.19-.09,.29-.24,.38-.43,.07-.15,.14-.31,.19-.47,.15-.44,.23-.91,.24-1.38"/>
      <path class="cls-6" d="M68.32,61.08c.02-.41-.29-.77-.7-.8-.4-.03-.77,.3-.8,.7,0,.2-.03,.4-.06,.6-.08,.36-.2,.71-.35,1.05-.17,.38,.1,.83,.46,.95,.19,.06,.39,.05,.57-.03,.19-.09,.29-.24,.38-.43,.07-.16,.14-.32,.19-.49,.17-.5,.28-1.02,.31-1.56"/>
      <path class="cls-6" d="M68.3,61.13c.01-.41-.28-.77-.7-.8-.4-.03-.78,.29-.8,.7-.01,.21-.03,.42-.06,.63-.07,.27-.15,.53-.26,.79-.16,.37,.1,.83,.46,.95,.18,.06,.4,.05,.57-.04,.19-.09,.3-.24,.38-.43,.05-.12,.1-.23,.14-.35,.16-.47,.25-.96,.27-1.46"/>
      <path class="cls-6" d="M68.29,61.55c.03-.41-.3-.77-.7-.8-.41-.03-.76,.3-.79,.7-.01,.12-.02,.24-.04,.36-.06,.26-.15,.5-.27,.74-.08,.17-.05,.41,.03,.57,.09,.18,.24,.32,.43,.38,.18,.06,.4,.05,.57-.03,.19-.09,.29-.24,.38-.43,.06-.13,.12-.26,.16-.4,.12-.35,.19-.71,.23-1.09"/>
      <path class="cls-4" d="M68.31,61.54s0-.07,0-.1l.02-.16c.06-.4,.09-.83,.09-1.27,0-1.26-.29-2.6-.87-4.12-.6-1.55-1.43-3.11-2.6-4.89-.65-1.19-1.35-2.38-1.97-3.42-1.48-2.49-2.88-5.09-4.16-7.73-1.99-4.11-3.63-8.18-4.83-11.27v.08c-.23-.67-.48-1.31-.73-1.97l-.1-.26c-.69-1.81-1.41-3.67-2.2-5.49-1.11-2.53-2.27-4.76-3.55-6.83-1.41-2.24-3-4.26-4.72-6.01-1.85-1.87-3.95-3.49-6.25-4.81-2.23-1.27-4.63-2.2-7.11-2.75C26.89,.02,24.41-.13,21.95,.11c-5.04,.48-10.03,2.6-14.06,5.97-1.85,1.54-3.43,3.4-4.71,5.51,.93-1.04,1.91-2.02,2.95-2.94,.79-.68,1.6-1.33,2.46-1.92,.93-.63,1.9-1.2,2.91-1.71,1.11-.57,2.26-1.08,3.44-1.47,1.12-.37,2.28-.66,3.45-.82,1.16-.15,2.35-.2,3.52-.09,1.21,.11,2.4,.35,3.55,.75,1.25,.43,2.46,1,3.6,1.67,1.13,.65,2.2,1.39,3.21,2.2,4.16,3.36,7.31,7.82,9.8,12.52,.63,1.18,1.22,2.39,1.78,3.61,.28,.62,.56,1.25,.83,1.88,.25,.61,.5,1.21,.76,1.82,1.11,2.66,2.32,5.29,3.68,7.84h0s0,0,0,0c0,0,0,0,0,0,0,0,0,0,0,0,0,0,0,0,0,.02,0,0,0-.01,0-.01,1.29,2.38,2.7,4.69,4.32,6.86,.46,.63,.93,1.24,1.43,1.84,.46,.56,.94,1.11,1.42,1.65,1.01,1.12,2.05,2.22,3.08,3.33,1.03,1.11,2.04,2.23,2.98,3.41,.8,1.01,1.55,2.05,2.25,3.14,.63,1.01,1.23,2.06,1.69,3.16,.24,.57,.46,1.14,.62,1.74,.14,.51,.26,1.03,.32,1.55,.12,.98,.11,2-.11,2.97,.11-.15,.21-.31,.31-.47,.18-.31,.33-.63,.45-.99l.04-.12c.06-.12,.11-.25,.15-.38,.12-.34,.19-.7,.23-1.1"/>
      <path class="cls-1" d="M116.18,93.04s-.1,.01-.16,.03c-.26,.09-.39,.37-.31,.65,.68,2.3,1.48,3.99,2.52,5.32,.27,.36,.6,.7,.99,1.05,.32,.29,.7,.56,1.16,.82,.37,.21,.79,.38,1.34,.52,.41,.11,.85,.22,1.3,.24,.06,0,.11,0,.17,0,.15,0,.28-.02,.39-.05,.19-.06,.35-.17,.5-.35,.1-.11,.16-.27,.21-.49,.02-.1,.01-.21,0-.31,0-.09-.03-.18-.06-.26-.07-.23-.16-.38-.25-.54-.14-.25-.29-.44-.44-.63l-.16-.21c-.07-.09-.14-.18-.21-.27l-.15-.21c-.14-.19-.28-.38-.42-.56-1.74-2.24-3.66-3.78-5.71-4.58-.06-.03-.14-.04-.21-.04-.05,0-.09,0-.14,.02-.08-.09-.22-.14-.35-.14"/>
      <path class="cls-6" d="M115.21,86.41c-.1,0-.21,.03-.29,.08-.04,.02-.06,.05-.09,.08-.16,.09-.26,.26-.26,.44-.07,2.33,.17,4.64,.69,6.86,.61,2.57,1.61,4.66,2.98,6.21,.33,.38,.74,.74,1.23,1.11,.43,.31,.92,.57,1.51,.78,.5,.18,1.04,.27,1.6,.27,.45,0,.9-.06,1.35-.17,.41-.11,.85-.3,1.3-.56,.42-.25,.83-.59,1.22-1.01,.71-.76,1.26-1.79,1.62-3.07,.01-.06,.02-.11,.04-.16,.07-.28-.09-.55-.36-.63-.04-.01-.08-.02-.13-.02-.02-.02-.06-.05-.11-.07-1.26-.46-2.52-1.08-3.83-1.91h0c-1.98-1.28-3.83-2.85-5.5-4.67h0c-.99-1.1-1.85-2.23-2.56-3.36-.09-.14-.24-.22-.42-.22m1.93,9.98c-.34-.83-.63-1.73-.87-2.69,.67,.28,1.35,.62,2.02,1.03,0,0-.03-.03-.03-.03,0,0-.04-.04-.04-.04,1.12,.75,2.2,1.66,3.17,2.73h0c1,1.13,1.85,2.36,2.51,3.65-.23,.07-.49,.13-.76,.17-.17,.02-.34,.03-.51,.03-.18,0-.36-.01-.53-.03-.36-.06-.72-.16-1.1-.31-.4-.19-.78-.41-1.14-.68-.45-.37-.86-.8-1.26-1.3-.55-.73-1.03-1.57-1.45-2.56v.03Z"/>
      <path class="cls-7" d="M113.5,81.89c-.25,.04-.5,.1-.75,.17-.25,.08-.49,.19-.73,.31-.31,.15-.55,.31-.78,.47-.94,.64-1.63,1.39-2.06,2.23-.04,.07-.04,.15-.02,.22,.02,.07,.07,.13,.14,.17,.06,.03,.12,.04,.18,.03,.09-.01,.17-.07,.21-.15,.07-.14,.15-.27,.24-.41,.16-.21,.34-.41,.59-.63,.27-.21,.57-.4,.89-.55,.3-.12,.6-.21,.92-.28-.02,.07,0,.15,.02,.21,.46,1.26,1.25,2.33,2.08,3.41,.77,1,1.52,1.87,2.29,2.68,1.58,1.65,3.45,3.18,5.7,4.67,2.13,1.41,4.32,2.45,6.5,3.11,1.54,.47,3.13,.72,4.73,.76,.85-.03,1.67-.09,2.44-.19,0,0,.04-.12,.04-.12-.97,.03-2.01-.03-3.07-.2-.95-.15-1.85-.37-2.7-.65-.51-.14-1.02-.3-1.51-.48-2.12-.81-4.15-1.91-6.04-3.26-2.14-1.56-4.17-3.5-6.03-5.77-.42-.54-.83-1.08-1.24-1.64-.4-.56-.86-1.21-1.21-1.93-.1-.24-.19-.48-.27-.72,.16,.05,.25,.05,.34,.04,.1-.01,.18-.05,.27-.1,.18-.11,.31-.29,.35-.49s.01-.42-.1-.58c-.14-.24-.39-.37-.69-.38-.25,0-.5,.02-.75,.05"/>
      <path class="cls-6" d="M106.44,54.43c-.83,.46-1.51,1.11-2.05,1.89-.56,.79-.95,1.68-1.24,2.6-.53,1.69-.71,3.44-.71,5.21,0,1.3,.08,2.59,.28,3.88,.11,.74,.29,1.48,.48,2.2,.19,.68,.41,1.37,.74,2,.08,.18,.2,.33,.35,.46,.24,.18,.53,.26,.83,.22,.59-.07,1.08-.65,.97-1.26-.15-.83-.4-1.64-.62-2.46-.24-.92-.46-1.85-.61-2.79-.14-.86-.2-1.74-.21-2.61,.02-1.51,.18-3.03,.57-4.5,.2-.67,.46-1.33,.8-1.94,.21-.33,.44-.64,.7-.92,.23-.22,.48-.41,.75-.58,.27-.14,.55-.26,.84-.35,.39-.09,.78-.14,1.18-.15,.57,.02,1.14,.09,1.7,.23,.52,.15,1,.37,1.47,.63,.63,.39,1.2,.85,1.72,1.37,.96,1,1.76,2.14,2.46,3.34l-.06-.1c.79,1.37,1.45,2.81,2.01,4.29,.08,.2,.32,.29,.52,.21,.2-.09,.29-.31,.21-.51-.75-1.97-1.61-3.91-2.71-5.72-.57-.94-1.22-1.82-1.98-2.63-.35-.37-.72-.72-1.11-1.04-.42-.34-.88-.63-1.36-.88-.45-.24-.94-.4-1.43-.53-.55-.15-1.12-.23-1.69-.23-.3,0-.6,.01-.9,.05-.66,.08-1.31,.28-1.9,.61m2.95,.91s.04,0,.07,0c-.02,0-.04,0-.07,0m3.16,.79s.03,.02,.04,.02c-.01,0-.03-.02-.04-.02"/>
    </g>
  </g>
</svg>