<?xml version="1.0" encoding="UTF-8"?>
<svg id="Layer_2" data-name="Layer 2" xmlns="http://www.w3.org/2000/svg" viewBox="0 0 183.44 206.44">
  <defs>
    <style>
      .cls-1 {
        fill: #fe5e78;
      }

      .cls-2 {
        fill: #8e3f59;
      }

      .cls-3 {
        fill: #ad4d6c;
      }

      .cls-4 {
        fill: #3e164a;
      }

      .cls-5 {
        fill: #64446c;
      }

      .cls-6 {
        fill: #350b40;
      }

      .cls-7 {
        fill: #7a364d;
      }
    </style>
  </defs>
  <g id="OBJECTS">
    <g>
      <path class="cls-6" d="M3.53,121.27c-.22,0-.44,.02-.66,.04-.35,.04-.69,.11-1,.22-.36,.12-.68,.3-.99,.55-.46,.37-.76,.93-.86,1.58-.07,.53,.02,1.11,.28,1.67,.22,.49,.59,1,1.12,1.53,.47,.48,1.06,.96,1.79,1.47,1.03,.72,2.23,1.39,3.87,2.18,1.36,.66,2.82,1.28,4.46,1.9,.64,.24,1.29,.48,1.94,.71h-.04c-.18,0-.36,.02-.54,.05-.56,.09-1,.2-1.38,.36-.22,.09-.44,.19-.65,.31-.16,.09-.3,.21-.44,.32l-.11,.09c-.32,.26-.53,.6-.65,.84-.15,.31-.23,.62-.24,.92-.01,.2-.02,.4,0,.59,.02,.22,.09,.43,.15,.64,.09,.29,.22,.57,.43,.9,.26,.42,.55,.81,.87,1.17,.65,.73,1.48,1.44,2.55,2.19,1.76,1.22,3.95,2.28,6.5,3.14,2.78,.93,5.93,1.61,9.65,2.08,1.54,.19,3.12,.34,4.68,.44-.5,.2-.9,.47-1.19,.77-.44,.45-.63,1.06-.52,1.62,.11,.52,.41,1.03,.9,1.53,.45,.46,1.02,.9,1.72,1.33,.67,.41,1.44,.8,2.29,1.16,.74,.32,1.56,.6,2.43,.84,.41,.11,.83,.21,1.26,.3,.52,.1,1.05,.17,1.6,.23,1.58,.18,3.23,.27,4.88,.25,1.73-.02,3.5-.14,5.25-.38,3.4-.45,6.62-1.34,9.56-2.64,.19-.08,.3-.21,.31-.36,.04,0,.07,0,.1,0,.08,0,.14,0,.2-.02,.24-.05,.56-.2,.69-.42,.36-.65,.63-1.24,.82-1.81,.24-.71,.37-1.43,.45-1.97,.18-1.23,.15-2.55-.11-4.03-.21-1.27-.66-2.57-1.33-3.86-.61-1.17-1.42-2.23-2.4-3.15-.04-.08-.09-.16-.14-.22-.19-.22-.46-.37-.83-.44-.35-.06-.7-.1-1.05-.13l-.24-.02-.66-.07-.66-.07c-.87-.09-1.74-.19-2.62-.3-1.74-.21-3.53-.47-5.32-.78-3.16-.53-6.47-1.22-9.83-2.05-6.28-1.57-12.23-3.48-17.22-5.15-1.45-.49-2.9-.98-4.34-1.49l-.95-.32c-.83-.28-1.65-.56-2.47-.87-.65-.25-1.29-.51-1.93-.76-.77-.31-1.54-.62-2.33-.91-1.66-.61-3.46-1.22-5.36-1.53-.6-.1-1.18-.15-1.71-.14"/>
      <path class="cls-2" d="M75.82,146.32c-.96,0-1.88,.1-2.74,.31-.55,.13-1.14,.33-1.75,.59-.52,.22-1.05,.52-1.72,.97-.82,.55-1.62,1.27-2.53,2.25-1.75,1.89-3.18,4.08-4.45,6.01l-.24,.38c-.59,.9-1.17,1.8-1.78,2.68-.64,.93-1.33,1.83-2.1,2.76l-.25,.31c-3.21,3.86-6.53,7.86-8.82,12.41-.61,1.22-1.11,2.38-1.51,3.54-.4,1.16-.72,2.38-.97,3.73-.44,2.43-.44,5.07,0,7.83,.38,2.35,1.08,4.56,2.09,6.56,1.03,2.05,2.41,3.84,4.09,5.3,1.71,1.49,3.75,2.6,6.07,3.33,1.04,.32,2.18,.57,3.41,.73,.8,.11,1.61,.16,2.41,.16,.39,0,.77-.01,1.16-.04,2.37-.15,4.41-.77,6.07-1.83,1.01-.65,1.89-1.47,2.6-2.44,.31-.42,.58-.92,.84-1.52,.26-.59,.37-1.22,.45-1.7,.14-.96,.07-2.03-.22-3.27-.29-1.21-.77-2.34-1.19-3.29-.34-.75-.71-1.49-1.08-2.23-.61-1.22-1.25-2.48-1.72-3.79-.19-.57-.3-1.04-.35-1.49,0-.19,0-.38,.02-.57,.03-.12,.07-.23,.12-.35,.06-.11,.13-.2,.2-.3,.16-.16,.34-.31,.55-.45,.59-.36,1.24-.63,1.81-.88l.83-.34c.65-.26,1.29-.53,1.93-.81,.92-.41,1.83-.85,2.73-1.29l.58-.28c1.14-.55,2.27-1.11,3.39-1.7,2.56-1.34,4.69-2.65,6.52-4.02,2.13-1.59,3.93-3.39,5.34-5.35,.3-.41,.57-.84,.84-1.27,.22-.36,.13-.83-.21-1.05-.12-.08-.27-.12-.42-.12-.19,0-.38,.07-.51,.19,.03-.06,.05-.12,.06-.19,.12-.57,.2-1.16,.23-1.74,.05-.66,0-1.33-.03-1.83-.08-1.05-.33-2.13-.77-3.32-.37-.98-.91-1.98-1.66-3.07-1.28-1.86-3.07-3.57-5.46-5.23-2.22-1.53-4.55-2.7-6.94-3.46-1.7-.54-3.35-.81-4.91-.81"/>
      <path class="cls-2" d="M124.77,111.79c-.11,0-.19,.02-.27,.06-.98,.45-1.88,1.04-2.67,1.75-.75,.68-1.43,1.5-2,2.43-1.07,1.73-1.78,3.79-2.1,6.12-.14,.98-.18,2.04-.14,3.31,.04,1.04,.16,2.1,.37,3.14,.45,2.18,1.31,4.35,2.57,6.46,2.46,4.13,6.07,7.58,10.46,10,2.23,1.23,4.5,2.15,6.75,2.72,1.21,.31,2.42,.53,3.58,.65,.69,.07,1.4,.1,2.15,.1,.44,0,.86-.01,1.3-.03,2.13-.09,4.35-.5,6.6-1.21,2.2-.7,4.22-1.72,6-3.03,.85-.62,1.67-1.37,2.5-2.31,.7-.78,1.3-1.68,1.91-2.83,.5-.93,.88-2.01,1.18-3.31,.24-1.04,.32-2.2,.26-3.53-.04-.88-.21-1.79-.51-2.8-.25-.85-.6-1.67-1.04-2.41-.5-.86-1.06-1.58-1.7-2.21-.37-.36-.71-.65-1.04-.9-.43-.83-1.11-1.61-2.08-2.38-.46-.37-.99-.7-1.65-1.04-.58-.3-1.21-.53-1.87-.68-.44-.11-.9-.16-1.34-.16-.71,0-1.36,.14-1.93,.42-.47,.22-.89,.58-1.26,1.04-.32,.4-.56,.91-.74,1.52l-.45,.08-.39,.08c-1.39,.27-2.52,.41-3.55,.45h-.29c-1.24,0-2.51-.14-3.78-.42-1.46-.36-2.92-.93-4.33-1.69-1.91-1.06-3.85-2.56-6.11-4.72-1.25-1.2-2.54-2.55-3.75-3.84,.04-.11,.03-.26-.03-.41-.1-.24-.36-.41-.63-.41"/>
      <path class="cls-3" d="M110.75,86.16c-.82,0-1.67,.04-2.53,.11-2.41,.2-5.01,.73-7.94,1.6-2.4,.72-4.86,1.63-7.52,2.78-2.42,1.06-4.77,2.22-6.99,3.45-5.19,2.88-10.08,6.34-14.51,10.26-2.26,2-4.43,4.19-6.45,6.51-2,2.31-3.79,4.75-5.3,7.25-3.25,5.36-5.06,10.84-5.4,16.28-.18,2.99,.1,5.97,.84,8.83,.73,2.8,1.95,5.5,3.62,8.02,2.93,4.41,7.28,8.32,12.95,11.62,3.22,1.88,6.94,3.57,11.36,5.18l1.54,.56c3.13,1.12,6.38,2.28,9.39,3.84,1.98,1.04,3.6,2.14,4.96,3.35,.93,.86,1.72,1.78,2.36,2.75,.55,.87,.99,1.8,1.32,2.76,.2,.63,.34,1.28,.46,1.85,.16,.72,.29,1.44,.42,2.16,.11,.58,.2,1.17,.3,1.76,.11,.65,.22,1.3,.34,1.94,.34,1.84,.88,4.2,2.14,6.23,1.6,2.59,4.05,4.37,6.01,5.63,3.38,2.18,6.32,3.63,9.24,4.56,2,.64,3.93,.96,5.76,.96,1.49,0,2.91-.22,4.22-.65,2.58-.84,5-2.62,7-5.12,.93-1.17,1.68-2.48,2.24-3.91,.54-1.38,.82-2.86,.81-4.26-.01-1.4-.33-2.78-.92-4-.49-1-1.24-1.99-2.22-2.94-2.06-1.98-4.62-3.29-6.85-4.31-1.68-.77-3.43-1.44-5.13-2.09l-1.42-.55c.2-.74,.37-1.49,.51-2.22,.25-1.3,.45-2.67,.59-4.21,.26-2.79,.21-5.64-.14-8.47-.35-2.87-1.02-5.64-1.99-8.25-.5-1.34-1.08-2.65-1.73-3.89-.25-.48-.54-.97-.89-1.5,1.1-1.13,2.17-2.48,3.28-4.11,1.13-1.67,2.18-3.54,3.11-5.55,1.82-3.95,3.14-8.27,3.92-12.86,.78-4.57,.98-9.16,.6-13.65-.4-4.63-1.4-8.9-2.97-12.68-.74-1.78-1.6-3.44-2.56-4.92-.48-1.15-.93-2.05-1.42-2.83-.72-1.15-1.62-2.21-2.66-3.17-.95-.86-2-1.6-3.12-2.19-1.1-.57-2.27-1.02-3.49-1.33-1.59-.41-3.28-.61-5.17-.61"/>
      <path class="cls-3" d="M182.78,53.56c-.43-2.19-1.05-4.34-1.84-6.4-1.28-3.31-2.97-6.26-5.03-8.77-2.22-2.7-4.77-4.74-7.58-6.04-.14-.06-.29-.08-.44-.06-.07,.01-.14,.03-.19,.06-.16-.16-.4-.23-.63-.2-.08,.01-.16,.04-.23,.07-.93,.45-1.89,.86-2.86,1.22l-.15,.07h0c-1.8,.61-3.58,1.07-5.31,1.32-.45,.07-.9,.12-1.36,.17-1.43,.11-2.67,.08-3.81-.09-.9-.16-1.78-.42-2.62-.79-.79-.37-1.52-.81-2.18-1.33-.57-.49-1.07-1.01-1.48-1.56-.31-.47-.56-.93-.74-1.4-.14-.42-.23-.83-.28-1.26-.03-.41,0-.82,.05-1.2,.09-.47,.23-.91,.42-1.35,.24-.49,.5-.93,.78-1.3,.47-.54,1.03-1,1.58-1.44,.58-.47,1.17-.95,1.66-1.53,.12-.14,.23-.28,.33-.43,.11-.16,.19-.34,.27-.53,.15-.35,.13-.73,.11-1.02-.04-.38-.26-.71-.47-.99-.1-.14-.23-.25-.36-.36-.19-.17-.41-.33-.67-.49-.59-.37-1.29-.55-2.09-.52,.69-.53,1.29-1.07,1.84-1.62,1.33-1.35,2.07-2.71,2.2-4.02,.14-1.48-.65-3.04-2.06-4.09-.61-.45-1.35-.75-2.18-.9-.59-.11-1.25-.1-1.97,0-.12,.02-.23,.03-.35,.06-1.51,.29-3.03,.96-4.91,2.17-1.46,.94-2.89,2.1-4.38,3.55-.37,.36-.73,.73-1.09,1.1,.22-.8,.34-1.47,.4-2.09,.08-.84,.03-1.56-.16-2.2-.08-.29-.21-.56-.4-.83-.18-.27-.45-.5-.82-.71-.53-.3-1.23-.39-2.08-.26-.04,0-.08,.01-.13,.02-.98,.17-1.79,.56-2.42,1.16-.61,.58-1.09,1.35-1.44,2.3-.42,1.14-.64,2.44-.69,4.09-.01,.64,0,1.23,.03,1.79-3.97-1.42-8.13-2.14-12.35-2.16-1.89,0-3.82,.13-5.74,.42-2.45,.37-4.89,.97-7.26,1.8-4.14,1.44-8.06,3.52-11.67,6.19-1.8,1.33-3.51,2.8-5.08,4.36-1.51,1.5-2.99,3.21-4.38,5.07-2.67,3.57-4.76,7.52-6.22,11.75-.76,2.19-1.35,4.53-1.8,7.18-.43,2.49-.65,5-.66,7.43,0,4.63,.8,9.08,2.4,13.24,.77,2.01,1.74,3.98,2.87,5.85,1.09,1.8,2.4,3.58,3.87,5.3,2.75,3.2,6.2,6.19,10.26,8.88,1.9,1.26,3.93,2.44,6.19,3.59,2,1.02,4.18,1.99,6.87,3.06l.51,.2c.78,.31,1.6,.64,2.42,.9,1.03,.33,2.07,.52,3.08,.57,.04,0,.09,0,.13,0,.1-.01,.19-.05,.27-.1,4.4-.19,9.1-.67,14.36-1.45,5.06-.76,10.15-1.73,14.89-2.67l.1-.04h0s.07,0,.11,0c.12-.02,.23-.06,.33-.13,.34-.24,.75-.51,1.17-.74,.65-.32,1.33-.55,1.91-.73,.81-.25,1.66-.45,2.38-.61,1-.22,2.02-.43,3.03-.64,1.95-.4,3.97-.8,5.91-1.35,1.62-.45,2.89-.92,3.98-1.46,1.36-.67,2.33-1.39,3.06-2.25,.4-.47,.73-1.02,.95-1.59,.23-.61,.35-1.28,.35-2.03,0-.65-.13-1.38-.4-2.21-.19-.59-.46-1.21-.84-1.91,1.41,.04,2.87-.05,4.31-.27,.24-.04,.49-.08,.73-.12,1.92-.35,3.75-.9,5.43-1.64,1.75-.77,3.33-1.75,4.69-2.9,.72-.61,1.38-1.27,1.98-1.95,.57-.67,1.12-1.44,1.63-2.28,.91-1.51,1.58-3.27,2.03-5.38,.4-1.88,.59-3.89,.58-6.14-.01-2.06-.24-4.21-.66-6.4Z"/>
      <path class="cls-2" d="M54.94,143.26c.73,2.8,1.94,5.5,3.62,8.02,2.94,4.42,7.3,8.33,12.96,11.63,3.2,1.87,6.92,3.56,11.36,5.18l1.54,.56,.1,.04c3.1,1.11,6.3,2.26,9.29,3.8,2,1.05,3.61,2.15,4.95,3.35,.93,.86,1.73,1.78,2.36,2.74,.55,.88,.99,1.81,1.32,2.76,.19,.64,.34,1.28,.46,1.85,.15,.72,.29,1.43,.42,2.15,.1,.59,.2,1.17,.3,1.75l.07,.41,.02,.1c.08,.48,.16,.96,.25,1.43,.34,1.84,.89,4.21,2.15,6.24,1.6,2.59,4.06,4.38,6.02,5.64,3.37,2.18,6.31,3.62,9.24,4.56,2,.64,3.94,.97,5.77,.97,1.49,0,2.91-.22,4.23-.66,1.74-.57,3.4-1.55,4.91-2.9-.39,.13-.78,.25-1.18,.35-1.13,.28-2.28,.46-3.44,.54-2.41,.15-4.85-.08-7.2-.64-1.19-.28-2.36-.63-3.5-1.06-1.09-.41-2.15-.88-3.18-1.42-.98-.51-1.93-1.08-2.82-1.75-.83-.62-1.6-1.32-2.28-2.1-.63-.72-1.2-1.49-1.69-2.32-.48-.8-.9-1.65-1.25-2.51-.73-1.79-1.23-3.65-1.66-5.53-.84-3.76-1.39-7.64-2.93-11.2h0s0,0,0,0c0-.01-.01-.03-.02-.04,0,0,0,0,0-.01,0,0,0,0,0,0,0,0,0,0,0,0,0,0,0,0,0,0-.31-.68-.64-1.35-1.03-1.99-.38-.64-.81-1.25-1.27-1.83,.02,.02,.03,.03,.04,.06-.44-.53-.9-1.05-1.41-1.52s-1.03-.9-1.59-1.3c.02,.01,.03,.02,.05,.03-.86-.61-1.77-1.14-2.7-1.61-.98-.5-1.99-.94-3.02-1.34,0,0,.02,0,.03,.01-.02,0-.04-.01-.06-.02,0,0,0,0,0,0,0,0,0,0,0,0-4.28-1.62-8.77-2.5-13.16-3.72-1.13-.31-2.25-.65-3.36-1.02-.94-.32-1.87-.67-2.79-1.06-1.79-.75-3.53-1.61-5.21-2.59-4.11-2.41-7.85-5.49-10.8-9.24-1.48-1.88-2.76-3.91-3.77-6.08-.26-.57-.51-1.14-.74-1.72,.15,1.02,.35,2.02,.61,3.01"/>
      <path class="cls-2" d="M105.13,175.23s0,0,0-.01c0,0,0,0,0,.01"/>
      <path class="cls-2" d="M98.55,137.21c-.85,.12-1.68,.31-2.49,.58-.17,.05-.28,.23-.23,.41,.05,.17,.24,.28,.42,.23,.64-.21,1.29-.37,1.95-.48h-.02c1.1-.15,2.22-.17,3.32-.05,1.5,.18,2.98,.59,4.39,1.12-.05-.02-.09-.03-.14-.06,2.23,.86,4.27,2.11,6.21,3.5-.06-.04-.12-.09-.19-.13,1.44,1.05,2.8,2.22,4.09,3.46,1.2,1.16,2.35,2.38,3.41,3.66,1.46,1.81,2.74,3.76,3.7,5.88,1.09,2.52,1.81,5.17,2.23,7.87,0,0,0-.01,0-.02,.41,2.78,.5,5.6,.21,8.4,0,0,0-.01,0-.02,0,.01,0,.02,0,.03,0,.05,0,.1-.02,.15,0-.02,0-.05,0-.07-.23,1.96-.66,3.9-1.36,5.74,.02-.05,.04-.1,.06-.16-.1,.25-.19,.5-.28,.75-.06,.16,0,.38,.08,.51,.09,.15,.24,.26,.42,.31,.17,.04,.35,.01,.51-.08,.17-.1,.24-.24,.3-.42,.1-.28,.2-.57,.3-.85,.1-.27,.19-.54,.28-.81,.2-.6,.37-1.2,.52-1.82,.3-1.22,.52-2.46,.67-3.7,.32-2.6,.34-5.23,.09-7.84-.25-2.57-.76-5.13-1.6-7.57-.74-2.15-1.77-4.19-3.09-6.05-1.34-1.9-2.92-3.64-4.65-5.19-.93-.83-1.91-1.59-2.92-2.32-.98-.7-2.01-1.35-3.07-1.93-2.07-1.14-4.29-2.04-6.57-2.63-1.08-.28-2.19-.43-3.3-.51-.38-.03-.77-.04-1.15-.04-.7,0-1.41,.05-2.1,.14m26.67,26.09s.01,.09,.02,.13c0-.04-.01-.09-.02-.13m.19,8.4s0-.06,0-.08c0,0,0,0,0-.01,0,.03,0,.06-.01,.09"/>
      <path class="cls-7" d="M56.38,146.99c-.12,.07-.16,.21-.11,.34,1.03,2.22,2.28,4.34,3.75,6.3,.7,.93,1.45,1.83,2.24,2.69,.78,.84,1.6,1.63,2.46,2.39,.85,.75,1.74,1.46,2.66,2.13,.92,.67,1.88,1.32,2.86,1.91,2.02,1.21,4.12,2.27,6.26,3.24,2.48,1.12,5.01,2.14,7.58,3.07,2.53,.92,5.06,1.82,7.51,2.93,2.31,1.06,4.56,2.29,6.54,3.9-.04-.03-.07-.06-.11-.09,1.11,.92,2.11,1.94,2.95,3.11-.02-.03-.04-.06-.06-.09,.53,.75,.95,1.58,1.37,2.4,.08,.16,.29,.22,.44,.14,.17-.09,.21-.28,.14-.45-.3-.68-.62-1.34-.99-1.98-.32-.56-.68-1.1-1.06-1.62-.71-.97-1.55-1.83-2.45-2.63-1.86-1.65-3.99-2.96-6.21-4.06-2.2-1.1-4.49-2-6.81-2.82-2.29-.81-4.59-1.6-6.85-2.49-1.23-.48-2.46-1.01-3.67-1.56l.15,.07c-.89-.41-1.78-.83-2.65-1.29-.86-.45-1.7-.93-2.54-1.41-1.63-.95-3.2-2.02-4.68-3.21,.01,.01,.02,.02,.04,.03-.03-.02-.06-.05-.08-.07,0,0,0,0,0,0h0c-1-.82-1.95-1.7-2.85-2.63-.98-1.02-1.87-2.11-2.7-3.26h0c-1.08-1.53-2.02-3.15-2.81-4.86-.04-.09-.13-.13-.22-.13-.04,0-.08,.01-.12,.03m8.7,10.86l.05,.04s-.03-.03-.05-.04c0,0,0,0,0,0"/>
      <path class="cls-2" d="M128.49,191.74c-.09,.09-.11,.27,0,.36,.57,.5,1.07,1.05,1.53,1.65-.02-.02-.03-.04-.05-.06,.41,.53,.77,1.1,1.11,1.68,.33,.59,.62,1.22,.88,1.85,.25,.62,.46,1.26,.62,1.91,.16,.64,.27,1.3,.35,1.96,.08,.81,.07,1.63-.03,2.44-.05,.34-.11,.68-.19,1.01-.06,.24-.03,.48,.07,.69,.23-.12,.46-.23,.68-.34l.14-.07c.13-.08,.27-.16,.4-.25,.25-.16,.49-.31,.74-.47,.03-.29,.05-.59,.05-.88,0-.63-.09-1.27-.2-1.89-.24-1.27-.7-2.48-1.26-3.64-.28-.59-.6-1.16-.94-1.72-.34-.55-.71-1.07-1.09-1.59-.73-.97-1.55-1.86-2.46-2.65-.05-.05-.12-.07-.18-.07s-.12,.02-.17,.07m3.44,5.4s.01,.03,.02,.04c0-.02-.01-.03-.02-.04"/>
      <path class="cls-2" d="M134.31,188.07c-.07,.13-.03,.31,.1,.38,.36,.2,.7,.41,1.02,.66,0,0,0,0,0,0,0,0,0,0,0,0,0,0,0,0,.01,0,.02,0,.03,.02,.05,.04,0,0-.01,0-.01,0,.36,.28,.7,.59,1.02,.91,.33,.33,.63,.7,.92,1.07,.66,.87,1.19,1.82,1.61,2.82,.23,.57,.41,1.15,.55,1.74,.14,.57,.23,1.13,.31,1.7,.03,.23,.04,.45,.06,.67,.21-.36,.4-.74,.58-1.12,0,.01-.01,.03-.01,.04,.18-.41,.35-.84,.49-1.27,0,0,0,0,0,0,0-.02-.02-.04-.03-.07-.41-1.06-.94-2.08-1.53-3.04-.28-.45-.59-.88-.91-1.3-.36-.46-.74-.9-1.15-1.31-.8-.79-1.72-1.47-2.71-2.01-.05-.03-.09-.04-.14-.04-.09,0-.19,.05-.24,.14m6.24,8.85s0,0,0,.01c0,0,0,0,0-.01"/>
      <path class="cls-2" d="M135.48,189.14l-.03-.03s.02,.02,.03,.03"/>
      <path class="cls-3" d="M37.22,96.35c-.34,.07-.67,.16-1,.28-.32,.11-.61,.28-.9,.45-.53,.32-.99,.79-1.3,1.32-.37,.64-.57,1.35-.61,2.09-.02,.41,.24,.78,.66,.83,.39,.04,.81-.25,.83-.66,.01-.26,.05-.52,.11-.78,.07-.22,.15-.43,.25-.63,.11-.18,.23-.34,.37-.5,.18-.17,.38-.33,.59-.46,.29-.16,.59-.28,.91-.38,.44-.11,.89-.17,1.35-.18,.67,0,1.34,.09,2,.25,.63,.17,1.25,.42,1.83,.73,.41,.25,.79,.52,1.14,.85,.22,.23,.42,.48,.6,.76,.13,.23,.23,.48,.31,.73,.05,.18,.24,.34,.41,.4,.18,.07,.39,.07,.57,0,.18-.08,.33-.23,.4-.41,.08-.2,.05-.38,0-.57-.38-1.23-1.35-2.22-2.42-2.89-1.23-.76-2.65-1.21-4.09-1.32-.2-.02-.41-.02-.61-.02-.46,0-.92,.04-1.38,.12m4.93,2.27s.05,.03,.07,.04c-.02-.01-.05-.03-.07-.04m1.31,.96s.03,.03,.04,.04c-.01-.01-.03-.03-.04-.04m-8.47,.34s-.01,.05-.02,.07c0-.02,.01-.05,.02-.07"/>
      <path class="cls-3" d="M35.48,98.09c-.18,.09-.32,.22-.4,.41-.08,.19-.07,.39,0,.57,.15,.36,.62,.58,.98,.4,.3-.16,.61-.28,.93-.39,.4-.1,.8-.15,1.21-.17,.64,0,1.26,.1,1.88,.25,.8,.22,1.58,.52,2.35,.84,.38,.16,.82-.04,.98-.42,.15-.38-.04-.82-.42-.98-1.18-.49-2.39-.92-3.65-1.12-.33-.05-.67-.08-1-.08-.99,0-1.98,.22-2.86,.68"/>
      <path class="cls-3" d="M37.44,97.08c-.18,0-.38,.15-.49,.29-.12,.16-.17,.36-.14,.56,.03,.19,.13,.37,.29,.49,.17,.13,.35,.15,.56,.15,.09,0,.18,0,.27-.01,.77,0,1.52,.11,2.27,.29,1.16,.32,2.25,.8,3.32,1.35,.36,.18,.83-.07,.98-.42,.07-.18,.07-.39,0-.57-.09-.2-.23-.31-.41-.4-1-.51-2.03-.97-3.1-1.29-.57-.17-1.15-.29-1.73-.37-.38-.05-.76-.07-1.14-.07-.22,0-.44,0-.66,.01m2.63,1.73s.08,.02,.12,.03c-.04-.01-.08-.02-.12-.03m.14,.04s.03,0,.05,.01c-.02,0-.03,0-.05-.01"/>
      <path class="cls-3" d="M87.46,91.3c-2.4,0-5.06,.35-8.13,1.08-3.58,.84-7.07,2.04-10.45,3.2l-2.01,.69c-4.04,1.37-8,2.66-12.08,3.3l-.11,.03c-1.52,.2-2.87,.3-4.13,.3-.86,0-1.69-.05-2.47-.14-.66-.08-1.33-.19-1.99-.31l-.31-.06-.85-.14c-1.43-.23-2.59-.4-3.64-.52-1.2-.14-2.27-.21-3.27-.21-1.37,0-2.63,.13-3.84,.38-1.12,.24-2.23,.65-3.29,1.23-1.03,.55-2.02,1.33-2.94,2.3-.9,.96-1.67,2.08-2.22,3.24-.51,1.08-.84,2.24-.98,3.44-.63,5.6,3.17,10.25,5.49,12.53,1.72,1.68,3.68,3.09,5.84,4.19,1.81,.92,3.86,1.72,6.08,2.37,3.88,1.13,8.12,1.71,12.62,1.71h.61c4.46-.06,9.09-.7,13.74-1.92,4.48-1.17,8.84-2.87,12.96-5.07,4.07-2.16,7.74-4.77,10.91-7.75,2.08-1.95,3.98-4.18,5.66-6.64,2.11-3.09,3.5-6.33,4.12-9.63,.08-.44-.16-.84-.57-.94-.05-.06-.09-.11-.14-.17-.03-.04-.06-.09-.1-.12-1.54-1.69-3.25-3.07-5.09-4.1-1.67-.93-3.54-1.59-5.55-1.96-1.23-.23-2.54-.34-3.9-.34"/>
      <path class="cls-2" d="M24.99,107.7c-.02,.12-.05,.24-.07,.36v-.05c-.05,.32-.11,.64-.15,.97l-.02,.14c-.03,.21-.05,.43-.07,.64-.31,5.33,3.31,9.73,5.54,11.93,1.73,1.69,3.69,3.09,5.84,4.18,1.82,.93,3.87,1.73,6.08,2.37,3.89,1.14,8.14,1.72,12.63,1.72h.61c4.45-.06,9.08-.71,13.75-1.93,4.49-1.17,8.85-2.87,12.96-5.07,4.06-2.15,7.73-4.76,10.92-7.75,1.91-1.8,3.66-3.82,5.24-6.04-1.62,1.4-3.31,2.71-5.06,3.94-4.28,3.02-8.89,5.56-13.77,7.46-4.86,1.9-9.96,3.21-15.15,3.8-2.62,.3-5.25,.44-7.89,.39-1.35-.03-2.71-.09-4.06-.21-1.17-.1-2.34-.23-3.51-.41-1.79-.28-3.57-.66-5.31-1.14-1.9-.52-3.78-1.16-5.58-1.95-1.79-.78-3.54-1.68-5.15-2.78-.78-.53-1.55-1.11-2.26-1.75-.68-.6-1.32-1.25-1.91-1.94-1.14-1.37-2.05-2.91-2.58-4.61-.28-.89-.47-1.8-.53-2.73-.02-.31-.04-.62-.05-.94-.18,.45-.33,.92-.45,1.4"/>
      <path class="cls-2" d="M24.92,108.06s0-.02,0-.03c-.06,.32-.12,.65-.16,.97,0,.04-.01,.08-.02,.13-.02,.2-.04,.4-.06,.6,.25,.3,.54,.57,.83,.83,.73,.65,1.57,1.17,2.43,1.62,1.73,.91,3.61,1.46,5.48,1.99,.14,.04,.3,0,.35-.15,.05-.13,0-.32-.15-.35-1.66-.48-3.3-1.06-4.82-1.9h0s-.02-.01-.03-.01h-.02s.02,0,.02,0c-.01,0-.02-.01-.03-.02h0c-.8-.47-1.55-1-2.21-1.62-.52-.52-.97-1.09-1.35-1.72-.09-.15-.17-.3-.25-.45l-.02,.13Z"/>
      <polyline class="cls-2" points="28.75 111.72 28.74 111.72 28.75 111.72"/>
      <path class="cls-2" d="M28.17,102.22c-.15,.15-.3,.3-.44,.46,.39,.41,.79,.81,1.2,1.19,.57,.52,1.18,.98,1.8,1.42,1.31,.91,2.73,1.65,4.23,2.19,.21,.07,.45-.02,.53-.23,.08-.2-.02-.46-.23-.53-.78-.28-1.52-.62-2.25-1.02-.92-.54-1.76-1.18-2.52-1.91,0,0,.01,0,.02,.01-.65-.65-1.25-1.36-1.77-2.12-.19,.18-.38,.37-.57,.55"/>
      <path class="cls-2" d="M101.69,16.99c-4.15,1.45-8.08,3.53-11.67,6.2-1.81,1.33-3.51,2.8-5.08,4.36-1.51,1.5-2.98,3.2-4.38,5.06-2.67,3.58-4.77,7.53-6.23,11.77-.76,2.2-1.35,4.55-1.8,7.17-.43,2.49-.65,4.99-.66,7.44,0,4.63,.8,9.08,2.4,13.24,.78,2.02,1.74,3.99,2.87,5.85,1.1,1.81,2.4,3.59,3.88,5.3,2.74,3.2,6.19,6.18,10.26,8.88,1.9,1.27,3.93,2.44,6.19,3.59,2.02,1.03,4.21,2,6.87,3.06l.51,.2c.86,.34,1.63,.65,2.42,.9,1.02,.33,2.06,.52,3.08,.58,.05,0,.09,0,.14,0,.09-.01,.18-.05,.28-.11,.16,0,.33-.01,.49-.02-2.1-1.64-4.17-3.33-6.17-5.09-3.22-2.83-6.27-5.86-8.94-9.23-1.63-2.06-3.12-4.24-4.42-6.52-1.33-2.34-2.48-4.77-3.46-7.28-.96-2.45-1.77-4.96-2.41-7.51-.66-2.61-1.15-5.27-1.44-7.96-.29-2.64-.4-5.31-.28-7.97,.12-2.65,.45-5.31,1.06-7.9,.59-2.52,1.41-5,2.51-7.35,1.08-2.29,2.39-4.46,3.95-6.45,1.55-1.98,3.31-3.79,5.27-5.36,1.97-1.58,4.12-2.95,6.4-4.03,1.39-.65,2.85-1.16,4.34-1.52,1.48-.36,2.99-.59,4.5-.78,1.5-.19,3.02-.33,4.52-.53,.25-.03,.51-.07,.76-.11-.91-.07-1.83-.11-2.76-.11-1.9,0-3.83,.14-5.74,.42-2.44,.37-4.88,.97-7.27,1.8"/>
      <path class="cls-2" d="M150.53,9.29c-.07,.32-.17,.64-.31,.94-.13,.3-.28,.58-.45,.86-.4,.66-.87,1.27-1.39,1.85-1.12,1.26-2.38,2.38-3.66,3.47-.61,.52-1.21,1.02-1.82,1.54-.4,.34-.79,.68-1.17,1.04,.04-.01,.08-.03,.12-.04,.46-.14,.94-.26,1.42-.29,.44-.03,.89-.02,1.32,.11,.2,.06,.4,.13,.58,.25,.1,.06,.19,.12,.28,.19,.06,.05,.11,.1,.17,.16,.16,.17,.31,.36,.42,.57,.06,.11,.12,.23,.15,.36,.03,.1,.06,.2,.07,.3,.03,.22,.04,.44,0,.66-.03,.18-.06,.36-.12,.54-.16,.5-.39,.98-.62,1.45-.21,.43-.41,.86-.54,1.31,0-.02,0-.04,.01-.06-.09,.35-.16,.7-.21,1.05-.04,.34-.07,.68-.07,1.03,0,0,0,0,0-.01,0,.31,.01,.63,.06,.93,.04,.31,.1,.62,.18,.93,.07,.25,.15,.49,.25,.73,.1,.25,.22,.49,.35,.73,.15,.26,.31,.51,.49,.74,.17,.22,.36,.43,.55,.63-.01-.01-.03-.03-.05-.05,.24,.24,.48,.46,.75,.67,.26,.2,.53,.38,.82,.56t0,0s0,0,0,0c0,0,0,0,0,0,.03,.02,.07,.04,.1,.06-.43-.4-.82-.82-1.14-1.26-.31-.46-.55-.92-.74-1.4-.14-.41-.23-.82-.28-1.25-.03-.42,0-.82,.05-1.2,.09-.48,.23-.92,.41-1.35,.24-.5,.51-.93,.79-1.29,.46-.53,1.01-.98,1.55-1.42,.63-.51,1.21-.98,1.68-1.55,.12-.14,.23-.28,.33-.43,.11-.16,.19-.35,.26-.53,.15-.34,.14-.69,.11-1.03-.04-.36-.25-.7-.47-1-.09-.12-.21-.24-.36-.36-.19-.17-.41-.33-.67-.5-.6-.37-1.3-.55-2.1-.53,.66-.46,1.26-.99,1.85-1.59,1.33-1.35,2.07-2.71,2.21-4.03,.11-1.09-.3-2.24-1.09-3.19,0,.24-.04,.48-.09,.72"/>
      <path class="cls-6" d="M134.68,22.81c-.6,.12-1.19,.27-1.77,.46-.61,.2-1.2,.47-1.77,.78-.49,.26-.97,.55-1.43,.85-.51,.34-.99,.73-1.45,1.13-1.79,1.59-3.27,3.51-4.4,5.62-.1,.18,0,.41,.18,.49,.2,.09,.4,0,.49-.18,.14-.25,.28-.5,.43-.75,0,0,0,0,0,.01,0,0,0,0,0-.01,0-.02,.02-.03,.03-.05,0,.01-.01,.02-.02,.03,.65-1.02,1.44-1.95,2.33-2.77-.02,.02-.04,.03-.06,.05,.78-.69,1.64-1.29,2.55-1.79h0c.63-.33,1.26-.64,1.93-.88,.59-.22,1.2-.4,1.81-.55,.45-.1,.9-.19,1.36-.25,.29-.04,.54-.16,.73-.39,.19-.23,.28-.52,.26-.82-.03-.28-.17-.55-.39-.74-.2-.17-.51-.3-.78-.26-.01,0-.02,0-.03,0m-.89,2.39c-.07,.02-.14,.03-.22,.05,.07-.02,.14-.03,.22-.05m-3.83,1.4s-.03,.02-.05,.03c.02,0,.03-.02,.05-.03m-5,4.61s0,0,0,0c0,0,0-.01,.01-.02,0,0,0,.01-.01,.02"/>
      <path class="cls-6" d="M170.13,27.96h-.02c-1.63,.25-3.24,.99-4.66,2.16-1.32,1.08-2.37,2.5-3.05,4.12-.57,1.36-.8,2.85-.66,4.3,.13,1.48,.77,3,1.79,4.26,.5,.61,1.13,1.2,1.88,1.75,.86,.63,1.85,1.1,2.94,1.38,1.28,.33,2.64,.41,3.93,.21,.81-.12,1.58-.34,2.31-.66,1.02,1.59,2.53,2.65,4.13,2.88,.33,.05,.7,.04,1.06,0,.07-.01,.15-.02,.22-.04,.45-.09,.89-.29,1.35-.6,.33-.23,.66-.58,.96-1.03,.31-.46,.55-1.01,.73-1.65,.23-.83,.31-1.74,.24-2.85-.06-.93-.24-1.9-.58-3.07-.62-2.15-1.6-4.23-2.9-6.17-.59-.88-1.23-1.67-1.91-2.33-.38-.37-.7-.65-1.02-.89-.44-.33-.93-.61-1.35-.83-1.62-.86-3.54-1.19-5.38-.92"/>
      <path class="cls-5" d="M169.75,30.61h-.03c-.98,.15-1.99,.7-3,1.64-.45,.41-.84,.91-1.12,1.45-.06,.12-.11,.23-.16,.34-.1,.16-.19,.33-.26,.51-.18,.42-.23,.82-.17,1.22,.07,.46,.26,.85,.55,1.1,.3,.27,.68,.37,1.13,.3,.31-.05,.66-.18,1.03-.4,.39-.23,.74-.52,1.04-.78,.3-.26,.64-.58,.98-.95,.65-.7,1.13-1.33,1.47-1.95,.23-.43,.55-1.24,.14-1.87-.37-.57-1.07-.69-1.6-.61"/>
      <path class="cls-6" d="M94.35,43.21c-.03-.43-.11-.9-.23-1.39-.18-.69-.51-1.41-1.04-2.26-.41-.65-.91-1.29-1.53-1.94-.71-.9-1.57-1.81-2.7-2.85-1.61-1.48-3.37-2.77-5.07-4.02-2.3-1.7-4.58-3.55-6.79-5.5-3.38-2.98-6.49-6.12-8.82-8.52l.05,.08c-.48-.52-.96-1.03-1.45-1.54-1.4-1.47-2.85-2.98-4.35-4.41-2.01-1.91-3.94-3.52-5.92-4.92-2.17-1.52-4.41-2.77-6.67-3.71-2.43-1.01-4.99-1.69-7.62-2.02-2.55-.32-5.11-.24-7.62,.21-2.42,.45-4.76,1.27-6.95,2.45-4.45,2.4-8.23,6.28-10.65,10.94-1.13,2.18-1.87,4.55-2.22,7.02-.2,1.4-.25,2.85-.15,4.33,.06,.88,.17,1.78,.33,2.67,.8,4.41,2.91,8.85,6.11,12.85,1.49,1.87,3.24,3.64,5.2,5.28,1.87,1.56,3.98,2.98,6.46,4.34,4.59,2.53,9.87,4.4,15.72,5.55,2.67,.52,5.44,.87,8.24,1.03,2.48,.14,5.02,.09,7.4,.02,4.03-.11,9.33-.39,14.56-1.58,5.52-1.25,9.67-3.21,12.69-6,1.77-1.64,2.76-3.3,3-5.05,.05-.35,.06-.7,.04-1.08"/>
      <path class="cls-6" d="M94.18,42.07c-.08-.67-.28-1.32-.54-1.94-.55-1.3-1.43-2.44-2.4-3.46-1.93-2.02-4.29-3.57-6.66-5.02-.16-.09-.41-.08-.57-.02-.19,.07-.34,.21-.42,.39-.08,.18-.09,.39-.02,.57,.08,.21,.21,.31,.39,.42,.11,.07,.21,.13,.32,.19,0,0,0,0-.02-.01,2.14,1.33,4.25,2.78,6.01,4.61,.66,.72,1.26,1.49,1.73,2.35,.26,.52,.47,1.06,.61,1.63,.09,.47,.13,.94,.12,1.42-.01,.17-.03,.35-.06,.52-.06,.4,.2,.8,.61,.86,.4,.07,.81-.2,.87-.61,.07-.5,.1-1,.06-1.51,0-.14-.02-.27-.04-.41m-3.92-4.27s-.07-.07-.1-.11c.03,.03,.07,.07,.1,.11"/>
      <path class="cls-6" d="M94.06,42.65c-.05-.44-.18-.86-.34-1.27-.15-.38-.56-.6-.95-.46-.38,.13-.61,.57-.47,.95,.1,.25,.18,.5,.24,.76,.04,.25,.06,.5,.05,.76,0,.03,0,.06,0,.08-.02,.21,0,.39,.11,.57,.11,.16,.28,.27,.47,.31,.2,.04,.41,0,.57-.11,.15-.1,.29-.29,.31-.47,.03-.31,.04-.61,.02-.91,0-.07-.01-.14-.02-.21"/>
      <path class="cls-6" d="M93.79,41.07c-.14-.39-.56-.6-.95-.46-.38,.13-.6,.57-.46,.95,.1,.3,.19,.59,.26,.89,.06,.33,.09,.67,.1,1.01,.01,.41,.4,.73,.8,.7,.42-.03,.71-.39,.7-.8,0-.09,0-.17-.01-.26-.05-.7-.19-1.38-.43-2.04"/>
      <path class="cls-6" d="M93.88,41.11c-.15-.38-.55-.6-.95-.46-.37,.13-.62,.58-.46,.95,.08,.2,.14,.39,.19,.6,.04,.29,.06,.58,.04,.88-.01,.19,.12,.4,.25,.52,.15,.13,.35,.2,.54,.18,.2-.01,.38-.1,.52-.25,.14-.16,.17-.34,.18-.55,0-.17,0-.34,0-.51-.03-.47-.14-.93-.31-1.36"/>
      <path class="cls-6" d="M93.98,41.14c-.14-.38-.57-.6-.96-.46-.38,.13-.6,.57-.46,.95,.07,.19,.13,.38,.17,.57,.06,.37,.09,.73,.08,1.11,0,.41,.41,.72,.8,.7,.2-.01,.38-.1,.51-.25,.14-.16,.18-.34,.18-.54,0-.18,0-.35-.01-.52-.03-.53-.14-1.05-.32-1.55"/>
      <path class="cls-6" d="M93.98,41.19c-.15-.38-.56-.6-.95-.46-.38,.13-.61,.57-.46,.95,.07,.2,.14,.4,.19,.61,.04,.27,.06,.55,.06,.83,0,.41,.41,.72,.8,.7,.19-.01,.38-.11,.51-.26,.14-.16,.19-.34,.19-.54,0-.13,0-.25-.01-.38-.03-.5-.14-.98-.31-1.45"/>
      <path class="cls-6" d="M94.13,41.58c-.13-.39-.58-.59-.96-.46-.39,.14-.59,.57-.46,.95,.04,.12,.07,.23,.1,.35,.04,.26,.05,.52,.04,.78,0,.19,.12,.4,.25,.52,.15,.13,.34,.2,.54,.18,.19-.01,.38-.1,.51-.25,.14-.16,.18-.34,.19-.55,0-.15,0-.29,0-.43-.02-.37-.1-.73-.21-1.09"/>
      <path class="cls-4" d="M94.14,41.57s-.02-.06-.04-.1l-.04-.15c-.1-.39-.23-.8-.41-1.21-.49-1.16-1.27-2.29-2.4-3.47-1.15-1.2-2.52-2.32-4.29-3.51-1.06-.85-2.17-1.67-3.14-2.39-2.33-1.72-4.62-3.58-6.83-5.52-3.43-3.02-6.51-6.14-8.82-8.52l.02,.08c-.46-.53-.94-1.03-1.42-1.54l-.19-.2c-1.33-1.4-2.72-2.84-4.16-4.21-2-1.9-3.93-3.51-5.92-4.92-2.16-1.52-4.41-2.77-6.68-3.71-2.43-1.01-4.99-1.69-7.62-2.02-2.55-.31-5.12-.24-7.62,.21-2.44,.45-4.78,1.28-6.96,2.45-4.46,2.4-8.24,6.28-10.66,10.95-1.11,2.14-1.85,4.46-2.21,6.9,.45-1.31,.98-2.6,1.59-3.85,.46-.93,.96-1.85,1.52-2.72,.61-.94,1.29-1.84,2.02-2.7,.8-.96,1.66-1.87,2.6-2.69,.89-.77,1.84-1.49,2.87-2.09,1.01-.59,2.09-1.09,3.21-1.44,1.15-.37,2.35-.6,3.56-.69,1.32-.09,2.66-.03,3.97,.15,1.29,.17,2.56,.43,3.81,.79,5.14,1.49,9.77,4.38,13.88,7.75,1.04,.85,2.05,1.73,3.04,2.64,.5,.47,1,.93,1.49,1.41,.47,.46,.93,.92,1.4,1.39,2.06,2.02,4.18,3.99,6.43,5.81h0s0,0,0,0c0,0,0,0,0,0,0,0,0,0,0,0,0,0,0,0,.01,0,0,0,0,0-.01,0,2.11,1.7,4.31,3.28,6.63,4.66,.67,.4,1.34,.78,2.03,1.14,.64,.34,1.3,.66,1.95,.97,1.36,.65,2.75,1.25,4.13,1.88,1.38,.62,2.74,1.27,4.07,1.99,1.12,.62,2.23,1.29,3.29,2.03,.98,.68,1.93,1.42,2.78,2.26,.44,.43,.86,.88,1.24,1.36,.33,.41,.64,.85,.9,1.3,.49,.86,.88,1.8,1.05,2.78,.04-.18,.08-.36,.1-.55,.05-.36,.06-.71,.03-1.09v-.12c0-.14,0-.27-.01-.41-.02-.36-.09-.72-.22-1.1"/>
      <path class="cls-6" d="M133.61,36.93c-.88,.36-1.64,.91-2.27,1.61-.65,.71-1.16,1.55-1.56,2.43-.74,1.61-1.14,3.32-1.37,5.08-.17,1.29-.25,2.58-.21,3.88,.02,.75,.1,1.5,.2,2.24,.1,.7,.23,1.41,.48,2.07,.05,.19,.15,.36,.29,.5,.21,.21,.5,.33,.8,.33,.59,0,1.16-.51,1.12-1.12-.04-.84-.19-1.68-.31-2.51-.12-.95-.22-1.89-.25-2.85-.03-.88,.02-1.75,.12-2.62,.21-1.5,.56-2.99,1.13-4.39,.29-.64,.62-1.26,1.04-1.82,.25-.3,.51-.58,.81-.82,.26-.19,.53-.35,.82-.48,.29-.11,.58-.18,.88-.24,.4-.04,.79-.04,1.19,0,.57,.09,1.12,.24,1.66,.44,.49,.22,.95,.49,1.38,.81,.57,.47,1.08,.99,1.54,1.58,.83,1.11,1.47,2.35,2.02,3.62l-.05-.1c.61,1.46,1.08,2.97,1.45,4.51,.05,.21,.28,.33,.49,.27,.21-.06,.32-.27,.27-.48-.5-2.05-1.1-4.08-1.96-6.01-.45-1-.98-1.97-1.63-2.86-.3-.41-.62-.8-.97-1.17-.37-.39-.8-.74-1.24-1.04-.42-.3-.88-.51-1.35-.71-.53-.22-1.08-.37-1.65-.45-.3-.04-.6-.06-.9-.06-.67,0-1.33,.11-1.97,.36m2.81,1.27s.04,0,.06,0c-.02,0-.04,0-.06,0m3.03,1.19s.02,.02,.04,.03c-.01,0-.02-.02-.04-.03"/>
      <path class="cls-3" d="M156.53,89.61c-6.65,2.43-13.37,4.7-20.29,6.21h.02s-.05,0-.07,.01c-.04,0-.08,.02-.12,.03h.04c-3.63,.76-7.3,1.31-11.01,1.52-.41,.02-.72,.41-.69,.81,.03,.41,.39,.71,.8,.69,5.48-.31,10.88-1.36,16.18-2.77,5.3-1.41,10.5-3.2,15.65-5.09,.39-.14,.59-.57,.45-.96-.11-.3-.41-.49-.71-.49-.08,0-.17,.02-.25,.05m-20.43,6.24s.06-.01,.09-.02c.02,0,.04,0,.06-.01-.05,0-.09,.02-.14,.03"/>
      <path class="cls-3" d="M153.01,90.92c-2.34,.65-4.67,1.35-7.05,1.87h.03c-.12,.02-.25,.05-.37,.07-.2,.04-.37,.1-.51,.26-.13,.15-.19,.35-.18,.55,.02,.19,.11,.38,.26,.51,.14,.11,.36,.22,.55,.18,2.63-.54,5.2-1.31,7.79-2.03,.39-.11,.58-.6,.45-.96-.07-.18-.2-.33-.38-.42-.1-.05-.21-.07-.31-.07-.09,0-.18,.02-.27,.04"/>
      <path class="cls-3" d="M155.75,89.75c-3.88,1.57-7.87,2.9-11.96,3.79-.18,.04-.34,.22-.42,.38-.09,.18-.1,.39-.03,.58,.07,.18,.2,.34,.38,.42,.2,.09,.37,.07,.58,.03,4.09-.9,8.08-2.22,11.96-3.8,.38-.15,.59-.57,.45-.96-.1-.29-.4-.5-.71-.5-.08,0-.17,.01-.25,.05"/>
      <path class="cls-3" d="M155.89,89.91c-3.1,1.29-6.31,2.33-9.59,3.05-.55,.12-1.1,.23-1.65,.33-.2,.03-.37,.09-.51,.26-.12,.15-.19,.35-.18,.55,.02,.19,.11,.38,.26,.51,.14,.12,.36,.21,.54,.18,4-.73,7.89-1.9,11.63-3.46,.37-.16,.59-.56,.45-.96-.11-.29-.4-.5-.71-.5-.08,0-.17,.02-.25,.05"/>
      <path class="cls-1" d="M143.16,71.43c-.12,.07-.2,.18-.23,.31-.03,.13,0,.25,.05,.38,.81,1.69,1.9,3.23,3.16,4.61,.65,.72,1.37,1.37,2.13,1.96,.72,.55,1.48,1.03,2.31,1.4,.21,.09,.43,.08,.6-.09,.09-.09,.14-.22,.14-.35,0-.15-.06-.25-.15-.35-.23-.27-.47-.54-.71-.81,.19,.01,.39-.1,.48-.26,.07-.11,.08-.25,.05-.38-.04-.14-.12-.23-.24-.31-.62-.43-1.24-.85-1.84-1.3l.1,.08c-1.72-1.28-3.34-2.68-4.72-4.32-.08-.1-.21-.14-.33-.14-.04-.08-.08-.16-.12-.24-.08-.16-.26-.25-.43-.25-.09,0-.18,.02-.25,.07"/>
      <path class="cls-6" d="M142.48,69.3c-.09,0-.19,.03-.27,.07-.21,.11-.33,.31-.31,.49,.16,1.48,.7,2.97,1.64,4.56,.41,.7,.91,1.4,1.53,2.14,.61,.73,1.28,1.4,1.98,1.99,1.46,1.22,3,2.06,4.59,2.48,.65,.17,1.34,.26,2.03,.26,.12,0,.24,0,.36,0,.44-.02,.87-.11,1.2-.18,.19-.04,.39-.1,.58-.16,.28-.09,.54-.23,.83-.38,.1-.06,.18-.16,.21-.29,.04-.14,.01-.3-.06-.41-.1-.15-.24-.23-.42-.23-.09,0-.18,.02-.26,.06-1.06-.47-2.09-.99-3.3-1.68-.99-.56-2-1.21-3-1.92h0c-2.46-1.77-4.65-3.81-6.5-6.06,0,0-.04-.04-.05-.04h0s-.03-.03-.03-.03l-.25-.35c-.15-.19-.24-.27-.38-.31-.04,0-.08-.01-.12-.01m3.35,6.6s0,0,0,0l-.02-.03c-.84-1.03-1.52-2.09-2.03-3.16-.16-.36-.31-.73-.44-1.1,.48,.58,1.01,1.15,1.56,1.69,1,.99,2.1,1.95,3.29,2.86,.4,.31,.8,.6,1.22,.9,0,.07,.03,.13,.06,.18l.25,.4c.4,.64,.81,1.3,1.14,2l.05,.1c-.78-.32-1.56-.75-2.33-1.28-.97-.7-1.89-1.56-2.73-2.54"/>
      <path class="cls-6" d="M149.44,75.95c-.14,0-.27,.06-.36,.16-.09,.1-.14,.22-.14,.36,0,.14,.07,.25,.16,.35,.06,.07,.12,.14,.18,.21,0-.01-.02-.02-.03-.03,.23,.29,.43,.59,.62,.9,.14,.23,.46,.31,.69,.17,.23-.14,.3-.46,.17-.69-.28-.46-.59-.89-.94-1.29-.08-.09-.22-.13-.34-.13h-.01Z"/>
      <path class="cls-7" d="M140.95,64.51c-.25,.04-.5,.1-.75,.17-.25,.08-.49,.19-.73,.31-.31,.15-.55,.31-.78,.46-.94,.65-1.63,1.4-2.06,2.23-.04,.07-.04,.15-.02,.22,.02,.07,.07,.13,.14,.17,.06,.03,.12,.04,.18,.03,.09-.01,.17-.07,.21-.15,.07-.14,.15-.27,.24-.41,.16-.21,.34-.41,.59-.63,.27-.21,.57-.4,.89-.55,.3-.12,.6-.21,.92-.28-.02,.07,0,.15,.02,.21,.46,1.26,1.25,2.33,2.08,3.41,.77,1,1.52,1.87,2.29,2.68,1.58,1.65,3.45,3.18,5.7,4.67,2.13,1.41,4.32,2.45,6.5,3.11,1.54,.47,3.13,.72,4.73,.76,.85-.03,1.67-.09,2.44-.19,0,0,.04-.12,.04-.12-.97,.03-2.01-.03-3.07-.2-.95-.15-1.85-.37-2.7-.65-.51-.14-1.02-.3-1.51-.49-2.12-.81-4.15-1.91-6.04-3.26-2.14-1.56-4.17-3.5-6.03-5.77-.42-.54-.83-1.08-1.24-1.64-.4-.56-.86-1.21-1.21-1.93-.1-.24-.19-.48-.27-.72,.16,.05,.25,.05,.34,.03,.1-.01,.18-.05,.27-.1,.18-.11,.31-.29,.35-.49,.04-.2,.01-.41-.1-.58-.14-.24-.39-.37-.7-.38-.25,0-.5,.02-.75,.05"/>
    </g>
  </g>
</svg>