<?xml version="1.0" encoding="UTF-8"?>
<svg id="Layer_2" data-name="Layer 2" xmlns="http://www.w3.org/2000/svg" viewBox="0 0 184.21 197.47">
  <defs>
    <style>
      .cls-1 {
        fill: #fefefe;
      }

      .cls-2 {
        fill: #8e3f59;
      }

      .cls-3 {
        fill: #ad4d6c;
      }

      .cls-4 {
        fill: #3e164a;
      }

      .cls-5 {
        fill: #64446c;
      }

      .cls-6 {
        fill: #350b40;
      }

      .cls-7 {
        fill: #7a364d;
      }
    </style>
  </defs>
  <g id="OBJECTS">
    <g>
      <path class="cls-6" d="M3.8,114.44c-.22-.02-.44-.03-.66-.03-.35,0-.7,.04-1.02,.11-.37,.08-.71,.23-1.03,.44-.49,.32-.85,.85-1.01,1.48-.13,.52-.09,1.11,.11,1.69,.17,.51,.48,1.05,.95,1.64,.42,.52,.96,1.06,1.64,1.64,.95,.82,2.07,1.61,3.63,2.57,1.29,.79,2.68,1.56,4.24,2.34,.61,.31,1.24,.6,1.86,.9-.01,0-.02,0-.04,0-.18-.02-.36-.01-.54,0-.57,.03-1.02,.1-1.41,.22-.23,.07-.46,.14-.68,.24-.16,.08-.32,.18-.47,.27l-.12,.08c-.35,.23-.59,.54-.73,.77-.18,.3-.29,.59-.33,.89-.03,.2-.06,.39-.05,.59,0,.22,.05,.44,.09,.65,.06,.3,.16,.59,.34,.94,.22,.45,.46,.86,.75,1.25,.57,.79,1.33,1.58,2.32,2.43,1.63,1.4,3.7,2.67,6.15,3.78,2.67,1.2,5.74,2.2,9.39,3.04,1.52,.35,3.07,.65,4.61,.91-.52,.15-.94,.37-1.26,.64-.48,.4-.74,.99-.68,1.56,.05,.53,.3,1.07,.74,1.61,.4,.5,.92,.99,1.58,1.5,.62,.47,1.35,.94,2.16,1.39,.71,.39,1.49,.75,2.33,1.08,.4,.15,.81,.3,1.22,.42,.51,.16,1.03,.27,1.57,.39,1.56,.34,3.19,.6,4.83,.75,1.72,.16,3.5,.21,5.26,.16,3.43-.11,6.72-.66,9.78-1.66,.19-.06,.32-.18,.34-.33,.03,0,.07,.01,.1,.01,.08,0,.14,0,.2,0,.25-.03,.58-.15,.73-.35,.42-.61,.75-1.17,1-1.72,.31-.68,.51-1.38,.65-1.91,.3-1.2,.4-2.52,.3-4.02-.09-1.28-.4-2.62-.94-3.98-.49-1.23-1.18-2.36-2.07-3.38-.03-.09-.07-.16-.12-.23-.16-.24-.42-.41-.79-.52-.34-.1-.69-.17-1.04-.24l-.24-.05-.65-.14-.65-.14c-.86-.18-1.72-.37-2.58-.57-1.71-.39-3.46-.83-5.21-1.31-3.09-.84-6.31-1.86-9.57-3.03-6.09-2.2-11.81-4.7-16.61-6.86-1.4-.63-2.78-1.27-4.17-1.92l-.91-.42c-.79-.36-1.59-.72-2.37-1.11-.62-.31-1.23-.63-1.85-.96-.74-.39-1.47-.77-2.22-1.14-1.59-.78-3.32-1.57-5.17-2.06-.59-.16-1.16-.27-1.68-.31"/>
      <path class="cls-2" d="M119.43,136.72c-.2,0-.38,.07-.51,.2-4.6,1.55-9.46,3.37-13.86,6.08-2.19,1.35-4.22,2.93-6.04,4.68-1.82,1.75-3.45,3.73-4.86,5.9-1.31,2.01-2.37,4.16-3.16,6.41-.79,2.26-1.23,4.54-1.3,6.79-.07,2.3,.32,4.59,1.13,6.62,.87,2.21,2.26,4.21,4.11,5.95,1.28,1.2,2.85,2.29,4.79,3.31,1.84,.97,3.88,1.78,6.06,2.42,2.14,.63,4.38,1.06,6.66,1.26,.81,.07,1.63,.11,2.44,.11,1.39,0,2.78-.11,4.12-.33,2.11-.34,4.05-1.01,5.75-1.99,2.04-1.18,3.72-2.94,4.75-4.96,.26-.52,.49-1.09,.68-1.7,.17-.55,.29-1.15,.39-1.94,.14-1.19,.03-2.5-.33-3.79-.35-1.23-.93-2.31-1.73-3.2-.64-.71-1.51-1.29-2.66-1.77-1.02-.42-2.11-.6-3.04-.72-.45-.06-.89-.1-1.34-.14,.74-.75,1.5-1.62,2.33-2.64,.72-.89,1.37-1.81,1.94-2.76,.52-.88,1-1.84,1.45-2.94,1.64-4.01,1.85-8.26,.59-11.97-.61-1.8-1.58-3.47-2.9-4.98-1.31-1.5-3.01-2.78-5.05-3.82-.12-.06-.26-.09-.39-.09"/>
      <path class="cls-3" d="M113.76,82.94c-1.16,0-2.37,.09-3.67,.26-3.07,.41-6.01,1.29-8.49,2.1-1.26,.41-2.52,.86-3.77,1.3l-.28,.1-1.05,.37c-.9,.32-1.8,.63-2.7,.96-4.96,1.82-9.8,4.08-14.39,6.73-4.97,2.87-9.36,6.07-13.05,9.51-4.2,3.92-7.58,8.38-10.04,13.24-1.25,2.48-2.22,5.02-2.86,7.56-.63,2.45-.96,4.97-1,7.48-.04,2.38,.22,4.85,.75,7.33,.5,2.3,1.31,4.69,2.39,7.08,2.03,4.51,5.12,8.93,9.18,13.15,.54,.57,1.09,1.12,1.66,1.66-.55,.42-1.1,.84-1.68,1.25h0c-1.62,1.1-3.29,2.06-4.91,2.99-3.22,1.85-6.54,3.76-9.14,6.55-1.62,1.74-2.73,3.59-3.3,5.5-.52,1.75-.56,3.64-.11,5.45,.41,1.67,1.28,3.34,2.57,4.96,1.17,1.46,2.72,2.84,4.62,4.1,1.79,1.18,3.86,2.19,6.14,2.99,1.98,.69,4.14,1.19,6.61,1.52,1.95,.26,3.89,.4,5.76,.4,2.43,0,4.5-.21,6.42-.64,1.01-.23,2-.55,2.96-.95,.88-.37,1.75-.87,2.58-1.47,.75-.55,1.43-1.24,2.04-2.07,.72-.97,1.21-2.07,1.44-3.19,.22-1.1,.17-2.23-.14-3.25-.31-.98-.86-1.9-1.63-2.72-1.05-1.13-2.5-2-4.18-2.51,1.9-.68,3.72-1.55,5.41-2.57,3.9-2.36,7.11-5.55,9.26-9.23,1.91-3.27,3.02-7.05,3.21-10.95,2.37-1.02,4.5-2.1,6.5-3.28,2.36-1.39,4.61-2.98,6.69-4.74,1.97-1.66,3.78-3.47,5.39-5.4,1.37-1.65,2.67-3.5,3.86-5.51,2.25-3.81,4.05-8.14,5.34-12.87,1.23-4.51,1.95-9.27,2.12-14.14,.16-4.36-.14-8.71-.9-12.95-.75-4.2-1.98-8.17-3.64-11.81-.11-.25-.38-.4-.68-.4-.07,0-.12,0-.17,.01-.74-.72-1.59-1.35-2.53-1.87-1.09-.6-2.34-1.09-3.73-1.45-1.48-.39-3.11-.59-4.83-.59"/>
      <path class="cls-2" d="M52.42,132.54c-.04,2.37,.21,4.84,.75,7.34,.5,2.31,1.31,4.69,2.39,7.08,2.03,4.5,5.12,8.93,9.18,13.16,.54,.57,1.09,1.12,1.66,1.66-.54,.39-1.1,.81-1.67,1.22-1.62,1.1-3.31,2.07-4.8,2.93l-.1,.06c-3.21,1.84-6.53,3.74-9.15,6.55-1.62,1.75-2.73,3.6-3.3,5.51-.52,1.75-.56,3.64-.11,5.47,.41,1.67,1.28,3.34,2.57,4.97,1.18,1.46,2.73,2.84,4.62,4.09,1.79,1.19,3.85,2.2,6.14,2.99,1.96,.69,4.12,1.2,6.61,1.54,.63,.08,1.25,.15,1.86,.21-.33-.1-.66-.21-1-.32-1.45-.48-2.87-1.04-4.27-1.66-1.23-.54-2.44-1.12-3.6-1.8-1.07-.63-2.1-1.32-3.05-2.11-.85-.71-1.66-1.48-2.37-2.34-.64-.79-1.23-1.65-1.66-2.58-.41-.88-.73-1.82-.88-2.79-.15-.98-.16-1.98,0-2.95,.17-1.07,.49-2.11,.96-3.09,.54-1.13,1.22-2.2,2-3.18,.85-1.05,1.78-2.03,2.81-2.91,1.01-.87,2.08-1.66,3.19-2.42,1.11-.75,2.23-1.47,3.35-2.21,1.1-.73,2.21-1.46,3.26-2.26,1.03-.79,2.01-1.63,2.9-2.57-2.48-1.74-4.77-3.74-6.81-5.97-1.98-2.17-3.76-4.54-5.29-7.05-2.58-4.26-4.52-8.93-5.48-13.83-.31-1.6-.53-3.22-.62-4.85-.06,.71-.09,1.42-.1,2.12"/>
      <path class="cls-7" d="M91.69,136.47c-.1,.11-.11,.33,.03,.42,1.18,.8,2.25,1.73,3.2,2.78-.02-.02-.04-.04-.06-.07,1.09,1.22,2.03,2.6,2.77,4.05-.02-.03-.03-.07-.05-.1,.74,1.46,1.28,3,1.63,4.59-.01-.05-.02-.1-.03-.16,.51,2.33,.64,4.74,.55,7.11,0-.06,0-.11,0-.17-.12,2.71-.6,5.43-1.41,8.01-.77,2.34-1.83,4.57-3.15,6.65-1.3,1.99-2.83,3.82-4.59,5.42,0,0,.01-.01,.02-.02-.78,.69-1.59,1.34-2.44,1.93-.81,.57-1.66,1.06-2.54,1.51-1.9,.95-3.92,1.66-6,2.13,.05-.01,.11-.03,.16-.04-.9,.2-1.81,.36-2.73,.47-.98,.11-1.96,.14-2.94,.11,.05,0,.09,0,.14,0-1.25-.05-2.48-.21-3.7-.49-.32-.07-.64,.18-.69,.49-.06,.32,.16,.65,.48,.7,3.04,.45,6.14,.55,9.19,.1,1.54-.23,3.06-.62,4.52-1.12,1.22-.42,2.39-.94,3.52-1.56,2.19-1.2,4.18-2.75,5.93-4.53,1.77-1.8,3.25-3.86,4.48-6.06,1.22-2.19,2.14-4.56,2.76-6.99,.61-2.35,.84-4.79,.78-7.22-.05-2.37-.48-4.73-1.23-6.98-.74-2.2-1.76-4.32-3.11-6.2-.65-.91-1.41-1.75-2.21-2.52-.88-.85-1.84-1.62-2.86-2.3-.06-.04-.13-.07-.21-.07-.08,0-.15,.03-.21,.1m3.52,33.05s-.03,.05-.05,.07c.02-.02,.03-.05,.05-.07m-.06,.1s-.05,.08-.08,.12c.03-.04,.05-.08,.08-.12"/>
      <path class="cls-3" d="M92.35,84.63c-1.36,0-2.79,.09-4.26,.26-3.29,.39-6.68,1.25-10.1,2.57-3.21,1.24-6.33,2.89-9.28,4.91-2.84,1.94-5.4,4.2-7.6,6.71-2.19,2.49-3.89,5.18-5.07,7.99-1.2,2.86-1.77,5.87-1.66,8.72,.06,1.55,.29,3.07,.71,4.51,.45,1.55,1.09,3.06,1.89,4.49,1.8,3.16,4.44,6.08,7.85,8.68,1.91,1.46,4.1,2.77,6.51,3.91,2.31,1.1,4.8,1.95,7.39,2.53,1.97,.44,3.98,.66,5.97,.66,.55,0,1.1-.02,1.66-.05,2.53-.15,4.98-.76,7.09-1.76,.95-.44,1.92-1.03,2.98-1.8,.92-.67,1.83-1.48,2.7-2.39,1.8-1.89,3.12-3.96,3.92-6.14,.85-2.3,.99-4.75,.4-6.88-.29-1.04-.75-2.02-1.41-3.02-.5-.76-1.16-1.48-2-2.2-.68-.59-1.48-1.11-2.52-1.65-.84-.44-1.76-.8-2.82-1.1-.99-.28-2.04-.49-3.11-.61-.65-.07-1.32-.11-2.05-.11-.37,0-.74,.01-1.11,.03-1.48,.07-2.92,.31-4.26,.72,.17-.57,.39-1.12,.68-1.68,.41-.76,.95-1.5,1.6-2.2,.96-1,2.13-1.91,3.67-2.88l-.04,.02c1.89-1.16,3.92-2.14,5.88-3.09,.8-.39,1.6-.77,2.39-1.17,1.6-.81,2.88-1.53,4.01-2.27,1.27-.83,2.31-1.72,3.18-2.7,.9-1.03,1.56-2.22,1.88-3.46,.34-1.29,.37-2.7,.09-4.18,.14-.19,.19-.4,.15-.62-.04-.2-.14-.37-.3-.47-1.39-.92-2.89-1.7-4.44-2.33-1.45-.58-3.06-1.05-4.79-1.4-1.84-.36-3.79-.55-5.78-.55"/>
      <path class="cls-2" d="M56.01,107.07c-1.2,2.86-1.77,5.88-1.67,8.73,.06,1.55,.3,3.07,.72,4.52,.44,1.54,1.07,3.05,1.89,4.49,1.79,3.16,4.43,6.08,7.86,8.68,1.93,1.47,4.12,2.78,6.51,3.91,2.32,1.1,4.8,1.95,7.39,2.53,1.98,.45,4,.67,5.98,.67,.55,0,1.11-.02,1.66-.05,2.53-.16,4.99-.77,7.1-1.77,.95-.45,1.93-1.03,2.98-1.8,.93-.68,1.84-1.48,2.7-2.39,1.8-1.9,3.12-3.97,3.93-6.14,.42-1.12,.66-2.28,.74-3.41h0c0-.44,0-.87-.02-1.31v.07c-.02-.4-.05-.79-.09-1.19-.06-.36-.13-.71-.23-1.05-.03-.12-.07-.24-.1-.36,0,.62-.03,1.25-.12,1.87-.13,.9-.33,1.78-.65,2.63-.31,.82-.68,1.61-1.14,2.35-.37,.59-.78,1.14-1.23,1.67-1.31,1.56-2.89,2.9-4.66,3.92-1.74,1-3.63,1.72-5.59,2.15-2,.44-4.05,.62-6.1,.57-2.09-.06-4.17-.34-6.19-.84-2.02-.49-3.99-1.17-5.87-2.05-1.82-.85-3.57-1.88-5.17-3.11-.89-.68-1.73-1.43-2.52-2.22-.88-.88-1.7-1.8-2.45-2.79-1.41-1.86-2.56-3.92-3.35-6.12-.75-2.09-1.19-4.29-1.27-6.51-.08-2.22,.17-4.45,.74-6.6,.58-2.16,1.45-4.24,2.57-6.18-1.84,2.25-3.3,4.65-4.34,7.14"/>
      <path class="cls-2" d="M95.07,111.51c-.83,.11-1.65,.5-2.39,1.1-.96-.14-2.02-.21-3.13-.21-.18,0-.37,0-.55,0-2.49,.04-5.02,.44-7.52,1.17-2.63,.76-4.98,1.79-6.99,3.05-.05,.03-.09,.09-.1,.16-.02,.07,0,.14,.03,.21,.05,.07,.13,.11,.21,.11,.05,0,.1-.02,.15-.04,.47-.29,.96-.57,1.45-.82,1.4-.69,2.99-1.23,4.8-1.63,2.32-.48,4.63-.72,6.94-.72,.6,0,1.19,.02,1.78,.05,2.44,.15,4.36,.48,6.06,1.03,1.11,.38,2.06,.82,2.89,1.36,.68,.47,1.23,.94,1.7,1.46,.18,.22,.35,.45,.53,.69,.1,.14,.26,.22,.43,.22,.1,0,.2-.03,.28-.09,.11-.07,.19-.2,.22-.34,.01-.07,.01-.14,0-.2-.05-.09-.1-.18-.16-.27,0-.01-.01-.02-.02-.03-.16-.22-.33-.44-.51-.65,.08-.07,.14-.19,.16-.3,.08-.5,.04-1.02-.14-1.65-.07-.25-.19-.49-.3-.71-.11-.22-.25-.44-.43-.68-.59-.79-1.45-1.43-2.48-1.86-.72-.3-1.49-.45-2.23-.45-.23,0-.47,.01-.7,.04"/>
      <path class="cls-2" d="M97.92,117.44c-.98,.09-1.94,.3-2.9,.5-1.02,.22-2.04,.46-3.07,.63-.17,.03-.3,.18-.27,.35,.02,.17,.18,.3,.35,.27,2.08-.33,4.17-.52,6.28-.52,1.34,.02,2.67,.16,3.96,.51,.09,.03,.19,.06,.28,.09-.07-.15-.15-.3-.23-.44-.2-.36-.41-.72-.61-1.08-.07-.11-.13-.21-.2-.32-.16-.02-.31-.03-.47-.05-.36-.04-.73-.05-1.1-.05-.67,0-1.34,.05-2.01,.11"/>
      <path class="cls-2" d="M99.63,122.88c-1.86,.43-3.64,1.19-5.43,1.87-.25,.1-.38,.41-.28,.66,.11,.26,.4,.37,.66,.27,.79-.31,1.6-.57,2.42-.79-.03,.01-.06,.02-.09,.03,1.67-.43,3.39-.7,5.11-.7,.6,.01,1.19,.06,1.78,.14,0-.21,0-.43-.02-.64v.07c-.02-.42-.05-.84-.1-1.25-.3-.02-.61-.03-.91-.03-1.06,0-2.11,.14-3.14,.38m2.29,1.33s.07,0,.1,0c-.03,0-.06,0-.1,0"/>
      <path class="cls-2" d="M98.75,101.92c-1.43,.74-2.9,1.4-4.36,2.08-1.43,.67-2.86,1.36-4.24,2.15-1.35,.78-2.62,1.7-3.75,2.78-.56,.54-1.06,1.13-1.52,1.75-.52,.7-.98,1.44-1.31,2.24-.05,.13-.08,.25-.04,.39,.04,.13,.13,.24,.25,.31,.12,.06,.26,.08,.4,.03,.14-.04,.23-.13,.3-.25,.37-.59,.75-1.19,1.15-1.76,.47-.64,.97-1.24,1.52-1.81,.55-.58,1.15-1.12,1.77-1.63-.03,.03-.07,.06-.11,.09,1.52-1.23,3.17-2.27,4.88-3.2,1.75-.95,3.54-1.82,5.31-2.75,.12-.06,.15-.23,.08-.34-.05-.08-.12-.11-.21-.11-.05,0-.09,.01-.14,.04"/>
      <path class="cls-3" d="M138.3,0s-.09,0-.13,0c-1,.03-1.86,.29-2.56,.79-.69,.49-1.28,1.18-1.76,2.06-.59,1.06-1,2.31-1.29,3.94-.11,.63-.19,1.21-.23,1.77-3.72-2-7.72-3.33-11.89-3.97-1.86-.29-3.8-.43-5.74-.43-2.47,0-4.98,.24-7.45,.7-4.31,.81-8.5,2.29-12.46,4.4-1.97,1.05-3.88,2.24-5.66,3.56-1.72,1.26-3.43,2.73-5.09,4.36-3.17,3.13-5.83,6.73-7.9,10.7-1.07,2.05-2,4.28-2.84,6.83-.79,2.4-1.38,4.84-1.75,7.25-.69,4.57-.55,9.1,.41,13.45,.46,2.11,1.13,4.2,1.97,6.21,.81,1.94,1.84,3.9,3.04,5.81,2.24,3.58,5.21,7.04,8.83,10.3,1.69,1.53,3.52,2.99,5.59,4.47,1.82,1.3,3.84,2.59,6.34,4.05l.47,.28c.73,.43,1.48,.87,2.26,1.25,.97,.48,1.97,.82,2.96,1.02,.04,0,.09,.01,.13,.01,.1,0,.19-.02,.28-.06,4.38,.47,9.09,.69,14.41,.69s10.29-.21,15.12-.44l.1-.02h0s.07,.02,.11,.02c.12,0,.24-.03,.34-.08,.37-.19,.82-.4,1.27-.56,.69-.22,1.39-.35,1.99-.44,.84-.13,1.71-.2,2.44-.25,1.02-.07,2.06-.13,3.09-.18,1.99-.1,4.04-.21,6.05-.46,1.67-.21,2.99-.48,4.15-.86,1.44-.46,2.51-1.02,3.36-1.77,.47-.41,.88-.9,1.17-1.43,.32-.57,.53-1.21,.65-1.96,.09-.64,.07-1.38-.07-2.25-.1-.61-.28-1.27-.54-2.01,1.39,.25,2.84,.38,4.3,.38,.25,0,.49,0,.74-.01,1.95-.06,3.84-.33,5.61-.82,1.85-.51,3.55-1.24,5.07-2.18,.8-.49,1.55-1.05,2.25-1.64,.66-.57,1.32-1.25,1.95-2.01,1.13-1.36,2.04-3,2.81-5.02,.68-1.8,1.16-3.76,1.48-5.99,.29-2.04,.39-4.2,.29-6.43-.1-2.23-.39-4.45-.87-6.6-.77-3.46-2.01-6.63-3.68-9.42-1.79-3-4.02-5.39-6.6-7.1-.13-.08-.28-.13-.42-.13-.07,0-.14,.01-.2,.03-.13-.18-.36-.29-.6-.29-.08,0-.16,.01-.24,.04-.99,.31-2,.57-3.01,.78l-.16,.04h0c-1.87,.34-3.7,.52-5.45,.52-.45,0-.91-.01-1.36-.04-1.43-.1-2.65-.31-3.76-.65-.86-.29-1.7-.68-2.48-1.17-.73-.48-1.38-1.03-1.95-1.64-.5-.57-.91-1.16-1.23-1.76-.24-.51-.41-1-.52-1.5-.08-.43-.1-.85-.09-1.28,.04-.41,.11-.81,.23-1.18,.16-.45,.36-.87,.61-1.27,.31-.45,.63-.84,.97-1.17,.54-.47,1.17-.83,1.78-1.19,.64-.38,1.3-.76,1.87-1.27,.14-.12,.27-.24,.39-.38,.13-.14,.24-.31,.34-.48,.2-.32,.24-.7,.25-.99,.02-.38-.15-.74-.32-1.05-.08-.15-.19-.28-.3-.41-.16-.2-.36-.39-.59-.59-.53-.45-1.2-.73-1.99-.83,.77-.42,1.44-.87,2.06-1.33,1.52-1.14,2.45-2.37,2.77-3.65,.36-1.44-.19-3.11-1.44-4.35-.54-.54-1.22-.94-2.02-1.21-.56-.19-1.22-.29-1.95-.29-.12,0-.23,0-.35,0-1.54,.06-3.13,.5-5.17,1.42-1.58,.71-3.17,1.65-4.86,2.86-.42,.3-.83,.61-1.24,.93,.34-.76,.56-1.4,.71-2.01,.2-.82,.26-1.53,.17-2.19-.04-.3-.13-.59-.27-.88-.14-.29-.37-.56-.7-.82-.48-.38-1.16-.57-2.02-.57"/>
      <path class="cls-2" d="M107.22,4.84c-4.32,.82-8.52,2.3-12.46,4.4-1.98,1.05-3.89,2.25-5.67,3.56-1.71,1.26-3.43,2.73-5.09,4.36-3.18,3.14-5.83,6.74-7.9,10.71-1.08,2.06-2.01,4.3-2.84,6.83-.79,2.39-1.38,4.84-1.75,7.26-.69,4.57-.55,9.1,.41,13.45,.47,2.12,1.13,4.21,1.97,6.21,.82,1.95,1.84,3.91,3.05,5.82,2.23,3.57,5.2,7.03,8.83,10.3,1.69,1.54,3.52,3,5.59,4.47,1.85,1.32,3.86,2.61,6.34,4.05l.47,.28c.8,.46,1.52,.89,2.26,1.25,.96,.48,1.96,.82,2.97,1.03,.05,0,.09,.01,.14,.01,.09,0,.19-.02,.29-.07,.16,.02,.32,.03,.49,.05-1.83-1.94-3.63-3.91-5.35-5.94-2.76-3.28-5.34-6.73-7.47-10.46-1.3-2.28-2.46-4.65-3.41-7.11-.97-2.51-1.75-5.09-2.34-7.71-.59-2.56-1.01-5.16-1.27-7.78-.26-2.68-.36-5.39-.25-8.09,.1-2.66,.39-5.31,.91-7.92,.51-2.6,1.23-5.18,2.22-7.65,.96-2.41,2.13-4.74,3.57-6.89,1.41-2.1,3.03-4.06,4.87-5.8,1.82-1.72,3.84-3.26,6-4.52,2.18-1.27,4.51-2.31,6.93-3.03,1.47-.44,2.99-.72,4.52-.86,1.52-.13,3.04-.14,4.57-.1,1.52,.04,3.03,.12,4.55,.14,.26,0,.51,0,.77,0-.89-.21-1.8-.38-2.71-.52-1.87-.29-3.81-.43-5.74-.43-2.46,0-4.97,.24-7.45,.7"/>
      <path class="cls-2" d="M156.66,4.48c-.12,.31-.27,.61-.44,.89-.17,.27-.36,.54-.57,.79-.49,.59-1.05,1.13-1.64,1.62-1.29,1.08-2.71,2-4.14,2.89-.68,.42-1.35,.83-2.03,1.25-.44,.28-.88,.55-1.31,.85,.04,0,.09-.01,.13-.02,.48-.07,.96-.11,1.44-.07,.44,.04,.89,.11,1.29,.3,.19,.09,.37,.19,.54,.33,.09,.07,.17,.15,.25,.23,.05,.06,.1,.12,.14,.18,.14,.19,.25,.4,.33,.62,.04,.12,.08,.25,.1,.38,.01,.1,.03,.2,.03,.3,0,.22-.03,.45-.09,.66-.05,.18-.12,.35-.2,.52-.23,.48-.53,.91-.83,1.34-.27,.39-.53,.79-.73,1.22l.02-.06c-.14,.33-.26,.67-.36,1.01-.09,.33-.17,.66-.22,1h0c-.04,.3-.08,.61-.08,.92,0,.32,0,.63,.04,.94,.03,.25,.07,.51,.14,.76,.07,.26,.15,.52,.24,.77,.11,.28,.23,.55,.38,.81,.14,.24,.29,.48,.45,.7-.01-.02-.02-.03-.04-.05,.2,.27,.41,.53,.65,.77,.23,.23,.47,.46,.73,.67h0s0,0,0,0c0,0,0,0,0,0,.03,.02,.06,.05,.1,.07-.37-.46-.69-.93-.94-1.42-.24-.5-.41-.99-.52-1.5-.08-.43-.11-.85-.09-1.28,.03-.42,.11-.81,.22-1.17,.16-.46,.36-.87,.61-1.27,.32-.46,.64-.85,.97-1.16,.53-.46,1.15-.82,1.75-1.17,.7-.41,1.34-.78,1.9-1.28,.14-.12,.27-.24,.39-.38,.13-.15,.24-.32,.34-.49,.19-.31,.24-.66,.26-1,.01-.37-.15-.73-.32-1.06-.07-.13-.17-.27-.3-.41-.16-.2-.36-.39-.59-.59-.53-.45-1.21-.73-2-.83,.72-.36,1.39-.79,2.07-1.3,1.52-1.14,2.45-2.37,2.78-3.66,.27-1.07,.04-2.26-.61-3.32-.04,.24-.11,.47-.2,.69"/>
      <path class="cls-6" d="M138.98,15.49c-.61,.03-1.21,.09-1.82,.19-.64,.11-1.26,.29-1.87,.51-.52,.18-1.04,.39-1.54,.63-.56,.26-1.09,.57-1.6,.91-2.01,1.31-3.75,2.98-5.19,4.9-.12,.16-.05,.41,.11,.51,.18,.12,.39,.06,.52-.11,.17-.23,.35-.45,.53-.68h0s0,0,.01,0c.01-.01,.02-.03,.04-.05,0,.01-.02,.02-.02,.03,.8-.91,1.71-1.71,2.71-2.39-.02,.01-.04,.03-.06,.04,.88-.57,1.81-1.03,2.79-1.39,0,0,0,0,0,0,.67-.23,1.34-.45,2.04-.59,.62-.13,1.25-.21,1.88-.27,.46-.03,.92-.05,1.38-.05,.29,0,.56-.08,.79-.28,.22-.19,.36-.48,.38-.77,.01-.28-.09-.57-.28-.78-.17-.2-.46-.37-.74-.37-.01,0-.02,0-.03,0m-1.23,2.23c-.07,0-.15,.01-.22,.02,.07,0,.15-.01,.22-.02m-3.99,.81s-.03,.01-.05,.02c.02,0,.03-.01,.05-.02m-5.63,3.82s0,0,0,0c0,0,.01-.01,.02-.02,0,0-.01,.01-.02,.02"/>
      <path class="cls-7" d="M139,57.66c-.25,0-.51,.02-.77,.06-.26,.04-.52,.12-.76,.19-.33,.11-.59,.22-.84,.35-1.02,.5-1.82,1.14-2.37,1.9-.05,.06-.07,.14-.06,.22,.01,.08,.05,.14,.11,.19,.06,.04,.11,.06,.17,.06,.09,0,.18-.04,.24-.11,.09-.13,.19-.25,.3-.37,.19-.19,.4-.36,.68-.53,.3-.17,.63-.31,.96-.41,.32-.08,.62-.12,.95-.14-.03,.06-.02,.15-.01,.21,.27,1.31,.89,2.49,1.56,3.68,.61,1.1,1.22,2.08,1.87,2.99,1.32,1.87,2.93,3.66,4.94,5.47,1.9,1.71,3.91,3.07,5.97,4.04,1.46,.69,2.99,1.18,4.56,1.45,.85,.1,1.67,.16,2.45,.18,0,0,.06-.11,.06-.11-.97-.11-1.98-.33-3.01-.65-.91-.29-1.78-.64-2.57-1.04-.48-.22-.96-.45-1.43-.7-1.98-1.12-3.82-2.51-5.49-4.12-1.88-1.86-3.6-4.08-5.1-6.6-.34-.59-.66-1.19-.98-1.8-.31-.61-.67-1.33-.91-2.09-.07-.25-.12-.5-.16-.76,.15,.07,.24,.09,.33,.09,.1,0,.19-.02,.28-.06,.19-.08,.34-.24,.42-.43,.07-.19,.07-.41,0-.59-.1-.25-.33-.43-.63-.47-.25-.04-.5-.06-.75-.06"/>
      <path class="cls-6" d="M173.27,25.84h-.02c-1.65,0-3.35,.5-4.92,1.44-1.46,.87-2.72,2.12-3.63,3.62-.76,1.26-1.21,2.69-1.29,4.15-.09,1.49,.31,3.08,1.14,4.48,.4,.68,.94,1.36,1.6,2.01,.76,.75,1.67,1.36,2.7,1.8,1.22,.52,2.55,.8,3.86,.8,.81,0,1.62-.11,2.38-.31,.77,1.73,2.11,2.99,3.66,3.46,.32,.1,.69,.15,1.05,.15,.07,0,.15,0,.22,0,.46-.02,.93-.15,1.42-.4,.36-.18,.74-.47,1.1-.88,.37-.41,.7-.92,.97-1.52,.35-.78,.56-1.67,.66-2.79,.08-.92,.04-1.92-.12-3.12-.3-2.22-.95-4.42-1.95-6.53-.45-.96-.97-1.83-1.54-2.59-.32-.42-.6-.75-.88-1.03-.39-.4-.83-.74-1.22-1.02-1.48-1.1-3.32-1.7-5.19-1.7"/>
      <path class="cls-5" d="M172.51,28.41h-.03c-.99,0-2.07,.39-3.21,1.17-.5,.34-.96,.78-1.33,1.26-.07,.1-.15,.21-.21,.32-.12,.14-.23,.3-.33,.47-.24,.39-.35,.78-.35,1.18,0,.46,.14,.88,.39,1.17,.26,.31,.62,.47,1.07,.47,.32,0,.68-.08,1.08-.24,.42-.17,.81-.41,1.15-.62,.34-.21,.71-.48,1.11-.79,.74-.59,1.31-1.15,1.74-1.71,.29-.39,.73-1.14,.41-1.83-.28-.61-.95-.84-1.49-.84"/>
      <path class="cls-1" d="M135.51,25.09c-.76,0-1.54,.12-2.31,.34-1.77,.51-3.39,1.67-4.69,3.35-1.8,2.33-2.78,5.49-2.68,8.65,.05,1.69,.48,3.5,1.25,5.39,.65,1.76,1.54,3.32,2.64,4.64l.09,.11c.33,.36,.67,.72,1.02,1.06,.6,.55,1.25,1.04,1.95,1.47,1.53,.93,3.31,1.42,5.13,1.42,1.46,0,2.9-.32,4.16-.93,1.31-.62,2.47-1.68,3.35-3.06,.76-1.19,1.29-2.67,1.58-4.39,.25-1.62,.27-3.32,.05-5.05-.23-1.77-.66-3.45-1.29-5-.65-1.61-1.48-3.05-2.48-4.28-.48-.58-1-1.1-1.55-1.53-.29-.23-.59-.45-.91-.65-.37-.23-.81-.46-1.31-.66-.54-.24-1.08-.43-1.63-.57-.5-.13-1.06-.23-1.72-.29-.22-.02-.44-.03-.66-.03"/>
      <path class="cls-6" d="M138.74,25.66h0c-.24,.12-.48,.28-.7,.46-.3,.26-.58,.57-.85,.95-.38,.54-.7,1.17-.99,1.93-.45,1.21-.74,2.54-.9,4.07-.17,1.86-.1,3.76,.22,5.64,.3,1.66,.77,3.17,1.39,4.49,.45,.95,1.03,1.87,1.68,2.67,.55,.64,1.14,1.2,1.75,1.64,.65,.45,1.32,.8,2,1.06,.58,.21,1.22,.37,1.88,.48,.46-.47,.86-.97,1.2-1.51,.76-1.18,1.29-2.66,1.58-4.39,.25-1.62,.27-3.32,.05-5.06-.24-1.78-.67-3.46-1.29-5.01-.65-1.61-1.48-3.05-2.48-4.28-.47-.57-.99-1.09-1.54-1.53-.29-.23-.59-.45-.91-.64-.38-.24-.83-.46-1.31-.67-.25-.11-.5-.21-.76-.31,0,0,0,0-.01,0"/>
      <path class="cls-1" d="M136.9,36.68c-.21,0-.43,.02-.64,.04-.35,.03-.68,.09-1,.17-.41,.1-.81,.29-1.16,.45-.31,.15-.61,.32-.9,.51-.2,.12-.34,.33-.37,.56-.21,.21-.87,.97-.45,1.77,.39,.73,1.34,.81,2.02,.81h.23c.95-.03,1.88-.31,2.69-.83,.54-.34,1.24-.92,1.45-1.7,.09-.34,.04-.72-.13-1.02-.06-.1-.13-.19-.23-.28-.1-.12-.23-.21-.38-.25-.11-.06-.24-.1-.36-.14-.22-.06-.48-.09-.77-.09"/>
      <path class="cls-6" d="M99.93,16.4c-.39-.18-.84-.34-1.33-.46-.7-.17-1.49-.23-2.48-.16-.77,.05-1.57,.19-2.44,.41-1.13,.19-2.34,.51-3.8,1-2.07,.71-4.05,1.63-5.96,2.52-2.59,1.2-5.31,2.32-8.08,3.33-4.24,1.54-8.48,2.76-11.71,3.66h.1c-.68,.16-1.37,.35-2.05,.53-1.96,.53-3.99,1.08-5.95,1.71-2.64,.85-4.98,1.77-7.15,2.84-2.38,1.17-4.55,2.54-6.45,4.07-2.05,1.65-3.87,3.57-5.42,5.72-1.5,2.09-2.66,4.37-3.46,6.79-.77,2.34-1.17,4.79-1.18,7.28-.03,5.06,1.57,10.24,4.5,14.59,1.38,2.04,3.09,3.82,5.1,5.31,1.13,.84,2.39,1.59,3.73,2.21,.8,.37,1.64,.71,2.5,.99,4.25,1.41,9.16,1.68,14.21,.79,2.35-.41,4.75-1.1,7.12-2.04,2.26-.89,4.52-2.07,6.91-3.59,4.42-2.81,8.59-6.56,12.4-11.13,1.74-2.09,3.37-4.36,4.85-6.74,1.31-2.11,2.48-4.36,3.56-6.48,1.83-3.59,4.12-8.38,5.59-13.54,1.55-5.44,1.82-10.02,.81-14.01-.59-2.34-1.57-4-2.99-5.05-.28-.21-.59-.39-.93-.55"/>
      <path class="cls-6" d="M98.85,16.01c-.63-.25-1.3-.39-1.97-.46-1.41-.14-2.83,.08-4.18,.45-2.7,.73-5.19,2.05-7.59,3.44-.16,.09-.26,.32-.29,.49-.03,.2,.02,.4,.14,.56,.12,.16,.3,.26,.49,.29,.22,.03,.37-.04,.56-.14,.11-.06,.21-.12,.32-.19,0,0-.01,0-.02,.01,2.19-1.25,4.47-2.4,6.92-3.07,.95-.24,1.92-.39,2.89-.39,.58,.02,1.16,.09,1.72,.24,.46,.14,.89,.33,1.3,.57,.15,.1,.29,.2,.43,.3,.32,.25,.8,.2,1.05-.12,.25-.31,.21-.81-.12-1.06-.4-.3-.83-.57-1.29-.78-.12-.06-.25-.11-.37-.16m-5.63,1.39s-.09,.02-.14,.03l.14-.03Z"/>
      <path class="cls-6" d="M99.31,16.38c-.41-.16-.85-.25-1.28-.31-.41-.05-.8,.2-.86,.61-.07,.4,.21,.81,.61,.87,.27,.04,.53,.09,.78,.15,.24,.09,.47,.19,.69,.32,.02,.02,.05,.03,.07,.05,.17,.12,.34,.2,.56,.18,.19-.02,.38-.11,.5-.26,.13-.15,.2-.36,.18-.56-.02-.17-.11-.39-.26-.5-.26-.18-.51-.33-.79-.46-.06-.03-.13-.06-.2-.09"/>
      <path class="cls-6" d="M97.79,15.87c-.4-.06-.79,.21-.86,.62-.07,.4,.21,.8,.62,.86,.31,.05,.61,.12,.91,.2,.32,.11,.63,.24,.93,.4,.36,.19,.83,0,1-.36,.18-.38,0-.81-.36-1-.08-.04-.15-.08-.23-.11-.63-.29-1.3-.5-1.99-.6"/>
      <path class="cls-6" d="M97.87,15.8c-.41-.05-.79,.2-.86,.62-.07,.39,.21,.82,.61,.86,.21,.02,.41,.06,.62,.12,.28,.1,.54,.23,.79,.38,.16,.1,.41,.09,.57,.03,.19-.07,.34-.21,.42-.39,.08-.18,.09-.39,.02-.57-.07-.2-.21-.31-.39-.42-.15-.09-.29-.17-.45-.24-.42-.2-.88-.32-1.35-.38"/>
      <path class="cls-6" d="M97.94,15.74c-.4-.06-.8,.21-.87,.62-.07,.4,.21,.8,.62,.86,.2,.03,.4,.07,.59,.12,.35,.12,.68,.27,1.01,.46,.36,.21,.84-.02,1-.36,.08-.18,.09-.39,.02-.57-.08-.2-.21-.32-.39-.42-.15-.09-.31-.17-.47-.24-.48-.22-.99-.38-1.51-.46"/>
      <path class="cls-6" d="M97.99,15.76c-.4-.05-.8,.2-.86,.62-.07,.4,.21,.81,.61,.86,.21,.03,.42,.07,.62,.13,.26,.09,.51,.21,.76,.35,.35,.2,.83-.01,1-.36,.08-.18,.09-.39,.02-.57-.07-.2-.21-.32-.38-.42-.11-.06-.22-.12-.34-.17-.45-.21-.93-.35-1.43-.42"/>
      <path class="cls-6" d="M98.4,15.82c-.4-.07-.8,.22-.86,.62-.07,.41,.22,.78,.62,.86,.12,.02,.23,.05,.35,.08,.25,.09,.48,.2,.71,.34,.16,.1,.4,.09,.57,.03,.19-.07,.34-.21,.42-.39,.08-.18,.09-.39,.02-.57-.07-.2-.21-.32-.39-.43-.12-.07-.25-.14-.38-.2-.34-.16-.69-.27-1.06-.34"/>
      <path class="cls-4" d="M98.4,15.8s-.07,0-.1-.01l-.16-.03c-.39-.1-.81-.18-1.25-.22-1.25-.12-2.62,.02-4.19,.45-1.61,.44-3.24,1.1-5.13,2.09-1.25,.52-2.5,1.1-3.6,1.61-2.62,1.22-5.36,2.35-8.12,3.35-4.3,1.56-8.51,2.77-11.71,3.65l.08,.02c-.69,.15-1.35,.33-2.03,.51l-.27,.07c-1.87,.5-3.8,1.03-5.68,1.63-2.63,.84-4.97,1.77-7.15,2.84-2.37,1.17-4.55,2.55-6.46,4.08-2.05,1.65-3.88,3.57-5.43,5.72-1.5,2.09-2.66,4.38-3.46,6.79-.77,2.36-1.17,4.81-1.18,7.29-.03,5.06,1.57,10.24,4.5,14.6,1.35,2,3.03,3.76,5,5.24-.94-1.03-1.82-2.1-2.62-3.24-.6-.85-1.16-1.73-1.66-2.64-.53-.99-1-2.02-1.4-3.07-.45-1.16-.84-2.35-1.11-3.57-.25-1.15-.43-2.34-.46-3.52-.03-1.17,.04-2.35,.27-3.51,.23-1.19,.6-2.35,1.11-3.46,.55-1.2,1.25-2.35,2.03-3.41,.76-1.05,1.6-2.05,2.52-2.97,3.77-3.8,8.53-6.47,13.46-8.47,1.24-.5,2.5-.97,3.77-1.4,.65-.22,1.3-.43,1.95-.63,.63-.19,1.26-.38,1.89-.57,2.76-.84,5.5-1.76,8.18-2.86h0s0,0,0,0c0,0,0,0,0,0,0,0,0,0,0,0,0,0,0,0,.02,0,0,0-.01,0-.01,0,2.5-1.04,4.94-2.21,7.27-3.6,.67-.39,1.33-.8,1.97-1.23,.6-.4,1.2-.82,1.78-1.25,1.22-.89,2.42-1.81,3.63-2.72,1.21-.91,2.43-1.8,3.7-2.61,1.08-.69,2.2-1.34,3.36-1.91,1.07-.53,2.17-1.01,3.31-1.36,.59-.18,1.19-.34,1.79-.44,.52-.09,1.05-.15,1.57-.16,.99-.02,2,.09,2.94,.41-.14-.12-.28-.24-.43-.35-.29-.22-.6-.39-.94-.55l-.11-.05c-.12-.07-.23-.13-.36-.19-.33-.15-.67-.26-1.07-.34"/>
    </g>
  </g>
</svg>