<?xml version="1.0" encoding="UTF-8"?>
<svg id="Layer_2" data-name="Layer 2" xmlns="http://www.w3.org/2000/svg" viewBox="0 0 175.24 197.92">
  <defs>
    <style>
      .cls-1 {
        fill: #fefefe;
      }

      .cls-2 {
        fill: #8e3f59;
      }

      .cls-3 {
        fill: #ad4d6c;
      }

      .cls-4 {
        fill: #3e164a;
      }

      .cls-5 {
        fill: #64446c;
      }

      .cls-6 {
        fill: #350b40;
      }

      .cls-7 {
        fill: #7a364d;
      }
    </style>
  </defs>
  <g id="OBJECTS">
    <g>
      <path class="cls-6" d="M43.84,137.62c-.06,0-.11,.01-.15,.03-5.76,2.49-11.76,4.47-17.91,6.44l-1.17,.37c-2.63,.84-5.27,1.68-7.9,2.55-2.28,.75-4.65,1.58-7.24,2.54-1.52,.57-3.14,1.19-4.72,1.93-.82,.39-1.57,.78-2.28,1.22-.5,.31-1.09,.7-1.56,1.19-.37,.38-.81,.91-.89,1.61-.03,.29,.01,.6,.14,.92,.14,.34,.39,.59,.66,.85,.27,.24,.61,.41,.89,.55,.41,.21,.85,.34,1.27,.46,1.14,.32,2.41,.54,3.9,.66,.77,.06,1.56,.09,2.34,.09,1.59,0,3.22-.13,4.83-.38,.82-.13,1.62-.29,2.38-.47-.3,.29-.55,.59-.75,.91-.21,.33-.36,.68-.45,1.08-.16,.68,.11,1.43,.71,1.96,.3,.26,.68,.49,1.19,.7,.39,.16,.82,.27,1.29,.32,.17,.02,.34,.02,.51,.02,.63,0,1.31-.1,2.15-.33,2.19-.6,4.21-1.7,5.9-2.69,.39-.23,.79-.48,1.17-.72-.01,.14,0,.28,.02,.43,.07,.49,.33,1,.72,1.4,.38,.39,.87,.7,1.53,.98,.37,.16,.79,.26,1.25,.3,.18,.02,.37,.03,.56,.03,.59,0,1.25-.09,2.01-.27,2.18-.51,4.27-1.52,5.83-2.33,1.6-.84,3.25-1.81,5.05-2.97,.58-.38,1.15-.75,1.68-1.16,.57-.44,1.17-.96,1.82-1.6,1.37-1.33,2.54-2.75,3.48-4.22,1.08-1.67,1.7-3.22,1.92-4.73,.11-.76,.08-1.52-.08-2.2-.18-.76-.53-1.44-1.03-2.02-1.25-1.43-3.19-1.98-4.55-2.26-.55-.12-1.15-.17-1.81-.17-.76,0-1.51,.08-2.14,.15-.53,.06-1.05,.14-1.58,.22l-.69,.1c.62-.23,1.23-.49,1.83-.75,.09-.04,.17-.12,.2-.21,.04-.1,.04-.2,0-.3-.06-.14-.2-.23-.36-.23"/>
      <path class="cls-2" d="M153.02,89.61c-.19,0-.39,0-.59,.02-.93,.04-1.9,.21-2.89,.48-1.13,.31-2.21,.75-3.2,1.29-.96,.52-1.86,1.14-2.73,1.73-.47,.32-.93,.64-1.41,.95-1.08,.69-2.03,1.17-3.01,1.52-.95,.32-2.01,.54-3.16,.68h.2c-.6,.04-1.22,.08-1.84,.08s-1.29-.03-1.95-.1c-1.76-.21-3.56-.65-5.67-1.37-1.51-.53-2.95-1.13-4.04-1.58-1.01-.42-1.95-.75-2.87-1.02-1.67-.48-3.29-.72-4.82-.72-.19,0-.38,0-.57,.01-1.77,.07-3.35,.52-4.57,1.3-.67,.43-1.24,.94-1.74,1.57-.46,.58-.83,1.28-1.12,2.13-.27,.79-.43,1.7-.48,2.78-.04,.94,.03,1.82,.22,2.66,.17,.74,.44,1.52,.87,2.43,.4,.84,.89,1.71,1.48,2.57,1.16,1.71,2.59,3.3,4.25,4.7,.78,.66,1.65,1.28,2.6,1.86,.86,.53,1.77,.96,2.69,1.29,.58,.21,1.14,.37,1.71,.47,.06,.01,.13,.02,.19,.02,.09,0,.18-.01,.26-.03,.92,.36,1.92,.7,2.97,1,3.36,.97,7.08,1.54,11.07,1.68,.59,.02,1.18,.03,1.77,.03,3.32,0,6.58-.33,9.67-.99,3.81-.81,7.12-2.08,9.84-3.79,1.46-.92,2.72-1.94,3.75-3.03,1.12-1.18,2.01-2.49,2.65-3.87,.6-1.3,.95-2.78,1.03-4.41,.08-1.5-.12-3.03-.58-4.56-.55-1.82-2.03-5.13-5.67-6.84-1.28-.6-2.77-.92-4.31-.92"/>
      <path class="cls-2" d="M147.18,89.17c-.69,.09-1.35,.28-1.98,.51-1.15,.42-2.18,1.17-2.75,2.12-.32,.53-.47,1.1-.5,1.69-.03,.64,.14,1.3,.4,1.91,.07,.16,.17,.29,.34,.37,.18,.08,.39,.11,.58,.07,.37-.09,.66-.45,.52-.77-.14-.32-.24-.64-.31-.98-.04-.29-.04-.58,0-.86,.05-.24,.12-.47,.23-.7,.12-.22,.27-.43,.44-.63,.22-.22,.47-.43,.74-.61,.37-.22,.75-.4,1.17-.55,.53-.17,1.07-.29,1.63-.36,.64-.06,1.29-.06,1.93,0,.54,.07,1.07,.19,1.58,.35,.44,.16,.84,.36,1.23,.6,.15,.09,.4,.1,.58,.06,.19-.04,.35-.15,.45-.29,.1-.14,.13-.32,.07-.48-.05-.17-.18-.27-.34-.37-1.12-.7-2.48-1.04-3.86-1.14-.21-.02-.43-.02-.64-.02-.5,0-1,.04-1.49,.11m2.34,1.18s.05,0,.07,0c-.02,0-.05,0-.07,0m.09,.01h.1s-.07,0-.1,0m1.62,.37s.03,.01,.05,.02c-.02,0-.03-.01-.05-.02m-7.49,1.69s-.02,.04-.03,.06c0-.02,.02-.04,.03-.06m-.28,.84s0,.05-.01,.07c0-.02,0-.05,.01-.07m0,.77s0,.03,0,.04c0-.01,0-.03,0-.04m.02,.09v.08s0-.05,0-.08"/>
      <path class="cls-2" d="M149.81,89.8c-.76,.02-1.51,.09-2.26,.2-.77,.12-1.5,.32-2.2,.61-.67,.27-1.28,.67-1.75,1.15-.54,.54-.89,1.17-1.09,1.85-.1,.33,.12,.68,.52,.77,.39,.09,.82-.1,.92-.43,.06-.22,.14-.43,.24-.63,.13-.23,.28-.44,.45-.65,.21-.21,.44-.4,.69-.57,.34-.2,.7-.37,1.08-.51,.65-.21,1.33-.35,2.03-.43,.46-.05,.91-.08,1.38-.09,.41-.01,.75-.28,.75-.62,0-.33-.33-.62-.73-.62h-.02Z"/>
      <path class="cls-2" d="M82.22,137.7c-1.27,0-2.59,.1-4.02,.3-1.6,.23-3.29,.62-5,1.14-1.51,.46-2.95,1.02-4.25,1.66-.89,.44-1.77,.93-2.62,1.41-1.02,.57-2.03,1.17-3.01,1.77-1.98,1.22-3.98,2.59-5.94,4.07-3.94,2.98-7.45,6.26-10.42,9.76-.23,.27-.2,.72,.06,1l-.69,.71c-1.92,2.06-3.48,4.05-4.75,6.09-.32,.51-.63,1.03-.9,1.56-.27,.5-.51,1.06-.73,1.71-.4,1.08-.68,2.27-.88,3.63-.16,1.13-.23,2.36-.21,3.87,.01,1.21,.12,2.48,.31,3.88,.34,2.41,.94,4.84,1.79,7.22,.81,2.25,1.95,4.18,3.41,5.73,1.41,1.51,3.14,2.67,5.13,3.47,1.88,.75,4.06,1.17,6.48,1.23,.25,0,.5,0,.75,0,2.21,0,4.08-.26,5.74-.8,.94-.31,1.8-.76,2.56-1.34,.74-.56,1.37-1.32,1.88-2.25,.51-.93,.82-2.11,.92-3.5,.1-1.47-.09-3.07-.57-4.76-.73-2.6-2.05-5.22-4.04-8,1.54-.93,3.1-1.85,4.66-2.78,3.29-1.96,6.69-3.98,9.94-6.13,2.67-1.76,5-3.48,7.13-5.23,1.01-.84,2.03-1.73,3.1-2.74,1.05-.98,1.92-1.89,2.68-2.76,.8-.93,1.53-1.97,2.16-3.08,.59-1.04,1.04-2.23,1.34-3.52,.24-1.03,.33-2.15,.29-3.53-.03-.89-.16-1.76-.38-2.59-.23-.83-.52-1.56-.91-2.22-.4-.69-.87-1.3-1.43-1.85-.98-.96-2.24-1.72-3.74-2.25-1.39-.48-2.97-.77-4.71-.85-.36-.02-.74-.02-1.1-.02"/>
      <path class="cls-3" d="M112.01,80.26c-1.61,0-3.28,.09-5.1,.26-3.25,.32-6.63,.93-10.06,1.82-3.1,.8-5.78,1.7-8.21,2.75-.12,.05-.22,.13-.3,.24-3.49,1.03-6.98,2.52-10.35,4.41-4.34,2.43-8.38,5.47-12.01,9.02-3.67,3.59-6.78,7.57-9.22,11.82-1.24,2.16-2.31,4.4-3.19,6.69-.86,2.24-1.54,4.61-2.01,7.03-.28,1.42-.48,2.92-.59,4.46-1.99,.71-3.85,1.66-5.52,2.82-1.67,1.16-3.16,2.59-4.41,4.24-2.29,3.03-3.66,6.85-3.94,11.03-.27,4.03,.46,8.27,2.16,12.6,.4,1.02,.88,2.06,1.41,3.11,.42,.83,.9,1.7,1.49,2.51,.92,1.24,2.15,2.34,3.65,3.27,1.42,.87,3.01,1.54,4.72,1.97,.86,.22,1.74,.37,2.6,.47,.55,.06,1.12,.09,1.75,.09,.29,0,.58,0,.87-.02,1.69-.06,3.33-.41,4.89-1.03,.73-.29,1.45-.67,2.19-1.16,.64-.42,1.25-.95,1.88-1.61,.68-.71,1.25-1.56,1.76-2.6,.22-.44,.41-.91,.58-1.46,.24-.74,.39-1.47,.45-2.17,.14-1.52-.19-3.15-.99-4.85-.39-.83-.9-1.68-1.62-2.7,.4,.11,.81,.19,1.22,.24,1.23,.92,2.37,1.67,3.46,2.29,1.13,.64,2.37,1.2,3.79,1.72,2.26,.81,4.67,1.35,7.18,1.61,1.03,.11,2.1,.16,3.18,.16,1.32,0,2.69-.08,4.06-.25,2.27-.27,4.65-.82,7.06-1.63,4.47-1.49,8.82-3.97,12.56-7.17,1.83-1.56,3.52-3.33,5.05-5.25,1.53-1.93,2.97-4.18,4.27-6.68,4.52-8.63,6.26-19.29,5.03-30.81-.49-4.59-1.5-9.36-3-14.17,3.12-1.88,6.64-3.51,10.75-4.98h0c.59-.21,1.19-.41,1.79-.6l.25-.06,.25-.06c1.38-.33,2.85-.62,4.66-.93,.43-.08,.72-.43,.68-.84-.04-.37-.38-.69-.73-.69-.23-.17-.44-.27-.66-.27-.05,0-.1,0-.16,.02-1.66,.43-3.29,.91-4.82,1.41-.44,.11-.87,.23-1.31,.36,0-.14-.06-.27-.15-.37-.61-.69-1.28-1.34-2.01-1.9-.66-.52-1.41-1-2.36-1.51-1.51-.81-3.29-1.44-5.43-1.92-1.83-.41-3.83-.65-6.09-.72-.46-.01-.92-.02-1.39-.02"/>
      <path class="cls-2" d="M77.97,89.73c-4.32,2.42-8.37,5.46-12.01,9.02-3.67,3.59-6.78,7.57-9.23,11.83-1.24,2.16-2.31,4.41-3.19,6.68-.85,2.23-1.53,4.59-2.01,7.04-.28,1.43-.48,2.93-.59,4.46-1.98,.7-3.84,1.64-5.51,2.8-1.67,1.16-3.16,2.58-4.41,4.24-2.3,3.03-3.66,6.86-3.94,11.05-.27,4.02,.46,8.27,2.16,12.61,.39,1,.87,2.05,1.41,3.11,.42,.83,.89,1.71,1.49,2.52,.91,1.23,2.14,2.34,3.66,3.27,1.41,.88,3,1.54,4.72,1.98,.86,.22,1.74,.38,2.61,.47,.58,.06,1.15,.09,1.75,.09,.29,0,.58,0,.88-.02,1.69-.06,3.34-.41,4.9-1.04,.75-.3,1.46-.68,2.19-1.16,.63-.41,1.25-.93,1.89-1.61,.64-.67,1.2-1.48,1.7-2.48-.52,.61-1.1,1.18-1.72,1.69-1.59,1.32-3.46,2.32-5.47,2.81-.99,.25-2,.39-3.02,.41-1.04,.01-2.09-.08-3.1-.32-1.06-.24-2.1-.6-3.08-1.09-.91-.46-1.78-1-2.58-1.63-1.23-.98-2.31-2.17-3.18-3.49-.88-1.34-1.57-2.81-2.06-4.34-.51-1.57-.84-3.21-.98-4.85-.29-3.35,.1-6.77,1.18-9.96,.53-1.56,1.21-3.07,2.1-4.47,.85-1.34,1.85-2.59,3.04-3.64,.58-.52,1.19-1,1.85-1.41,.66-.42,1.35-.79,2.07-1.09,.75-.32,1.53-.57,2.32-.75,.78-.17,1.57-.28,2.37-.33,0-.01,0-.03-.01-.04-.26-1.66-.39-3.34-.36-5.01,.03-1.63,.16-3.27,.43-4.88,.21-1.23,.47-2.45,.81-3.64,.29-1.04,.63-2.05,1-3.06,.78-2.09,1.72-4.12,2.79-6.07,1.11-2.04,2.35-4.01,3.71-5.9,2.8-3.89,6.05-7.47,9.73-10.55,1.82-1.52,3.73-2.91,5.75-4.14,.76-.46,1.53-.89,2.32-1.3-1.48,.66-2.95,1.39-4.39,2.21"/>
      <path class="cls-2" d="M73.61,118.82c-.33,.49-.18,1.15,.29,1.48,.6,.42,1.18,.86,1.74,1.34,1.21,1.1,2.28,2.33,3.19,3.69,.84,1.3,1.51,2.7,2.02,4.16,.49,1.5,.8,3.04,.92,4.61,.09,1.56,0,3.13-.27,4.67v-.02c-.29,1.48-.76,2.91-1.41,4.28-.63,1.23-1.39,2.39-2.29,3.45-.97,1.09-2.08,2.04-3.29,2.86-1.06,.68-2.18,1.24-3.36,1.65-1.36,.43-2.78,.72-4.2,.82,.07,0,.14,0,.21-.01-1.7,.11-3.38,.04-5.05-.26-1.91-.38-3.74-1.01-5.49-1.86,.01,0,.02,0,.03,.01-.95-.47-1.88-1-2.77-1.58-.27-.18-.55,.24-.28,.42,2.1,1.36,4.33,2.54,6.67,3.43,1.16,.44,2.35,.8,3.56,1.08,1.2,.26,2.43,.44,3.66,.44,.61,0,1.22-.03,1.83-.08,.63-.06,1.26-.18,1.87-.34,1.25-.31,2.46-.79,3.59-1.4,2.16-1.18,3.98-2.91,5.45-4.86,1.28-1.7,2.24-3.65,2.88-5.68,.63-2,.93-4.12,.89-6.22-.02-1.08-.12-2.16-.3-3.22-.18-1.07-.46-2.11-.81-3.14-.68-2.02-1.69-3.91-2.98-5.61-.64-.84-1.36-1.61-2.14-2.32-.84-.76-1.73-1.47-2.7-2.05-.19-.11-.4-.17-.6-.17-.34,0-.67,.15-.87,.46m7.28,10.75c.02,.06,.04,.11,.06,.16-.02-.05-.04-.11-.06-.16m.9,4.63v.08s0-.08,0-.08Zm-.29,4.62c-.01,.07-.02,.13-.04,.2,.01-.07,.02-.13,.04-.2"/>
      <path class="cls-3" d="M127.18,0s-.09,0-.13,.01c-.99,.08-1.84,.39-2.52,.92-.66,.52-1.21,1.25-1.65,2.15-.53,1.09-.87,2.37-1.08,4-.08,.64-.12,1.22-.14,1.78-3.82-1.79-7.89-2.91-12.09-3.32-1.88-.19-3.81-.23-5.75-.12-2.47,.13-4.96,.5-7.4,1.1-4.26,1.04-8.36,2.74-12.2,5.06-1.91,1.15-3.75,2.45-5.47,3.86-1.65,1.35-3.28,2.91-4.84,4.63-3,3.3-5.46,7.03-7.31,11.11-.96,2.1-1.77,4.39-2.47,6.97-.66,2.44-1.12,4.91-1.36,7.34-.45,4.6-.06,9.11,1.14,13.4,.58,2.08,1.35,4.13,2.3,6.09,.92,1.89,2.04,3.79,3.35,5.64,2.43,3.45,5.58,6.75,9.37,9.81,1.77,1.44,3.68,2.8,5.82,4.16,1.89,1.2,3.97,2.38,6.55,3.7l.49,.25c.75,.39,1.53,.79,2.32,1.12,1,.43,2.01,.72,3.01,.86,.04,0,.09,0,.13,0,.09,0,.19-.03,.28-.08,4.4,.23,9.12,.2,14.43-.09,5.11-.28,10.27-.76,15.08-1.25l.1-.03h0s.07,.01,.11,.01c.12,0,.24-.04,.34-.1,.36-.21,.79-.44,1.24-.63,.67-.26,1.37-.42,1.97-.54,.83-.17,1.69-.29,2.43-.38,1.02-.13,2.05-.24,3.08-.35,1.98-.21,4.02-.43,6.02-.78,1.65-.3,2.96-.64,4.1-1.08,1.41-.54,2.45-1.16,3.26-1.94,.45-.43,.83-.95,1.1-1.49,.29-.59,.47-1.24,.54-1.99,.06-.65,0-1.38-.19-2.24-.13-.61-.35-1.25-.65-1.98,1.4,.18,2.86,.22,4.31,.14,.25-.01,.49-.03,.74-.05,1.94-.16,3.82-.54,5.56-1.12,1.82-.61,3.48-1.43,4.95-2.45,.77-.54,1.5-1.13,2.15-1.76,.63-.61,1.25-1.32,1.84-2.11,1.05-1.42,1.88-3.11,2.53-5.16,.58-1.84,.96-3.82,1.16-6.06,.18-2.05,.16-4.21-.05-6.44-.22-2.22-.63-4.42-1.22-6.54-.96-3.41-2.36-6.51-4.18-9.21-1.95-2.9-4.3-5.16-6.97-6.74-.13-.08-.28-.11-.43-.1-.07,0-.14,.02-.2,.04-.14-.17-.37-.27-.61-.26-.08,0-.16,.02-.23,.05-.97,.36-1.97,.68-2.96,.94l-.16,.05h0c-1.85,.44-3.67,.72-5.41,.81-.45,.02-.91,.04-1.36,.04-1.43-.02-2.67-.17-3.78-.45-.88-.24-1.73-.59-2.54-1.03-.75-.44-1.44-.96-2.04-1.53-.52-.54-.97-1.11-1.32-1.69-.27-.5-.46-.98-.6-1.47-.1-.43-.15-.85-.16-1.28,.01-.41,.07-.81,.16-1.19,.14-.46,.31-.89,.54-1.3,.28-.46,.58-.87,.9-1.22,.52-.49,1.12-.89,1.71-1.28,.62-.41,1.26-.83,1.8-1.37,.13-.13,.26-.26,.37-.4,.12-.15,.22-.33,.31-.5,.18-.34,.2-.71,.2-1,0-.38-.19-.73-.37-1.03-.09-.14-.21-.27-.32-.39-.17-.19-.38-.37-.62-.55-.55-.43-1.24-.67-2.03-.72,.74-.46,1.39-.94,1.98-1.44,1.45-1.22,2.32-2.5,2.57-3.79,.28-1.46-.36-3.09-1.67-4.27-.57-.51-1.27-.88-2.08-1.1-.57-.16-1.24-.22-1.97-.18-.12,0-.23,.01-.35,.03-1.53,.15-3.1,.67-5.09,1.7-1.54,.8-3.08,1.82-4.7,3.12-.4,.32-.8,.65-1.19,.99,.3-.78,.48-1.43,.6-2.04,.16-.83,.18-1.55,.05-2.2-.06-.29-.16-.58-.32-.86-.15-.29-.4-.54-.74-.78-.5-.35-1.19-.51-2.05-.46"/>
      <path class="cls-2" d="M96.42,6.51c-4.27,1.05-8.38,2.75-12.21,5.07-1.93,1.16-3.76,2.45-5.47,3.85-1.64,1.35-3.27,2.91-4.84,4.63-3,3.31-5.46,7.05-7.32,11.12-.96,2.12-1.77,4.4-2.47,6.97-.66,2.43-1.12,4.9-1.36,7.35-.44,4.6-.06,9.12,1.14,13.41,.58,2.09,1.36,4.14,2.3,6.09,.92,1.9,2.05,3.8,3.35,5.64,2.42,3.44,5.57,6.74,9.37,9.82,1.78,1.44,3.68,2.8,5.82,4.16,1.92,1.22,4,2.39,6.55,3.7l.49,.25c.82,.42,1.56,.8,2.32,1.13,.98,.42,2,.71,3.01,.87,.05,0,.09,0,.14,0,.09,0,.19-.03,.28-.08,.16,0,.33,.02,.49,.02-1.93-1.84-3.83-3.71-5.66-5.65-2.94-3.12-5.69-6.43-8.02-10.04-1.43-2.21-2.7-4.51-3.78-6.91-1.11-2.45-2.02-4.98-2.75-7.57-.72-2.53-1.29-5.1-1.69-7.7-.4-2.67-.65-5.36-.68-8.06-.04-2.66,.11-5.33,.48-7.96,.37-2.63,.95-5.24,1.8-7.76,.83-2.45,1.87-4.84,3.2-7.07,1.29-2.17,2.81-4.22,4.55-6.05,1.73-1.82,3.65-3.46,5.75-4.84,2.11-1.39,4.38-2.54,6.76-3.4,1.45-.52,2.94-.88,4.47-1.1,1.51-.21,3.03-.3,4.55-.35,1.52-.04,3.03-.04,4.55-.1,.26-.01,.51-.02,.77-.03-.9-.16-1.81-.28-2.73-.37-1.89-.18-3.83-.23-5.76-.12-2.46,.13-4.95,.51-7.4,1.1"/>
      <path class="cls-2" d="M145.76,3.49c-.1,.31-.23,.62-.4,.91-.16,.28-.33,.55-.53,.81-.46,.62-.99,1.18-1.55,1.71-1.23,1.15-2.6,2.14-3.98,3.11-.65,.46-1.3,.9-1.96,1.36-.43,.3-.85,.6-1.26,.92,.04,0,.09-.02,.13-.03,.47-.09,.96-.16,1.44-.15,.44,.02,.89,.07,1.31,.23,.2,.08,.38,.17,.55,.3,.09,.07,.18,.14,.26,.22,.05,.06,.1,.11,.15,.17,.15,.18,.28,.39,.36,.61,.04,.12,.09,.24,.12,.37,.02,.1,.04,.2,.04,.3,0,.22,0,.45-.05,.66-.04,.18-.1,.36-.17,.53-.21,.49-.49,.93-.76,1.38-.25,.4-.49,.81-.66,1.26,0-.02,.01-.04,.02-.06-.12,.34-.23,.68-.31,1.03-.07,.34-.13,.67-.17,1.01,0,0,0,0,0-.01-.03,.31-.04,.62-.03,.94,.01,.32,.04,.63,.09,.94,.04,.25,.1,.5,.18,.75,.08,.25,.18,.51,.28,.76,.12,.27,.26,.53,.42,.79,.15,.23,.31,.46,.49,.68-.01-.02-.03-.03-.04-.05,.21,.26,.44,.5,.68,.73,.24,.22,.5,.43,.76,.63,0,0,0,0,0,0h0s0,0,0,0c.03,.02,.07,.05,.1,.07-.4-.44-.74-.9-1.02-1.36-.26-.49-.46-.97-.6-1.47-.1-.43-.15-.84-.16-1.27,.01-.42,.07-.82,.16-1.19,.14-.47,.32-.89,.54-1.3,.29-.47,.59-.88,.91-1.21,.51-.48,1.1-.88,1.68-1.26,.68-.45,1.3-.86,1.82-1.39,.13-.13,.26-.26,.37-.4,.12-.15,.22-.33,.31-.51,.18-.32,.21-.68,.21-1.01,0-.37-.18-.72-.38-1.04-.08-.12-.19-.26-.33-.4-.17-.19-.38-.37-.62-.56-.56-.42-1.24-.67-2.04-.72,.7-.39,1.35-.86,1.99-1.41,1.46-1.22,2.32-2.5,2.58-3.8,.21-1.08-.08-2.26-.78-3.28-.03,.24-.08,.47-.16,.7"/>
      <path class="cls-6" d="M128.69,15.44c-.61,.06-1.21,.15-1.8,.29-.63,.14-1.24,.36-1.84,.61-.51,.21-1.02,.45-1.51,.71-.54,.29-1.05,.63-1.55,.99-1.93,1.41-3.59,3.18-4.92,5.17-.11,.17-.03,.41,.13,.51,.19,.11,.4,.03,.51-.14,.16-.24,.32-.47,.5-.7h0s0,0,.01,0c.01-.02,.02-.03,.03-.05,0,.01-.01,.02-.02,.03,.75-.95,1.61-1.8,2.58-2.53-.02,.01-.04,.03-.06,.04,.84-.62,1.75-1.13,2.71-1.54,0,0,0,0,0,0,.66-.27,1.32-.52,2-.69,.61-.16,1.23-.28,1.86-.37,.46-.06,.92-.1,1.38-.12,.29-.02,.56-.11,.77-.32,.21-.21,.33-.49,.33-.79,0-.29-.12-.57-.32-.77-.18-.19-.48-.35-.75-.33-.01,0-.02,0-.03,0m-1.11,2.29c-.07,.01-.15,.02-.22,.03,.07-.01,.14-.02,.22-.03m-3.94,1.03s-.03,.02-.05,.02c.02,0,.03-.01,.05-.02m-5.42,4.12s0,0,0,0c0,0,.01-.01,.02-.02,0,0,0,.01-.01,.02"/>
      <path class="cls-7" d="M130.99,57.55c-.25,.01-.51,.05-.76,.1-.26,.05-.51,.15-.75,.24-.33,.12-.57,.25-.82,.39-1,.55-1.76,1.23-2.26,2.02-.04,.07-.06,.14-.04,.22,.01,.08,.06,.14,.12,.18,.06,.04,.11,.05,.18,.05,.09,0,.17-.05,.23-.13,.08-.13,.18-.26,.28-.38,.18-.2,.38-.38,.65-.57,.29-.18,.61-.34,.94-.46,.31-.09,.61-.15,.95-.19-.03,.06-.02,.15,0,.21,.34,1.3,1.02,2.44,1.75,3.59,.67,1.06,1.33,2.01,2.03,2.89,1.42,1.8,3.13,3.49,5.23,5.19,1.99,1.6,4.07,2.85,6.18,3.71,1.49,.61,3.05,1.02,4.63,1.2,.85,.05,1.67,.07,2.45,.04,0,0,.05-.12,.05-.12-.97-.06-2-.22-3.04-.49-.93-.24-1.81-.55-2.62-.9-.5-.19-.98-.4-1.46-.62-2.03-1.01-3.95-2.3-5.7-3.82-1.98-1.75-3.82-3.88-5.45-6.32-.37-.57-.72-1.16-1.07-1.74-.35-.6-.74-1.29-1.02-2.04-.08-.25-.14-.5-.2-.75,.16,.07,.25,.07,.34,.07,.1,0,.19-.03,.28-.07,.19-.09,.33-.25,.4-.45,.07-.2,.05-.41-.04-.59-.12-.25-.36-.41-.66-.44-.25-.03-.5-.03-.75-.02"/>
      <path class="cls-6" d="M163.5,23.93h-.02c-1.65,.09-3.32,.68-4.84,1.7-1.41,.95-2.6,2.27-3.43,3.81-.69,1.3-1.07,2.76-1.07,4.22,0,1.49,.48,3.06,1.38,4.41,.44,.66,1.01,1.3,1.71,1.92,.8,.71,1.74,1.27,2.79,1.65,1.25,.45,2.59,.66,3.89,.59,.81-.04,1.61-.19,2.36-.44,.87,1.68,2.27,2.88,3.84,3.26,.33,.08,.69,.11,1.06,.09,.07,0,.15,0,.22-.02,.46-.05,.92-.2,1.4-.47,.35-.2,.71-.51,1.06-.94,.35-.43,.64-.95,.88-1.57,.31-.8,.47-1.7,.51-2.82,.03-.93-.06-1.92-.28-3.11-.42-2.2-1.19-4.36-2.3-6.42-.5-.94-1.07-1.78-1.68-2.51-.34-.4-.64-.71-.93-.98-.41-.38-.87-.69-1.27-.96-1.54-1.01-3.41-1.52-5.27-1.42"/>
      <path class="cls-5" d="M162.87,26.54h-.03c-.99,.06-2.05,.51-3.14,1.35-.49,.37-.92,.83-1.26,1.33-.07,.11-.13,.22-.19,.33-.11,.15-.22,.31-.31,.48-.22,.4-.31,.79-.29,1.19,.02,.46,.18,.87,.45,1.15,.28,.29,.65,.43,1.09,.41,.32-.02,.68-.12,1.06-.3,.41-.19,.79-.45,1.11-.68,.33-.23,.69-.52,1.07-.85,.71-.63,1.25-1.22,1.65-1.8,.27-.4,.67-1.18,.31-1.85-.32-.6-1-.78-1.53-.76"/>
      <path class="cls-1" d="M125.74,25.21c-.75,.04-1.53,.2-2.29,.47-1.74,.61-3.3,1.85-4.5,3.6-1.67,2.42-2.48,5.63-2.21,8.79,.15,1.68,.66,3.47,1.54,5.31,.74,1.72,1.72,3.23,2.89,4.49l.09,.1c.35,.35,.71,.68,1.07,1.01,.62,.52,1.3,.97,2.02,1.36,1.58,.85,3.38,1.24,5.2,1.15,1.46-.08,2.87-.48,4.1-1.15,1.27-.69,2.37-1.81,3.18-3.23,.7-1.23,1.15-2.73,1.34-4.47,.17-1.63,.09-3.33-.22-5.05-.32-1.75-.85-3.41-1.56-4.92-.73-1.57-1.64-2.97-2.7-4.14-.51-.56-1.06-1.04-1.62-1.44-.3-.21-.61-.41-.94-.6-.38-.21-.83-.41-1.34-.59-.55-.21-1.1-.37-1.65-.49-.5-.11-1.07-.17-1.73-.2-.22,0-.44,0-.66,0"/>
      <path class="cls-6" d="M129,25.61s0,0,0,0h0c-.23,.14-.46,.3-.68,.5-.29,.28-.55,.6-.8,.99-.35,.56-.64,1.21-.88,1.98-.38,1.23-.6,2.58-.67,4.11-.07,1.87,.11,3.76,.53,5.62,.39,1.64,.94,3.12,1.63,4.41,.5,.93,1.13,1.82,1.82,2.57,.59,.61,1.21,1.13,1.84,1.54,.68,.42,1.36,.73,2.06,.96,.59,.18,1.23,.31,1.9,.38,.43-.49,.81-1.02,1.12-1.57,.7-1.22,1.15-2.73,1.34-4.47,.16-1.63,.09-3.33-.22-5.05-.33-1.76-.86-3.42-1.56-4.93-.73-1.57-1.64-2.97-2.71-4.14-.5-.55-1.05-1.04-1.62-1.45-.3-.22-.62-.41-.94-.6-.4-.22-.85-.42-1.35-.59-.26-.1-.51-.18-.78-.26,0,0,0,0-.01,0"/>
      <path class="cls-1" d="M127.76,36.71c-.22,.01-.43,.04-.64,.07-.35,.05-.68,.13-.99,.23-.4,.12-.79,.33-1.14,.51-.3,.16-.59,.36-.87,.55-.2,.13-.32,.35-.34,.58-.2,.22-.82,1.02-.35,1.79,.42,.71,1.38,.74,2.06,.7l.23-.02c.94-.07,1.86-.41,2.64-.97,.52-.37,1.19-.99,1.35-1.78,.07-.35,0-.72-.19-1.01-.06-.09-.14-.18-.24-.27-.1-.11-.24-.19-.39-.23-.12-.05-.25-.09-.37-.12-.23-.05-.48-.07-.77-.05"/>
      <path class="cls-6" d="M88.79,22c-.37-.23-.8-.43-1.27-.6-.67-.25-1.45-.39-2.45-.45-.77-.04-1.58,0-2.47,.14-1.15,.06-2.39,.24-3.89,.57-2.14,.47-4.21,1.16-6.21,1.83-2.71,.9-5.54,1.7-8.4,2.39-4.38,1.05-8.74,1.78-12.04,2.3h.1c-.7,.1-1.39,.2-2.09,.31-2.01,.3-4.08,.62-6.11,1.02-2.72,.54-5.15,1.2-7.43,2.01-2.49,.89-4.81,2.01-6.87,3.31-2.22,1.4-4.25,3.11-6.03,5.07-1.72,1.9-3.14,4.04-4.21,6.35-1.03,2.24-1.7,4.63-2,7.1-.6,5.02,.4,10.35,2.82,15.01,1.13,2.18,2.64,4.15,4.46,5.86,1.03,.96,2.19,1.85,3.46,2.62,.75,.46,1.55,.89,2.37,1.27,4.06,1.88,8.91,2.71,14.02,2.4,2.39-.15,4.85-.55,7.31-1.22,2.35-.63,4.73-1.54,7.27-2.79,4.71-2.29,9.28-5.54,13.59-9.66,1.96-1.88,3.84-3.95,5.58-6.14,1.55-1.95,2.96-4.05,4.27-6.04,2.23-3.36,5.05-7.85,7.09-12.81,2.16-5.23,2.94-9.75,2.4-13.83-.32-2.4-1.11-4.15-2.4-5.36-.26-.24-.54-.45-.87-.65"/>
      <path class="cls-6" d="M87.76,21.49c-.59-.32-1.24-.53-1.9-.68-1.38-.3-2.82-.24-4.21-.03-2.76,.42-5.39,1.45-7.94,2.56-.17,.07-.3,.29-.34,.46-.05,.19-.02,.4,.08,.57,.1,.17,.27,.3,.46,.35,.21,.06,.38,0,.57-.08,.11-.05,.23-.1,.34-.15,0,0-.01,0-.02,0,2.32-.99,4.72-1.88,7.22-2.26,.97-.12,1.95-.17,2.92-.06,.58,.09,1.14,.22,1.68,.44,.44,.19,.84,.43,1.23,.72,.13,.11,.27,.23,.39,.35,.29,.28,.77,.29,1.06,0,.28-.28,.3-.78,0-1.06-.36-.35-.76-.65-1.19-.92-.12-.07-.23-.14-.35-.2m-5.75,.74s-.1,.01-.14,.02c.05,0,.1-.01,.14-.02"/>
      <path class="cls-6" d="M88.17,21.92c-.39-.21-.81-.35-1.24-.46-.4-.1-.81,.11-.93,.51-.11,.39,.11,.83,.51,.93,.26,.07,.51,.14,.76,.24,.23,.11,.44,.24,.65,.39,.02,.02,.04,.04,.06,.06,.16,.14,.31,.23,.53,.24,.19,0,.39-.07,.53-.2,.15-.14,.23-.33,.24-.53,0-.18-.06-.41-.2-.53-.24-.2-.47-.39-.73-.55-.06-.04-.12-.07-.19-.11"/>
      <path class="cls-6" d="M86.72,21.23c-.4-.11-.81,.12-.93,.51-.11,.39,.12,.82,.52,.93,.3,.09,.59,.18,.88,.3,.3,.15,.6,.31,.88,.5,.34,.23,.82,.09,1.03-.25,.22-.36,.09-.8-.25-1.03-.07-.05-.14-.09-.22-.14-.6-.36-1.24-.64-1.91-.82"/>
      <path class="cls-6" d="M86.81,21.18c-.4-.09-.81,.1-.93,.51-.11,.38,.12,.84,.51,.93,.21,.05,.4,.11,.6,.19,.26,.13,.51,.29,.74,.47,.15,.12,.39,.13,.57,.09,.19-.05,.36-.17,.46-.34,.1-.17,.14-.37,.09-.57-.05-.21-.18-.33-.34-.46-.13-.11-.27-.2-.42-.29-.4-.24-.84-.42-1.29-.53"/>
      <path class="cls-6" d="M86.89,21.12c-.39-.11-.82,.12-.93,.52-.11,.39,.12,.82,.51,.93,.2,.05,.39,.11,.57,.19,.34,.16,.65,.35,.95,.57,.33,.24,.83,.08,1.03-.25,.1-.17,.14-.37,.09-.57-.05-.21-.17-.34-.34-.46-.14-.11-.29-.2-.44-.29-.45-.28-.94-.49-1.45-.63"/>
      <path class="cls-6" d="M86.93,21.15c-.4-.1-.81,.11-.93,.51-.11,.39,.12,.83,.51,.93,.21,.06,.41,.12,.6,.2,.25,.12,.48,.26,.71,.43,.33,.24,.83,.08,1.03-.25,.1-.17,.13-.38,.09-.57-.05-.21-.17-.35-.33-.47-.1-.07-.21-.14-.31-.21-.43-.26-.88-.45-1.37-.58"/>
      <path class="cls-6" d="M87.33,21.25c-.39-.12-.82,.13-.93,.52-.11,.4,.13,.8,.51,.93,.12,.04,.23,.08,.34,.12,.24,.12,.46,.26,.67,.42,.15,.11,.39,.13,.57,.09,.19-.05,.36-.17,.46-.34,.1-.17,.14-.37,.09-.56-.05-.21-.17-.34-.34-.47-.11-.09-.23-.17-.36-.24-.32-.19-.65-.34-1.01-.46"/>
      <path class="cls-4" d="M87.33,21.23s-.07-.02-.1-.02l-.15-.05c-.38-.15-.79-.27-1.22-.36-1.23-.27-2.6-.28-4.21-.04-1.65,.25-3.34,.73-5.34,1.49-1.3,.38-2.61,.81-3.76,1.2-2.75,.91-5.59,1.72-8.45,2.41-4.44,1.06-8.77,1.79-12.05,2.3l.08,.03c-.7,.07-1.38,.17-2.07,.28l-.27,.04c-1.91,.29-3.89,.59-5.83,.98-2.7,.54-5.14,1.2-7.43,2.01-2.49,.9-4.8,2.01-6.88,3.32-2.22,1.41-4.26,3.11-6.04,5.07-1.72,1.91-3.14,4.05-4.21,6.35-1.03,2.26-1.7,4.65-2,7.11-.61,5.03,.39,10.36,2.82,15.02,1.11,2.14,2.58,4.08,4.37,5.78-.81-1.12-1.56-2.3-2.23-3.51-.5-.91-.96-1.85-1.35-2.81-.42-1.04-.76-2.12-1.04-3.21-.32-1.21-.57-2.44-.7-3.68-.12-1.18-.16-2.37-.06-3.55,.1-1.17,.31-2.33,.66-3.45,.36-1.16,.86-2.27,1.49-3.31,.69-1.13,1.51-2.19,2.41-3.16,.88-.96,1.83-1.85,2.84-2.66,4.18-3.34,9.21-5.46,14.33-6.89,1.29-.36,2.6-.68,3.9-.97,.67-.15,1.34-.28,2.01-.41,.64-.12,1.29-.23,1.94-.35,2.84-.52,5.67-1.13,8.45-1.91h0s0,0,0,0c0,0,0,0,0,0,0,0,0,0,0,0,0,0,0,0,.02,0,0,0-.01,0-.01,0,2.6-.75,5.16-1.64,7.62-2.75,.71-.32,1.41-.64,2.1-1,.65-.33,1.28-.68,1.91-1.04,1.31-.74,2.61-1.53,3.91-2.29,1.3-.77,2.61-1.52,3.97-2.18,1.15-.56,2.34-1.08,3.55-1.52,1.12-.4,2.27-.76,3.45-.97,.61-.12,1.22-.2,1.83-.23,.53-.03,1.06-.03,1.58,.02,.99,.09,1.98,.32,2.87,.74-.12-.14-.25-.27-.39-.4-.26-.25-.55-.46-.87-.66l-.11-.06c-.11-.09-.22-.16-.33-.23-.31-.19-.64-.34-1.02-.46"/>
      <path class="cls-3" d="M65.53,81.43c-4.16,.23-8.36,1.03-12.45,2.39-2.43,.8-4.78,1.8-6.98,2.97-2.39,1.11-4.67,2.41-6.78,3.88-3.21,2.23-5.78,4.69-7.61,7.31-.99,1.39-1.76,2.82-2.29,4.25-.57,1.53-.89,3.08-.95,4.61-.05,1.43,.2,2.94,.77,4.48,.5,1.41,1.28,2.75,2.3,3.99,1.23,1.47,3.89,3.95,7.9,4.12,.11,0,.23,0,.35,0,1.32,0,2.71-.29,4-.84,.18-.07,.36-.16,.53-.24,.12-.06,.25-.12,.38-.19,.84-.02,1.75-.2,2.71-.51,.2-.07,.41-.14,.6-.23,.41-.17,.82-.38,1.34-.67,.54-.31,1.07-.72,1.64-1.24,.94-.88,1.56-1.98,1.72-3.03,.08-.58,.02-1.18-.2-1.77-.09-.24-.19-.46-.32-.66,.62-.85,1.21-1.53,1.84-2.14,.01-.02,.03-.05,.05-.07,.24-.23,.5-.45,.76-.65,.15-.13,.3-.25,.45-.37,.37-.29,.76-.56,1.16-.8,.46-.27,.92-.51,1.41-.7,.16-.07,.33-.13,.5-.19,.13-.05,.26-.1,.4-.14,.17-.07,.33-.13,.5-.2,2.23-.84,4.59-1.3,6.96-1.56,2.47-.27,4.95-.34,7.43-.34h.34c.11,0,.22,0,.33,0l1.59-.03c1.91-.1,3.48-.23,4.93-.4,2.61-.32,4.93-.81,7.12-1.52,2.4-.77,4.15-1.67,5.49-2.84,1.09-.94,1.79-2.15,1.96-3.39,.09-.71,.04-1.4-.15-2.06-.09-.31-.21-.6-.36-.89,.21,.18,.44,.34,.66,.52,.09,.07,.22,.11,.37,.11,.07,0,.15,0,.21-.03,.18-.05,.35-.18,.45-.35,.1-.18,.13-.39,.07-.59-.06-.22-.2-.34-.34-.45-4.43-3.36-9.35-5.9-14.64-7.54-4.37-1.36-8.96-2.05-13.63-2.05-.85,0-1.7,.02-2.55,.07"/>
      <path class="cls-2" d="M61.51,101.42s.03,0,.04-.01c-1.33,.29-2.65,.66-3.93,1.12-1.25,.45-2.46,.98-3.63,1.59,0,0,.01,0,.03-.01-.59,.32-1.16,.67-1.69,1.07-.52,.39-1.02,.82-1.51,1.27,.02-.01,.03-.03,.05-.04-.12,.11-.23,.22-.35,.33-1.51,1.46-2.87,3.06-4.27,4.61-.71,.78-1.42,1.55-2.17,2.28-.71,.68-1.44,1.35-2.24,1.93-.75,.55-1.54,1.05-2.39,1.42-.83,.36-1.71,.61-2.6,.69-1.05,.09-2.1-.01-3.12-.3,1.42,1.04,3.34,1.97,5.73,2.07,.11,0,.23,0,.35,0,1.32,0,2.71-.29,4-.84,.18-.07,.36-.16,.53-.24,.12-.06,.25-.12,.38-.19,.82-.01,1.74-.19,2.71-.52,.2-.07,.41-.14,.6-.23,.41-.17,.83-.38,1.34-.68,.53-.3,1.07-.7,1.65-1.24,.93-.88,1.56-1.99,1.72-3.05,.09-.59,.02-1.19-.2-1.78-.09-.25-.2-.48-.32-.66,.61-.82,1.19-1.49,1.81-2.09,0-.04,.03-.09,.07-.12,.23-.22,.47-.43,.73-.62,.16-.14,.32-.27,.48-.4,.37-.29,.76-.56,1.16-.8,.07-.04,.15-.08,.22-.12h-.02s.04-.01,.04-.01c.38-.21,.77-.41,1.17-.56,.2-.08,.39-.15,.59-.22,.09-.03,.18-.06,.27-.09,.17-.07,.36-.14,.54-.21,2.23-.84,4.59-1.3,6.96-1.56,2.46-.27,4.94-.34,7.43-.34h.35c.11,0,.22,0,.33,0,.76-.02,1.52-.03,2.28-.05,1.59-.09,2.96-.21,4.25-.36,2.58-.32,4.89-.81,7.05-1.5-1.14,.14-2.3,.2-3.44,.21-1.81,.01-3.61-.09-5.41-.22-1.67-.12-3.33-.27-5-.36h0c-1.06-.05-2.12-.08-3.18-.08-3.14,0-6.29,.25-9.36,.91m0,0s-.02,0-.02,0c0,0,.02,0,.02,0m-7.46,2.66s-.02,.02-.03,.02c.01,0,.02-.01,.03-.02"/>
      <path class="cls-2" d="M32.4,106.42c-.52,.49-1.04,.98-1.52,1.52-.23,.26-.46,.53-.68,.8-.23,.3-.44,.62-.65,.94-.2,.32-.38,.65-.53,.99,.05,.17,.11,.33,.16,.5,0-.02-.01-.04-.02-.06,.12,.34,.25,.67,.39,.99,.06-.3,.13-.59,.21-.88,.12-.37,.27-.73,.43-1.08,.16-.35,.35-.68,.56-1,0,0,0-.02,.01-.02,0,0,0,0,0,0,0,0,0,0,0,0,.58-.87,1.26-1.65,2.02-2.37,.1-.09,.07-.27-.03-.35-.05-.04-.1-.06-.15-.06-.07,0-.14,.03-.2,.09"/>
      <path class="cls-2" d="M30.76,109.12s0,0,0,.02c0,0,0-.01,0-.02"/>
      <path class="cls-2" d="M37.41,110.82c-.53,.51-1.05,1.03-1.52,1.6-.48,.57-.91,1.17-1.3,1.8-.37,.6-.68,1.24-.93,1.9-.12,.31-.22,.63-.31,.95,.17,.11,.33,.23,.5,.34,.18,.12,.35,.24,.53,.37,.04-.2,.08-.39,.12-.59,.09-.47,.22-.92,.36-1.38,.15-.48,.34-.93,.54-1.39,.21-.46,.45-.89,.72-1.31,.48-.72,1.05-1.38,1.68-1.98,.1-.09,.07-.27-.03-.36-.05-.04-.1-.06-.16-.06-.07,0-.14,.03-.2,.09m-2.52,4.9s-.01,.03-.02,.05c0-.02,.01-.03,.02-.05"/>
    </g>
  </g>
</svg>